<svg width="26" height="25" xmlns="http://www.w3.org/2000/svg"><g transform="translate(0 4)" stroke="#00aeef" fill="none" fill-rule="evenodd" stroke-linejoin="round"><path d="M3.868.868A11.464 11.464 0 0 0 .5 9c0 3.176 1.287 6.051 3.368 8.133M6.696 3.697A7.484 7.484 0 0 0 4.5 9c0 2.071.84 3.945 2.196 5.304m2.829-7.779A3.49 3.49 0 0 0 8.5 9a3.49 3.49 0 0 0 1.025 2.475M20.132.868A11.464 11.464 0 0 1 23.5 9c0 3.176-1.287 6.051-3.368 8.133M17.304 3.697A7.484 7.484 0 0 1 19.5 9c0 2.071-.84 3.945-2.196 5.304m-2.829-7.779A3.49 3.49 0 0 1 15.5 9a3.49 3.49 0 0 1-1.025 2.475" stroke-linecap="round"/><circle cx="12" cy="9" r="1"/></g></svg>