<svg width="26" height="25" xmlns="http://www.w3.org/2000/svg" xmlns:xlink="http://www.w3.org/1999/xlink"><defs><circle id="a" cx="5.5" cy="5.5" r="5.5"/></defs><g fill="none" fill-rule="evenodd"><g stroke="#9A9A9A" stroke-linejoin="round"><path stroke-linecap="round" d="M4.974.64l5.657 5.657-2.829 2.828L2.146 3.47zm15.558 21.213l-5.658-5.656 2.828-2.83 5.658 5.658zm-2.83-15.556a2.998 2.998 0 0 0-4.242 0l-5.657 5.658 4.242 4.242 5.657-5.658a3 3 0 0 0 0-4.242z"/><path d="M9.924 14.075a4 4 0 0 0-5.656 0l5.656 5.657a4 4 0 0 0 0-5.657zm-8.399 3.45a3.499 3.499 0 1 0 4.949 4.949m-3.06-3.949a1.5 1.5 0 1 0 2.121 2.121M9.217 7.711l1.415 1.414m4.241 4.244l1.414 1.414m1.415-8.486l1.77-1.769" stroke-linecap="round"/><path d="M20.324 4.176a.5.5 0 1 1-1 0 .5.5 0 0 1 1 0z"/></g><g transform="translate(15 12)"><use fill="#FFF" xlink:href="#a"/><circle stroke="#FFF" stroke-width="2" cx="5.5" cy="5.5" r="6.5"/><circle stroke="#979797" stroke-linejoin="square" cx="5.5" cy="5.5" r="5"/></g><path fill="#979797" d="M20 15h1v5h-1z"/><path fill="#979797" d="M18 17h5v1h-5z"/></g></svg>