<svg width="26" height="25" xmlns="http://www.w3.org/2000/svg"><g fill="#9A9A9A" fill-rule="evenodd"><path d="M16.278 0H5.722a1.843 1.843 0 0 0-1.846 1.835v21.33c0 1.011.829 1.835 1.846 1.835h10.555a1.843 1.843 0 0 0 1.847-1.835V1.835A1.843 1.843 0 0 0 16.278 0zM4.714 3.333h12.572v15.834H4.714V3.333zm1.008-2.5h10.555c.557 0 1.009.45 1.009 1.002V2.5H4.714v-.665c0-.552.452-1.002 1.008-1.002zm10.556 23.334H5.722c-.556 0-1.008-.45-1.008-1.002V20h12.572v3.165c0 .552-.452 1.002-1.008 1.002z"/><path d="M11 20.417c-.924 0-1.676.747-1.676 1.666 0 .92.752 1.667 1.676 1.667.924 0 1.676-.747 1.676-1.667 0-.919-.752-1.666-1.676-1.666zm0 2.5a.837.837 0 0 1-.838-.834c0-.46.376-.833.838-.833.462 0 .838.374.838.833 0 .46-.376.834-.838.834zM9.324 2.083H11a.417.417 0 1 0 0-.833H9.324a.417.417 0 1 0 0 .833zm2.933 0h.42a.417.417 0 1 0 0-.833h-.42a.417.417 0 1 0 0 .833z"/></g></svg>