<svg width="134" height="152" viewBox="0 0 134 152" fill="none" xmlns="http://www.w3.org/2000/svg">
<g opacity="0.3">
<path d="M131.664 25.2344H121.273V14.8438C121.273 13.6138 120.277 12.6172 119.047 12.6172H108.656V2.22656C108.656 0.996609 107.659 0 106.43 0H14.1016C12.8719 0 11.875 0.996609 11.875 2.22656V102.125H2.22656C0.996906 102.125 0 103.122 0 104.352V109.695C0 119.108 7.65759 126.766 17.0703 126.766H24.4922V137.156C24.4922 138.386 25.4891 139.383 26.7188 139.383H37.1094V149.773C37.1094 151.003 38.1063 152 39.3359 152H84.0156C85.2453 152 86.2422 151.003 86.2422 149.773C86.2422 148.543 85.2453 147.547 84.0156 147.547H41.5625V139.383H119.047C120.277 139.383 121.273 138.386 121.273 137.156V102.125C121.273 100.895 120.277 99.8984 119.047 99.8984C117.817 99.8984 116.82 100.895 116.82 102.125V134.93H28.9453V126.766H106.43C107.659 126.766 108.656 125.769 108.656 124.539V17.0703H116.82V92.0312C116.82 93.2612 117.817 94.2578 119.047 94.2578C120.277 94.2578 121.273 93.2612 121.273 92.0312V29.6875H129.438V147.547H94.1094C92.8797 147.547 91.8828 148.543 91.8828 149.773C91.8828 151.003 92.8797 152 94.1094 152H131.664C132.894 152 133.891 151.003 133.891 149.773V27.4609C133.891 26.231 132.894 25.2344 131.664 25.2344ZM104.203 122.312H91.8828C84.9255 122.312 79.2656 116.653 79.2656 109.695V104.352C79.2656 103.122 78.2687 102.125 77.0391 102.125H61.6016C60.3719 102.125 59.375 103.122 59.375 104.352C59.375 105.582 60.3719 106.578 61.6016 106.578H74.8125V109.695C74.8125 114.689 76.9681 119.188 80.397 122.312H17.0703C10.113 122.312 4.45312 116.653 4.45312 109.695V106.578H51.2109C52.4406 106.578 53.4375 105.582 53.4375 104.352C53.4375 103.122 52.4406 102.125 51.2109 102.125H16.3281V4.45312H104.203V122.312Z" fill="#009FE3"/>
<path d="M24.4922 47.5H52.9922C54.2218 47.5 55.2188 46.5034 55.2188 45.2734V16.7734C55.2188 15.5435 54.2218 14.5469 52.9922 14.5469H24.4922C23.2625 14.5469 22.2656 15.5435 22.2656 16.7734V45.2734C22.2656 46.5034 23.2625 47.5 24.4922 47.5ZM26.7188 19H50.7656V43.0469H26.7188V19Z" fill="#009FE3"/>
<path d="M96.0391 39.1875H63.3828C62.1532 39.1875 61.1562 40.1841 61.1562 41.4141C61.1562 42.644 62.1532 43.6406 63.3828 43.6406H96.0391C97.2687 43.6406 98.2656 42.644 98.2656 41.4141C98.2656 40.1841 97.2687 39.1875 96.0391 39.1875Z" fill="#009FE3"/>
<path d="M41.5625 61.6016C41.5625 62.8315 42.5594 63.8281 43.7891 63.8281H76.7422C77.9718 63.8281 78.9688 62.8315 78.9688 61.6016C78.9688 60.3716 77.9718 59.375 76.7422 59.375H43.7891C42.5594 59.375 41.5625 60.3716 41.5625 61.6016Z" fill="#009FE3"/>
<path d="M96.0391 28.7969H63.3828C62.1532 28.7969 61.1562 29.7935 61.1562 31.0234C61.1562 32.2534 62.1532 33.25 63.3828 33.25H96.0391C97.2687 33.25 98.2656 32.2534 98.2656 31.0234C98.2656 29.7935 97.2687 28.7969 96.0391 28.7969Z" fill="#009FE3"/>
<path d="M96.0391 18.4062H63.3828C62.1532 18.4062 61.1562 19.4029 61.1562 20.6328C61.1562 21.8628 62.1532 22.8594 63.3828 22.8594H96.0391C97.2687 22.8594 98.2656 21.8628 98.2656 20.6328C98.2656 19.4029 97.2687 18.4062 96.0391 18.4062Z" fill="#009FE3"/>
<path d="M96.0391 85.7969H24.4922C23.2625 85.7969 22.2656 86.7935 22.2656 88.0234C22.2656 89.2534 23.2625 90.25 24.4922 90.25H96.0391C97.2687 90.25 98.2656 89.2534 98.2656 88.0234C98.2656 86.7935 97.2687 85.7969 96.0391 85.7969Z" fill="#009FE3"/>
<path d="M96.0391 72.4375H57.1484C55.9188 72.4375 54.9219 73.4341 54.9219 74.6641C54.9219 75.894 55.9188 76.8906 57.1484 76.8906H96.0391C97.2687 76.8906 98.2656 75.894 98.2656 74.6641C98.2656 73.4341 97.2687 72.4375 96.0391 72.4375Z" fill="#009FE3"/>
<path d="M24.3438 76.8906H46.7578C47.9875 76.8906 48.9844 75.894 48.9844 74.6641C48.9844 73.4341 47.9875 72.4375 46.7578 72.4375H24.3438C23.1141 72.4375 22.1172 73.4341 22.1172 74.6641C22.1172 75.894 23.1141 76.8906 24.3438 76.8906Z" fill="#009FE3"/>
</g>
</svg>
