<svg width="163" height="124" viewBox="0 0 163 124" fill="none" xmlns="http://www.w3.org/2000/svg">
<g opacity="0.6">
<path d="M154.152 0H25.6153C20.8575 0 16.9868 3.87454 16.9868 8.63675V16.656H8.87645C4.11361 16.656 0.239075 20.5264 0.239075 25.2842V89.8839C0.239075 94.6461 4.11361 98.5206 8.87645 98.5206H14.539V120.325C14.539 121.53 15.2207 122.631 16.2992 123.167C16.7471 123.39 17.2316 123.5 17.7135 123.5C18.392 123.5 19.066 123.283 19.6276 122.858L51.8414 98.5206H133.23L143.401 106.203C143.963 106.627 144.637 106.844 145.315 106.844C145.797 106.844 146.281 106.734 146.729 106.512C147.808 105.975 148.489 104.874 148.489 103.67V81.8646H154.152C158.914 81.8646 162.789 77.9901 162.789 73.2276V8.63675C162.789 3.87454 158.914 0 154.152 0ZM156.44 73.2272C156.44 74.467 155.392 75.5147 154.152 75.5147H145.314C143.561 75.5147 142.14 76.9364 142.14 78.6895V97.2926L114.156 76.1563C113.604 75.7398 112.932 75.5147 112.242 75.5147H76.0471C74.294 75.5147 72.8723 76.9364 72.8723 78.6895C72.8723 80.4426 74.294 81.8643 76.0471 81.8643H111.178L124.823 92.1707H50.7769C50.0861 92.1707 49.4143 92.3961 48.8632 92.8123L20.8887 113.947V95.3452C20.8887 93.592 19.467 92.1704 17.7138 92.1704H8.87645C7.61479 92.1704 6.58869 91.1446 6.58869 89.8832V25.2842C6.58869 24.0488 7.63637 23.0056 8.87645 23.0056H16.9868V73.2272C16.9868 77.9898 20.8572 81.8643 25.6153 81.8643H47.5377C49.2908 81.8643 50.7125 80.4426 50.7125 78.6895C50.7125 76.9364 49.2908 75.5147 47.5377 75.5147H25.6153C24.38 75.5147 23.3364 74.467 23.3364 73.2272V8.63675C23.3364 7.39698 24.38 6.34961 25.6153 6.34961H154.152C155.413 6.34961 156.44 7.3754 156.44 8.63675V73.2272Z" fill="#009FE3"/>
<path d="M94.7385 44.56C94.7086 44.4806 94.6759 44.4029 94.64 44.3263L84.8312 21.0629C84.8093 21.0109 84.7873 20.9655 84.7654 20.9255C84.4422 20.2505 83.8835 19.6851 83.1396 19.3711C81.5255 18.6898 79.6623 19.4463 78.9803 21.0623L69.126 44.4197C69.1206 44.4327 69.1152 44.4454 69.1095 44.4584L63.6542 57.3888C62.9729 59.0041 63.7298 60.8661 65.3455 61.5481C65.7483 61.7179 66.1665 61.7986 66.5782 61.7986C67.8161 61.7986 68.993 61.0693 69.5048 59.8569L74.1489 48.8492H89.6556L94.2965 59.8562C94.808 61.0693 95.9849 61.7986 97.2234 61.7986C97.6348 61.7986 98.0526 61.7179 98.4555 61.5484C100.072 60.8671 100.829 59.0051 100.148 57.3894L94.7385 44.56ZM76.8281 42.4996L81.9049 30.4661L86.9786 42.4996H76.8281Z" fill="#009FE3"/>
<path d="M138.509 51.2687C140.996 47.6383 142.479 43.1009 142.479 38.1802C142.479 26.3115 133.862 16.656 123.271 16.656C112.676 16.656 104.055 26.3115 104.055 38.1802C104.055 50.0543 112.676 59.7146 123.271 59.7146C127.314 59.7146 131.067 58.3037 134.165 55.9026L140.128 61.8211C140.747 62.4358 141.556 62.7425 142.365 62.7425C143.181 62.7425 143.998 62.4294 144.618 61.804C145.854 60.5595 145.846 58.5495 144.601 57.3142L138.509 51.2687ZM133.908 46.7017L128.387 41.2223C127.142 39.9873 125.132 39.9946 123.897 41.2395C122.662 42.484 122.669 44.494 123.914 45.7293L129.611 51.3833C127.738 52.6421 125.575 53.3653 123.271 53.3653C116.176 53.3653 110.405 46.5535 110.405 38.1806C110.405 29.8133 116.177 23.0059 123.271 23.0059C130.361 23.0059 136.129 29.813 136.129 38.1806C136.129 41.3363 135.309 44.2705 133.908 46.7017Z" fill="#009FE3"/>
<path d="M62.0964 38.9346C62.0964 37.1814 60.6747 35.7598 58.9216 35.7598H41.7306V25.4715H58.9213C60.6744 25.4715 62.0961 24.0498 62.0961 22.2967C62.0961 20.5435 60.6744 19.1219 58.9213 19.1219H38.5558C36.8027 19.1219 35.381 20.5435 35.381 22.2967V59.568C35.381 61.3211 36.8027 62.7428 38.5558 62.7428C40.309 62.7428 41.7306 61.3211 41.7306 59.568V42.1094H58.9213C60.6747 42.1094 62.0964 40.6877 62.0964 38.9346Z" fill="#009FE3"/>
<path d="M61.7922 75.5147C60.0391 75.5147 58.6174 76.9364 58.6174 78.6895C58.6174 80.4426 60.0391 81.8643 61.7922 81.8643H61.8011C63.5542 81.8643 64.9712 80.4426 64.9712 78.6895C64.9712 76.9364 63.5454 75.5147 61.7922 75.5147Z" fill="#009FE3"/>
</g>
</svg>
