<svg width="139" height="138" viewBox="0 0 139 138" fill="none" xmlns="http://www.w3.org/2000/svg">
<g opacity="0.3">
<path d="M78.4499 65.4449C78.8569 66.2408 79.6666 66.7007 80.5038 66.7007C80.8534 66.7007 81.2121 66.6201 81.5458 66.45C81.6814 66.381 95.2197 59.5038 101.897 57.3946C103.107 57.0105 103.778 55.7178 103.394 54.5081C103.012 53.2982 101.729 52.6243 100.508 53.0063C93.4739 55.2305 80.0278 62.0617 79.4574 62.3514C78.3257 62.9263 77.875 64.3112 78.4499 65.4449Z" fill="#009FE3"/>
<path d="M80.5038 39.1021C80.8534 39.1021 81.2121 39.0215 81.5458 38.8514C81.6814 38.7824 95.2197 31.9052 101.897 29.796C103.107 29.412 103.778 28.1193 103.394 26.9096C103.012 25.6996 101.729 25.0258 100.508 25.4077C93.4739 27.6319 80.0278 34.4631 79.4574 34.7528C78.3259 35.3278 77.875 36.7124 78.4499 37.8463C78.8569 38.642 79.6666 39.1021 80.5038 39.1021Z" fill="#009FE3"/>
<path d="M135.703 34.5008C134.431 34.5008 133.403 35.5312 133.403 36.8006V126.5C133.403 130.304 130.307 133.4 126.503 133.4H71.3019V128.107C74.6555 126.935 83.3909 124.2 92.0024 124.2C112.038 124.2 125.643 128.637 125.779 128.682C126.471 128.912 127.244 128.797 127.849 128.365C128.449 127.933 128.803 127.238 128.803 126.499V25.3009C128.803 24.2223 128.056 23.2884 127.002 23.056C127.002 23.056 125.199 22.6536 122.117 22.0876C120.872 21.8577 119.67 22.6857 119.439 23.9323C119.209 25.1834 120.035 26.3817 121.284 26.6117C122.46 26.8278 123.444 27.0186 124.203 27.1707V123.443C118.991 122.077 107.417 119.6 92.0021 119.6C81.9807 119.6 72.1366 122.891 69.0911 124.007C66.3839 122.811 58.2005 119.6 48.3009 119.6C32.458 119.6 19.4075 122.213 13.8001 123.54V27.0809C18.3932 25.9516 31.9591 23.0008 48.3009 23.0008C56.687 23.0008 63.8791 25.6112 66.7014 26.7912V117.3C66.7014 118.128 67.1475 118.894 67.8674 119.301C68.5874 119.71 69.4752 119.699 70.186 119.271C70.4137 119.135 93.2026 105.524 113.429 98.7828C114.37 98.4677 115.003 97.5915 115.003 96.6001V2.30098C115.003 1.54657 114.632 0.840407 114.011 0.410509C113.395 -0.0196583 112.604 -0.118575 111.893 0.146102C93.4902 7.04819 74.8692 18.6355 74.6827 18.7506C73.6061 19.4244 73.2773 20.8435 73.9512 21.92C74.6228 22.9965 76.042 23.3253 77.1207 22.6515C77.2907 22.5434 93.4902 12.4649 110.402 5.66389V94.9536C94.7021 100.409 78.3096 109.317 71.3013 113.305V25.3009C71.3013 24.4293 70.8092 23.6334 70.0294 23.2425C69.6337 23.0471 60.2082 18.401 48.3009 18.401C27.5176 18.401 11.5392 22.8975 10.8675 23.0905C9.88071 23.3711 9.19986 24.2751 9.19986 25.3009V126.5C9.19986 127.22 9.54029 127.901 10.1131 128.336C10.5179 128.641 11.0055 128.8 11.5001 128.8C11.7117 128.8 11.9233 128.77 12.1303 128.71C12.289 128.667 28.1939 124.2 48.3009 124.2C56.7099 124.2 63.8952 126.818 66.7014 127.993V133.4H11.5001C7.69584 133.4 4.59993 130.304 4.59993 126.5V36.8009C4.59993 35.5314 3.56949 34.501 2.29996 34.501C1.03044 34.501 0 35.5314 0 36.8009V126.5C0 132.841 5.15895 138 11.5004 138H126.503C132.844 138 138.004 132.841 138.004 126.5V36.8009C138.003 35.5312 136.975 34.5008 135.703 34.5008Z" fill="#009FE3"/>
<path d="M78.4499 51.6451C78.8569 52.441 79.6666 52.9008 80.5038 52.9008C80.8534 52.9008 81.2121 52.8203 81.5458 52.6502C81.6814 52.5812 95.2197 45.7039 101.897 43.5948C103.107 43.2107 103.778 41.918 103.394 40.7083C103.012 39.4984 101.729 38.8245 100.508 39.2064C93.4739 41.4307 80.0278 48.2618 79.4574 48.5516C78.3257 49.1265 77.875 50.5114 78.4499 51.6451Z" fill="#009FE3"/>
<path d="M78.4499 79.2448C78.8569 80.0408 79.6666 80.5006 80.5038 80.5006C80.8534 80.5006 81.2121 80.42 81.5458 80.2499C81.6814 80.1809 95.2197 73.3037 101.897 71.1946C103.107 70.8105 103.778 69.5178 103.394 68.3081C103.012 67.0981 101.729 66.4243 100.508 66.8062C93.4739 69.0304 80.0278 75.8616 79.4574 76.1513C78.3257 76.7263 77.875 78.1111 78.4499 79.2448Z" fill="#009FE3"/>
<path d="M55.7254 42.6842C41.5227 39.3514 25.3831 43.5974 24.7046 43.7791C23.4788 44.1079 22.7497 45.3683 23.0785 46.5966C23.3545 47.6246 24.2836 48.3008 25.2982 48.3008C25.496 48.3008 25.696 48.2755 25.8963 48.2227C26.0504 48.179 41.5895 44.0917 54.6769 47.1623C55.9074 47.4499 57.1518 46.6839 57.4416 45.4464C57.7311 44.2114 56.9629 42.974 55.7254 42.6842Z" fill="#009FE3"/>
<path d="M55.7254 56.4841C41.5227 53.1537 25.3831 57.3973 24.7046 57.579C23.4788 57.9078 22.7497 59.1684 23.0785 60.3964C23.3545 61.4244 24.2836 62.1007 25.2982 62.1007C25.496 62.1007 25.696 62.0754 25.8963 62.0226C26.0504 61.9789 41.5895 57.8916 54.6769 60.9622C55.9074 61.2498 57.1518 60.4838 57.4416 59.2463C57.7311 58.0113 56.9629 56.7738 55.7254 56.4841Z" fill="#009FE3"/>
<path d="M78.4499 93.0447C78.8569 93.8407 79.6666 94.3005 80.5038 94.3005C80.8534 94.3005 81.2121 94.2199 81.5458 94.0498C81.6814 93.9808 95.2197 87.1036 101.897 84.9945C103.107 84.6104 103.778 83.3177 103.394 82.108C103.012 80.8983 101.729 80.2242 100.508 80.6061C93.4739 82.8303 80.0278 89.6615 79.4574 89.9513C78.3257 90.5262 77.875 91.9111 78.4499 93.0447Z" fill="#009FE3"/>
<path d="M55.7254 70.2839C41.5227 66.9535 25.3831 71.1947 24.7046 71.3788C23.4788 71.7076 22.7497 72.9683 23.0785 74.1963C23.3545 75.2243 24.2836 75.903 25.2982 75.903C25.496 75.903 25.696 75.8755 25.8963 75.8224C26.0504 75.7787 41.5895 71.6915 54.6769 74.762C55.9074 75.0496 57.1518 74.2836 57.4416 73.0462C57.7311 71.8111 56.9629 70.5737 55.7254 70.2839Z" fill="#009FE3"/>
<path d="M55.7254 97.8837C41.5227 94.5509 25.3831 98.7969 24.7046 98.9786C23.4788 99.3074 22.7497 100.568 23.0785 101.796C23.3545 102.824 24.2836 103.503 25.2982 103.503C25.496 103.503 25.696 103.475 25.8963 103.422C26.0504 103.379 41.5895 99.2912 54.6769 102.362C55.9074 102.647 57.1518 101.883 57.4416 100.646C57.7311 99.4109 56.9629 98.1735 55.7254 97.8837Z" fill="#009FE3"/>
<path d="M55.7254 84.0838C41.5227 80.751 25.3831 84.9946 24.7046 85.1787C23.4788 85.5075 22.7497 86.7681 23.0785 87.9962C23.3545 89.0242 24.2836 89.7029 25.2982 89.7029C25.496 89.7029 25.696 89.6754 25.8963 89.6223C26.0504 89.5786 41.5895 85.4913 54.6769 88.5619C55.9074 88.8495 57.1518 88.0835 57.4416 86.846C57.7311 85.611 56.9629 84.3736 55.7254 84.0838Z" fill="#009FE3"/>
</g>
</svg>
