<svg width="170" height="158" viewBox="0 0 170 158" fill="none" xmlns="http://www.w3.org/2000/svg">
<path fill-rule="evenodd" clip-rule="evenodd" d="M158.326 95.9106H163.91V11.6717C163.91 8.62696 161.373 6.08961 158.328 6.08961H11.1642C8.11946 6.08961 5.58197 8.62696 5.58197 11.6717V95.9106H10.6542V14.2087C10.6542 12.6863 11.6694 11.1639 13.6992 11.1639H155.281C156.803 11.1639 158.326 12.1789 158.326 14.2087V95.9106ZM152.236 95.9106V17.2535H16.7439V95.9106H152.236ZM0 98.9552V11.1642C0 5.07469 5.07469 0 11.1642 0H158.328C164.418 0 169.493 5.07469 169.493 11.1642V97.1773C169.808 97.6421 170 98.2347 170 98.9552V113.164C169.493 119.254 164.418 124.328 158.328 124.328H102.089C102.765 135.493 107.341 141.075 116.21 141.075L116.225 141.075H121.795C126.362 141.075 130.422 145.135 130.422 149.702C130.422 154.269 126.362 158.329 121.795 158.329H48.2126C43.6455 158.329 39.5857 154.269 39.5857 149.702C39.5857 145.135 43.6455 141.075 48.2126 141.075H53.2653L53.2846 141.075C61.687 141.075 66.6542 135.493 67.3963 124.328H11.1642C5.07469 124.328 0 119.254 0 113.164V98.9552ZM100.717 118.746C100.199 118.408 99.5777 118.239 98.9562 118.239H70.5385C69.8179 118.239 69.2253 118.431 68.7605 118.746H11.1642C8.11946 118.746 5.58197 116.209 5.58197 113.164V102H163.91V113.164C163.91 116.209 161.373 118.746 158.328 118.746H100.717ZM101.571 141.075H67.9231C71.2089 137.062 73.0758 131.649 73.0758 124.836H95.9116C96.3982 131.649 98.2846 137.062 101.571 141.075ZM93.3746 113.164H76.1208C74.5984 113.164 73.0761 112.149 73.0761 110.119C73.0761 108.089 74.0909 107.074 76.1208 107.074H92.867C94.3894 107.074 95.9119 108.089 95.9119 110.119C95.9119 112.149 94.897 113.164 93.3746 113.164ZM48.2126 147.164C46.6902 147.164 45.168 148.687 45.168 150.209C45.168 151.732 46.1828 153.254 48.2126 153.254H121.795C123.317 153.254 124.839 151.732 124.839 150.209C124.839 148.687 123.825 147.164 121.795 147.164H48.2126ZM55.8183 71.5523C63.4302 79.6717 73.072 84.7464 83.7287 84.7464C94.8929 84.7464 105.55 80.1792 113.669 71.5523L126.356 56.8359L113.669 42.627C106.057 33.4927 95.4004 28.418 84.7437 28.418C74.087 28.418 63.4302 33.4927 55.8183 42.627L43.1317 56.8359L55.8183 71.5523ZM84.7437 90.3285H84.2361C72.0569 90.3285 60.3854 84.7464 52.266 75.1046L38.0571 58.3582C37.0422 57.3433 37.0422 55.821 38.0571 54.8061L52.266 39.0747C60.8928 28.418 72.5645 22.8359 85.251 22.8359C97.9376 22.8359 109.609 28.418 118.236 39.0747L132.445 54.8061C133.46 55.821 133.46 57.3433 132.445 58.3582L118.236 75.1046C108.594 85.2539 96.9228 90.3285 84.7437 90.3285ZM73.5847 56.3284C73.5847 50.2388 78.6594 45.1643 84.749 45.1643C90.8385 45.1643 95.9132 50.2388 95.9132 56.3284C95.9132 62.4179 90.8385 67.4926 84.749 67.4926C78.6594 67.4926 73.5847 62.4179 73.5847 56.3284ZM68.0028 56.8359C68.0028 65.9702 75.6146 73.5821 84.749 73.5821C94.3908 73.5821 102.003 65.9702 101.495 56.8359C101.495 47.7015 93.8833 40.0897 84.749 40.0897C75.6146 40.0897 68.0028 47.7015 68.0028 56.8359Z" fill="#404040" fill-opacity="0.1"/>
</svg>
