<svg width="141" height="136" viewBox="0 0 141 136" fill="none" xmlns="http://www.w3.org/2000/svg">
<path d="M125.622 99.7074C124.794 99.2938 123.967 99.2938 123.14 99.2938C117.35 99.7074 112.387 104.257 111.147 110.047C110.319 113.355 110.319 116.664 111.56 119.972C112.801 122.867 115.282 125.349 118.177 126.176L128.103 129.071C119.004 134.447 107.011 131.552 101.635 122.454C99.1532 118.318 98.326 112.942 99.5667 108.392C99.5667 107.565 99.5667 106.738 98.7396 105.911L38.3586 44.7027C37.5315 43.8756 36.2906 43.8756 35.0499 44.2891C32.1549 45.9434 29.2601 46.357 25.9515 46.357C17.6802 46.357 10.6494 41.3942 7.75442 33.5364L13.9579 36.8449C15.1987 37.6721 16.8528 38.0856 18.5071 38.0856C23.4699 37.672 28.0194 34.7771 30.0872 30.6414C33.8094 24.0243 32.1549 16.1665 26.7785 13.2715L18.9208 8.72225C28.8465 5.00013 40.0127 10.3765 43.3212 20.3022C44.5619 23.6107 44.9756 27.3328 44.1484 31.0549C44.1484 31.8821 44.1485 32.7092 44.9756 33.5364L105.77 94.331C106.597 95.1581 107.838 95.1582 109.079 94.7446C111.974 93.0903 114.869 92.6767 118.177 92.6767C124.794 92.6767 131.412 96.3988 134.72 102.189L125.622 99.7074ZM55.7283 86.8867L51.1791 82.3375L59.864 73.6526L64.4134 78.2018L55.7283 86.8867ZM55.3148 99.2938L51.5926 95.5717L50.352 94.331L39.1855 82.7511L42.0806 79.8561L58.2099 96.3988L55.3148 99.2938ZM16.0258 131.552L6.92723 122.454L38.7721 90.6089L43.3212 95.1581L47.8706 99.7074L16.0258 131.552ZM109.079 24.4379C109.492 24.0243 109.906 23.1971 109.906 22.7836L110.319 15.7529L125.622 6.65441L132.239 13.2715L123.554 28.5736L116.109 28.9871C115.282 28.9871 114.869 29.4007 114.455 29.8142L81.7833 62.4862L77.2339 57.9369L109.079 24.4379ZM135.961 94.7446C131.411 90.1953 125.208 87.7139 118.591 87.7139C115.282 87.7139 111.974 88.541 109.079 89.7817L84.6781 65.3812L116.937 33.5364L124.381 33.1228C125.208 33.1228 126.035 32.7092 126.449 31.8821L137.201 13.6851C138.029 12.4444 137.615 11.2036 136.788 10.3765L127.276 0.864404C126.449 0.037266 125.208 -0.376265 123.967 0.450873L105.77 11.2036C104.943 11.6172 104.53 12.4443 104.53 13.2715L104.116 20.7157L71.8576 52.5605L49.9385 30.6414C52.4199 17.4072 43.3213 4.58654 29.6735 2.10512C23.47 0.864416 17.2665 2.51873 11.8901 5.82728C10.6494 6.65442 10.2358 8.30867 11.0629 9.54938C11.4765 9.96294 11.4765 10.3765 11.8901 10.3765L24.2972 16.9936C27.1922 18.6479 27.6057 23.1971 25.5378 26.9193C23.47 30.6414 19.3342 32.7092 16.4393 31.4685L5.2731 25.265C4.0324 24.4379 2.37802 24.8514 1.55088 26.5057C1.13731 26.9193 1.13742 27.3328 1.13742 28.16C1.96455 41.8077 13.5444 52.147 27.1922 51.3199C30.0872 51.3199 32.5686 50.4927 35.4636 49.252L55.3148 69.1033L46.63 77.7882L44.5621 75.7204C42.4943 73.6526 38.7721 73.6526 36.7042 75.7204L33.8092 78.6154C31.7414 80.6832 31.7415 83.9918 33.3957 86.0596L1.55088 117.904C-0.516961 119.972 -0.516961 123.281 1.55088 125.349L10.6494 134.447C12.7173 136.515 16.0258 136.515 18.0936 134.447L49.9385 102.602C52.0063 104.67 55.3148 104.257 57.3827 102.189L60.2777 99.2938C62.3456 97.226 62.3456 93.9174 60.2777 91.8496L58.2099 89.7817L66.8947 81.0968L92.9495 107.152C90.8816 120.386 99.5667 133.206 113.214 135.688C121.072 136.929 129.344 134.447 134.72 128.657C135.547 127.417 135.547 125.762 134.306 124.935C133.893 124.521 133.479 124.522 133.479 124.522L118.177 120.386C116.523 119.972 115.696 118.732 114.869 117.491C114.042 115.423 114.042 113.355 114.455 111.287C115.696 107.152 119.004 103.843 122.313 104.67L137.201 108.806C137.615 108.806 137.615 108.806 138.029 108.806C139.683 108.806 140.924 107.565 140.924 106.324C140.924 105.911 140.923 105.497 140.51 105.084C140.923 101.362 138.856 97.6396 135.961 94.7446Z" fill="#404040" fill-opacity="0.1"/>
</svg>
