<svg width="127" height="168" viewBox="0 0 127 168" fill="none" xmlns="http://www.w3.org/2000/svg">
<path d="M47.7841 4.73562C54.2417 4.73562 59.8383 9.9018 59.8383 16.7899C59.8383 23.2476 54.6722 28.8441 47.7841 28.8441C40.8959 28.8441 35.7299 23.6781 35.7299 16.7899C35.7299 10.3323 41.3264 4.73562 47.7841 4.73562ZM47.7841 33.5797C56.8248 33.5797 64.5737 26.2611 64.5737 16.7899C64.5737 7.74926 57.2553 0 47.7841 0C38.3129 0 30.9941 7.31875 30.9941 16.7899C30.9941 25.8306 38.3129 33.5797 47.7841 33.5797Z" fill="#404040" fill-opacity="0.1"/>
<path d="M110.638 102.031C109.777 101.17 108.055 101.17 107.194 102.031L86.5296 123.126L79.2109 115.377C78.3499 114.516 76.6279 114.516 75.7669 115.377C74.9058 116.238 74.9058 117.96 75.7669 118.821L84.8074 128.292C85.6684 129.153 87.3904 129.153 88.2514 128.292L110.638 105.475C111.499 104.614 111.499 103.322 110.638 102.031Z" fill="#404040" fill-opacity="0.1"/>
<path d="M123.986 118.39C122.694 117.959 121.402 118.82 120.972 120.112C117.958 134.319 108.056 146.373 94.7107 151.539C93.4192 151.97 92.9888 153.261 93.4193 154.553C93.8498 155.844 95.1413 156.275 96.4329 155.844C111.931 149.817 122.263 136.041 125.707 120.542C126.138 120.112 125.277 118.82 123.986 118.39Z" fill="#404040" fill-opacity="0.1"/>
<path d="M67.5899 83.5185V69.3116C70.6034 73.6167 72.3256 78.3524 73.6171 83.5185C71.8951 83.5185 69.7424 83.949 67.5899 83.5185ZM62.8544 158.857C62.8544 161.01 61.1324 162.301 59.4104 162.301H53.8136C51.661 162.301 50.3695 160.58 50.3695 158.857V108.488C50.3695 107.196 49.0781 105.905 47.7866 105.905C46.4951 105.905 45.2034 107.196 45.2034 108.488V158.857C45.2034 161.01 43.4814 162.301 41.7594 162.301H36.1628C34.0103 162.301 32.7188 160.58 32.7188 158.857V60.7015C32.7188 58.5489 29.7052 57.2574 28.4137 58.9794C19.8035 68.8811 15.0678 80.9354 15.0678 94.2812C15.0678 96.8642 12.9154 99.0167 10.3323 99.0167C7.74926 99.0167 5.59682 96.8642 5.59682 93.8507C5.59682 70.1727 18.0815 55.1049 25.4001 48.2167C28.4137 45.6337 32.2882 43.9117 36.1628 43.9117H37.0239L42.6204 50.3693C45.2035 53.3828 50.3697 53.3828 52.9528 50.3693L58.5493 43.9117H59.4104C63.285 43.9117 66.729 45.2032 69.312 47.7862C74.9086 52.9523 82.2271 61.132 86.1017 73.6167C84.3797 76.6303 81.3662 79.2134 78.3526 80.9354C76.2001 73.1863 72.7561 65.8676 67.1595 59.41C65.868 57.6879 62.8544 58.5489 62.8544 61.132V81.3659C61.9934 80.9354 60.2712 80.0743 60.2712 80.0743C57.2576 78.7828 53.3832 80.9354 53.3832 84.3794V111.502C53.3832 121.834 56.3966 131.735 62.4237 139.915L62.8544 158.857ZM52.0917 44.7727L49.0781 48.2167C48.2171 49.0778 46.9256 49.0778 46.4951 48.2167L43.4815 44.7727H52.0917ZM120.112 80.5049C113.654 84.3794 107.197 84.3795 101.6 80.9354C97.2951 78.3524 94.712 74.0472 94.2815 74.0472C93.4204 72.7557 92.1288 71.8947 90.4068 71.8947C85.6712 58.9794 78.3528 50.3693 72.3256 44.7727C68.4511 41.3287 63.7153 39.6066 58.9797 39.6066C56.3967 39.6066 38.3155 39.6066 35.7324 39.6066C30.5663 39.6066 25.4 41.7591 21.5254 45.2031C13.7763 52.5218 0 68.8812 0 94.2812C0 99.4473 4.30514 104.183 9.47124 104.183C15.0678 104.183 19.3729 99.8777 19.3729 94.7116C19.3729 85.2404 21.9561 76.1998 27.1222 68.4507V159.288C27.1222 164.023 30.9968 167.898 35.7324 167.898H41.329C43.912 167.898 45.6339 167.037 47.3559 165.315C49.078 167.037 51.2306 167.898 53.3832 167.898H58.9797C63.7153 167.898 67.5899 164.023 67.5899 159.288V146.373C72.3255 151.108 77.4916 154.552 83.5187 157.135C84.8103 157.566 86.1019 157.135 86.5324 155.844C86.9629 154.552 86.5324 153.261 85.2409 152.83C69.3121 146.373 58.1186 130.874 58.1186 112.793V86.1014C68.0203 91.698 77.4916 90.4066 85.6713 83.0879C87.3933 81.3659 89.1154 79.6438 89.9764 77.9218C90.8374 79.2133 93.4204 83.0879 98.5865 86.1014C103.753 89.115 111.502 91.698 121.834 86.1014V110.64C121.834 111.932 123.126 113.224 124.417 113.224C125.709 113.224 127 111.932 127 110.64V84.81C127 81.3659 123.126 78.7828 120.112 80.5049Z" fill="#404040" fill-opacity="0.1"/>
</svg>
