<svg width="180" height="162" viewBox="0 0 180 162" fill="none" xmlns="http://www.w3.org/2000/svg">
<path d="M7.34152 73.1707L10.0683 78.1699L65.0598 92.7131L143.23 47.72C144.139 47.2655 144.593 46.3566 145.048 45.4476C145.502 44.5387 145.048 43.6297 144.593 42.7207L126.869 12.2708C125.051 9.08951 121.415 6.81715 117.779 6.81715C115.961 6.81715 114.143 7.27164 112.325 8.18059L8.70489 68.1715C7.79594 68.6259 7.34135 69.5349 6.88688 70.4438C6.88688 71.3528 6.88704 72.2618 7.34152 73.1707ZM21.4302 97.7124L28.2473 109.983C28.7018 110.892 30.0653 111.801 31.4287 111.801C31.8832 111.801 32.792 111.801 33.2464 111.347L36.4278 109.529L25.9749 91.3498L22.7935 93.1677C21.8846 93.6221 21.4303 94.5311 20.9758 95.44C20.9758 95.8945 20.9757 96.8035 21.4302 97.7124ZM50.9711 116.8C51.4256 116.8 52.3347 116.8 52.7892 116.346L138.231 67.2625C140.049 66.3536 140.503 64.0812 139.594 62.2632L137.776 59.0819L67.7868 99.5303H67.3322C67.3322 99.5303 67.3323 99.5303 66.8778 99.5303H66.4234H65.9688C65.9688 99.5303 65.9689 99.5303 65.5144 99.5303H65.0598L34.6101 91.3498L47.7897 114.528C48.6987 115.891 49.6077 116.8 50.9711 116.8ZM100.509 110.892C102.327 109.529 104.599 108.165 106.417 107.256L100.055 96.349L94.1464 99.9848L100.509 110.892ZM115.961 147.705C125.505 147.705 133.686 139.979 133.686 129.98C133.686 128.162 133.231 126.344 132.777 124.526L102.782 141.797C105.963 145.432 110.507 147.705 115.961 147.705ZM159.136 133.616V126.799H140.503C140.503 128.162 140.957 129.071 140.957 130.435C140.957 131.798 140.958 132.707 140.503 134.071H159.136V133.616ZM115.961 112.71C106.417 112.71 98.2368 120.436 98.2368 130.435C98.2368 132.253 98.691 134.07 99.1455 135.888L129.141 118.618C125.96 114.983 120.96 112.71 115.961 112.71ZM165.954 151.341C165.954 153.159 167.317 154.976 169.589 154.976H173.225V91.8042H169.589C167.771 91.8042 165.954 93.1677 165.954 95.44V151.341ZM0.524373 68.626C1.43333 65.8991 2.79664 63.6267 5.5235 62.2632L108.69 2.27238C111.417 0.908953 114.598 0 117.325 0C123.687 0 129.596 3.18131 132.777 8.63502L150.502 39.085C151.865 41.3574 152.319 44.5387 151.41 47.2655C150.501 49.9924 149.138 52.2648 146.411 53.6282L143.23 55.4461L145.048 58.6274C147.775 63.6267 146.411 69.9894 141.412 73.1707L106.417 93.1677L113.689 105.893C114.143 105.893 115.052 105.893 115.507 105.893C124.596 105.893 132.323 110.892 136.867 118.164C137.322 118.618 137.322 119.073 137.776 119.527H158.682V94.9855C158.682 89.0773 163.227 84.5326 169.135 84.5326H175.952C177.77 84.5326 179.588 85.896 179.588 88.1684V158.612C179.588 160.43 178.225 162.248 175.952 162.248H169.135C163.227 162.248 158.682 157.703 158.682 151.795V141.342H137.776C133.686 149.523 125.505 155.431 115.507 155.431C106.417 155.431 98.6912 150.432 94.1464 143.16C92.3285 139.524 90.965 135.434 90.965 130.889C90.965 125.89 92.7829 120.891 95.5098 116.8L88.2383 104.075L55.9703 122.709C54.1524 123.618 52.3347 124.072 50.5168 124.072C46.881 124.072 43.2452 122.254 41.4272 118.618L39.6092 115.437L36.4278 117.255C34.6099 118.164 32.792 118.618 30.9741 118.618C27.3383 118.618 23.7024 116.8 21.8845 113.165L15.0674 100.894C13.704 98.6214 13.2497 95.44 14.1587 92.7131C14.6131 90.4408 15.9765 88.6229 17.7944 87.2594L6.43251 84.0781C5.52356 83.6236 4.6146 83.1692 4.16013 82.2602L0.524373 76.352C0.0698962 74.0797 -0.38458 71.3528 0.524373 68.626Z" fill="#404040" fill-opacity="0.1"/>
<path d="M63.6946 79.0791C65.5125 78.1702 67.7851 78.6246 68.694 80.4425C69.603 82.2605 69.1483 84.0784 67.3304 85.4418C66.8759 85.8963 65.9671 85.8963 65.5126 85.8963C64.1492 85.8963 63.2402 85.4418 62.3312 84.0784C61.4223 82.2605 62.3312 80.4425 63.6946 79.0791Z" fill="#404040" fill-opacity="0.1"/>
<path d="M72.7884 74.0799L130.961 40.4486C132.779 39.5397 134.597 39.9942 135.961 41.8121C137.324 43.63 136.415 45.4479 134.597 46.8113L76.4241 80.4425C75.9697 80.897 75.0609 80.897 74.6064 80.897C73.243 80.897 72.334 80.4425 71.425 79.0791C70.5161 77.2612 70.9705 74.9889 72.7884 74.0799Z" fill="#404040" fill-opacity="0.1"/>
<path d="M19.1585 68.6261L28.7024 63.1724C30.5203 62.2634 32.3383 62.7179 33.7018 64.5358C34.6107 66.3537 34.1563 68.1716 32.3384 69.5351L22.7942 74.9888C22.3397 75.4433 21.431 75.4433 20.9765 75.4433C19.613 75.4433 18.704 74.9888 17.7951 73.6253C16.8861 71.8074 17.3406 69.5351 19.1585 68.6261Z" fill="#404040" fill-opacity="0.1"/>
<path d="M37.3393 58.1727C39.1573 57.2638 41.4295 57.7183 42.3385 59.5362C43.2474 61.3541 42.793 63.1719 40.9751 64.5354C40.5206 64.9899 39.6118 64.9899 39.1574 64.9899C37.7939 64.9899 36.8849 64.5354 35.976 63.1719C35.067 61.354 35.5214 59.0817 37.3393 58.1727Z" fill="#404040" fill-opacity="0.1"/>
</svg>
