<svg width="207" height="117" viewBox="0 0 207 117" fill="none" xmlns="http://www.w3.org/2000/svg">
<path fill-rule="evenodd" clip-rule="evenodd" d="M190.74 99.3028H180.634C179.022 109.426 170.39 117 159.766 117C149.035 117 140.338 109.274 138.851 99H69.0906C67.6039 109.274 58.907 117 48.1768 117C37.3809 117 28.6429 109.179 27.2359 98.8111H15.7309C6.88213 98.8111 0 91.9289 0 83.0801V17.2059C0 7.86556 7.86556 0 17.2059 0H153.87C162.227 0 170.093 4.91601 173.534 12.7816L185.332 38.8363L199.588 53.0926C204.013 57.517 206.962 63.9078 206.962 70.2985V83.0801C206.962 91.9289 199.589 99.3028 190.74 99.3028ZM190.74 92.4204H180.634C179.022 82.2972 170.39 74.7226 159.766 74.7226C149.288 74.7226 140.749 82.0882 138.968 92H68.9735C67.1926 82.0882 58.654 74.7226 48.1768 74.7226C37.7247 74.7226 29.2014 82.053 27.3925 91.9288H15.7309C10.3233 91.9288 6.39101 87.5044 6.39101 82.5885V16.7144C6.39101 11.3069 10.8153 6.39086 16.7144 6.39086H153.378C159.277 6.39086 164.685 9.83198 167.143 15.2396L179.433 41.7858V41.7861C179.433 42.2774 179.433 42.2776 179.925 42.769L194.673 57.517C198.114 60.9581 200.08 65.3826 200.08 70.2985V83.0801C200.08 88.4877 195.656 92.4204 190.74 92.4204ZM48.1768 81.1133C40.3112 81.1133 33.4289 87.5041 33.4289 95.8612C33.4289 103.727 39.8196 110.609 48.1768 110.609C56.534 110.609 62.9247 104.218 62.9247 95.8612C62.9247 87.5041 56.0424 81.1133 48.1768 81.1133ZM145.018 95.8612C145.018 87.5041 151.408 81.1133 159.766 81.1133C167.631 81.1133 174.514 87.5041 174.514 95.8612C174.514 104.218 167.631 110.609 159.766 110.609C151.408 110.609 145.018 103.727 145.018 95.8612ZM46.2067 53.5842H142.068C144.035 53.5842 145.509 52.1094 145.509 50.143C145.509 48.1766 144.035 46.7018 142.068 46.7018H46.2067C44.2403 46.7018 42.7651 48.1766 42.7651 50.143C42.7651 52.1094 44.2403 53.5842 46.2067 53.5842Z" fill="#404040" fill-opacity="0.1"/>
</svg>
