<svg width="199" height="123" viewBox="0 0 199 123" fill="none" xmlns="http://www.w3.org/2000/svg">
<path d="M183.341 0.840088H15.9021C7.41218 0.840088 0.808594 7.44331 0.808594 15.9332V107.907C0.808594 116.397 7.41218 123 15.9021 123H183.341C191.831 123 198.434 116.397 198.434 107.907V15.9332C198.434 7.44331 191.831 0.840088 183.341 0.840088ZM192.302 107.435C192.302 112.152 188.529 115.925 183.813 115.925H16.3736C11.657 115.925 7.88349 112.152 7.88349 107.435V15.4616C7.88349 10.745 11.657 6.97168 16.3736 6.97168H183.813C188.529 6.97168 192.302 10.745 192.302 15.4616V107.435Z" fill="#404040" fill-opacity="0.1"/>
<path d="M85.2322 14.99H31.9344C22.9729 14.99 15.8984 22.0649 15.8984 31.0265V92.3422C15.8984 101.304 22.9729 108.379 31.9344 108.379H85.2322C94.1937 108.379 101.269 101.304 101.269 92.3422V31.0265C101.269 22.0649 93.7221 14.99 85.2322 14.99ZM94.6654 92.3422C94.6654 97.5305 90.4206 102.247 84.7606 102.247H31.4629C26.2746 102.247 21.5581 98.0022 21.5581 92.3422V31.0265C21.5581 25.8382 25.8029 21.1216 31.4629 21.1216H84.7606C89.9489 21.1216 94.6654 25.3665 94.6654 31.0265V92.3422Z" fill="#404040" fill-opacity="0.1"/>
<path d="M84.2937 25.8384H32.4111C29.1095 25.8384 26.2793 28.6684 26.2793 31.97V91.8707C26.2793 95.1724 29.1095 98.0023 32.4111 98.0023H84.2937C87.5953 98.0023 90.4249 95.1724 90.4249 91.8707V31.97C90.4249 28.6684 87.5953 25.8384 84.2937 25.8384ZM83.8216 91.3991H32.8826V32.4416H83.8216V91.3991Z" fill="#404040" fill-opacity="0.1"/>
<path d="M126.737 24.4232H111.172C109.286 24.4232 107.871 25.8382 107.871 27.7248V43.2896C107.871 45.1762 109.286 46.5912 111.172 46.5912H126.737C128.624 46.5912 130.039 45.1762 130.039 43.2896V27.7248C130.039 25.8382 128.624 24.4232 126.737 24.4232ZM123.907 39.988H114.474V30.5548H123.907V39.988Z" fill="#404040" fill-opacity="0.1"/>
<path d="M153.159 24.4232H137.594C135.708 24.4232 134.293 25.8382 134.293 27.7248V43.2896C134.293 45.1762 135.708 46.5912 137.594 46.5912H153.159C155.046 46.5912 156.461 45.1762 156.461 43.2896V27.7248C156.461 25.8382 155.046 24.4232 153.159 24.4232ZM149.857 39.988H140.424V30.5548H149.857V39.988Z" fill="#404040" fill-opacity="0.1"/>
<path d="M179.57 24.4232H164.005C162.118 24.4232 160.703 25.8382 160.703 27.7248V43.2896C160.703 45.1762 162.118 46.5912 164.005 46.5912H179.57C181.456 46.5912 182.871 45.1762 182.871 43.2896V27.7248C182.871 25.8382 181.456 24.4232 179.57 24.4232ZM176.268 39.988H166.835V30.5548H176.268V39.988Z" fill="#404040" fill-opacity="0.1"/>
<path d="M126.737 50.8358H111.172C109.286 50.8358 107.871 52.2508 107.871 54.1374V69.7022C107.871 71.5888 109.286 73.0038 111.172 73.0038H126.737C128.624 73.0038 130.039 71.5888 130.039 69.7022V54.1374C130.039 52.2508 128.624 50.8358 126.737 50.8358ZM123.907 66.4006H114.474V56.9674H123.907V66.4006Z" fill="#404040" fill-opacity="0.1"/>
<path d="M153.159 50.8358H137.594C135.708 50.8358 134.293 52.2508 134.293 54.1374V69.7022C134.293 71.5888 135.708 73.0038 137.594 73.0038H153.159C155.046 73.0038 156.461 71.5888 156.461 69.7022V54.1374C156.461 52.2508 155.046 50.8358 153.159 50.8358ZM149.857 66.4006H140.424V56.9674H149.857V66.4006Z" fill="#404040" fill-opacity="0.1"/>
<path d="M179.57 50.8358H164.005C162.118 50.8358 160.703 52.2508 160.703 54.1374V69.7022C160.703 71.5888 162.118 73.0038 164.005 73.0038H179.57C181.456 73.0038 182.871 71.5888 182.871 69.7022V54.1374C182.871 52.2508 181.456 50.8358 179.57 50.8358ZM176.268 66.4006H166.835V56.9674H176.268V66.4006Z" fill="#404040" fill-opacity="0.1"/>
<path d="M126.737 77.2488H111.172C109.286 77.2488 107.871 78.6638 107.871 80.5505V96.1152C107.871 98.0018 109.286 99.4168 111.172 99.4168H126.737C128.624 99.4168 130.039 98.0018 130.039 96.1152V80.5505C130.039 78.6638 128.624 77.2488 126.737 77.2488ZM123.907 92.8136H114.474V83.3804H123.907V92.8136Z" fill="#404040" fill-opacity="0.1"/>
<path d="M153.159 77.2488H137.594C135.708 77.2488 134.293 78.6638 134.293 80.5505V96.1152C134.293 98.0018 135.708 99.4168 137.594 99.4168H153.159C155.046 99.4168 156.461 98.0018 156.461 96.1152V80.5505C156.461 78.6638 155.046 77.2488 153.159 77.2488ZM149.857 92.8136H140.424V83.3804H149.857V92.8136Z" fill="#404040" fill-opacity="0.1"/>
<path d="M179.57 77.2488H164.005C162.118 77.2488 160.703 78.6638 160.703 80.5505V96.1152C160.703 98.0018 162.118 99.4168 164.005 99.4168H179.57C181.456 99.4168 182.871 98.0018 182.871 96.1152V80.5505C182.871 78.6638 181.456 77.2488 179.57 77.2488ZM176.268 92.8136H166.835V83.3804H176.268V92.8136Z" fill="#404040" fill-opacity="0.1"/>
<path d="M42.3188 62.6275H43.7334V79.1356C43.7334 81.0223 45.1487 82.4372 47.0354 82.4372H70.6183C72.505 82.4372 73.9197 81.0223 73.9197 79.1356V62.6275H75.3349C76.7499 62.6275 77.6931 61.6842 78.1648 60.7409C78.6364 59.3259 78.165 58.3826 77.2217 57.4393L61.1852 42.3462C59.7702 41.4028 57.8834 41.4028 56.9401 42.3462L40.9036 57.4393C39.9602 58.3826 39.4888 59.7975 39.9605 60.7409C39.9605 61.6842 40.9038 62.6275 42.3188 62.6275ZM49.8652 75.834V62.6275H67.3164V75.834H49.8652ZM58.3553 48.9494L66.3733 56.496H50.3368L58.3553 48.9494Z" fill="#404040" fill-opacity="0.1"/>
</svg>
