<svg width="122" height="122" viewBox="0 0 122 122" fill="none" xmlns="http://www.w3.org/2000/svg">
<path d="M84.8852 54.1208C82.0189 54.1208 79.3437 52.7832 77.8151 50.2992L76.4775 48.3883L75.7131 50.4903C74.5666 53.9298 71.1271 56.2228 67.4966 56.2228C65.0125 56.2228 62.5284 55.0762 60.8087 53.1654L59.8532 52.21L58.8978 53.1654C57.1781 55.0762 54.8851 56.2228 52.2099 56.2228C48.5793 56.2228 45.331 53.9298 43.9934 50.4903L43.229 48.3883L41.8915 50.2992C40.3629 52.5922 37.6877 54.1208 34.8214 54.1208C30.0444 54.1208 26.2227 50.2992 26.2227 45.5221V36.9234H46.0952C47.2417 43.4202 52.9743 48.5794 59.8532 48.5794C66.7322 48.5794 72.4647 43.6113 73.6112 36.9234H93.4839V45.5221C93.4839 50.1081 89.6622 54.1208 84.8852 54.1208ZM93.4839 89.8533H72.6558V62.1463H47.2418V89.8533H26.4137V52.0189C28.5157 54.6941 31.573 56.2228 35.0125 56.2228C37.8787 56.2228 40.745 55.0762 42.8469 52.9743C44.7578 56.4138 48.3883 58.5158 52.4011 58.5158C55.2673 58.5158 57.9424 57.3693 59.8532 55.4584C61.9551 57.3693 64.6304 58.5158 67.3055 58.5158C71.3183 58.5158 74.9488 56.4138 76.8597 52.9743C78.9616 55.0762 81.6367 56.2228 84.694 56.2228C88.1335 56.2228 91.3819 54.503 93.2927 52.0189V89.8533H93.4839ZM49.5348 89.8533V64.4393H70.3628V89.8533H49.5348ZM60.0444 22.7833C66.3501 22.7833 71.7004 27.9425 71.7004 34.4393C71.7004 40.7451 66.5412 46.0954 60.0444 46.0954C53.7387 46.0954 48.3883 40.9361 48.3883 34.4393C48.3883 27.9425 53.5476 22.7833 60.0444 22.7833ZM73.8023 34.4393C73.8023 26.796 67.4966 20.4902 59.8532 20.4902C52.2099 20.4902 45.9042 26.796 45.9042 34.4393H23.9297V92.3374H47.0507H72.6558H95.7768V34.4393H73.8023Z" fill="#404040"/>
<path d="M51.8281 76.0957H56.6052V78.3887H51.8281V76.0957Z" fill="#404040"/>
<path d="M35.7772 64.4394V67.879H32.3377V64.4394H35.7772ZM41.5096 67.879H38.0702V64.4394H41.5096V67.879ZM38.0702 73.8025V70.363H41.5096V73.8025H38.0702ZM32.3377 70.1719H35.7772V73.6115H32.3377V70.1719ZM29.8535 76.0955H43.8027V62.1465H29.8535V76.0955Z" fill="#404040"/>
<path d="M82.0196 64.4394V67.879H78.58V64.4394H82.0196ZM87.7521 67.879H84.3125V64.4394H87.7521V67.879ZM84.3125 73.8025V70.363H87.7521V73.8025H84.3125ZM78.58 70.1719H82.0196V73.6115H78.58V70.1719ZM76.2871 76.0955H90.2361V62.1465H76.2871V76.0955Z" fill="#404040"/>
<path d="M58.3252 41.3183H58.8984V43.6113H61.1914V41.3183H61.7647C64.0577 41.3183 65.7775 39.4075 65.7775 37.3056C65.7775 35.0126 63.8666 33.2928 61.7647 33.2928H58.3252C57.3698 33.2928 56.6054 32.5285 56.6054 31.5731C56.6054 30.6177 57.3698 29.8534 58.3252 29.8534H61.7647C62.7201 29.8534 63.4845 30.6177 63.4845 31.5731V32.1463H65.7775V31.5731C65.7775 29.2801 63.8666 27.5604 61.7647 27.5604H61.1914V25.2673H58.8984V27.5604H58.3252C56.0322 27.5604 54.3125 29.4712 54.3125 31.5731C54.3125 33.8661 56.2233 35.5859 58.3252 35.5859H61.7647C62.7201 35.5859 63.4845 36.3502 63.4845 37.3056C63.4845 38.261 62.7201 39.0253 61.7647 39.0253H58.3252C57.3698 39.0253 56.6054 38.261 56.6054 37.3056V36.7323H54.3125V37.3056C54.3125 39.5986 56.0322 41.3183 58.3252 41.3183Z" fill="#404040"/>
<path d="M33.4844 39.0254H44.9493V41.3184H33.4844V39.0254Z" fill="#404040"/>
<path d="M28.707 39.0254H31.1911V41.3184H28.707V39.0254Z" fill="#404040"/>
<path d="M75.1426 39.0254H86.6075V41.3184H75.1426V39.0254Z" fill="#404040"/>
<path d="M88.8984 39.0254H91.1915V41.3184H88.8984V39.0254Z" fill="#404040"/>
<path d="M61.0001 121C94.1371 121 121 94.1371 121 61C121 27.8629 94.1371 1 61.0001 1C27.863 1 1 27.8629 1 61C1 94.1371 27.863 121 61.0001 121Z" stroke="#404040" stroke-miterlimit="10"/>
</svg>
