<svg width="122" height="122" viewBox="0 0 122 122" fill="none" xmlns="http://www.w3.org/2000/svg">
<path d="M88.7057 51.0637H78.0051H68.2599H56.6038H46.8586H36.1579V48.5797H88.5146L88.7057 51.0637ZM78.9605 86.9873V85.4586C79.1516 85.4586 79.1516 85.4586 79.3427 85.4586H88.3236C88.5147 85.4586 88.5146 85.4586 88.7057 85.4586V86.9873H78.9605ZM94.2471 89.0892V91.1911H30.8076V89.0892H94.2471ZM36.349 85.4586C36.5401 85.4586 36.5401 85.4586 36.7312 85.4586H45.712C45.9031 85.4586 45.9031 85.4586 46.0942 85.4586V86.9873H36.349V85.4586V85.4586ZM46.0942 54.6943H45.712H36.7312H36.349V52.9746H46.0942V54.6943ZM67.3045 54.6943H66.9223H57.9414H57.5592V52.9746H67.3045V54.6943ZM57.7503 85.4586C57.9414 85.4586 57.9413 85.4586 58.1324 85.4586H67.1133C67.3044 85.4586 67.3044 85.4586 67.4955 85.4586V86.9873H57.7503V85.4586V85.4586ZM59.8522 57.9427H59.0878V56.6051H66.1579V57.9427H65.3936C64.8204 57.9427 64.4382 58.3249 64.4382 58.8981V80.8727C64.4382 81.4459 64.8204 81.8281 65.3936 81.8281H66.1579V83.3567H59.0878V81.8281H59.8522C60.4254 81.8281 60.8076 81.4459 60.8076 80.8727V58.8981C60.8076 58.516 60.4254 57.9427 59.8522 57.9427ZM86.6038 82.0192H87.3682V83.5478H80.2981V82.0192H81.0623C81.6356 82.0192 82.0178 81.637 82.0178 81.0638V59.0892C82.0178 58.516 81.6356 58.1338 81.0623 58.1338H80.2981V56.7962H87.3682V58.1338H86.6038C86.0305 58.1338 85.6484 58.516 85.6484 59.0892V81.0638C85.6484 81.4459 86.0305 82.0192 86.6038 82.0192ZM88.7057 54.6943H88.3236H79.3427H78.9605V52.9746H88.7057V54.6943ZM77.0496 52.9746V55.0765C77.0496 55.8408 77.6229 56.6051 78.3873 56.6051V58.3248C78.3873 59.2803 79.1515 60.0446 80.1069 60.0446H80.2981V80.1083H80.1069C79.1515 80.1083 78.3873 80.8727 78.3873 81.8281V83.5478C77.6229 83.7389 77.0496 84.3121 77.0496 85.0764V87.1784H69.4063V85.0764C69.4063 84.3121 68.8331 83.5478 68.0687 83.5478V81.8281C68.0687 80.8727 67.3045 80.1083 66.3491 80.1083H66.1579V60.0446H66.3491C67.3045 60.0446 68.0687 59.2803 68.0687 58.3248V56.6051C68.8331 56.414 69.4063 55.8408 69.4063 55.0765V52.9746H77.0496ZM55.6483 52.9746V55.0765C55.6483 55.8408 56.2216 56.6051 56.986 56.6051V58.3248C56.986 59.2803 57.7503 60.0446 58.7057 60.0446H58.8968V80.1083H58.7057C57.7503 80.1083 56.986 80.8727 56.986 81.8281V83.5478C56.2216 83.7389 55.6483 84.3121 55.6483 85.0764V87.1784H48.005V85.0764C48.005 84.3121 47.4318 83.5478 46.6674 83.5478V81.8281C46.6674 80.8727 45.9032 80.1083 44.9478 80.1083H44.7566V60.0446H44.9478C45.9032 60.0446 46.6674 59.2803 46.6674 58.3248V56.6051C47.4318 56.414 48.005 55.8408 48.005 55.0765V52.9746H55.6483ZM62.1452 31.5732C62.3363 31.3822 62.7184 31.3822 62.9095 31.5732L86.2216 46.6688H38.8331L62.1452 31.5732ZM96.7312 45.1401L73.6102 30.2357C73.228 29.8535 72.4637 30.0446 72.2726 30.6178C71.8904 31 72.0815 31.7644 72.6548 31.9554L95.3936 46.6688H90.0433L64.056 29.8535C63.1006 29.2803 61.9541 29.2803 61.1898 29.8535L35.2025 46.6688H29.8522L62.5274 25.6497L67.1133 28.707C67.4955 29.0892 68.2598 28.8981 68.4509 28.3249C68.8331 27.9427 68.642 27.1784 68.0687 26.9873L63.4828 23.9299C62.9096 23.5478 61.9541 23.5478 61.3808 23.9299L28.3235 45.1401C27.5592 45.5223 27.3681 46.4777 27.5591 47.2421C27.7502 48.0064 28.5146 48.5797 29.2789 48.5797H34.247V52.0191V55.0765C34.247 55.8408 34.8203 56.6051 35.5847 56.6051V58.3248C35.5847 59.2803 36.349 60.0446 37.3044 60.0446H37.4955V72.2739C37.4955 72.8472 37.8776 73.2293 38.4509 73.2293C39.0241 73.2293 39.4063 72.8472 39.4063 72.2739V59.0892C39.4063 58.516 39.0241 58.1338 38.4509 58.1338H37.6866V56.7962H44.7566V58.1338H43.9923C43.4191 58.1338 43.0369 58.516 43.0369 59.0892V81.0638C43.0369 81.637 43.4191 82.0192 43.9923 82.0192H44.7566V83.5478H37.6866V82.0192H38.4509C39.0241 82.0192 39.4063 81.637 39.4063 81.0638V78.5796C39.4063 78.0064 39.0241 77.6242 38.4509 77.6242C37.8776 77.6242 37.4955 78.0064 37.4955 78.5796V80.1083H37.3044C36.349 80.1083 35.5847 80.8727 35.5847 81.8281V83.5478C34.8203 83.7389 34.247 84.3121 34.247 85.0764V87.1784H30.8076C29.6611 87.1784 28.8968 88.1338 28.8968 89.0892V91.1911C28.8968 92.3376 29.8522 93.102 30.8076 93.102H94.2471C95.3936 93.102 96.1579 92.1465 96.1579 91.1911V89.0892C96.1579 87.9427 95.2025 87.1784 94.2471 87.1784H90.8076V85.0764C90.8076 84.3121 90.2344 83.5478 89.47 83.5478V81.8281C89.47 80.8727 88.7057 80.1083 87.7502 80.1083H87.5592V60.0446H87.7502C88.7057 60.0446 89.47 59.2803 89.47 58.3248V56.6051C90.2344 56.414 90.8076 55.8408 90.8076 55.0765V52.0191V48.5797H95.7757C96.5401 48.5797 97.3045 48.0064 97.4955 47.2421C97.6866 46.4777 97.4955 45.5223 96.7312 45.1401Z" fill="#404040"/>
<path d="M62.9088 40.363V43.6114C63.6731 43.4203 64.2464 43.0381 64.2464 42.0827C64.2464 41.1273 63.6731 40.7452 62.9088 40.363ZM62.1445 38.4522V35.5859C61.3802 35.777 60.6159 36.1592 60.6159 36.9235C60.6159 37.8789 61.3802 38.07 62.1445 38.4522ZM61.9534 45.1401C60.0426 45.1401 58.7051 43.9936 58.7051 43.4203C58.7051 43.0382 59.0872 42.4649 59.4693 42.4649C60.0426 42.4649 60.4247 43.6114 61.9534 43.6114V39.9809C60.6158 39.4076 59.0872 39.0254 59.0872 36.9235C59.0872 35.0127 60.6158 34.2484 61.9534 34.0573V33.6751C61.9534 33.484 62.1445 33.293 62.3356 33.293C62.5267 33.293 62.7178 33.484 62.7178 33.6751V34.0573C63.6732 34.0573 65.2018 34.4395 65.2018 35.2038C65.2018 35.586 65.0108 36.1592 64.4376 36.1592C64.0554 36.1592 63.6732 35.5859 62.5267 35.5859V38.6433C63.8643 39.2165 65.393 39.7898 65.393 41.8917C65.393 43.8025 64.2465 44.7579 62.5267 45.1401V45.7134C62.5267 45.9044 62.3356 46.0955 62.1445 46.0955C61.9535 46.0955 61.7624 45.9044 61.7624 45.7134V45.1401H61.9534Z" fill="#404040"/>
<path d="M60.9999 121C94.137 121 121 94.1371 121 61.0001C121 27.863 94.137 1 60.9999 1C27.8628 1 1 27.863 1 61.0001C1 94.1371 27.8628 121 60.9999 121Z" stroke="#404040" stroke-miterlimit="10"/>
</svg>
