<svg width="122" height="122" viewBox="0 0 122 122" fill="none" xmlns="http://www.w3.org/2000/svg">
<path d="M96.1602 67.8798H62.7208V62.1473H66.1602C69.4086 62.1473 71.8927 59.6632 71.8927 56.4148V35.5868C71.8927 32.3384 69.4086 29.8543 66.1602 29.8543H62.7208V27.5613C62.7208 26.988 62.1476 26.4148 61.5743 26.4148H31.5743C31.001 26.4148 30.4278 26.988 30.4278 27.5613V29.8543H26.9882C26.415 29.8543 25.8418 30.4275 25.8418 31.0008V35.5868C25.8418 36.16 26.415 36.7333 26.9882 36.7333C27.5615 36.7333 28.1348 36.16 28.1348 35.5868V32.1473H30.4278V59.8543H28.1348V40.3638C28.1348 39.7906 27.5615 39.2173 26.9882 39.2173C26.415 39.2173 25.8418 39.7906 25.8418 40.3638V61.0008C25.8418 61.574 26.415 62.1473 26.9882 62.1473H30.4278V94.4403C30.4278 95.0135 31.001 95.5868 31.5743 95.5868H49.9182C50.4914 95.5868 51.0648 95.0135 51.0648 94.4403C51.0648 93.867 50.4914 93.2938 49.9182 93.2938H32.7207V89.8543H49.9182C50.4914 89.8543 51.0648 89.281 51.0648 88.7078C51.0648 88.1345 50.4914 87.5613 49.9182 87.5613H32.7207V28.7078H60.4277V67.8798H54.6953C54.122 67.8798 53.5488 68.453 53.5488 69.0263V94.4403C53.5488 95.0135 54.122 95.5868 54.6953 95.5868H59.2813C59.8545 95.5868 60.4277 95.0135 60.4277 94.4403C60.4277 93.867 59.8545 93.2938 59.2813 93.2938H55.8418V81.8288H95.0138V93.2938H63.8673C63.2941 93.2938 62.7208 93.867 62.7208 94.4403C62.7208 95.0135 63.2941 95.5868 63.8673 95.5868H96.1602C96.7335 95.5868 97.3068 95.0135 97.3068 94.4403V69.0263C97.3068 68.453 96.7335 67.8798 96.1602 67.8798ZM65.0138 32.1473V35.5868C65.0138 36.16 65.587 36.7333 66.1602 36.7333C66.7335 36.7333 67.3068 36.16 67.3068 35.5868V32.3384C68.6444 32.7205 69.5998 34.0581 69.5998 35.5868V56.4148C69.5998 57.9435 68.6444 59.09 67.3068 59.6632V47.2428C67.3068 46.6696 66.7335 46.0963 66.1602 46.0963C65.587 46.0963 65.0138 46.6696 65.0138 47.2428V59.8543H62.7208V32.1473H65.0138ZM55.8418 79.3447V74.7587H84.6953C85.2685 74.7587 85.8418 74.1855 85.8418 73.6122C85.8418 73.039 85.2685 72.4658 84.6953 72.4658H55.8418V70.1728H95.0138V72.4658H89.2813C88.7081 72.4658 88.1347 73.039 88.1347 73.6122C88.1347 74.1855 88.7081 74.7587 89.2813 74.7587H95.0138V79.3447H55.8418Z" fill="#404040"/>
<path d="M35.1992 54.1201C35.1992 54.6933 35.7724 55.2666 36.3457 55.2666H56.9826C57.5558 55.2666 58.1292 54.6933 58.1292 54.1201V36.9226C58.1292 36.3494 57.5558 35.7761 56.9826 35.7761H54.6896C54.1163 35.7761 53.5431 36.3494 53.5431 36.9226C53.5431 37.4959 54.1163 38.0691 54.6896 38.0691H55.8361V52.9736H37.4921V38.0691H50.1037C50.6769 38.0691 51.2501 37.4959 51.2501 36.9226C51.2501 36.3494 50.6769 35.7761 50.1037 35.7761H36.3457C35.7724 35.7761 35.1992 36.3494 35.1992 36.9226V54.1201Z" fill="#404040"/>
<path d="M66.3516 43.8033C66.9248 43.8033 67.498 43.23 67.498 42.6568V40.3638C67.498 39.7905 66.9248 39.2173 66.3516 39.2173C65.7783 39.2173 65.205 39.7905 65.205 40.3638V42.6568C65.0139 43.23 65.5872 43.8033 66.3516 43.8033Z" fill="#404040"/>
<path d="M58.1292 58.7071C58.1292 58.1338 57.5558 57.5605 56.9826 57.5605H36.3457C35.7724 57.5605 35.1992 58.1338 35.1992 58.7071C35.1992 59.2803 35.7724 59.8535 36.3457 59.8535H56.9826C57.7469 59.8535 58.1292 59.2803 58.1292 58.7071Z" fill="#404040"/>
<path d="M36.3457 33.293H37.4921C38.0654 33.293 38.6387 32.7197 38.6387 32.1465C38.6387 31.5732 38.0654 31 37.4921 31H36.3457C35.7724 31 35.1992 31.5732 35.1992 32.1465C35.1992 32.7197 35.7724 33.293 36.3457 33.293Z" fill="#404040"/>
<path d="M43.2324 33.293C43.8056 33.293 44.3789 32.7197 44.3789 32.1465C44.3789 31.5732 43.8056 31 43.2324 31H42.0859C41.5127 31 40.9395 31.5732 40.9395 32.1465C40.9395 32.7197 41.5127 33.293 42.0859 33.293H43.2324Z" fill="#404040"/>
<path d="M48.9667 33.293C49.54 33.293 50.1133 32.7197 50.1133 32.1465C50.1133 31.5732 49.54 31 48.9667 31H47.8203C47.247 31 46.6738 31.5732 46.6738 32.1465C46.6738 32.7197 47.247 33.293 47.8203 33.293H48.9667Z" fill="#404040"/>
<path d="M38.6387 63.2937H37.4922C36.9189 63.2937 36.3457 63.867 36.3457 64.4402C36.3457 65.0135 36.9189 65.5867 37.4922 65.5867H38.6387C39.212 65.5867 39.7852 65.0135 39.7852 64.4402C39.7852 63.867 39.212 63.2937 38.6387 63.2937Z" fill="#404040"/>
<path d="M44.379 63.2937H43.2324C42.6591 63.2937 42.0859 63.867 42.0859 64.4402C42.0859 65.0135 42.6591 65.5867 43.2324 65.5867H44.379C44.9522 65.5867 45.5254 65.0135 45.5254 64.4402C45.5254 63.867 44.9522 63.2937 44.379 63.2937Z" fill="#404040"/>
<path d="M50.1016 63.2937H48.955C48.3818 63.2937 47.8086 63.867 47.8086 64.4402C47.8086 65.0135 48.3818 65.5867 48.955 65.5867H50.1016C50.6749 65.5867 51.2481 65.0135 51.2481 64.4402C51.2481 63.867 50.6749 63.2937 50.1016 63.2937Z" fill="#404040"/>
<path d="M38.6387 67.8789H37.4922C36.9189 67.8789 36.3457 68.4522 36.3457 69.0254C36.3457 69.5986 36.9189 70.1719 37.4922 70.1719H38.6387C39.212 70.1719 39.7852 69.5986 39.7852 69.0254C39.7852 68.4522 39.212 67.8789 38.6387 67.8789Z" fill="#404040"/>
<path d="M44.379 67.8789H43.2324C42.6591 67.8789 42.0859 68.4522 42.0859 69.0254C42.0859 69.5986 42.6591 70.1719 43.2324 70.1719H44.379C44.9522 70.1719 45.5254 69.5986 45.5254 69.0254C45.5254 68.4522 44.9522 67.8789 44.379 67.8789Z" fill="#404040"/>
<path d="M50.1016 67.8789H48.955C48.3818 67.8789 47.8086 68.4522 47.8086 69.0254C47.8086 69.5986 48.3818 70.1719 48.955 70.1719H50.1016C50.6749 70.1719 51.2481 69.5986 51.2481 69.0254C51.2481 68.4522 50.6749 67.8789 50.1016 67.8789Z" fill="#404040"/>
<path d="M38.6387 72.4663H37.4922C36.9189 72.4663 36.3457 73.0396 36.3457 73.6128C36.3457 74.1861 36.9189 74.7593 37.4922 74.7593H38.6387C39.212 74.7593 39.7852 74.1861 39.7852 73.6128C39.7852 73.0396 39.212 72.4663 38.6387 72.4663Z" fill="#404040"/>
<path d="M44.379 72.4663H43.2324C42.6591 72.4663 42.0859 73.0396 42.0859 73.6128C42.0859 74.1861 42.6591 74.7593 43.2324 74.7593H44.379C44.9522 74.7593 45.5254 74.1861 45.5254 73.6128C45.5254 73.0396 44.9522 72.4663 44.379 72.4663Z" fill="#404040"/>
<path d="M50.1016 72.4663H48.955C48.3818 72.4663 47.8086 73.0396 47.8086 73.6128C47.8086 74.1861 48.3818 74.7593 48.955 74.7593H50.1016C50.6749 74.7593 51.2481 74.1861 51.2481 73.6128C51.2481 73.0396 50.6749 72.4663 50.1016 72.4663Z" fill="#404040"/>
<path d="M38.6387 77.0513H37.4922C36.9189 77.0513 36.3457 77.6245 36.3457 78.1978C36.3457 78.771 36.9189 79.3443 37.4922 79.3443H38.6387C39.212 79.3443 39.7852 78.771 39.7852 78.1978C39.7852 77.6245 39.212 77.0513 38.6387 77.0513Z" fill="#404040"/>
<path d="M44.379 77.0513H43.2324C42.6591 77.0513 42.0859 77.6245 42.0859 78.1978C42.0859 78.771 42.6591 79.3443 43.2324 79.3443H44.379C44.9522 79.3443 45.5254 78.771 45.5254 78.1978C45.5254 77.6245 44.9522 77.0513 44.379 77.0513Z" fill="#404040"/>
<path d="M50.1016 77.0513H48.955C48.3818 77.0513 47.8086 77.6245 47.8086 78.1978C47.8086 78.771 48.3818 79.3443 48.955 79.3443H50.1016C50.6749 79.3443 51.2481 78.771 51.2481 78.1978C51.2481 77.6245 50.6749 77.0513 50.1016 77.0513Z" fill="#404040"/>
<path d="M38.6387 81.637H37.4922C36.9189 81.637 36.3457 82.2102 36.3457 82.7835C36.3457 83.3567 36.9189 83.93 37.4922 83.93H38.6387C39.212 83.93 39.7852 83.3567 39.7852 82.7835C39.7852 82.2102 39.212 81.637 38.6387 81.637Z" fill="#404040"/>
<path d="M44.379 81.637H43.2324C42.6591 81.637 42.0859 82.2102 42.0859 82.7835C42.0859 83.3567 42.6591 83.93 43.2324 83.93H44.379C44.9522 83.93 45.5254 83.3567 45.5254 82.7835C45.5254 82.2102 44.9522 81.637 44.379 81.637Z" fill="#404040"/>
<path d="M48.955 84.1206H50.1016C50.6749 84.1206 51.2481 83.5474 51.2481 82.9741C51.2481 82.4009 50.6749 81.8276 50.1016 81.8276H48.955C48.3818 81.8276 47.8086 82.4009 47.8086 82.9741C47.8086 83.5474 48.3818 84.1206 48.955 84.1206Z" fill="#404040"/>
<path d="M54.6953 63.2937C54.122 63.2937 53.5488 63.867 53.5488 64.4402C53.5488 65.0135 54.122 65.5867 54.6953 65.5867H55.8418C56.4151 65.5867 56.9883 65.0135 56.9883 64.4402C56.9883 63.867 56.4151 63.2937 55.8418 63.2937H54.6953Z" fill="#404040"/>
<path d="M80.1016 86.4141C80.6749 86.4141 81.2481 85.8408 81.2481 85.2676C81.2481 84.6943 80.6749 84.1211 80.1016 84.1211H78.955C78.3818 84.1211 77.8086 84.6943 77.8086 85.2676C77.8086 85.8408 78.3818 86.4141 78.955 86.4141H80.1016Z" fill="#404040"/>
<path d="M85.8399 86.4141C86.4131 86.4141 86.9863 85.8408 86.9863 85.2676C86.9863 84.6943 86.4131 84.1211 85.8399 84.1211H84.6933C84.1201 84.1211 83.5469 84.6943 83.5469 85.2676C83.5469 85.8408 84.1201 86.4141 84.6933 86.4141H85.8399Z" fill="#404040"/>
<path d="M91.5762 86.4141C92.1495 86.4141 92.7227 85.8408 92.7227 85.2676C92.7227 84.6943 92.1495 84.1211 91.5762 84.1211H90.4297C89.8564 84.1211 89.2832 84.6943 89.2832 85.2676C89.2832 85.8408 89.8564 86.4141 90.4297 86.4141H91.5762Z" fill="#404040"/>
<path d="M61.0001 121C94.1371 121 121 94.1371 121 61C121 27.8629 94.1371 1 61.0001 1C27.863 1 1 27.8629 1 61C1 94.1371 27.863 121 61.0001 121Z" stroke="#404040" stroke-miterlimit="10"/>
</svg>
