<svg width="122" height="122" viewBox="0 0 122 122" fill="none" xmlns="http://www.w3.org/2000/svg">
<path d="M51.6344 68.2612C52.3987 68.2612 52.9721 68.8345 52.9721 69.5988C52.9721 70.3632 52.3987 70.9364 51.6344 70.9364C50.87 70.9364 50.2969 70.3632 50.2969 69.5988C50.2969 68.8345 50.87 68.2612 51.6344 68.2612Z" fill="#404040"/>
<path d="M90.2352 79.3441C89.4709 79.3441 88.8975 79.9173 88.8975 80.6816V84.8855H33.6748V82.2103H36.3498H86.0313C86.7956 82.2103 87.369 81.6371 87.369 80.8727V58.7071C87.369 57.9428 86.7956 57.3696 86.0313 57.3696C85.267 57.3696 84.6938 57.9428 84.6938 58.7071V79.3441H43.229V60.0447H54.3116V75.1402C54.3116 75.9046 54.885 76.4778 55.6493 76.4778C56.4137 76.4778 56.9868 75.9046 56.9868 75.1402V58.516C56.9868 57.7517 56.4137 57.1785 55.6493 57.1785H41.8912C41.1269 57.1785 40.5538 57.7517 40.5538 58.516V79.153H36.3498H32.1461C31.3817 79.153 30.8086 79.7262 30.8086 80.4905V86.032C30.8086 86.7963 31.3817 87.3695 32.1461 87.3695H90.0442C90.8085 87.3695 91.3817 86.7963 91.3817 86.032V80.4905C91.7639 79.9173 91.1907 79.3441 90.2352 79.3441Z" fill="#404040"/>
<path d="M37.877 29.6625H84.8833V35.2039H37.877V29.6625ZM82.0171 53.1657C78.9597 53.1657 76.4756 50.6816 76.4756 47.6243C76.4756 46.86 75.9025 46.2867 75.1381 46.2867H66.9215C66.1572 46.2867 65.584 46.86 65.584 47.6243C65.584 48.3886 66.1572 48.9618 66.9215 48.9618H73.6094C73.0361 51.2548 70.9344 53.1657 68.2592 53.1657C65.2019 53.1657 62.7178 50.6816 62.7178 47.6243C62.7178 46.86 62.1446 46.2867 61.3803 46.2867H53.1636C52.3993 46.2867 51.8261 46.86 51.8261 47.6243C51.8261 48.3886 52.3993 48.9618 53.1636 48.9618H59.8515C59.2783 51.2548 57.1763 53.1657 54.5011 53.1657C51.4438 53.1657 48.9599 50.6816 48.9599 47.6243C48.9599 46.86 48.3865 46.2867 47.6222 46.2867H39.4058C38.6414 46.2867 38.068 46.86 38.068 47.6243C38.068 48.3886 38.6414 48.9618 39.4058 48.9618H46.0937C45.5204 51.2548 43.4184 53.1657 40.7433 53.1657C37.6859 53.1657 35.3929 50.8727 35.2018 47.8154L37.686 38.0701H46.2847V42.2739C46.2847 43.0383 46.8578 43.6115 47.6222 43.6115C48.3865 43.6115 48.9599 43.0383 48.9599 42.2739V37.879H60.0426V42.0829C60.0426 42.8472 60.6159 43.4204 61.3803 43.4204C62.1446 43.4204 62.7178 42.8472 62.7178 42.0829V37.879H73.8006V42.0829C73.8006 42.8472 74.3738 43.4204 75.1381 43.4204C75.9025 43.4204 76.4756 42.8472 76.4756 42.0829V37.879H85.2656L86.9852 46.0956H80.4885C79.7242 46.0956 79.1508 46.6689 79.1508 47.4332C79.1508 48.1975 79.7242 48.7708 80.4885 48.7708H87.1764C86.7943 51.2549 84.6922 53.1657 82.0171 53.1657ZM35.0108 53.7389V75.1402C35.0108 75.9045 35.5839 76.4778 36.3483 76.4778C37.1126 76.4778 37.686 75.9045 37.686 75.1402V55.2676C38.4503 55.6498 39.4058 55.8408 40.3612 55.8408C43.2274 55.8408 45.7114 54.3122 47.2401 52.2103C48.7688 54.5033 51.2528 55.8408 54.119 55.8408C56.9853 55.8408 59.4693 54.3122 60.998 52.2103C62.5266 54.5033 65.0107 55.8408 67.8769 55.8408C70.7431 55.8408 73.2274 54.3122 74.7561 52.2103C76.2847 54.5033 78.7687 55.8408 81.635 55.8408C86.221 55.8408 89.8514 52.2103 89.8514 47.6243C89.8514 47.4332 89.8514 47.4332 89.8514 47.4332L87.1764 35.2039V28.3249C87.1764 27.5606 86.603 26.9873 85.8387 26.9873H36.1572C35.3929 26.9873 34.8197 27.5606 34.8197 28.3249V36.5414L32.1445 47.4332C32.1445 47.6243 32.1445 47.6243 32.1445 47.6243C32.3356 50.1084 33.4821 52.2102 35.0108 53.7389Z" fill="#404040"/>
<path d="M79.3442 73.8026H62.7201V60.0447H79.3442V73.8026ZM61.3826 57.1785C60.6183 57.1785 60.0449 57.7517 60.0449 58.516V75.1402C60.0449 75.9046 60.6183 76.4778 61.3826 76.4778H80.6819C81.4463 76.4778 82.0194 75.9046 82.0194 75.1402V58.516C82.0194 57.7517 81.4463 57.1785 80.6819 57.1785H61.3826Z" fill="#404040"/>
<path d="M61 121C94.1371 121 121 94.1371 121 61C121 27.8629 94.1371 1 61 1C27.8629 1 1 27.8629 1 61C1 94.1371 27.8629 121 61 121Z" stroke="#404040" stroke-miterlimit="10"/>
</svg>
