<svg width="122" height="122" viewBox="0 0 122 122" fill="none" xmlns="http://www.w3.org/2000/svg">
<path d="M82.0168 90.6176H81.8256V28.5157C81.8256 26.6049 80.297 25.0762 78.3862 25.0762H77.0486C77.0486 23.7386 76.0932 22.7832 74.7557 22.7832H46.6665C45.3289 22.7832 44.3734 23.7386 44.3734 25.0762H43.418C41.5072 25.0762 39.9786 26.6049 39.9786 28.5157V90.6176H39.7874C38.6409 90.6176 37.6855 91.573 37.6855 92.7195V96.3501C37.6855 96.9233 38.2587 97.4966 38.832 97.4966H83.3544C83.9276 97.4966 84.5008 96.9233 84.5008 96.3501V92.7195C84.3098 91.573 83.3544 90.6176 82.0168 90.6176ZM78.3862 27.3692C79.1505 27.3692 79.7238 27.9424 79.7238 28.7068V90.8087H77.2397V27.5603H78.3862V27.3692ZM46.8575 90.6176V65.9679H75.1377V90.6176H46.8575ZM46.8575 56.6049H75.1377V63.866H46.8575V56.6049ZM74.9467 54.5029H46.6665V30.9998H74.9467V54.5029ZM46.8575 25.0762H74.9467V28.7068H46.6665L46.8575 25.0762ZM42.0804 28.5157C42.0804 27.7514 42.6537 27.1781 43.418 27.1781H44.7556V90.4265H42.2716V28.5157H42.0804ZM82.0168 95.3946H39.7874V92.9106H82.0168V95.3946Z" fill="#404040"/>
<path d="M62.1463 49.7261H52.7833C52.21 49.7261 51.6367 50.2993 51.6367 50.8726C51.6367 51.4458 52.21 52.0191 52.7833 52.0191H62.1463C62.7195 52.0191 63.2928 51.4458 63.2928 50.8726C63.1018 50.2993 62.7195 49.7261 62.1463 49.7261Z" fill="#404040"/>
<path d="M64.4374 59.0889H50.4884C49.9151 59.0889 49.3418 59.6621 49.3418 60.2354C49.3418 60.8086 49.9151 61.3819 50.4884 61.3819H64.4374C65.0106 61.3819 65.5838 60.8086 65.5838 60.2354C65.5838 59.6621 65.0106 59.0889 64.4374 59.0889Z" fill="#404040"/>
<path d="M51.0632 86.4139C50.8721 86.2228 50.4899 86.0317 50.2988 86.0317C49.9166 86.0317 49.7256 86.2228 49.5345 86.4139C49.3434 86.605 49.1523 86.9872 49.1523 87.1782C49.1523 87.5604 49.3434 87.7515 49.5345 87.9426C49.7256 88.1336 50.1077 88.3248 50.2988 88.3248C50.681 88.3248 50.8721 88.1336 51.0632 87.9426C51.2543 87.7515 51.4454 87.3693 51.4454 87.1782C51.4454 86.7961 51.4453 86.605 51.0632 86.4139Z" fill="#404040"/>
<path d="M51.6348 47.2418H70.3609C71.6985 47.2418 72.6539 46.2864 72.6539 44.9488V35.5857C72.6539 34.2482 71.6985 33.2927 70.3609 33.2927H51.6348C50.2972 33.2927 49.3418 34.2482 49.3418 35.5857V44.9488C49.3418 46.2864 50.2972 47.2418 51.6348 47.2418ZM70.1699 45.1399H67.6858V40.3628H70.1699V45.1399C70.361 45.1399 70.361 44.9488 70.1699 45.1399ZM70.3609 35.5857V38.0698H67.8769V35.5857H70.3609ZM51.4438 35.5857H65.5838V45.1399H51.4438V35.5857Z" fill="#404040"/>
<path d="M61.0001 121C94.1371 121 121 94.137 121 61C121 27.8629 94.1371 1 61.0001 1C27.863 1 1 27.8629 1 61C1 94.137 27.863 121 61.0001 121Z" stroke="#404040" stroke-miterlimit="10"/>
</svg>
