<svg width="122" height="122" viewBox="0 0 122 122" fill="none" xmlns="http://www.w3.org/2000/svg">
<path d="M76.2886 79.9171L69.4097 69.2165L73.0403 57.7515L84.123 55.2675L94.0594 65.3949C93.4862 69.5987 92.1486 73.6114 90.0467 77.242L76.2886 79.9171ZM55.2696 93.8662L48.1996 81.4458L55.0785 70.7452H67.1168L73.9957 81.4458L66.9255 93.6751C63.1039 94.6305 59.0912 94.6305 55.2696 93.8662ZM34.0594 80.6815L45.5244 82.7834L51.4479 92.9108C44.76 90.9999 38.6454 86.7961 34.0594 80.6815ZM28.1359 56.0318C28.9002 50.6815 31.0021 45.7133 34.0594 41.5095L35.9703 53.5477L27.7536 61.9554C27.5625 59.8535 27.7537 57.9426 28.1359 56.0318ZM41.3207 34.0573C43.4226 32.5286 45.5243 31.191 47.8173 30.2356L59.4735 37.4968V48.0063L49.7281 55.0764L38.6455 52.5923L36.3523 38.4522C37.881 36.9235 39.6009 35.3949 41.3207 34.0573ZM66.1614 27.9426C73.4225 29.0891 80.1103 32.5286 85.0784 37.6879L83.3588 52.5923L72.276 55.0764L62.5308 48.0063V37.3057L64.6326 35.777C65.2059 35.3949 65.3969 34.4394 65.0147 33.8662C64.6326 33.2929 63.6771 33.1019 63.1039 33.484L61.002 35.0127L51.2569 29.0891C56.0339 27.5605 61.0022 27.1783 66.1614 27.9426ZM55.2696 68.07L51.8302 57.1783L56.416 53.7388L61.002 50.2993L70.1741 56.9872L66.7345 67.8789L55.2696 68.07ZM45.7154 79.9171L31.7665 77.242C29.6646 73.6114 28.3269 69.5987 27.7536 65.3949L37.69 55.2675L48.7727 57.7515L52.4033 69.2165L45.7154 79.9171ZM94.4415 61.7643L86.2251 53.3566L87.7536 40.7452C87.9447 40.9363 87.9448 41.1273 88.1359 41.3184C92.5308 47.4331 94.6326 54.6942 94.4415 61.7643ZM97.1167 65.3949C97.1167 65.2038 97.1167 65.2038 97.1167 65.3949C97.1167 64.8216 97.3077 64.4394 97.3077 64.0573C98.0721 55.4585 95.588 46.6687 90.4288 39.7898C84.6963 31.9554 76.2886 26.7961 66.7345 25.4585C57.1804 23.9299 47.6263 26.414 39.7919 32.1464C31.9575 37.8789 26.7983 46.2866 25.4607 55.8407C24.1231 64.0573 25.8429 72.4649 30.0467 79.535C30.62 80.6815 31.3843 81.6369 32.1486 82.7834C37.3078 89.6624 44.7601 94.6305 52.9767 96.5414C53.3588 96.5414 53.7409 96.7324 54.1231 96.7324H54.3141C56.6071 97.1146 58.9001 97.3057 61.1931 97.3057C63.4861 97.3057 65.7792 97.1146 68.0722 96.7324H68.2633C71.5117 96.1592 74.5689 95.0127 77.4351 93.484C78.1994 93.1019 78.3906 92.3375 78.0084 91.5732C77.6263 90.8089 76.8619 90.6178 76.0976 90.9999C74.3779 91.9554 72.4669 92.5286 70.7472 93.1019L76.671 82.9745L88.1359 80.8726C87.1805 82.2101 86.0339 83.5477 84.8874 84.8853C84.3141 85.4585 84.3141 86.414 84.8874 86.7961C85.4606 87.3694 86.416 87.3694 86.7982 86.7961C88.9001 84.6942 90.811 82.2101 92.3396 79.535C94.8237 75.1401 96.3524 70.363 97.1167 65.3949Z" fill="#404040"/>
<path d="M61 121C94.1371 121 121 94.1371 121 61C121 27.8629 94.1371 1 61 1C27.8629 1 1 27.8629 1 61C1 94.1371 27.8629 121 61 121Z" stroke="#404040" stroke-miterlimit="10"/>
</svg>
