<svg width="122" height="122" viewBox="0 0 122 122" fill="none" xmlns="http://www.w3.org/2000/svg">
<path d="M87.3702 52.5925H86.7968C84.6949 52.5925 82.9752 50.8728 82.9752 48.7709V45.3313H91.1918V48.7709C91.1918 50.8728 89.4721 52.5925 87.3702 52.5925ZM88.3256 60.2358H65.9688C65.2045 60.2358 64.6313 60.809 64.6313 61.5734V80.6817C64.6313 81.446 65.2045 82.0193 65.9688 82.0193H88.3256V88.8983H59.2809V61.3823C59.2809 60.618 58.7077 60.0447 57.9434 60.0447H37.1153C36.351 60.0447 35.7779 60.618 35.7779 61.3823V88.8983H31.1918V55.2677C31.3829 55.2677 31.7651 55.2677 32.1472 55.2677H32.7206C34.8225 55.2677 36.7332 54.3123 37.8797 52.7836C39.0262 54.3123 40.937 55.2677 43.0389 55.2677H43.6122C45.7141 55.2677 47.6248 54.3123 48.7713 52.7836C49.9178 54.3123 51.8288 55.2677 53.9307 55.2677H54.5038C56.6057 55.2677 58.5167 54.3123 59.6632 52.7836C60.8097 54.3123 62.7204 55.2677 64.8223 55.2677H65.3957C67.4976 55.2677 69.4083 54.3123 70.5548 52.7836C71.7013 54.3123 73.6123 55.2677 75.7142 55.2677H76.2873C78.3892 55.2677 80.3002 54.3123 81.4467 52.7836C82.5932 54.3123 84.5039 55.2677 86.6058 55.2677H87.1791C87.5613 55.2677 87.7524 55.2677 88.1346 55.2677L88.3256 60.2358ZM88.3256 79.5352H67.3065V62.911H88.3256V79.5352ZM38.4531 89.0894V62.911H56.6059V89.0894H38.4531ZM28.3256 45.3313H36.5422V48.7709C36.5422 50.8728 34.8225 52.5925 32.7206 52.5925H32.1472C30.0453 52.5925 28.3256 50.8728 28.3256 48.7709V45.3313ZM72.0836 45.3313H80.3V48.7709C80.3 50.8728 78.5802 52.5925 76.4783 52.5925H75.9052C73.8033 52.5925 72.0836 50.8728 72.0836 48.7709V45.3313ZM61.1917 45.3313H69.4084V48.7709C69.4084 50.8728 67.6886 52.5925 65.5867 52.5925H65.0134C62.9115 52.5925 61.1917 50.8728 61.1917 48.7709V45.3313ZM50.3001 45.3313H58.5167V48.7709C58.5167 50.8728 56.797 52.5925 54.6951 52.5925H54.1218C52.0198 52.5925 50.3001 50.8728 50.3001 48.7709V45.3313ZM39.2172 45.3313H47.4339V48.7709C47.4339 50.8728 45.7141 52.5925 43.6122 52.5925H43.0389C40.937 52.5925 39.2172 50.8728 39.2172 48.7709V45.3313ZM93.867 34.8218C93.867 32.5288 92.1471 30.8091 89.8541 30.8091H78.7715C78.0071 30.8091 77.4337 31.3823 77.4337 32.1466C77.4337 32.911 78.0071 33.4842 78.7715 33.4842H89.8541C90.6184 33.4842 91.1918 34.0574 91.1918 34.8218V42.8473H28.3256V34.8218C28.3256 34.0574 28.8987 33.4842 29.6631 33.4842H46.2874C47.0517 33.4842 47.6249 32.911 47.6249 32.1466C47.6249 31.3823 47.0517 30.8091 46.2874 30.8091H29.6631C27.3701 30.8091 25.6504 32.5288 25.6504 34.8218V44.1849V48.7709C25.6504 51.0639 26.7969 52.9747 28.5166 54.1212V54.3122V88.8983H26.9881C26.2238 88.8983 25.6504 89.4715 25.6504 90.2358C25.6504 91.0001 26.2238 91.5734 26.9881 91.5734H92.5293C93.2936 91.5734 93.867 91.0001 93.867 90.2358C93.867 89.4715 93.2936 88.8983 92.5293 88.8983H91.0008V54.3122V54.1212C92.7205 52.9747 93.867 51.0639 93.867 48.7709V44.1849V34.8218V34.8218Z" fill="#404040"/>
<path d="M52.4039 74.7581C52.0217 74.7581 51.6396 74.9491 51.4485 75.1402C51.2574 75.3313 51.0664 75.7134 51.0664 76.0956C51.0664 76.4778 51.2574 76.8599 51.4485 77.051C51.6396 77.2421 52.0217 77.4332 52.4039 77.4332C52.7861 77.4332 53.1682 77.2421 53.3593 77.051C53.5504 76.8599 53.7416 76.4778 53.7416 76.0956C53.7416 75.7134 53.5504 75.3313 53.3593 75.1402C53.1682 74.9491 52.7861 74.7581 52.4039 74.7581Z" fill="#404040"/>
<path d="M54.8853 32.9108L56.9871 30.8089L60.6177 34.4395L58.5159 36.5414C57.5605 37.4968 55.8407 37.4968 54.8853 36.5414C54.312 35.9682 54.1209 35.3949 54.1209 34.6306C54.1209 33.8662 54.5031 33.484 54.8853 32.9108ZM60.9998 26.9873C61.5731 26.414 62.1463 26.2229 62.9106 26.2229C63.4839 26.2229 64.2482 26.414 64.8215 26.9873C65.3947 27.5605 65.5858 28.1338 65.5858 28.8981C65.5858 29.6624 65.3947 30.2357 64.8215 30.8089L62.7196 32.9108L59.089 29.2802L60.9998 26.9873ZM56.7961 39.9809C58.1337 39.9809 59.4713 39.4076 60.4267 38.4522L63.484 35.3949L66.5413 32.3376C67.4967 31.3821 68.07 30.0446 68.07 28.707C68.07 27.3694 67.4967 26.0318 66.5413 25.0764C64.4393 22.9745 61.1909 22.9745 59.089 25.0764L53.1655 31C52.2101 31.9554 51.6367 33.293 51.6367 34.6306C51.6367 35.9682 52.2101 37.3057 53.1655 38.2611C54.1209 39.5987 55.4585 39.9809 56.7961 39.9809Z" fill="#404040"/>
<path d="M72.8475 72.4651H76.4779V76.0957C76.4779 76.86 77.0513 77.4333 77.8156 77.4333C78.5799 77.4333 79.1531 76.86 79.1531 76.0957V72.4651H82.7837C83.548 72.4651 84.1212 71.8918 84.1212 71.1275C84.1212 70.3632 83.548 69.7899 82.7837 69.7899H79.1531V66.1594C79.1531 65.395 78.5799 64.8218 77.8156 64.8218C77.0513 64.8218 76.4779 65.395 76.4779 66.1594V69.7899H72.8475C72.0832 69.7899 71.5098 70.3632 71.5098 71.1275C71.5098 71.8918 72.0832 72.4651 72.8475 72.4651Z" fill="#404040"/>
<path d="M43.6109 66.5415C42.8466 66.5415 42.2734 67.1148 42.2734 67.8791V78.9619C42.2734 79.7262 42.8466 80.2995 43.6109 80.2995C44.3753 80.2995 44.9484 79.7262 44.9484 78.9619V67.8791C44.9484 67.1148 44.3753 66.5415 43.6109 66.5415Z" fill="#404040"/>
<path d="M43.6109 82.7834C43.2288 82.7834 42.8466 82.9746 42.6555 83.1656C42.4644 83.3567 42.2734 83.7389 42.2734 84.1211C42.2734 84.5032 42.4644 84.8854 42.6555 85.0765C42.8466 85.2675 43.2288 85.4586 43.6109 85.4586C43.9931 85.4586 44.3753 85.2675 44.5663 85.0765C44.7574 84.8854 44.9484 84.5032 44.9484 84.1211C44.9484 83.7389 44.7574 83.3567 44.5663 83.1656C44.1842 82.9746 43.9931 82.7834 43.6109 82.7834Z" fill="#404040"/>
<path d="M61 121C94.1371 121 121 94.1371 121 61C121 27.8629 94.1371 1 61 1C27.8629 1 1 27.8629 1 61C1 94.1371 27.8629 121 61 121Z" stroke="#404040" stroke-miterlimit="10"/>
</svg>
