<svg width="37" height="37" viewBox="0 0 37 37" fill="none" xmlns="http://www.w3.org/2000/svg">
<g clip-path="url(#clip0)">
<path d="M28.1294 24.4762C26.9206 23.2828 25.4116 23.2828 24.2105 24.4762C23.2943 25.3847 22.378 26.2932 21.4772 27.2172C21.2308 27.4712 21.0229 27.5251 20.7227 27.3558C20.1298 27.0324 19.4985 26.7706 18.9287 26.4164C16.2724 24.7457 14.0473 22.5976 12.0763 20.18C11.0985 18.9789 10.2285 17.6931 9.6202 16.2456C9.49701 15.953 9.52011 15.7605 9.75879 15.5219C10.675 14.6364 11.5681 13.7279 12.469 12.8194C13.724 11.5567 13.724 10.0784 12.4613 8.80802C11.7452 8.08428 11.0292 7.37594 10.3131 6.6522C9.57401 5.91306 8.84257 5.16622 8.09573 4.43479C6.88694 3.25679 5.37786 3.25679 4.17676 4.44249C3.25284 5.35101 2.36742 6.28263 1.4281 7.17575C0.558069 7.99959 0.119206 9.0082 0.0268139 10.1862C-0.119474 12.1033 0.350187 13.9127 1.01233 15.6758C2.36742 19.3253 4.43084 22.5668 6.93313 25.5387C10.3131 29.5578 14.3476 32.7376 19.0673 35.032C21.1923 36.0637 23.3943 36.8568 25.7888 36.9876C27.4365 37.08 28.8686 36.6643 30.0158 35.3785C30.8011 34.5007 31.6865 33.7 32.5181 32.8608C33.75 31.6135 33.7577 30.1044 32.5335 28.8725C31.0706 27.4019 29.6 25.9391 28.1294 24.4762Z" fill="white"/>
<path d="M26.6586 18.3398L29.4997 17.8548C29.0531 15.2447 27.8212 12.881 25.9503 11.0024C23.9715 9.02362 21.4692 7.77632 18.7129 7.39136L18.3125 10.2478C20.4452 10.5481 22.3855 11.5105 23.9176 13.0427C25.3651 14.4902 26.3121 16.3226 26.6586 18.3398Z" fill="white"/>
<path d="M31.1028 5.99009C27.8228 2.71017 23.6729 0.639046 19.0918 0L18.6914 2.85646C22.6489 3.41081 26.2368 5.20476 29.0701 8.03042C31.7572 10.7175 33.5204 14.1129 34.1594 17.8471L37.0005 17.362C36.2536 13.035 34.2133 9.10833 31.1028 5.99009Z" fill="white"/>
</g>
<defs>
<clipPath id="clip0">
<rect width="37" height="37" fill="white"/>
</clipPath>
</defs>
</svg>
