<svg width="36" height="36" viewBox="0 0 36 36" fill="none" xmlns="http://www.w3.org/2000/svg">
<path fill-rule="evenodd" clip-rule="evenodd" d="M18 36C27.9411 36 36 27.9411 36 18C36 8.05887 27.9411 0 18 0C8.05887 0 0 8.05887 0 18C0 27.9411 8.05887 36 18 36Z" fill="#373B43"/>
<path fill-rule="evenodd" clip-rule="evenodd" d="M18.4828 22.9582C18.4828 22.9582 18.8077 22.9231 18.9741 22.749C19.1264 22.5896 19.1211 22.2886 19.1211 22.2886C19.1211 22.2886 19.1009 20.8835 19.7708 20.676C20.4311 20.472 21.2789 22.0349 22.1787 22.6359C22.8583 23.0902 23.3742 22.9908 23.3742 22.9908L25.7786 22.9582C25.7786 22.9582 27.0357 22.8828 26.4397 21.92C26.3904 21.8411 26.092 21.2076 24.6526 19.9061C23.1445 18.5439 23.3469 18.7642 25.1623 16.4074C26.2681 14.9723 26.71 14.0961 26.5718 13.7214C26.4406 13.3631 25.6271 13.4582 25.6271 13.4582L22.9208 13.4745C22.9208 13.4745 22.7201 13.448 22.5713 13.5345C22.4261 13.6194 22.3319 13.8175 22.3319 13.8175C22.3319 13.8175 21.904 14.9277 21.3326 15.8725C20.1274 17.8649 19.6458 17.9703 19.4486 17.8469C18.9899 17.5579 19.1044 16.6878 19.1044 16.0696C19.1044 14.1381 19.4055 13.3331 18.5189 13.1247C18.2249 13.0553 18.0083 13.0099 17.2556 13.0021C16.2898 12.9927 15.4728 13.0056 15.0097 13.2259C14.7016 13.3725 14.4639 13.7 14.6092 13.7189C14.7879 13.742 15.1929 13.8252 15.4077 14.1098C15.685 14.4776 15.6753 15.3023 15.6753 15.3023C15.6753 15.3023 15.8347 17.5759 15.3029 17.858C14.9384 18.0518 14.4384 17.6565 13.3634 15.8484C12.8132 14.9225 12.3977 13.8989 12.3977 13.8989C12.3977 13.8989 12.3175 13.7077 12.174 13.6048C12.0006 13.4805 11.7585 13.442 11.7585 13.442L9.18691 13.4582C9.18691 13.4582 8.80042 13.4685 8.65868 13.6323C8.53278 13.7772 8.64899 14.0781 8.64899 14.0781C8.64899 14.0781 10.6624 18.6656 12.9426 20.9778C15.0335 23.0971 17.407 22.9582 17.407 22.9582H18.4828Z" fill="white"/>
</svg>
