<svg width="18" height="18" viewBox="0 0 18 18" fill="none" xmlns="http://www.w3.org/2000/svg">
<path fill-rule="evenodd" clip-rule="evenodd" d="M17.0766 2.68868C17.6534 2.09412 17.6391 1.14448 17.0445 0.567607C16.45 -0.00926518 15.5003 0.00507987 14.9234 0.599647L9 6.70479L3.07656 0.599647C2.49969 0.00507987 1.55005 -0.00926518 0.955482 0.567607C0.360915 1.14448 0.34657 2.09412 0.923442 2.68868L6.91001 8.85889L0.923442 15.0291C0.34657 15.6237 0.360915 16.5733 0.955482 17.1502C1.55005 17.727 2.49969 17.7127 3.07656 17.1181L9 11.013L14.9234 17.1181C15.5003 17.7127 16.45 17.727 17.0445 17.1502C17.6391 16.5733 17.6534 15.6237 17.0766 15.0291L11.09 8.85889L17.0766 2.68868Z" fill="#00AEEF"/>
</svg>
