<svg width="83" height="32" viewBox="0 0 83 32" fill="none" xmlns="http://www.w3.org/2000/svg">
<path fill-rule="evenodd" clip-rule="evenodd" d="M33.6047 16.5191H23.9672V11.4667H32.3752C32.6097 11.4667 32.7602 11.4133 32.8294 11.308C32.8972 11.2013 32.9309 11.0333 32.9309 10.8018V8.54711C32.9309 8.27778 32.8972 8.09511 32.8294 7.99822C32.7602 7.90133 32.6097 7.85378 32.3752 7.85378H23.9672V3.82178H33.3114C33.5266 3.82178 33.6721 3.77867 33.7507 3.692C33.8293 3.60489 33.8684 3.436 33.8684 3.18444V0.721333C33.8684 0.45111 33.8343 0.267557 33.7664 0.171112C33.6982 0.0742232 33.5459 0.0257759 33.3114 0.0257759H20.0792C19.8636 0.0257759 19.7176 0.0648881 19.6394 0.142666C19.5612 0.219555 19.5226 0.384 19.5226 0.634666V19.7324C19.5226 19.9644 19.5765 20.1244 19.6821 20.2107C19.7903 20.2978 19.9606 20.3413 20.1942 20.3413H33.6047C33.8397 20.3413 33.9955 20.2889 34.0737 20.1818C34.1514 20.076 34.1905 19.9071 34.1905 19.6756V17.2142C34.1905 16.924 34.1564 16.7369 34.0885 16.6493C34.0202 16.5622 33.8585 16.5191 33.6047 16.5191ZM70.9294 12.5142L72.0421 8.83556L73.1557 4.69467H73.3314L74.4144 8.83556L75.5281 12.5142H70.9294ZM82.4411 19.7618L76.347 1.59333C76.2306 1.24578 76.1089 0.966221 75.9818 0.753777C75.8546 0.540888 75.7028 0.376443 75.5281 0.260887C75.352 0.144887 75.1467 0.0728895 74.9131 0.0435562C74.6786 0.0146673 74.3951 0 74.0631 0H72.3063C72.0125 0 71.7533 0.0239986 71.5287 0.0719986C71.305 0.120887 71.1091 0.202668 70.9442 0.318668C70.7776 0.434668 70.6311 0.593779 70.5044 0.796001C70.3769 0.999557 70.2646 1.26578 70.1675 1.59333L64.0752 19.7618C64.0361 19.9164 64.0406 20.052 64.09 20.1671C64.1377 20.284 64.2702 20.3413 64.4849 20.3413H67.9125C68.1851 20.3413 68.3751 20.2978 68.4825 20.2107C68.5903 20.1236 68.6739 19.9836 68.7332 19.7898L69.8751 16.1004H76.5824L77.7247 19.8769C77.7831 20.0893 77.8865 20.2209 78.0324 20.2689C78.1793 20.3169 78.3604 20.3413 78.5751 20.3413H82.0601C82.2749 20.3413 82.4024 20.2742 82.4411 20.1387C82.4788 20.0031 82.4802 19.8778 82.4411 19.7618ZM65.6035 3.216V0.634666C65.6035 0.384 65.5639 0.219555 65.4858 0.142666C65.4085 0.0648881 65.2513 0.0257759 65.0172 0.0257759H50.0317C49.8175 0.0257759 49.6701 0.0648881 49.592 0.142666C49.5143 0.219555 49.4756 0.384 49.4756 0.634666V3.216C49.4756 3.60311 49.6607 3.79556 50.0317 3.79556H55.2162V19.7324C55.2162 19.9644 55.2692 20.1244 55.377 20.2107C55.4844 20.2978 55.6551 20.3413 55.8891 20.3413H59.0139C59.3063 20.3413 59.4959 20.3027 59.5839 20.2258C59.6715 20.1476 59.7147 19.984 59.7147 19.7324V3.79556H65.0172C65.4072 3.79556 65.6035 3.60311 65.6035 3.216ZM51.6651 16.6462C51.5874 16.5791 51.4405 16.5453 51.2262 16.5453H43.7854C43.1996 16.5453 42.7261 16.4204 42.3645 16.1684C42.0038 15.9173 41.8232 15.4249 41.8232 14.6911V0.611111C41.8232 0.36 41.7787 0.195999 41.6911 0.11911C41.6044 0.0413323 41.413 0.00222397 41.1215 0.00222397H38.0237C37.7896 0.00222397 37.6189 0.046224 37.512 0.133335C37.4042 0.220002 37.3508 0.38 37.3508 0.611111V15.0084C37.3508 15.6658 37.4289 16.3133 37.5852 16.9502C37.7407 17.5884 38.0237 18.1582 38.4325 18.6609C38.8422 19.1631 39.392 19.5684 40.0843 19.8778C40.7756 20.1867 41.6677 20.3413 42.7602 20.3413H51.2262C51.5968 20.3413 51.7828 20.1387 51.7828 19.7324V17.1538C51.7828 16.8836 51.7437 16.7147 51.6651 16.6462ZM11.8549 12.6516C11.6995 13.4351 11.4254 14.1067 11.0337 14.6671C10.6425 15.2289 10.1101 15.6689 9.43585 15.988C8.76022 16.3076 7.91435 16.4662 6.89821 16.4662H4.52185V3.87422H6.81062C7.84651 3.87422 8.70632 4.03422 9.39183 4.35333C10.0755 4.67289 10.6177 5.10756 11.0184 5.65956C11.42 6.21022 11.6995 6.86311 11.8549 7.61733C12.0117 8.37111 12.0903 9.19378 12.0903 10.084C12.0903 11.0124 12.0117 11.868 11.8549 12.6516ZM14.5839 3.01067C13.8413 2.10311 12.8746 1.37867 11.6819 0.837334C10.4911 0.296445 9.0347 0.0257759 7.31554 0.0257759H1.83507C1.13159 0.0257759 0.662607 0.171112 0.428115 0.460445C0.194072 0.750668 0.0759277 1.20445 0.0759277 1.82311V18.5738C0.0759277 19.192 0.194072 19.6409 0.428115 19.9209C0.662607 20.2009 1.13159 20.3413 1.83507 20.3413H7.63763C9.35679 20.3413 10.7988 20.0564 11.9609 19.4867C13.1226 18.9169 14.0561 18.1582 14.7595 17.2116C15.4626 16.2644 15.9612 15.1733 16.2541 13.9369C16.5465 12.7004 16.6948 11.416 16.6948 10.0822C16.6948 8.72978 16.5272 7.44089 16.1961 6.21333C15.8633 4.98667 15.3265 3.91955 14.5839 3.01067Z" fill="white"/>
<path fill-rule="evenodd" clip-rule="evenodd" d="M82.3 26.9778L81.6069 27.1161C81.4586 27.1418 81.416 27.1245 81.3117 27.2956L80.4708 28.7454C80.3059 29.0289 80.1586 29.2863 79.9241 29.7921H79.8891C79.9075 29.5774 79.9331 29.1058 79.9331 28.8658V27.0809C79.9331 26.9529 79.8639 26.9614 79.7943 26.9778L78.9969 27.1418C78.824 27.1756 78.8316 27.2187 78.8316 27.2956V31.2338C78.8316 31.3449 78.8577 31.3529 78.9529 31.3529H79.8113C79.9241 31.3529 79.9331 31.3107 79.9771 31.2338L80.8005 29.7232C80.9137 29.5169 81.0418 29.3374 81.3459 28.6769H81.3809C81.3459 29.2521 81.3373 29.4401 81.3373 29.6032V31.2338C81.3373 31.3449 81.3638 31.3529 81.4586 31.3529H82.3171C82.4303 31.3529 82.4393 31.3276 82.4393 31.2338V27.0809C82.4393 26.9529 82.3688 26.9614 82.3 26.9778ZM78.1344 27.1161H74.9697C74.8735 27.1161 74.8475 27.1418 74.8475 27.2361V27.8529C74.8475 27.9476 74.8735 27.9738 74.9697 27.9738H75.9579V31.2338C75.9579 31.3449 75.984 31.3529 76.0788 31.3529H76.9372C77.05 31.3529 77.0594 31.3276 77.0594 31.2338V27.9738H78.0122C78.0563 27.9738 78.1169 27.9561 78.1425 27.8529L78.2642 27.2876C78.2827 27.2009 78.3163 27.1161 78.1344 27.1161ZM74.2325 27.2618C73.9985 27.1161 73.6517 26.9698 73.1827 26.9698C72.1427 26.9698 71.1711 27.6218 71.1711 29.3289C71.1711 30.9676 72.1167 31.4992 73.1135 31.4992C73.4518 31.4992 73.8161 31.4218 74.1018 31.2672C74.2325 31.1996 74.3183 31.1129 74.3183 31.0449C74.3183 31.0187 74.3008 30.9761 74.2927 30.9587L74.0676 30.3925C74.0591 30.3667 74.0241 30.3498 74.007 30.3498C73.9459 30.3498 73.8511 30.4267 73.7478 30.4872C73.5901 30.5814 73.4253 30.6414 73.2006 30.6414C72.8278 30.6414 72.6203 30.4441 72.507 30.2556C72.4114 30.0925 72.3422 29.8263 72.3422 29.3027C72.3422 28.6254 72.463 28.3423 72.5151 28.2316C72.6369 27.9907 72.8449 27.8281 73.1827 27.8281C73.4086 27.8281 73.5816 27.8961 73.764 28.0161C73.8942 28.1023 73.963 28.1707 74.0164 28.1707C74.0501 28.1707 74.0676 28.1445 74.0757 28.1281L74.3969 27.5703C74.4135 27.5445 74.423 27.5276 74.423 27.4934C74.423 27.4409 74.3888 27.3645 74.2325 27.2618ZM68.6698 30.6414C67.9929 30.6414 67.9583 29.8863 67.9583 29.2347C67.9583 28.5832 67.9929 27.8281 68.6698 27.8281C69.3455 27.8281 69.38 28.5832 69.38 29.2347C69.38 29.8863 69.3455 30.6414 68.6698 30.6414ZM68.6698 26.9698C67.7152 26.9698 66.7871 27.6218 66.7871 29.2347C66.7871 30.8472 67.7152 31.4992 68.6698 31.4992C69.6231 31.4992 70.5516 30.8472 70.5516 29.2347C70.5516 27.6218 69.6231 26.9698 68.6698 26.9698ZM65.8164 26.9778L65.0186 27.1418C64.8443 27.1756 64.8537 27.2187 64.8537 27.2956V28.7023H63.6044V27.0809C63.6044 26.9529 63.5357 26.9614 63.4665 26.9778L62.7806 27.1161C62.4863 27.1756 62.5034 27.2009 62.5034 27.2956V31.2338C62.5034 31.3276 62.5299 31.3529 62.6251 31.3529H63.4836C63.5963 31.3529 63.6044 31.3276 63.6044 31.2338V29.5609H64.8537V31.2338C64.8537 31.3449 64.8798 31.3529 64.9759 31.3529H65.833C65.9458 31.3529 65.9552 31.3276 65.9552 31.2338V27.0809C65.9552 26.9529 65.8851 26.9614 65.8164 26.9778ZM61.6535 27.2618C61.4199 27.1161 61.0726 26.9698 60.6045 26.9698C59.5642 26.9698 58.5921 27.6218 58.5921 29.3289C58.5921 30.9676 59.5377 31.4992 60.5354 31.4992C60.8732 31.4992 61.2375 31.4218 61.5232 31.2672C61.6535 31.1996 61.7406 31.1129 61.7406 31.0449C61.7406 31.0187 61.7236 30.9761 61.715 30.9587L61.4886 30.3925C61.4805 30.3667 61.4455 30.3498 61.4284 30.3498C61.3673 30.3498 61.2716 30.4267 61.1688 30.4872C61.012 30.5814 60.8476 30.6414 60.6221 30.6414C60.2497 30.6414 60.0399 30.4441 59.9285 30.2556C59.8328 30.0925 59.7627 29.8263 59.7627 29.3027C59.7627 28.6254 59.8849 28.3423 59.9379 28.2316C60.0583 27.9907 60.2663 27.8281 60.6045 27.8281C60.8296 27.8281 61.0039 27.8961 61.1858 28.0161C61.3157 28.1023 61.3844 28.1707 61.4374 28.1707C61.4715 28.1707 61.4886 28.1445 61.4976 28.1281L61.8183 27.5703C61.8354 27.5445 61.8444 27.5276 61.8444 27.4934C61.8444 27.4409 61.8098 27.3645 61.6535 27.2618ZM56.7866 30.3752C56.5948 30.5814 56.3621 30.7009 56.1371 30.7009C55.8244 30.7009 55.5643 30.4698 55.5643 30.1178C55.5643 29.5436 56.1797 29.4232 56.7866 29.4316V30.3752ZM57.8266 30.0067V28.3507C57.8266 28.1965 57.8095 27.8107 57.6357 27.5192C57.3756 27.0809 56.8733 26.9698 56.3356 26.9698C55.9798 26.9698 55.3644 27.0383 55.0086 27.2009C54.7836 27.3045 54.7836 27.3383 54.8267 27.4592L55.0086 27.9992C55.0266 28.0596 55.0441 28.0845 55.0953 28.0845C55.1564 28.0845 55.2171 28.0423 55.5122 27.9476C55.7292 27.8792 55.9888 27.8281 56.2148 27.8281C56.4578 27.8281 56.6047 27.9045 56.6829 27.9992C56.7952 28.1369 56.7866 28.3423 56.7866 28.4618V28.7281C56.2929 28.7116 55.4772 28.7796 55.0527 29.0801C54.8703 29.2089 54.5239 29.5347 54.5239 30.1956C54.5239 30.9845 55.0266 31.4992 55.8069 31.4992C56.301 31.4992 56.6132 31.3276 56.9511 30.9845C56.9776 31.1218 57.0202 31.2409 57.0979 31.3965C57.1685 31.5254 57.2201 31.5081 57.2808 31.4814L57.9834 31.1996C58.0085 31.1903 58.0525 31.1641 58.0525 31.1129C58.0525 31.0698 58.0175 31.0103 57.9578 30.8556C57.8266 30.5294 57.8266 30.2556 57.8266 30.0067ZM53.6264 27.1161H50.4446C50.3489 27.1161 50.3224 27.1245 50.3224 27.2361V31.2338C50.3224 31.3276 50.3318 31.3529 50.4446 31.3529H51.3035C51.4153 31.3529 51.4243 31.3276 51.4243 31.2338V27.9738H52.6471V31.2338C52.6471 31.3276 52.6722 31.3529 52.7684 31.3529H53.6264C53.7396 31.3529 53.7472 31.3276 53.7472 31.2338V27.2361C53.7472 27.1245 53.7221 27.1161 53.6264 27.1161ZM47.5898 30.6414C46.9133 30.6414 46.8791 29.8863 46.8791 29.2347C46.8791 28.5832 46.9133 27.8281 47.5898 27.8281C48.2668 27.8281 48.3004 28.5832 48.3004 29.2347C48.3004 29.8863 48.2668 30.6414 47.5898 30.6414ZM47.5898 26.9698C46.6365 26.9698 45.708 27.6218 45.708 29.2347C45.708 30.8472 46.6365 31.4992 47.5898 31.4992C48.5439 31.4992 49.4716 30.8472 49.4716 29.2347C49.4716 27.6218 48.5439 26.9698 47.5898 26.9698ZM44.4134 29.1316V29.1058C44.8118 28.9592 45.0203 28.5996 45.0203 28.1538C45.0203 27.7587 44.8289 27.4934 44.6389 27.3214C44.2831 27.0041 43.8325 26.9698 43.5297 26.9698C42.8793 26.9698 42.4795 27.1494 42.298 27.2525C42.2364 27.2876 42.0806 27.3818 42.0806 27.4934C42.0806 27.5192 42.0887 27.5445 42.1066 27.5703L42.3928 28.0076C42.4013 28.0245 42.4274 28.0681 42.4795 28.0681C42.5235 28.0681 42.5662 28.0334 42.7054 27.9561C42.8002 27.9045 43.0432 27.7676 43.382 27.7676C43.7368 27.7676 43.9453 27.9645 43.9453 28.2485C43.9453 28.7369 43.5023 28.7712 43.2081 28.7712H43.0082C42.913 28.7712 42.8874 28.7965 42.8874 28.8912V29.4489C42.8874 29.5436 42.913 29.5694 43.0082 29.5694H43.1987C43.4682 29.5694 44.0145 29.5694 44.0145 30.0841C44.0145 30.3067 43.9102 30.7009 43.3298 30.7009C43.0082 30.7009 42.8002 30.6329 42.5141 30.4778C42.4013 30.4187 42.3326 30.3752 42.2715 30.3752C42.2198 30.3752 42.1938 30.4014 42.1767 30.4441L41.9858 30.8898C41.9763 30.9161 41.9597 30.9503 41.9597 30.9845C41.9597 31.1129 42.1156 31.1814 42.2544 31.2503C42.5585 31.4045 43.0262 31.4992 43.4076 31.4992C44.3963 31.4992 45.1155 30.9929 45.1155 30.1005C45.1155 29.5521 44.7947 29.2347 44.4134 29.1316ZM40.299 28.7281H38.9378C38.9899 28.1445 39.1813 27.7676 39.6741 27.7676C40.0222 27.7676 40.1952 27.9645 40.2653 28.2907C40.2819 28.3596 40.3079 28.4969 40.299 28.7281ZM39.7352 26.9698C38.521 26.9698 37.8368 27.9907 37.8368 29.3463C37.8368 29.9378 37.9576 31.4992 39.8129 31.4992C40.299 31.4992 40.8717 31.3703 41.192 31.1565C41.2612 31.1129 41.3313 31.0529 41.3313 30.9676C41.3313 30.9414 41.3223 30.9241 41.3057 30.8898L41.0873 30.3836C41.0712 30.3414 41.0447 30.3147 40.9921 30.3147C40.9405 30.3147 40.8623 30.3498 40.7585 30.4014C40.5941 30.4778 40.2895 30.5983 39.8911 30.5983C39.1714 30.5983 38.9378 30.1525 38.9378 29.5263H41.2702C41.3834 29.5263 41.4692 29.5169 41.4692 29.2521C41.4692 29.0289 41.4611 28.7116 41.3744 28.3507C41.2185 27.6814 40.8272 26.9698 39.7352 26.9698ZM35.3342 30.6414C34.6577 30.6414 34.6231 29.8609 34.6231 29.3201C34.6231 28.7885 34.6577 28.0245 35.3342 28.0245C36.0112 28.0245 36.0449 28.7885 36.0449 29.3201C36.0449 29.8609 36.0112 30.6414 35.3342 30.6414ZM35.5071 27.1667C34.9272 27.1667 34.4852 27.4161 34.2421 27.8872H34.2071L34.2165 27.7929C34.2943 26.9614 34.9789 26.6352 35.2138 26.5321L37.0165 25.7689C37.1814 25.7001 37.1472 25.5885 37.1293 25.5547L36.8346 24.9196C36.773 24.7823 36.6172 24.8596 36.5655 24.8854L34.9353 25.6143C34.2682 25.9143 33.8163 26.4894 33.6173 27.0383C33.4358 27.5192 33.4097 28.1023 33.4097 28.7369C33.4097 29.2947 33.4358 29.9463 33.6959 30.4872C34.1384 31.3876 34.9353 31.4992 35.3342 31.4992C36.3054 31.4992 37.216 30.8125 37.216 29.3201C37.216 27.9738 36.5305 27.1667 35.5071 27.1667ZM26.8552 30.4956H26.4212V29.4489H26.9504C27.1324 29.4489 27.5915 29.4578 27.5915 29.9721C27.5915 30.4698 27.1759 30.4956 26.8552 30.4956ZM28.2684 28.9338C27.8776 28.6076 27.392 28.5907 26.9073 28.5907H26.4212V27.0809C26.4212 26.9529 26.3516 26.9614 26.2829 26.9778L25.6234 27.1161C25.3112 27.1841 25.3207 27.1756 25.3207 27.2956V31.2338C25.3207 31.3449 25.3463 31.3529 25.4415 31.3529H26.7856C27.2451 31.3529 27.8269 31.3356 28.2334 31.0103C28.6413 30.6929 28.6934 30.2467 28.6934 29.9378C28.6934 29.5774 28.6063 29.2178 28.2684 28.9338ZM30.2535 26.9778L29.4566 27.1418C29.2832 27.1756 29.2918 27.2187 29.2918 27.2956V31.2338C29.2918 31.3449 29.3174 31.3529 29.4121 31.3529H30.2711C30.3843 31.3529 30.3928 31.3276 30.3928 31.2338V27.0809C30.3928 26.9529 30.3232 26.9614 30.2535 26.9778ZM24.1675 27.2441C24.1581 27.0898 24.0633 27.1161 24.0027 27.1161H23.274C23.2219 27.1161 23.1361 27.1072 23.1006 27.2098L22.4322 29.0289C22.3464 29.2601 22.2341 29.7321 22.1986 29.9378H22.1815C22.1555 29.7663 22.0337 29.2601 21.9475 29.0289L21.2795 27.2098C21.2453 27.1072 21.1582 27.1161 21.1065 27.1161H20.3779C20.3182 27.1161 20.222 27.0898 20.213 27.2441L19.9961 31.2249C19.9961 31.3018 19.9795 31.3529 20.1609 31.3529H20.7508C20.8285 31.3529 20.9156 31.3618 20.9156 31.2249L20.9938 28.4881H21.0194C21.1065 28.7885 21.2103 29.1574 21.3141 29.4578L21.7831 30.7441C21.8257 30.8645 21.8873 30.8472 21.956 30.8472H22.4246C22.4933 30.8472 22.5539 30.8645 22.5984 30.7441L23.066 29.4578C23.1703 29.1574 23.274 28.7885 23.3607 28.4881H23.3868L23.4649 31.2249C23.4649 31.3618 23.5521 31.3529 23.6294 31.3529H24.2192C24.4016 31.3529 24.384 31.3018 24.384 31.2249L24.1675 27.2441ZM18.1336 28.7281H16.7725C16.8246 28.1445 17.0146 27.7676 17.5088 27.7676C17.8555 27.7676 18.0294 27.9645 18.0986 28.2907C18.1156 28.3596 18.1417 28.4969 18.1336 28.7281ZM17.5698 26.9698C16.3561 26.9698 15.671 27.9907 15.671 29.3463C15.671 29.9378 15.7918 31.4992 17.6476 31.4992C18.1336 31.4992 18.7059 31.3703 19.0253 31.1565C19.0958 31.1129 19.165 31.0529 19.165 30.9676C19.165 30.9414 19.1569 30.9241 19.139 30.8898L18.9229 30.3836C18.9045 30.3414 18.8789 30.3147 18.8272 30.3147C18.7751 30.3147 18.6969 30.3498 18.5932 30.4014C18.4283 30.4778 18.1246 30.5983 17.7257 30.5983C17.0065 30.5983 16.7725 30.1525 16.7725 29.5263H19.1039C19.2167 29.5263 19.3038 29.5169 19.3038 29.2521C19.3038 29.0289 19.2948 28.7116 19.209 28.3507C19.0527 27.6814 18.6619 26.9698 17.5698 26.9698ZM15.3103 27.1161H12.146C12.0498 27.1161 12.0238 27.1418 12.0238 27.2361V27.8529C12.0238 27.9476 12.0498 27.9738 12.146 27.9738H13.1338V31.2338C13.1338 31.3449 13.1599 31.3529 13.2546 31.3529H14.114C14.2259 31.3529 14.2353 31.3276 14.2353 31.2338V27.9738H15.1885C15.2321 27.9738 15.2932 27.9561 15.3193 27.8529L15.4401 27.2876C15.4576 27.2009 15.4922 27.1161 15.3103 27.1161ZM11.4084 27.2618C11.1743 27.1161 10.8275 26.9698 10.359 26.9698C9.31859 26.9698 8.34828 27.6218 8.34828 29.3289C8.34828 30.9676 9.29254 31.4992 10.2898 31.4992C10.629 31.4992 10.9924 31.4218 11.2785 31.2672C11.4084 31.1996 11.4951 31.1129 11.4951 31.0449C11.4951 31.0187 11.478 30.9761 11.4695 30.9587L11.2444 30.3925C11.235 30.3667 11.2004 30.3498 11.1833 30.3498C11.1222 30.3498 11.0265 30.4267 10.9223 30.4872C10.7664 30.5814 10.6016 30.6414 10.377 30.6414C10.0041 30.6414 9.79521 30.4441 9.68381 30.2556C9.58768 30.0925 9.51805 29.8263 9.51805 29.3027C9.51805 28.6254 9.63934 28.3423 9.69145 28.2316C9.81318 27.9907 10.0216 27.8281 10.359 27.8281C10.5849 27.8281 10.7588 27.8961 10.9398 28.0161C11.0701 28.1023 11.1393 28.1707 11.1923 28.1707C11.226 28.1707 11.2444 28.1445 11.252 28.1281L11.5732 27.5703C11.5912 27.5445 11.5993 27.5276 11.5993 27.4934C11.5993 27.4409 11.5642 27.3645 11.4084 27.2618ZM7.37887 26.9778L6.68527 27.1161C6.53748 27.1418 6.4948 27.1245 6.39059 27.2956L5.55055 28.7454C5.38434 29.0289 5.23744 29.2863 5.0034 29.7921H4.96881C4.98678 29.5774 5.01283 29.1058 5.01283 28.8658V27.0809C5.01283 26.9529 4.94275 26.9614 4.87402 26.9778L4.07531 27.1418C3.90236 27.1756 3.91135 27.2187 3.91135 27.2956V31.2338C3.91135 31.3449 3.9374 31.3529 4.03219 31.3529H4.89109C5.0034 31.3529 5.01283 31.3107 5.05551 31.2338L5.87937 29.7232C5.99168 29.5169 6.12195 29.3374 6.42607 28.6769H6.45932C6.42607 29.2521 6.41709 29.4401 6.41709 29.6032V31.2338C6.41709 31.3449 6.4427 31.3529 6.53748 31.3529H7.39684C7.50914 31.3529 7.51813 31.3276 7.51813 31.2338V27.0809C7.51813 26.9529 7.44895 26.9614 7.37887 26.9778ZM3.06143 27.2618C2.82604 27.1161 2.47924 26.9698 2.01205 26.9698C0.97166 26.9698 0 27.6218 0 29.3289C0 30.9676 0.945605 31.4992 1.94152 31.4992C2.28068 31.4992 2.6441 31.4218 2.93025 31.2672C3.06143 31.1996 3.14723 31.1129 3.14723 31.0449C3.14723 31.0187 3.12971 30.9761 3.12072 30.9587L2.89611 30.3925C2.88713 30.3667 2.85209 30.3498 2.83502 30.3498C2.77437 30.3498 2.67959 30.4267 2.57537 30.4872C2.41994 30.5814 2.25463 30.6414 2.02867 30.6414C1.65582 30.6414 1.44828 30.4441 1.33553 30.2556C1.23939 30.0925 1.17021 29.8263 1.17021 29.3027C1.17021 28.6254 1.2924 28.3423 1.34451 28.2316C1.46535 27.9907 1.67334 27.8281 2.01205 27.8281C2.23666 27.8281 2.41051 27.8961 2.59244 28.0161C2.72227 28.1023 2.79234 28.1707 2.844 28.1707C2.8777 28.1707 2.89611 28.1445 2.9051 28.1281L3.22449 27.5703C3.24291 27.5445 3.25189 27.5276 3.25189 27.4934C3.25189 27.4409 3.21686 27.3645 3.06143 27.2618Z" fill="white"/>
</svg>
