<svg width="30" height="30" viewBox="0 0 30 30" fill="none" xmlns="http://www.w3.org/2000/svg">
<path d="M4.28571 21.4286C1.92268 21.4286 0 23.3513 0 25.7143C0 28.0773 1.92268 30 4.28571 30C6.64875 30 8.57143 28.0773 8.57143 25.7143C8.57143 23.3513 6.64875 21.4286 4.28571 21.4286Z" fill="white"/>
<path d="M14.9999 21.4286C12.6369 21.4286 10.7142 23.3513 10.7142 25.7143C10.7142 28.0773 12.6369 30 14.9999 30C17.363 30 19.2857 28.0773 19.2857 25.7143C19.2857 23.3513 17.363 21.4286 14.9999 21.4286Z" fill="white"/>
<path d="M25.7143 21.4286C23.3513 21.4286 21.4286 23.3513 21.4286 25.7143C21.4286 28.0773 23.3513 30 25.7143 30C28.0773 30 30 28.0773 30 25.7143C30 23.3513 28.0773 21.4286 25.7143 21.4286Z" fill="white"/>
<path d="M4.28571 10.7142C1.92268 10.7142 0 12.6369 0 14.9999C0 17.363 1.92268 19.2857 4.28571 19.2857C6.64875 19.2857 8.57143 17.363 8.57143 14.9999C8.57143 12.6369 6.64875 10.7142 4.28571 10.7142Z" fill="white"/>
<path d="M14.9999 10.7142C12.6369 10.7142 10.7142 12.6369 10.7142 14.9999C10.7142 17.363 12.6369 19.2857 14.9999 19.2857C17.363 19.2857 19.2857 17.363 19.2857 14.9999C19.2857 12.6369 17.363 10.7142 14.9999 10.7142Z" fill="white"/>
<path d="M25.7143 10.7142C23.3513 10.7142 21.4286 12.6369 21.4286 14.9999C21.4286 17.363 23.3513 19.2857 25.7143 19.2857C28.0773 19.2857 30 17.363 30 14.9999C30 12.6369 28.0773 10.7142 25.7143 10.7142Z" fill="white"/>
<path d="M4.28571 0C1.92268 0 0 1.92268 0 4.28571C0 6.64875 1.92268 8.57143 4.28571 8.57143C6.64875 8.57143 8.57143 6.64875 8.57143 4.28571C8.57143 1.92268 6.64875 0 4.28571 0Z" fill="white"/>
<path d="M14.9999 0C12.6369 0 10.7142 1.92268 10.7142 4.28571C10.7142 6.64875 12.6369 8.57143 14.9999 8.57143C17.363 8.57143 19.2857 6.64875 19.2857 4.28571C19.2857 1.92268 17.363 0 14.9999 0Z" fill="white"/>
<path d="M25.7143 8.57143C28.0773 8.57143 30 6.64875 30 4.28571C30 1.92268 28.0773 0 25.7143 0C23.3513 0 21.4286 1.92268 21.4286 4.28571C21.4286 6.64875 23.3513 8.57143 25.7143 8.57143Z" fill="white"/>
</svg>
