<svg width="96" height="60" viewBox="0 0 96 60" fill="none" xmlns="http://www.w3.org/2000/svg">
<path fill-rule="evenodd" clip-rule="evenodd" d="M12.1566 37.8078C11.4989 37.0162 10.6659 36.3883 9.72352 35.9737C8.5707 35.4746 7.32297 35.2321 6.06696 35.2628H1.47842C1.04947 35.2058 0.617217 35.3411 0.297499 35.6325C0.0761073 35.9738 -0.0264152 36.3786 0.00582512 36.7841V50.9876C-0.0264714 51.3886 0.0761834 51.7889 0.297499 52.1251C0.622899 52.4055 1.05216 52.5347 1.47842 52.4805H6.3444C7.59005 52.5247 8.8291 52.2815 9.96543 51.7696C10.8911 51.331 11.6949 50.672 12.3059 49.8502C12.9091 49.0217 13.3353 48.078 13.558 47.0778C13.8086 46.0083 13.9327 44.9132 13.9279 43.8148C13.9314 42.7112 13.7903 41.6118 13.5082 40.5448C13.2559 39.5573 12.7977 38.6344 12.1637 37.8362L12.1566 37.8078ZM9.90152 45.9617C9.78565 46.5737 9.54338 47.1547 9.19008 47.6678C8.85114 48.1517 8.38957 48.5369 7.85271 48.7839C7.1803 49.0758 6.45118 49.2143 5.71848 49.1891H3.72656V38.5259H5.63311C6.36543 38.5055 7.0935 38.6437 7.76734 38.931C8.33156 39.1715 8.82242 39.5565 9.19008 40.0471C9.5426 40.5423 9.78515 41.107 9.90152 41.7035C10.0401 42.3914 10.1069 43.0918 10.1007 43.7935C10.1071 44.5211 10.0404 45.2474 9.90152 45.9617ZM43.2377 49.3384C43.13 49.2696 43.002 49.2395 42.8749 49.2531H36.6075C36.1888 49.2723 35.7743 49.1631 35.4194 48.9403C35.0696 48.6244 34.899 48.1558 34.9642 47.6891V35.7818C34.9858 35.6323 34.9445 35.4805 34.8503 35.3624C34.7065 35.2784 34.5391 35.2436 34.3737 35.2629H31.7842C31.6307 35.2491 31.4772 35.2893 31.3502 35.3766C31.2482 35.4856 31.1989 35.6335 31.2151 35.7818V47.9593C31.2173 48.5126 31.2841 49.0637 31.4143 49.6014C31.6732 50.714 32.4513 51.6344 33.5058 52.0753C34.2171 52.3609 34.9806 52.4941 35.7467 52.4663H42.8607C43.1666 52.4663 43.3231 52.2957 43.3231 51.9544V49.7721C43.3231 49.5446 43.3231 49.3953 43.2235 49.3384H43.2377ZM54.8975 37.9643V35.7961C54.914 35.6512 54.8786 35.5052 54.7979 35.3838C54.6843 35.3033 54.5449 35.2679 54.4066 35.2843H41.8362C41.7049 35.2719 41.5735 35.3072 41.4662 35.3838C41.3885 35.5064 41.3558 35.6521 41.3737 35.7961V37.9856C41.3737 38.3127 41.5232 38.4762 41.8362 38.4762H46.1828V51.983C46.1678 52.129 46.2171 52.2743 46.3179 52.381C46.445 52.4683 46.5985 52.5085 46.7519 52.4948H49.3628C49.5282 52.5142 49.6955 52.4792 49.8394 52.3953C49.9325 52.2794 49.9737 52.1302 49.9532 51.983V38.4762H54.3924C54.5275 38.4954 54.664 38.4499 54.7605 38.3535C54.857 38.257 54.9025 38.1207 54.8833 37.9856L54.8975 37.9643ZM68.9476 51.9759L63.8754 36.6136C63.7989 36.3665 63.6964 36.1282 63.5694 35.9028C63.3877 35.5668 63.0529 35.341 62.6731 35.2985C62.4361 35.2858 62.1986 35.2858 61.9617 35.2985H60.4891C60.2693 35.2958 60.0497 35.3173 59.8346 35.3625C59.66 35.3942 59.4947 35.4647 59.3509 35.5686C59.2014 35.6773 59.0755 35.8151 58.9809 35.9738C58.8553 36.1973 58.7596 36.4363 58.6964 36.6847L53.5957 51.9759C53.5593 52.0867 53.5593 52.2063 53.5957 52.3171C53.5957 52.4166 53.745 52.4664 53.9229 52.4664H56.7685C56.9358 52.4861 57.1047 52.4458 57.2451 52.3527C57.3474 52.2571 57.4192 52.1334 57.4514 51.9972L58.4545 48.8551H64.0675L65.0278 52.0541C65.0494 52.2007 65.1468 52.3249 65.2839 52.381C65.4312 52.4269 65.585 52.4486 65.7392 52.4451H68.6559C68.8362 52.4451 68.9429 52.3882 68.9761 52.2744C69.008 52.1702 69.008 52.0588 68.9761 51.9546L68.9476 51.9759ZM59.3367 45.8479L60.2686 42.7343L61.2005 39.2296H61.3499L62.2534 42.7343L63.1853 45.8479H59.3367ZM28.0848 49.2319H20.0104V44.9665H27.0533C27.2453 44.9665 27.3734 44.9239 27.4303 44.8314C27.4978 44.7 27.5274 44.5523 27.5157 44.4049V42.4926C27.5307 42.3337 27.5011 42.1737 27.4303 42.0306C27.3734 41.9452 27.2453 41.9026 27.0533 41.9026H20.0104V38.4975H27.8358C27.9697 38.5145 28.1045 38.473 28.2057 38.3837C28.2859 38.2568 28.321 38.1065 28.3053 37.9572V35.8743C28.3191 35.7131 28.2897 35.5512 28.22 35.4051C28.1171 35.3083 27.9756 35.2638 27.8358 35.2843H16.7593C16.6279 35.2698 16.4958 35.3054 16.3894 35.3838C16.3086 35.5052 16.2733 35.6512 16.2898 35.7961V51.9545C16.2717 52.1009 16.3215 52.2475 16.4249 52.3526C16.5493 52.4399 16.7005 52.4802 16.8518 52.4664H28.0848C28.2293 52.4866 28.3749 52.4364 28.4761 52.3313C28.548 52.2012 28.5801 52.0529 28.5686 51.9047V49.8219C28.5867 49.6582 28.5571 49.4928 28.4832 49.3456C28.4263 49.2674 28.2911 49.2319 28.0848 49.2319Z" fill="#ffffff"/>
<path fill-rule="evenodd" clip-rule="evenodd" d="M28.6759 57.0892C28.8746 56.7192 29.2918 56.4953 29.7358 56.5204L29.7714 56.5931C30.6179 56.5931 31.1942 57.228 31.1942 58.2863C31.1942 59.4636 30.4259 59.9993 29.6149 59.9993C29.027 60.0164 28.4855 59.7035 28.2419 59.2056C28.0595 58.7678 27.9794 58.2988 28.0072 57.8299C27.9835 57.3832 28.0412 56.936 28.1779 56.5071C28.3701 56.011 28.7669 55.6064 29.2805 55.3827L30.6464 54.8139C30.6891 54.761 30.8242 54.7015 30.8741 54.8139L31.123 55.31C31.1372 55.3364 31.1657 55.4224 31.0234 55.4819L29.5153 56.0772C29.0593 56.2414 28.737 56.6249 28.6759 57.0759V57.0892ZM6.18192 56.4145L5.59858 56.5204C5.47764 56.5204 5.44208 56.5204 5.3496 56.6592L4.63821 57.8034L4.62232 57.8299H4.62232H4.62231H4.6223C4.4934 58.0443 4.37427 58.2424 4.18293 58.6236C4.18293 58.544 4.19117 58.4169 4.19972 58.285C4.20893 58.143 4.21849 57.9955 4.21849 57.8961V56.4807C4.21849 56.3814 4.16158 56.3881 4.10467 56.4013L3.43597 56.5269C3.29309 56.5269 3.29337 56.5814 3.29366 56.6382L3.29369 56.646V59.7216C3.29369 59.8075 3.29369 59.8142 3.4004 59.8142H4.11178C4.1938 59.8142 4.20867 59.7882 4.23579 59.7407C4.23925 59.7347 4.24292 59.7283 4.24695 59.7216L4.95833 58.531C5.11506 58.2745 5.25521 58.0094 5.37805 57.7373V58.4649V59.7216C5.37805 59.8075 5.37805 59.8142 5.48476 59.8142H6.19615C6.28863 59.8142 6.29574 59.8142 6.29574 59.7216V56.4807C6.29574 56.3814 6.23883 56.3881 6.18192 56.4013V56.4145ZM2.56099 56.6196C2.29606 56.4756 1.99264 56.4045 1.68599 56.4145C0.810977 56.4145 0 56.904 0 58.2466C0 59.5893 0.789637 59.9531 1.62908 59.9531C1.91539 59.9544 2.19805 59.8933 2.45429 59.7745C2.56099 59.7216 2.63924 59.6489 2.63924 59.5959C2.64323 59.574 2.64323 59.5517 2.63924 59.5298L2.42583 59.0601C2.40991 59.0539 2.39195 59.0539 2.37603 59.0601C2.29642 59.0832 2.22177 59.119 2.1555 59.166C2.01915 59.2454 1.86111 59.2868 1.70021 59.285C1.45972 59.2937 1.23436 59.1761 1.11687 58.9808C1.00473 58.7463 0.958232 58.4891 0.981712 58.2334C0.960457 57.947 1.00909 57.6599 1.12399 57.3934C1.2232 57.1901 1.44624 57.0641 1.68599 57.076C1.85961 57.0764 2.02875 57.1272 2.16973 57.2214C2.21032 57.2451 2.24367 57.267 2.27172 57.2854C2.32233 57.3186 2.35568 57.3405 2.38314 57.3405C2.39886 57.3476 2.41722 57.3476 2.43294 57.3405L2.70326 56.904C2.71032 56.8847 2.71032 56.8637 2.70326 56.8444C2.70326 56.8048 2.70326 56.7386 2.53965 56.6593L2.56099 56.6196ZM8.67185 56.4145C8.98065 56.4058 9.28596 56.4768 9.55396 56.6196L9.53263 56.6262C9.68916 56.7056 9.68916 56.7717 9.68916 56.8114C9.6962 56.8307 9.6962 56.8516 9.68916 56.8709L9.41882 57.3074C9.4034 57.3157 9.38442 57.3157 9.36899 57.3074C9.3402 57.3074 9.30487 57.2833 9.2522 57.2473C9.22682 57.23 9.19739 57.2099 9.1627 57.1884C9.0191 57.0941 8.84772 57.0432 8.67185 57.0429C8.43414 57.032 8.21363 57.1582 8.11695 57.3604C7.99795 57.6259 7.94677 57.9134 7.9676 58.2004C7.94535 58.4567 7.9944 58.714 8.10984 58.9478C8.22493 59.1419 8.44772 59.2596 8.68607 59.252C8.84921 59.2539 9.00958 59.2125 9.14848 59.1329C9.17343 59.1194 9.19781 59.1047 9.22099 59.0907C9.27715 59.0569 9.32669 59.0271 9.36188 59.0271C9.38562 59.0286 9.40695 59.041 9.41882 59.0601L9.62511 59.5496C9.62924 59.5715 9.62924 59.5939 9.62511 59.6157C9.62511 59.6687 9.55396 59.7414 9.44726 59.7943C9.18879 59.9139 8.90366 59.9751 8.61491 59.9729C7.78264 59.9729 6.99298 59.6091 6.99298 58.2665C6.99298 56.9238 7.80396 56.4145 8.67185 56.4145ZM12.8049 56.5071H10.1728C10.0874 56.5071 10.0661 56.5071 10.0661 56.5997V57.076C10.0661 57.1487 10.0661 57.1685 10.1728 57.1685H10.998V59.7216C10.998 59.8075 10.998 59.8142 11.0976 59.8142H11.8089C11.9014 59.8142 11.9156 59.8142 11.9156 59.7216V57.1818H12.7124C12.748 57.1818 12.7978 57.1818 12.8191 57.0892L12.9258 56.6394C12.9258 56.6274 12.9273 56.6153 12.9286 56.6036C12.9347 56.5513 12.94 56.5071 12.812 56.5071H12.8049ZM13.1252 58.2797C13.1252 57.2148 13.6943 56.4145 14.7115 56.4145C15.4214 56.3604 16.0487 56.8411 16.1272 57.4992C16.1827 57.7315 16.209 57.969 16.2055 58.2069C16.2055 58.4252 16.1343 58.4252 16.0418 58.4252H14.0855C14.0855 58.9147 14.2847 59.2652 14.8823 59.2652C15.1282 59.2612 15.3705 59.2093 15.5936 59.1131C15.6526 59.0798 15.7177 59.0574 15.7857 59.0469C15.8218 59.0457 15.8542 59.0675 15.864 59.0998L16.0489 59.4967C16.0541 59.5162 16.0541 59.5367 16.0489 59.5562C16.0489 59.6224 15.992 59.6686 15.928 59.7084C15.5756 59.8894 15.1781 59.9807 14.7756 59.9729C14.3006 59.9933 13.8406 59.8154 13.5213 59.4878C13.202 59.1603 13.0567 58.7172 13.1252 58.2797ZM15.1883 57.7969H14.043C14.0856 57.3339 14.2493 57.0362 14.6618 57.0362C14.9535 57.0362 15.0958 57.195 15.1527 57.4529C15.1796 57.5658 15.1915 57.6813 15.1883 57.7969ZM20.1185 56.5264C20.1731 56.5242 20.239 56.5215 20.239 56.6262L20.4168 59.7216L20.417 59.7359C20.418 59.7874 20.4187 59.8208 20.2817 59.8208H19.7837H19.773C19.712 59.8212 19.6485 59.8215 19.6485 59.7216L19.5418 57.5654C19.4707 57.8035 19.3782 58.0945 19.2928 58.3327L18.9016 59.3445C18.866 59.424 18.8162 59.424 18.7593 59.424H18.3609L18.3509 59.4241L18.342 59.4243H18.3419C18.2929 59.4256 18.2502 59.4267 18.2186 59.3445L17.8274 58.3327C17.742 58.0945 17.6495 57.8035 17.5784 57.5654L17.5144 59.7216C17.5144 59.8208 17.4432 59.8208 17.3792 59.8208H16.8812C16.7461 59.8208 16.7461 59.7811 16.7461 59.7216L16.931 56.6262C16.9382 56.527 17.0235 56.527 17.0733 56.527H17.6851L17.6944 56.5269C17.7414 56.5265 17.8345 56.5256 17.8345 56.5997L18.3894 58.035C18.4739 58.2684 18.5404 58.5071 18.5886 58.7493C18.6341 58.5072 18.6982 58.2685 18.7806 58.035L19.3426 56.5997C19.3711 56.527 19.4422 56.527 19.492 56.527H20.0967C20.1036 56.527 20.1109 56.5267 20.1185 56.5264ZM25.3319 56.4145L24.6637 56.5402C24.528 56.5402 24.5283 56.5944 24.5286 56.6511V56.6592V59.7216C24.5286 59.8075 24.5286 59.8142 24.6282 59.8142H25.339C25.3889 59.8142 25.4137 59.8142 25.4262 59.8026C25.4385 59.791 25.4385 59.7678 25.4385 59.7216V56.4807C25.4385 56.3814 25.3817 56.3881 25.3248 56.4013L25.3319 56.4145ZM22.5295 57.6646C22.9318 57.6221 23.337 57.7186 23.6677 57.9357V57.9093C23.9125 58.1081 24.0439 58.4014 24.0234 58.703C24.0462 59.0239 23.9036 59.3357 23.6392 59.543C23.2803 59.7571 22.8544 59.8525 22.4299 59.8142H21.3059C21.1992 59.8142 21.1992 59.8075 21.1992 59.7216V56.646V56.6389C21.1991 56.6117 21.1991 56.5937 21.2074 56.5801C21.2236 56.5535 21.2721 56.5438 21.4156 56.515L21.4553 56.5071L22.0102 56.4013C22.0671 56.3881 22.124 56.3814 22.124 56.4807V57.6646H22.5295ZM22.487 59.1396H22.1242V58.3459H22.5652C22.7218 58.3459 23.1059 58.3459 23.1059 58.7559C23.1059 59.166 22.7573 59.166 22.487 59.166V59.1396ZM29.622 59.3247C29.06 59.3247 29.0244 58.7162 29.0244 58.2863C29.0244 57.8564 29.0244 57.2677 29.622 57.2677C30.2196 57.2677 30.2196 57.8697 30.2196 58.2863C30.2196 58.703 30.2196 59.3247 29.622 59.3247ZM31.6851 58.2797C31.6851 57.2148 32.2542 56.4145 33.2715 56.4145C33.9787 56.3641 34.6016 56.8438 34.6801 57.4992C34.7355 57.7315 34.7618 57.969 34.7583 58.2069C34.7583 58.4252 34.6872 58.4252 34.5947 58.4252H32.6383C32.6383 58.9147 32.8375 59.2652 33.4423 59.2652C33.6882 59.2614 33.9305 59.2095 34.1536 59.1131C34.2125 59.0798 34.2777 59.0574 34.3457 59.0469C34.3818 59.0457 34.4141 59.0675 34.424 59.0998L34.6089 59.4967C34.614 59.5162 34.614 59.5367 34.6089 59.5562C34.5992 59.6209 34.5569 59.6774 34.4951 59.7084C34.1395 59.8879 33.7401 59.9791 33.3356 59.9729C32.8606 59.9933 32.4006 59.8154 32.0812 59.4878C31.7619 59.1603 31.6167 58.7172 31.6851 58.2797ZM33.7127 57.7969H32.6029C32.6456 57.3339 32.8092 57.0362 33.2218 57.0362C33.5135 57.0362 33.6557 57.195 33.7127 57.4529C33.7375 57.5664 33.7375 57.6834 33.7127 57.7969ZM37.2171 58.0948C37.5424 57.9651 37.742 57.6519 37.7034 57.3206C37.7078 57.0669 37.5905 56.8245 37.3833 56.6592C37.1217 56.4656 36.7922 56.369 36.4584 56.3881C36.1 56.3762 35.7445 56.4514 35.4269 56.6063C35.3771 56.6063 35.242 56.7121 35.242 56.7981C35.2358 56.8176 35.2358 56.8383 35.242 56.8576L35.4838 57.2016C35.4967 57.2279 35.524 57.2457 35.555 57.2479C35.555 57.2479 35.6262 57.2479 35.7471 57.1619C35.9169 57.0665 36.1107 57.0141 36.3091 57.0098C36.4286 56.9946 36.5494 57.0279 36.6407 57.1014C36.7319 57.1748 36.7848 57.2812 36.7857 57.3934C36.7857 57.777 36.4158 57.8034 36.1668 57.8034H35.996C35.9178 57.8034 35.8964 57.8034 35.8964 57.8961V58.3392C35.8964 58.412 35.8964 58.4318 35.996 58.4318H36.1597C36.3873 58.4318 36.8711 58.4318 36.8711 58.8352C36.8711 59.0138 36.7857 59.3181 36.2949 59.3181C36.0448 59.3259 35.7977 59.2661 35.5834 59.1461C35.5237 59.1071 35.4558 59.0801 35.3843 59.0668C35.3469 59.0668 35.3132 59.0876 35.2989 59.1197L35.1424 59.4703C35.1382 59.4943 35.1382 59.5189 35.1424 59.543C35.1424 59.6422 35.2704 59.7017 35.3914 59.7547C35.6933 59.8808 36.0207 59.9462 36.3517 59.9465C37.1841 59.9465 37.7745 59.5496 37.7745 58.8485C37.8004 58.5062 37.5679 58.1941 37.2171 58.0948ZM39.8375 56.4145C39.0336 56.4145 38.2582 56.9238 38.2582 58.1937C38.2582 59.4636 39.0336 59.9729 39.8375 59.9729C40.6413 59.9729 41.4096 59.4636 41.4096 58.1937C41.4096 56.9238 40.6485 56.4145 39.8375 56.4145ZM39.2402 58.1937C39.2402 58.7096 39.2686 59.2982 39.8377 59.2982V59.285C40.4282 59.285 40.4282 58.6963 40.4282 58.1805C40.4282 57.6646 40.3926 57.0759 39.8377 57.0759C39.2829 57.0759 39.2402 57.6778 39.2402 58.1937ZM44.8885 56.5137H42.2421C42.1639 56.5137 42.1354 56.5137 42.1354 56.6063V59.7216C42.1354 59.7943 42.1354 59.8142 42.2421 59.8142H42.9535C43.046 59.8142 43.0531 59.8142 43.0531 59.7216V57.1818H44.1059V59.7216C44.1059 59.7943 44.1059 59.8142 44.2055 59.8142H44.917C45.0165 59.8142 45.0237 59.8142 45.0237 59.7216V56.5997C45.0237 56.5137 45.0237 56.5071 44.917 56.5071L44.8885 56.5137ZM48.4383 57.4595V58.7824L48.3957 58.7889C48.3844 59.0138 48.4206 59.2385 48.5024 59.4504C48.5363 59.5137 48.5626 59.5802 48.5807 59.6488C48.582 59.6824 48.5585 59.7124 48.5237 59.7216L47.9333 59.9398L47.9301 59.9411C47.8817 59.9605 47.8396 59.9772 47.7839 59.8737C47.7259 59.772 47.6851 59.6628 47.6629 59.5496C47.4416 59.8053 47.1122 59.9596 46.7595 59.9729C46.4645 59.9892 46.1764 59.8856 45.9702 59.6887C45.7639 59.492 45.66 59.2215 45.6853 58.9477C45.6667 58.6066 45.8321 58.2792 46.1263 58.0747C46.5644 57.863 47.0565 57.7669 47.5491 57.7969V57.5852C47.5643 57.4585 47.5343 57.3307 47.4638 57.2214C47.362 57.1239 47.2179 57.0752 47.0725 57.0892C46.872 57.0941 46.6732 57.1252 46.4821 57.1818C46.3684 57.2238 46.2519 57.2592 46.1335 57.2876C46.0624 57.2876 46.0624 57.2677 46.0624 57.2214L45.9129 56.7981C45.8703 56.6989 45.8703 56.6725 46.0624 56.5931C46.418 56.473 46.7938 56.4126 47.1721 56.4145C47.5875 56.345 48.0105 56.4922 48.2748 56.7981C48.3902 57.0017 48.4467 57.2296 48.4383 57.4595ZM47.5491 59.0601C47.414 59.2097 47.2183 59.3007 47.0085 59.3115C46.8777 59.3154 46.7512 59.2683 46.6593 59.1816C46.5675 59.095 46.5187 58.9766 46.5248 58.8552C46.5248 58.4054 47.0441 58.3062 47.5491 58.3127V59.0601ZM50.7505 56.4145C51.0557 56.4005 51.3591 56.467 51.6255 56.6063L51.6042 56.6262C51.7677 56.7056 51.7677 56.7717 51.7677 56.8114C51.7748 56.8307 51.7748 56.8516 51.7677 56.8709L51.4974 57.3074C51.4817 57.3145 51.4633 57.3145 51.4476 57.3074C51.4127 57.3074 51.3743 57.2814 51.3177 57.2431C51.2935 57.2267 51.2661 57.2082 51.2342 57.1884C51.0932 57.0941 50.9241 57.0432 50.7505 57.0429C50.5102 57.0292 50.2861 57.1558 50.1885 57.3604C50.0735 57.6268 50.0249 57.914 50.0462 58.2004C50.0227 58.456 50.0692 58.7132 50.1814 58.9477C50.2976 59.1441 50.5238 59.2621 50.7647 59.252C50.9256 59.2537 51.0836 59.2123 51.22 59.1329C51.2432 59.1203 51.2659 59.1067 51.2878 59.0936C51.3463 59.0586 51.3991 59.0271 51.4405 59.0271C51.4621 59.0296 51.4808 59.042 51.4903 59.0601L51.6966 59.5496C51.7007 59.5715 51.7007 59.5939 51.6966 59.6157C51.6966 59.6687 51.6255 59.7414 51.5188 59.7943C51.2625 59.9131 50.9799 59.9743 50.6935 59.9729C49.8541 59.9729 49.0645 59.6091 49.0645 58.2664C49.0645 56.9238 49.8754 56.4145 50.7505 56.4145ZM55.0898 56.4079L54.4211 56.5336C54.2853 56.5336 54.2856 56.5878 54.2859 56.6445L54.2859 56.6526V57.7373H53.2615V56.4807C53.2615 56.3814 53.2046 56.3881 53.1477 56.4013L52.5715 56.5071C52.3358 56.5509 52.336 56.571 52.3366 56.6349L52.3367 56.646V59.7216C52.3367 59.7943 52.3367 59.8142 52.4363 59.8142H53.1477C53.2402 59.8142 53.2473 59.8142 53.2473 59.7216V58.3987H54.2931V59.7216C54.2931 59.8075 54.2931 59.8142 54.3926 59.8142H55.104C55.1965 59.8142 55.2036 59.8142 55.2036 59.7216V56.4807C55.2036 56.3814 55.1467 56.3881 55.0898 56.4013V56.4079ZM55.9008 58.1805C55.9008 56.9106 56.6833 56.4013 57.4801 56.4013L57.5014 56.4145C58.3337 56.4145 59.0452 56.904 59.0452 58.1739C59.0452 59.4438 58.2769 59.9597 57.4801 59.9597C56.6833 59.9597 55.9008 59.4504 55.9008 58.1805ZM57.5015 59.2982C56.9324 59.2982 56.904 58.7096 56.904 58.1937C56.904 57.6778 56.9111 57.0759 57.5015 57.0759C58.092 57.0759 58.0991 57.6646 58.0991 58.1805C58.0991 58.6963 58.0991 59.285 57.5015 59.285V59.2982ZM61.2788 56.4145C61.5897 56.4118 61.8951 56.4896 62.161 56.6394L62.1396 56.6262C62.2961 56.7056 62.2961 56.7717 62.2961 56.8114C62.3032 56.8307 62.3032 56.8516 62.2961 56.8709L62.0258 57.3074C62.0101 57.3145 61.9917 57.3145 61.976 57.3074C61.9472 57.3074 61.9119 57.2833 61.8592 57.2473L61.8591 57.2472C61.8337 57.2299 61.8044 57.2098 61.7697 57.1884C61.6261 57.094 61.4547 57.0432 61.2788 57.0429C61.0406 57.03 60.819 57.1568 60.724 57.3604C60.6009 57.6247 60.5496 57.9132 60.5746 58.2003C60.5486 58.4568 60.5978 58.7151 60.7169 58.9477C60.8294 59.1443 61.0538 59.2627 61.2931 59.252C61.4562 59.2539 61.6166 59.2125 61.7554 59.1329C61.7804 59.1194 61.8048 59.1047 61.828 59.0907C61.8842 59.0569 61.9337 59.0271 61.9689 59.0271C61.9905 59.0296 62.0092 59.042 62.0187 59.0601L62.2321 59.5496C62.2362 59.5715 62.2362 59.5939 62.2321 59.6157C62.2321 59.6687 62.161 59.7414 62.0471 59.7943C61.7915 59.9145 61.5084 59.9758 61.2219 59.9729C60.3896 59.9729 59.5929 59.6091 59.5929 58.2664C59.5929 56.9238 60.4109 56.4145 61.2788 56.4145ZM65.4191 56.5071H62.7728C62.6946 56.5071 62.6732 56.5071 62.6732 56.5997V57.076C62.6732 57.1487 62.6732 57.1685 62.7728 57.1685H63.6051V59.7216C63.6051 59.8075 63.6051 59.8142 63.7047 59.8142H64.4161C64.5086 59.8142 64.5157 59.8142 64.5157 59.7216V57.1818H65.3196C65.3196 57.1818 65.4049 57.1818 65.4263 57.0892L65.5258 56.6394C65.5258 56.627 65.5274 56.6145 65.5288 56.6025C65.5352 56.5507 65.5404 56.5071 65.4191 56.5071ZM68.3286 56.5071L68.9048 56.4013L68.9119 56.4145C68.962 56.4145 68.985 56.4145 68.9943 56.425C69.0022 56.4339 69.0005 56.4504 68.9973 56.4807V59.7216C68.9973 59.8142 68.9902 59.8142 68.8906 59.8142H68.1791C68.0795 59.8142 68.0795 59.8075 68.0795 59.7216V58.4649C68.0795 58.4184 68.0839 58.3702 68.0896 58.3078C68.1002 58.1927 68.1152 58.0289 68.1152 57.7373C67.9755 58.009 67.8211 58.2739 67.6527 58.531L66.9413 59.7216C66.9375 59.7279 66.9341 59.7339 66.9308 59.7397C66.9032 59.7878 66.8881 59.8142 66.7991 59.8142H66.0877C65.9881 59.8142 65.9881 59.8075 65.9881 59.7216V56.646L65.988 56.6382C65.9878 56.5814 65.9875 56.5269 66.1304 56.5269L66.792 56.4013C66.856 56.3881 66.9129 56.3814 66.9129 56.4807V57.8829V58.6104C67.049 58.3297 67.201 58.056 67.3682 57.7902L68.0795 56.646C68.1649 56.5071 68.2005 56.5071 68.3286 56.5071Z" fill="#ffffff"/>
<path fill-rule="evenodd" clip-rule="evenodd" d="M87.8503 25.8727C91.4398 25.8087 94.4298 23.08 94.8484 19.4862C95.3839 15.1363 95.3839 10.7365 94.8484 6.38658C94.4298 2.7927 91.4398 0.0640844 87.8503 0H69.7624C66.1787 0 63.468 2.6114 62.764 6.38658C62.272 9.28945 62.1325 12.2419 62.3485 15.1787C62.7499 21.246 63.9961 26.7172 67.8896 31.5C68.136 28.3067 71.2549 25.9224 76.0637 25.9224L87.8503 25.8727Z" fill="#009FE3"/>
<path fill-rule="evenodd" clip-rule="evenodd" d="M72.3483 20.9921H85.9015C87.5037 21.0998 88.9744 20.092 89.4764 18.5424C90.1177 16.9706 90.2291 9.56457 89.4764 7.70953C88.9848 6.15183 87.5072 5.1391 85.9015 5.25972H72.3483C70.7427 5.1391 69.2649 6.15183 68.7735 7.70953C68.0209 9.56457 68.1324 16.9706 68.7735 18.5424C69.2775 20.0904 70.7468 21.0972 72.3483 20.9921ZM76.9545 12.7153C76.9419 12.8504 76.8361 12.9573 76.7038 12.9702C76.2575 13.0056 75.8257 13.0269 75.3933 13.0269C74.9616 13.0269 74.5361 13.0269 74.0905 12.9702C73.9561 12.96 73.8496 12.8517 73.8398 12.7153C73.8398 12.4914 73.8252 12.2693 73.8113 12.048C73.7974 11.8285 73.7834 11.6099 73.7834 11.3913C73.7834 10.9523 73.7834 10.5134 73.8398 10.0673C73.8489 9.92945 73.9547 9.81881 74.0905 9.80532C74.5361 9.76988 74.9686 9.75575 75.3933 9.75575C75.8188 9.75575 76.2575 9.75575 76.7038 9.80532C76.8375 9.82144 76.9419 9.93073 76.9545 10.0673C76.9545 10.2912 76.967 10.5134 76.9788 10.7346C76.9914 10.9541 77.0032 11.1727 77.0032 11.3913C77.0032 11.8303 77.0032 12.2693 76.9545 12.7153ZM84.2986 12.9702C84.4343 12.9605 84.5437 12.8528 84.5569 12.7153C84.6056 12.2693 84.6056 11.8303 84.6056 11.3913C84.6056 11.1727 84.5931 10.9541 84.5813 10.7346C84.5687 10.5134 84.5569 10.2912 84.5569 10.0673C84.5437 9.92832 84.4357 9.81831 84.2986 9.80532C83.8599 9.75575 83.4275 9.75575 82.9957 9.75575C82.564 9.75575 82.1316 9.76988 81.6929 9.80532C81.5571 9.81881 81.4513 9.92945 81.4416 10.0673C81.3859 10.5134 81.3859 10.9523 81.3859 11.3913C81.3859 11.6099 81.3998 11.8285 81.4137 12.048C81.4276 12.2693 81.4416 12.4914 81.4416 12.7153C81.452 12.8517 81.5585 12.96 81.6929 12.9702C82.1316 13.0269 82.564 13.0269 82.9957 13.0269C83.4275 13.0269 83.8599 13.0056 84.2986 12.9702Z" fill="white"/>
</svg>
