<svg width="190" height="65" viewBox="0 0 190 65" fill="none" xmlns="http://www.w3.org/2000/svg">
<path d="M174.87 8.91797e-05H15.139C14.5567 8.91797e-05 13.9815 8.91798e-05 13.4008 0.00333918C12.9147 0.00658918 12.4324 0.0160304 11.9417 0.0239767C10.8755 0.0368171 9.81184 0.132813 8.75993 0.31113C7.7095 0.49333 6.69197 0.836827 5.74176 1.33001C4.79271 1.82736 3.92554 2.47361 3.1717 3.24533C2.4139 4.01487 1.78222 4.90437 1.30095 5.8796C0.818341 6.85289 0.483702 7.89586 0.308585 8.9725C0.131803 10.0478 0.0366751 11.1354 0.0240548 12.2257C0.00932026 12.724 0.00776424 13.2239 0 13.7221V51.2828C0.00776424 51.7874 0.00932026 52.2762 0.0240548 52.7809C0.036679 53.8712 0.131807 54.9588 0.308585 56.034C0.483218 57.1113 0.817878 58.1548 1.30095 59.1285C1.782 60.1006 2.41377 60.9864 3.1717 61.7517C3.92268 62.5269 4.79041 63.1736 5.74176 63.6671C6.69196 64.1616 7.70938 64.5071 8.75993 64.6922C9.81202 64.869 10.8756 64.9651 11.9417 64.9795C12.4324 64.9905 12.9147 64.9968 13.4008 64.9968C13.9815 65.0001 14.5568 65.0001 15.139 65.0001H174.87C175.44 65.0001 176.02 65.0001 176.591 64.9968C177.075 64.9968 177.571 64.9905 178.055 64.9795C179.119 64.9658 180.18 64.8698 181.23 64.6922C182.284 64.5058 183.305 64.1604 184.26 63.6671C185.21 63.1733 186.077 62.5266 186.828 61.7517C187.584 60.9835 188.217 60.0982 188.704 59.1285C189.183 58.1541 189.515 57.1106 189.687 56.034C189.864 54.9586 189.962 53.8713 189.981 52.7809C189.988 52.2762 189.988 51.7874 189.988 51.2828C190 50.6925 190 50.1053 190 49.5054V15.4963C190 14.9012 190 14.3109 189.988 13.7221C189.988 13.2239 189.988 12.724 189.981 12.2257C189.962 11.1353 189.864 10.0478 189.687 8.97243C189.514 7.89642 189.183 6.85353 188.704 5.87953C187.724 3.92478 186.169 2.33363 184.26 1.32986C183.305 0.837886 182.284 0.49448 181.23 0.310984C180.18 0.131881 179.119 0.0358518 178.055 0.0237492C177.571 0.0158192 177.075 0.00629668 176.591 0.00312793C176.02 -0.00012207 175.44 -0.00012207 174.87 -0.00012207V8.91797e-05Z" fill="#A6A6A6"/>
<path d="M13.4085 63.5781C12.9248 63.5781 12.4527 63.5718 11.9727 63.5607C10.9784 63.5475 9.98644 63.4589 9.00493 63.2957C8.08971 63.1344 7.20312 62.8343 6.37439 62.4054C5.55326 61.98 4.80432 61.4222 4.15626 60.7534C3.49883 60.0925 2.95148 59.3259 2.53592 58.4841C2.11578 57.6368 1.82501 56.7286 1.67376 55.7911C1.51041 54.7838 1.42204 53.7653 1.40939 52.7443C1.39933 52.4015 1.38615 51.2605 1.38615 51.2605V13.7221C1.38615 13.7221 1.40018 12.5985 1.40947 12.2684C1.42158 11.249 1.50944 10.2321 1.6723 9.22631C1.82383 8.28628 2.11482 7.37547 2.53519 6.5254C2.94923 5.68416 3.49353 4.91702 4.14701 4.25373C4.79975 3.58413 5.55108 3.02348 6.37361 2.59222C7.20044 2.16465 8.08536 1.86669 8.99872 1.70831C9.98345 1.54348 10.9789 1.45437 11.9766 1.44172L13.4093 1.42188H176.583L178.033 1.44251C179.021 1.45454 180.008 1.54286 180.983 1.70672C181.906 1.86708 182.8 2.16713 183.637 2.59698C185.284 3.4661 186.625 4.84114 187.471 6.52936C187.885 7.37356 188.171 8.27695 188.321 9.20886C188.486 10.2229 188.578 11.2478 188.597 12.2756C188.601 12.7358 188.601 13.2301 188.601 13.7221C188.614 14.3314 188.614 14.9114 188.614 15.4962V49.5053C188.614 50.0957 188.614 50.6717 188.601 51.2525C188.601 51.781 188.601 52.265 188.595 52.7633C188.577 53.7727 188.486 54.7793 188.324 55.7752C188.176 56.7194 187.886 57.6347 187.466 58.4889C187.048 59.3216 186.504 60.0816 185.854 60.7407C185.205 61.4131 184.455 61.9742 183.632 62.4023C182.798 62.8345 181.905 63.1357 180.983 63.2957C180.002 63.4598 179.01 63.5484 178.016 63.5607C177.551 63.5718 177.064 63.5781 176.591 63.5781L174.87 63.5814L13.4085 63.5781Z" fill="black"/>
<path d="M39.3275 32.9885C39.3446 31.6322 39.6966 30.3023 40.3508 29.1227C41.005 27.943 41.9401 26.9518 43.0692 26.2414C42.3519 25.193 41.4057 24.3303 40.3056 23.7216C39.2056 23.113 37.982 22.7752 36.7321 22.7352C34.0658 22.4488 31.481 24.368 30.1223 24.368C28.7374 24.368 26.6455 22.7636 24.3928 22.8111C22.9358 22.8592 21.5158 23.2929 20.2711 24.0697C19.0265 24.8466 17.9997 25.9401 17.2908 27.2439C14.2201 32.685 16.5106 40.6817 19.4521 45.08C20.9238 47.2337 22.6438 49.6394 24.8944 49.5541C27.0968 49.4606 27.9193 48.1168 30.5777 48.1168C33.2115 48.1168 33.9832 49.5541 36.2794 49.4999C38.6427 49.4606 40.1316 47.3366 41.5517 45.1625C42.6091 43.6279 43.4228 41.9319 43.9626 40.1372C42.5896 39.5429 41.418 38.5481 40.5937 37.2768C39.7695 36.0056 39.3291 34.5142 39.3275 32.9885V32.9885Z" fill="white"/>
<path d="M34.9903 19.8427C36.2788 18.2596 36.9136 16.2248 36.7599 14.1704C34.7913 14.382 32.9729 15.3449 31.667 16.8673C31.0284 17.611 30.5394 18.4762 30.2278 19.4134C29.9162 20.3507 29.7882 21.3416 29.851 22.3295C30.8356 22.3399 31.8097 22.1215 32.7 21.6907C33.5902 21.26 34.3733 20.6281 34.9903 19.8427Z" fill="white"/>
<path d="M67.1666 44.1019H59.651L57.8462 49.5561H54.6629L61.7815 29.3768H65.0889L72.2075 49.5561H68.9699L67.1666 44.1019ZM60.4294 41.585H66.3868L63.45 32.7332H63.3678L60.4294 41.585Z" fill="white"/>
<path d="M87.5814 42.2007C87.5814 46.7726 85.1904 49.71 81.5822 49.71C80.6682 49.7589 79.7592 49.5434 78.9593 49.0882C78.1594 48.633 77.5009 47.9564 77.0592 47.136H76.991V54.4231H74.0402V34.8438H76.8964V37.2908H76.9507C77.4127 36.4743 78.0823 35.8012 78.8883 35.3432C79.6943 34.8852 80.6065 34.6594 81.528 34.6898C85.1764 34.6899 87.5814 37.6415 87.5814 42.2007ZM84.5484 42.2007C84.5484 39.2221 83.0444 37.2638 80.7496 37.2638C78.495 37.2638 76.9786 39.2633 76.9786 42.2007C76.9786 45.1651 78.495 47.1503 80.7496 47.1503C83.0444 47.1503 84.5484 45.2063 84.5484 42.2007Z" fill="white"/>
<path d="M103.403 42.2008C103.403 46.7727 101.012 49.7101 97.4042 49.7101C96.4902 49.759 95.5812 49.5436 94.7813 49.0883C93.9813 48.6331 93.3229 47.9565 92.8812 47.1361H92.8129V54.4232H89.8622V34.8439H92.7183V37.2909H92.7726C93.2346 36.4744 93.9042 35.8013 94.7102 35.3434C95.5162 34.8854 96.4284 34.6596 97.3499 34.69C100.998 34.69 103.403 37.6416 103.403 42.2008ZM100.37 42.2008C100.37 39.2222 98.8663 37.2639 96.5715 37.2639C94.317 37.2639 92.8005 39.2635 92.8005 42.2008C92.8005 45.1652 94.317 47.1504 96.5715 47.1504C98.8664 47.1504 100.37 45.2064 100.37 42.2008H100.37Z" fill="white"/>
<path d="M113.86 43.9337C114.079 45.9348 115.978 47.2487 118.574 47.2487C121.061 47.2487 122.851 45.9347 122.851 44.1304C122.851 42.5641 121.771 41.6263 119.216 40.9835L116.661 40.3535C113.04 39.4585 111.359 37.7256 111.359 34.9136C111.359 31.4319 114.324 29.0404 118.534 29.0404C122.7 29.0404 125.556 31.4319 125.652 34.9136H122.674C122.495 32.8998 120.869 31.6842 118.492 31.6842C116.115 31.6842 114.488 32.9141 114.488 34.7041C114.488 36.1308 115.527 36.9702 118.069 37.6129L120.241 38.1588C124.286 39.1379 125.967 40.801 125.967 43.7526C125.967 47.5279 123.029 49.8924 118.355 49.8924C113.983 49.8924 111.031 47.5834 110.84 43.9335L113.86 43.9337Z" fill="white"/>
<path d="M132.335 31.3622V34.8439H135.069V37.2354H132.335V45.3461C132.335 46.6061 132.883 47.1932 134.084 47.1932C134.409 47.1874 134.733 47.1641 135.055 47.1234V49.5006C134.515 49.6039 133.966 49.6507 133.416 49.6402C130.506 49.6402 129.371 48.5214 129.371 45.6682V37.2354H127.28V34.8439H129.371V31.3622H132.335Z" fill="white"/>
<path d="M136.652 42.2008C136.652 37.5718 139.316 34.663 143.47 34.663C147.638 34.663 150.289 37.5717 150.289 42.2008C150.289 46.8425 147.652 49.7386 143.47 49.7386C139.29 49.7386 136.652 46.8425 136.652 42.2008ZM147.283 42.2008C147.283 39.0254 145.861 37.1512 143.47 37.1512C141.079 37.1512 139.659 39.0397 139.659 42.2008C139.659 45.3889 141.079 47.2488 143.47 47.2488C145.861 47.2488 147.283 45.3889 147.283 42.2008H147.283Z" fill="white"/>
<path d="M152.722 34.8439H155.536V37.348H155.605C155.795 36.5659 156.243 35.8748 156.872 35.3907C157.502 34.9066 158.275 34.6592 159.062 34.6899C159.402 34.6887 159.742 34.7265 160.073 34.8026V37.6273C159.644 37.4931 159.196 37.4314 158.748 37.4448C158.319 37.427 157.892 37.5044 157.495 37.6716C157.098 37.8388 156.742 38.0918 156.449 38.4134C156.157 38.735 155.937 39.1174 155.803 39.5345C155.669 39.9516 155.624 40.3935 155.673 40.8297V49.5562H152.722L152.722 34.8439Z" fill="white"/>
<path d="M173.678 45.235C173.281 47.9058 170.74 49.7386 167.488 49.7386C163.306 49.7386 160.711 46.8711 160.711 42.2706C160.711 37.6559 163.32 34.663 167.364 34.663C171.341 34.663 173.842 37.4591 173.842 41.9199V42.9546H163.689V43.1371C163.642 43.6785 163.709 44.224 163.884 44.7372C164.059 45.2505 164.338 45.7197 164.704 46.1139C165.07 46.508 165.513 46.818 166.005 47.0233C166.497 47.2285 167.026 47.3243 167.556 47.3043C168.254 47.3712 168.953 47.2059 169.552 46.8331C170.15 46.4602 170.614 45.8997 170.876 45.235L173.678 45.235ZM163.703 40.844H170.89C170.917 40.3571 170.844 39.87 170.678 39.413C170.512 38.956 170.255 38.5392 169.924 38.1885C169.593 37.8379 169.195 37.5611 168.754 37.3755C168.314 37.1899 167.84 37.0995 167.364 37.11C166.884 37.1071 166.407 37.2015 165.963 37.388C165.518 37.5744 165.114 37.8492 164.773 38.1963C164.433 38.5435 164.163 38.9562 163.98 39.4106C163.796 39.8651 163.702 40.3522 163.703 40.844V40.844Z" fill="white"/>
<path d="M58.3323 18.2868H59.5991C59.8172 18.3146 60.0385 18.2958 60.2491 18.2317C60.4598 18.1676 60.6552 18.0596 60.823 17.9143C60.9908 17.7691 61.1274 17.5899 61.2242 17.388C61.321 17.1861 61.3759 16.9658 61.3853 16.7411C61.3853 15.8469 60.7279 15.2692 59.613 15.2692C59.3896 15.2373 59.1622 15.2515 58.9442 15.311C58.7263 15.3705 58.5221 15.474 58.3439 15.6156C58.1657 15.7572 58.017 15.9338 57.9066 16.1352C57.7962 16.3365 57.7264 16.5585 57.7012 16.7879H56.3103C56.3342 16.3714 56.4417 15.9645 56.626 15.5923C56.8103 15.2202 57.0674 14.8908 57.3815 14.6248C57.6955 14.3588 58.0597 14.1618 58.4513 14.0461C58.843 13.9303 59.2537 13.8983 59.658 13.9521C61.5233 13.9521 62.8367 15.0209 62.8367 16.5594C62.8411 17.0748 62.6726 17.5762 62.3593 17.9798C62.0461 18.3834 61.6071 18.6648 61.1156 18.7771V18.8914C61.6983 18.9178 62.247 19.1793 62.6419 19.6187C63.0368 20.058 63.2456 20.6395 63.2228 21.236C63.1796 21.6649 63.0533 22.0806 62.8512 22.4588C62.649 22.837 62.3752 23.1701 62.0456 23.4386C61.7161 23.707 61.3375 23.9055 60.932 24.0223C60.5265 24.1391 60.1024 24.1718 59.6844 24.1187C59.2655 24.1771 58.8394 24.1487 58.4315 24.035C58.0236 23.9213 57.6423 23.7247 57.3102 23.457C56.9781 23.1892 56.7021 22.8558 56.4986 22.4765C56.2951 22.0973 56.1684 21.68 56.1258 21.2495H57.5384C57.6237 22.1771 58.4563 22.7754 59.6844 22.7754C60.9124 22.7754 61.7141 22.1034 61.7141 21.156C61.7141 20.1951 60.9589 19.6032 59.6394 19.6032H58.3323V18.2868Z" fill="white"/>
<path d="M64.8276 21.8144C64.8276 20.4973 65.7874 19.738 67.4868 19.6301L69.4235 19.5158V18.8842C69.4235 18.1114 68.9257 17.675 67.9597 17.675C67.1721 17.675 66.6278 17.9709 66.4696 18.4883H65.1036C65.2478 17.2314 66.4045 16.4253 68.0264 16.4253C69.8189 16.4253 70.8298 17.3385 70.8298 18.8842V23.8838H69.47V22.8555H69.3583C69.1317 23.2243 68.8136 23.525 68.4363 23.7269C68.059 23.9287 67.6361 24.0245 67.2108 24.0043C66.9107 24.0363 66.6073 24.0035 66.3203 23.9081C66.0333 23.8128 65.769 23.6569 65.5445 23.4505C65.3199 23.2442 65.1401 22.992 65.0167 22.7102C64.8932 22.4284 64.8288 22.1233 64.8276 21.8144V21.8144ZM69.4235 21.1892V20.5774L67.6775 20.6917C66.6928 20.7591 66.2463 21.1019 66.2463 21.747C66.2463 22.4056 66.8045 22.7888 67.5721 22.7888C67.797 22.8121 68.0242 22.7889 68.2401 22.7205C68.4561 22.6521 68.6564 22.5399 68.8291 22.3907C69.0019 22.2414 69.1435 22.0582 69.2456 21.8518C69.3477 21.6453 69.4082 21.42 69.4235 21.1892V21.1892Z" fill="white"/>
<path d="M74.5744 17.7821V23.8838H73.1634V16.5665H77.871V17.782L74.5744 17.7821Z" fill="white"/>
<path d="M86.4223 20.222C86.4223 22.5469 85.2733 24.0045 83.4685 24.0045C83.0254 24.0354 82.583 23.9362 82.1932 23.7184C81.8033 23.5007 81.4824 23.1735 81.2682 22.7754H81.1566V26.3166H79.7456V16.5666H81.1039V17.7759H81.2093C81.4274 17.3638 81.7525 17.0215 82.1487 16.7867C82.5449 16.5519 82.9968 16.4337 83.4545 16.4452C85.2733 16.4452 86.4223 17.8964 86.4223 20.222ZM84.971 20.222C84.971 18.6764 84.2562 17.7425 83.0607 17.7425C81.873 17.7425 81.1302 18.6962 81.1302 20.2284C81.1302 21.7534 81.873 22.7079 83.0545 22.7079C84.2562 22.7079 84.971 21.774 84.971 20.222Z" fill="white"/>
<path d="M88.3016 26.5046V25.2612C88.4543 25.2811 88.6081 25.2901 88.762 25.2882C89.0627 25.311 89.3609 25.2194 89.5996 25.0309C89.8382 24.8424 90.0005 24.5704 90.0552 24.267L90.1607 23.9108L87.5728 16.5665H89.1094L90.9019 22.3786H91.0135L92.7998 16.5665H94.2961L91.6307 24.1861C91.0198 25.9666 90.3437 26.5379 88.8862 26.5379C88.7683 26.5379 88.4334 26.5244 88.3016 26.5046Z" fill="white"/>
<path d="M95.3954 21.8074H96.8002C96.9382 22.4525 97.529 22.7889 98.3555 22.7889C99.2951 22.7889 99.8719 22.3652 99.8719 21.7066C99.8719 21.0012 99.354 20.6648 98.3555 20.6648H97.2856V19.5429H98.3368C99.1896 19.5429 99.6238 19.2072 99.6238 18.5955C99.6238 18.0583 99.2036 17.6481 98.3368 17.6481C97.5476 17.6481 96.9708 17.9909 96.8793 18.5685H95.5195C95.6211 17.9048 95.9733 17.3084 96.5001 16.9076C97.027 16.5068 97.6865 16.3337 98.3368 16.4254C100.036 16.4254 101.008 17.2117 101.008 18.4479C101.016 18.7922 100.909 19.1288 100.703 19.4014C100.498 19.6741 100.207 19.8663 99.8796 19.946V20.0602C100.269 20.1117 100.627 20.3077 100.885 20.6112C101.143 20.9147 101.283 21.3045 101.278 21.7066C101.278 23.0976 100.122 24.018 98.3555 24.018C96.794 24.0179 95.5257 23.2856 95.3954 21.8074Z" fill="white"/>
<path d="M103.31 23.8838V16.5665H104.709V21.5994H104.821L108.115 16.5665H109.514V23.8838H108.115V18.8239H108.01L104.709 23.8838L103.31 23.8838Z" fill="white"/>
<path d="M117.219 17.7822H114.967V23.8838H113.555V17.7822H111.303V16.5667H117.219V17.7822Z" fill="white"/>
<path d="M124.82 21.9081C124.627 22.5768 124.212 23.1551 123.645 23.5421C123.079 23.929 122.397 24.1 121.72 24.025C121.249 24.0378 120.781 23.9454 120.348 23.7544C119.916 23.5635 119.529 23.2784 119.215 22.919C118.9 22.5597 118.666 22.1347 118.529 21.6734C118.391 21.2122 118.353 20.7259 118.417 20.2482C118.355 19.769 118.393 19.2816 118.531 18.819C118.668 18.3564 118.901 17.9294 119.213 17.5669C119.526 17.2044 119.911 16.9149 120.342 16.7179C120.774 16.521 121.242 16.4212 121.714 16.4253C123.703 16.4253 124.905 17.8163 124.905 20.114V20.618H119.856V20.6989C119.834 20.9675 119.867 21.2379 119.953 21.4927C120.038 21.7475 120.175 21.9812 120.355 22.1786C120.534 22.376 120.752 22.5329 120.994 22.639C121.236 22.7452 121.497 22.7984 121.76 22.7951C122.098 22.8364 122.439 22.7741 122.742 22.6161C123.045 22.4582 123.294 22.2117 123.46 21.908L124.82 21.9081ZM119.856 19.5499H123.466C123.484 19.3045 123.451 19.0579 123.371 18.8261C123.29 18.5943 123.162 18.3823 122.997 18.2038C122.831 18.0253 122.631 17.8842 122.409 17.7896C122.187 17.695 121.948 17.6489 121.708 17.6544C121.464 17.651 121.221 17.6977 120.995 17.7918C120.769 17.8858 120.564 18.0253 120.391 18.2021C120.218 18.3788 120.082 18.5891 119.99 18.8206C119.898 19.0521 119.853 19.3001 119.856 19.5499H119.856Z" fill="white"/>
<path d="M130.802 16.5665H134.025C135.424 16.5665 136.244 17.2917 136.244 18.4272C136.246 18.7874 136.128 19.1375 135.908 19.4189C135.688 19.7003 135.38 19.8958 135.036 19.9728V20.0871C135.454 20.1141 135.845 20.3042 136.13 20.6181C136.414 20.932 136.57 21.3458 136.565 21.774C136.565 23.0506 135.627 23.8838 134.058 23.8838H130.802V16.5665ZM132.2 17.675V19.5697H133.599C134.452 19.5697 134.86 19.2341 134.86 18.6152C134.86 18.0447 134.505 17.675 133.756 17.675L132.2 17.675ZM132.2 20.6314V22.7753H133.874C134.708 22.7753 135.154 22.3985 135.154 21.7066C135.154 20.9742 134.649 20.6314 133.697 20.6314L132.2 20.6314Z" fill="white"/>
</svg>
