<svg width="220" height="65" viewBox="0 0 220 65" fill="none" xmlns="http://www.w3.org/2000/svg">
<g clip-path="url(#clip0_1_356)">
<path d="M211.852 0H8.14815C3.64805 0 0 3.63769 0 8.125V56.875C0 61.3623 3.64805 65 8.14815 65H211.852C216.352 65 220 61.3623 220 56.875V8.125C220 3.63769 216.352 0 211.852 0Z" fill="black"/>
<path d="M211.852 1.3C213.667 1.3 215.408 2.01906 216.692 3.299C217.975 4.57893 218.696 6.3149 218.696 8.125V56.875C218.696 58.6851 217.975 60.4211 216.692 61.701C215.408 62.9809 213.667 63.7 211.852 63.7H8.14815C6.33289 63.7 4.59198 62.9809 3.3084 61.701C2.02481 60.4211 1.3037 58.6851 1.3037 56.875V8.125C1.3037 6.3149 2.02481 4.57893 3.3084 3.299C4.59198 2.01906 6.33289 1.3 8.14815 1.3H211.852ZM211.852 0H8.14815C5.98712 0 3.91461 0.856024 2.38654 2.37976C0.858463 3.90349 0 5.97012 0 8.125L0 56.875C0 59.0299 0.858463 61.0965 2.38654 62.6202C3.91461 64.144 5.98712 65 8.14815 65H211.852C214.013 65 216.085 64.144 217.613 62.6202C219.142 61.0965 220 59.0299 220 56.875V8.125C220 5.97012 219.142 3.90349 217.613 2.37976C216.085 0.856024 214.013 0 211.852 0V0Z" fill="#A6A6A6"/>
<path d="M111.043 35.3438C109.674 35.3502 108.338 35.7607 107.204 36.5235C106.069 37.2863 105.186 38.3671 104.667 39.6296C104.148 40.8921 104.015 42.2797 104.286 43.6172C104.557 44.9548 105.219 46.1823 106.189 47.1449C107.159 48.1075 108.393 48.762 109.736 49.0259C111.079 49.2898 112.469 49.1511 113.733 48.6274C114.997 48.1038 116.077 47.2186 116.836 46.0836C117.596 44.9486 118.001 43.6146 118.001 42.2501C118.014 41.3367 117.843 40.43 117.498 39.584C117.152 38.738 116.64 37.9699 115.991 37.3255C115.341 36.6811 114.569 36.1736 113.719 35.8331C112.869 35.4927 111.959 35.3263 111.043 35.3438V35.3438ZM111.043 46.4426C110.201 46.5013 109.361 46.3061 108.632 45.8826C107.903 45.459 107.319 44.8266 106.956 44.0675C106.592 43.3085 106.466 42.4579 106.593 41.6263C106.721 40.7948 107.096 40.0207 107.671 39.4048C108.245 38.7888 108.993 38.3595 109.815 38.1726C110.638 37.9857 111.498 38.0498 112.283 38.3567C113.069 38.6636 113.743 39.199 114.22 39.8933C114.696 40.5877 114.952 41.4088 114.954 42.2501C114.98 42.7831 114.899 43.316 114.715 43.8173C114.532 44.3185 114.249 44.7781 113.885 45.1689C113.52 45.5596 113.081 45.8736 112.593 46.0924C112.105 46.3111 111.578 46.4302 111.043 46.4426V46.4426ZM95.8708 35.3438C94.5016 35.347 93.1642 35.7548 92.0274 36.5156C90.8906 37.2764 90.0054 38.3562 89.4837 39.6184C88.962 40.8806 88.8271 42.2687 89.0962 43.6073C89.3653 44.946 90.0262 46.175 90.9955 47.1392C91.9647 48.1035 93.1988 48.7596 94.5419 49.0248C95.8849 49.2899 97.2766 49.1522 98.5412 48.629C99.8058 48.1058 100.887 47.2207 101.647 46.0853C102.407 44.9499 102.813 43.6153 102.813 42.2501C102.826 41.3367 102.655 40.43 102.31 39.584C101.964 38.738 101.452 37.9699 100.802 37.3255C100.153 36.6811 99.3805 36.1736 98.5305 35.8331C97.6804 35.4927 96.7704 35.3263 95.8545 35.3438H95.8708ZM95.8708 46.4426C95.0288 46.5046 94.1876 46.3124 93.4567 45.891C92.7258 45.4696 92.139 44.8385 91.7728 44.08C91.4066 43.3214 91.2779 42.4705 91.4035 41.638C91.529 40.8055 91.903 40.0299 92.4768 39.4123C93.0505 38.7947 93.7974 38.3637 94.6203 38.1753C95.4432 37.9869 96.3038 38.0499 97.0903 38.3561C97.8768 38.6623 98.5526 39.1975 99.0297 39.892C99.5069 40.5865 99.7633 41.4082 99.7656 42.2501C99.7918 42.7831 99.7108 43.316 99.5272 43.8173C99.3437 44.3185 99.0613 44.7781 98.6968 45.1689C98.3323 45.5596 97.893 45.8736 97.4048 46.0924C96.9167 46.3111 96.3895 46.4302 95.8545 46.4426H95.8708ZM77.7982 37.4726V40.3976H84.8382C84.7278 41.7753 84.1535 43.0752 83.2085 44.0863C82.5042 44.8017 81.6575 45.3621 80.7229 45.7316C79.7883 46.101 78.7864 46.2712 77.7819 46.2313C75.7073 46.2313 73.7177 45.4095 72.2507 43.9468C70.7838 42.484 69.9597 40.5 69.9597 38.4313C69.9597 36.3626 70.7838 34.3787 72.2507 32.9159C73.7177 31.4531 75.7073 30.6313 77.7819 30.6313C79.7664 30.599 81.6828 31.3529 83.1108 32.7276L85.1804 30.6638C84.2164 29.6905 83.0664 28.92 81.7983 28.398C80.5302 27.8761 79.17 27.6132 77.7982 27.6251C76.3494 27.5688 74.9042 27.8048 73.5491 28.3189C72.194 28.833 70.9569 29.6145 69.912 30.6167C68.8671 31.6189 68.0358 32.8212 67.4679 34.1514C66.9001 35.4816 66.6074 36.9125 66.6074 38.3582C66.6074 39.8039 66.9001 41.2348 67.4679 42.565C68.0358 43.8952 68.8671 45.0975 69.912 46.0997C70.9569 47.1019 72.194 47.8834 73.5491 48.3975C74.9042 48.9116 76.3494 49.1475 77.7982 49.0913C79.1931 49.1542 80.5853 48.9184 81.8811 48.3998C83.177 47.8813 84.3464 47.092 85.3108 46.0851C87.0181 44.2146 87.9297 41.7557 87.853 39.2276C87.8582 38.6117 87.8037 37.9967 87.69 37.3913L77.7982 37.4726ZM151.637 39.7476C151.212 38.5008 150.417 37.4121 149.358 36.6257C148.298 35.8393 147.025 35.3923 145.705 35.3438C144.813 35.3421 143.931 35.5227 143.112 35.8744C142.294 36.2262 141.556 36.7417 140.945 37.3889C140.334 38.0362 139.863 38.8016 139.561 39.6377C139.258 40.4738 139.131 41.3629 139.186 42.2501C139.167 43.1583 139.33 44.0612 139.668 44.9048C140.006 45.7484 140.511 46.5155 141.153 47.1601C141.795 47.8048 142.561 48.3138 143.405 48.6568C144.248 48.9997 145.152 49.1696 146.063 49.1563C147.203 49.1624 148.327 48.8866 149.334 48.3534C150.34 47.8203 151.199 47.0465 151.832 46.1013L149.469 44.4763C149.117 45.0626 148.617 45.5475 148.02 45.8836C147.423 46.2198 146.749 46.3955 146.063 46.3938C145.357 46.4206 144.66 46.2351 144.061 45.8612C143.462 45.4874 142.99 44.9425 142.706 44.2976L151.979 40.4788L151.637 39.7476ZM142.185 42.0551C142.152 41.5524 142.22 41.0483 142.384 40.5722C142.549 40.096 142.808 39.6575 143.145 39.2822C143.482 38.9069 143.89 38.6024 144.347 38.3865C144.803 38.1706 145.298 38.0478 145.803 38.0251C146.328 37.9905 146.853 38.1107 147.31 38.3707C147.768 38.6307 148.139 39.0191 148.377 39.4876L142.185 42.0551ZM134.656 48.7501H137.703V28.4376H134.656V48.7501ZM129.669 36.8876H129.555C129.096 36.3755 128.533 35.9661 127.904 35.686C127.275 35.406 126.594 35.2617 125.905 35.2626C124.124 35.3487 122.445 36.1148 121.215 37.402C119.985 38.6893 119.299 40.399 119.299 42.1769C119.299 43.9549 119.985 45.6646 121.215 46.9519C122.445 48.2391 124.124 49.0052 125.905 49.0913C126.595 49.1029 127.28 48.9634 127.911 48.6826C128.542 48.4019 129.103 47.9867 129.555 47.4663H129.653V48.4576C129.653 51.1063 128.235 52.5201 125.954 52.5201C125.194 52.5023 124.456 52.2595 123.835 51.8226C123.214 51.3856 122.738 50.7742 122.466 50.0663L119.81 51.1713C120.31 52.3841 121.162 53.4204 122.257 54.1471C123.351 54.8738 124.639 55.2579 125.954 55.2501C129.523 55.2501 132.472 53.1538 132.472 48.0513V35.7501H129.669V36.8876ZM126.182 46.4426C125.131 46.3502 124.152 45.8685 123.44 45.0925C122.727 44.3164 122.332 43.3023 122.332 42.2501C122.332 41.1978 122.727 40.1837 123.44 39.4077C124.152 38.6316 125.131 38.1499 126.182 38.0576C126.703 38.0842 127.214 38.2147 127.684 38.4411C128.153 38.6676 128.573 38.9856 128.918 39.3763C129.263 39.767 129.525 40.2225 129.691 40.7161C129.856 41.2096 129.921 41.7312 129.881 42.2501C129.926 42.7712 129.864 43.2959 129.699 43.7924C129.534 44.289 129.27 44.7471 128.923 45.139C128.576 45.5309 128.152 45.8485 127.678 46.0725C127.204 46.2966 126.69 46.4225 126.166 46.4426H126.182ZM165.912 28.4376H158.628V48.7501H161.675V41.0476H165.929C166.797 41.1098 167.669 40.9929 168.49 40.7042C169.312 40.4156 170.064 39.9613 170.702 39.3697C171.339 38.7782 171.847 38.062 172.195 37.2659C172.543 36.4698 172.722 35.6108 172.722 34.7426C172.722 33.8743 172.543 33.0153 172.195 32.2192C171.847 31.4231 171.339 30.707 170.702 30.1154C170.064 29.5238 169.312 29.0696 168.49 28.7809C167.669 28.4922 166.797 28.3754 165.929 28.4376H165.912ZM165.912 38.1876H161.659V31.2651H165.977C166.905 31.2651 167.794 31.6323 168.449 32.286C169.105 32.9397 169.473 33.8262 169.473 34.7507C169.473 35.6751 169.105 36.5617 168.449 37.2154C167.794 37.8691 166.905 38.2363 165.977 38.2363L165.912 38.1876ZM184.702 35.2626C183.592 35.1964 182.488 35.455 181.524 36.0064C180.56 36.5578 179.778 37.378 179.275 38.3663L181.98 39.4876C182.247 38.9974 182.651 38.5951 183.143 38.3297C183.635 38.0642 184.193 37.9471 184.751 37.9926C185.138 37.9475 185.53 37.9797 185.904 38.0873C186.278 38.195 186.627 38.3758 186.93 38.6193C187.234 38.8629 187.486 39.1642 187.671 39.5058C187.856 39.8474 187.972 40.2223 188.01 40.6088V40.8201C187.031 40.3033 185.94 40.0354 184.832 40.0401C181.915 40.0401 178.966 41.6651 178.966 44.6063C178.994 45.2335 179.149 45.8485 179.42 46.415C179.691 46.9816 180.074 47.4881 180.545 47.9047C181.016 48.3214 181.566 48.6396 182.162 48.8406C182.759 49.0416 183.39 49.1213 184.017 49.0751C184.785 49.13 185.553 48.978 186.241 48.6349C186.929 48.2917 187.512 47.7702 187.929 47.1251H188.026V48.7501H190.96V40.9338C190.96 37.3751 188.254 35.3113 184.783 35.3113L184.702 35.2626ZM184.327 46.3938C183.333 46.3938 181.948 45.8901 181.948 44.6713C181.948 43.0463 183.675 42.5101 185.207 42.5101C186.175 42.4862 187.132 42.7219 187.977 43.1926C187.876 44.0723 187.458 44.8858 186.802 45.483C186.147 46.0802 185.296 46.421 184.409 46.4426L184.327 46.3938ZM201.65 35.7501L198.163 44.5576H198.065L194.447 35.7501H191.188L196.614 48.0676L193.518 54.9088H196.696L205.04 35.7501H201.65ZM174.256 48.7501H177.303V28.4376H174.256V48.7501Z" fill="white"/>
<path d="M17.0133 12.2525C16.4821 12.8881 16.214 13.7017 16.2637 14.5275V50.4725C16.214 51.2984 16.4821 52.112 17.0133 52.7475L17.1274 52.8613L37.3185 32.7438V32.2725L17.1274 12.1388L17.0133 12.2525Z" fill="url(#paint0_linear_1_356)"/>
<path d="M43.9998 39.455L37.3184 32.7438V32.2725L43.9998 25.545L44.1465 25.6263L52.148 30.16C54.4295 31.4438 54.4295 33.5563 52.148 34.8563L44.1791 39.3738L43.9998 39.455Z" fill="url(#paint1_linear_1_356)"/>
<path d="M44.1959 39.3575L37.3189 32.5L17.0137 52.7475C17.4787 53.1551 18.0719 53.388 18.6909 53.4058C19.3098 53.4236 19.9155 53.2252 20.4033 52.845L44.2122 39.3575" fill="url(#paint2_linear_1_356)"/>
<path d="M44.1956 25.6425L20.3867 12.155C19.8989 11.7748 19.2932 11.5764 18.6743 11.5942C18.0553 11.612 17.4621 11.8449 16.9971 12.2525L37.3186 32.5L44.1956 25.6425Z" fill="url(#paint3_linear_1_356)"/>
<path opacity="0.2" d="M44.0003 39.2112L20.387 52.6174C19.9165 52.9682 19.3448 53.1577 18.7574 53.1577C18.1699 53.1577 17.5982 52.9682 17.1277 52.6174L17.0137 52.7312L17.1277 52.8449C17.5972 53.1982 18.1693 53.3893 18.7574 53.3893C19.3455 53.3893 19.9176 53.1982 20.387 52.8449L44.1959 39.3574L44.0003 39.2112Z" fill="black"/>
<path opacity="0.12" d="M17.0133 52.52C16.4821 51.8844 16.214 51.0708 16.2637 50.245V50.4887C16.214 51.3146 16.4821 52.1282 17.0133 52.7638L17.1274 52.65L17.0133 52.52ZM52.1481 34.6125L43.9999 39.2112L44.1466 39.3575L52.1481 34.84C52.6021 34.6273 52.9918 34.299 53.278 33.8882C53.5641 33.4773 53.7365 32.9985 53.7777 32.5C53.6861 32.9529 53.4915 33.3788 53.209 33.745C52.9265 34.1112 52.5636 34.408 52.1481 34.6125V34.6125Z" fill="black"/>
<path opacity="0.25" d="M20.3863 12.3825L52.1478 30.3875C52.5633 30.592 52.9262 30.8887 53.2087 31.2549C53.4912 31.6211 53.6858 32.0471 53.7774 32.5C53.7362 32.0015 53.5638 31.5226 53.2777 31.1118C52.9916 30.701 52.6018 30.3726 52.1478 30.16L20.3863 12.155C18.1048 10.8712 16.2471 11.9437 16.2471 14.5437V14.7875C16.296 12.1712 18.1211 11.0987 20.3863 12.3825V12.3825Z" fill="white"/>
<path d="M68.6239 23.1888H67.418V19.9388H68.4446C68.9128 19.4441 69.2663 18.853 69.4803 18.2072C69.6943 17.5614 69.7635 16.8767 69.6832 16.2013V11.375H76.2017V19.9225H77.2935V23.1725H76.0876V21.125H68.6239V23.1888ZM70.8891 16.25C70.9651 17.5608 70.6413 18.8638 69.9602 19.9875H74.8491V12.5775H70.8891V16.25ZM87.0387 19.8575C86.086 20.8022 84.7971 21.3325 83.4535 21.3325C82.11 21.3325 80.821 20.8022 79.8683 19.8575C78.9423 18.8801 78.4264 17.5865 78.4264 16.2419C78.4264 14.8973 78.9423 13.6037 79.8683 12.6263C80.3379 12.1546 80.8965 11.7803 81.5118 11.5248C82.1271 11.2693 82.787 11.1378 83.4535 11.1378C84.12 11.1378 84.78 11.2693 85.3953 11.5248C86.0106 11.7803 86.5691 12.1546 87.0387 12.6263C87.9684 13.6018 88.4868 14.8961 88.4868 16.2419C88.4868 17.5876 87.9684 18.882 87.0387 19.8575V19.8575ZM80.7972 19.045C81.5027 19.7456 82.4579 20.1389 83.4535 20.1389C84.4492 20.1389 85.4043 19.7456 86.1098 19.045C86.8061 18.2797 87.1917 17.2833 87.1917 16.25C87.1917 15.2167 86.8061 14.2204 86.1098 13.455C85.4043 12.7544 84.4492 12.3611 83.4535 12.3611C82.4579 12.3611 81.5027 12.7544 80.7972 13.455C80.101 14.2204 79.7153 15.2167 79.7153 16.25C79.7153 17.2833 80.101 18.2797 80.7972 19.045ZM94.812 21.3363C94.1393 21.3496 93.4708 21.227 92.8468 20.9759C92.2228 20.7248 91.6562 20.3504 91.1812 19.8752C90.7062 19.4 90.3325 18.8338 90.0827 18.2108C89.8329 17.5878 89.7121 16.9208 89.7276 16.25C89.7121 15.5792 89.8329 14.9122 90.0827 14.2892C90.3325 13.6662 90.7062 13.1 91.1812 12.6248C91.6562 12.1496 92.2228 11.7752 92.8468 11.5241C93.4708 11.273 94.1393 11.1504 94.812 11.1638C95.4939 11.1469 96.1708 11.2844 96.7917 11.5658C97.4127 11.8473 97.9616 12.2654 98.3972 12.7888L97.5172 13.6338C97.1954 13.2263 96.7803 12.9016 96.3069 12.6867C95.8334 12.4719 95.3153 12.3731 94.7957 12.3988C94.2955 12.3858 93.7979 12.4742 93.3329 12.6585C92.8679 12.8429 92.4453 13.1194 92.0906 13.4713C91.384 14.2412 90.9921 15.247 90.9921 16.2906C90.9921 17.3343 91.384 18.3401 92.0906 19.11C92.4453 19.4619 92.8679 19.7384 93.3329 19.9228C93.7979 20.1071 94.2955 20.1955 94.7957 20.1825C95.3693 20.1774 95.9346 20.045 96.4504 19.7948C96.9663 19.5446 97.4198 19.183 97.778 18.7363L98.658 19.6138C98.2144 20.1502 97.6581 20.5829 97.0283 20.8813C96.3327 21.1954 95.5756 21.3509 94.812 21.3363V21.3363ZM103.775 21.125H102.52V12.5775H99.7824V11.375H106.496V12.5775H103.775V21.125ZM115.134 11.375L111.434 19.5975C111.286 20.0839 110.99 20.5125 110.587 20.8239C110.185 21.1354 109.695 21.3144 109.185 21.3363C108.849 21.332 108.516 21.2602 108.208 21.125L108.534 19.9713C108.732 20.0863 108.956 20.1479 109.185 20.15C109.425 20.168 109.664 20.1112 109.87 19.9875C110.066 19.8218 110.217 19.6094 110.31 19.37L110.668 18.59L107.409 11.3913H108.892L111.304 16.9813L113.651 11.375H115.134ZM116.551 21.125V11.375H123.624V21.125H122.369V12.5775H117.806V21.125H116.551ZM125.856 21.125V11.375H127.111V15.5513H132V11.375H133.255V21.125H132V16.7213H127.111V21.125H125.856ZM143.505 19.8575C142.553 20.8022 141.264 21.3325 139.92 21.3325C138.577 21.3325 137.288 20.8022 136.335 19.8575C135.409 18.8801 134.893 17.5865 134.893 16.2419C134.893 14.8973 135.409 13.6037 136.335 12.6263C136.805 12.1546 137.363 11.7803 137.978 11.5248C138.594 11.2693 139.254 11.1378 139.92 11.1378C140.587 11.1378 141.247 11.2693 141.862 11.5248C142.477 11.7803 143.036 12.1546 143.505 12.6263C144.435 13.6018 144.953 14.8961 144.953 16.2419C144.953 17.5876 144.435 18.882 143.505 19.8575V19.8575ZM137.264 19.045C137.969 19.7456 138.925 20.1389 139.92 20.1389C140.916 20.1389 141.871 19.7456 142.576 19.045C143.273 18.2797 143.658 17.2833 143.658 16.25C143.658 15.2167 143.273 14.2204 142.576 13.455C141.871 12.7544 140.916 12.3611 139.92 12.3611C138.925 12.3611 137.969 12.7544 137.264 13.455C136.568 14.2204 136.182 15.2167 136.182 16.25C136.182 17.2833 136.568 18.2797 137.264 19.045ZM150.073 21.125V11.375H153.609C154.343 11.3612 155.055 11.6287 155.597 12.1225C155.87 12.3582 156.087 12.6506 156.233 12.9791C156.379 13.3077 156.452 13.6643 156.445 14.0238C156.452 14.4569 156.327 14.8821 156.086 15.2425C155.847 15.5926 155.514 15.8685 155.125 16.0388C155.597 16.1948 156.012 16.4893 156.314 16.8838C156.628 17.2819 156.794 17.7752 156.787 18.2813C156.795 18.6559 156.721 19.0277 156.569 19.3704C156.416 19.713 156.191 20.018 155.907 20.2638C155.339 20.7857 154.593 21.0707 153.821 21.06L150.073 21.125ZM151.328 15.5513H153.609C153.822 15.5601 154.035 15.5226 154.232 15.4412C154.429 15.3598 154.605 15.2365 154.75 15.08C154.894 14.9496 155.011 14.7915 155.092 14.6151C155.174 14.4388 155.219 14.2479 155.225 14.0538C155.231 13.8597 155.198 13.6663 155.128 13.4853C155.057 13.3042 154.951 13.1392 154.815 13C154.679 12.8464 154.51 12.7246 154.322 12.6431C154.133 12.5617 153.929 12.5226 153.723 12.5288H151.393L151.328 15.5513ZM151.328 19.9225H153.854C154.074 19.9299 154.294 19.8886 154.497 19.8015C154.7 19.7144 154.881 19.5837 155.027 19.4188C155.314 19.1216 155.477 18.7265 155.483 18.3138C155.483 17.8828 155.311 17.4695 155.006 17.1647C154.7 16.86 154.286 16.6888 153.854 16.6888H151.376L151.328 19.9225Z" fill="white" stroke="white" stroke-width="0.2" stroke-miterlimit="10"/>
</g>
<defs>
<linearGradient id="paint0_linear_1_356" x1="35.5259" y1="14.1538" x2="8.25848" y2="41.4989" gradientUnits="userSpaceOnUse">
<stop stop-color="#00A0FF"/>
<stop offset="0.01" stop-color="#00A1FF"/>
<stop offset="0.26" stop-color="#00BEFF"/>
<stop offset="0.51" stop-color="#00D2FF"/>
<stop offset="0.76" stop-color="#00DFFF"/>
<stop offset="1" stop-color="#00E3FF"/>
</linearGradient>
<linearGradient id="paint1_linear_1_356" x1="55.1302" y1="32.5" x2="15.7095" y2="32.5" gradientUnits="userSpaceOnUse">
<stop stop-color="#FFE000"/>
<stop offset="0.41" stop-color="#FFBD00"/>
<stop offset="0.78" stop-color="#FFA500"/>
<stop offset="1" stop-color="#FF9C00"/>
</linearGradient>
<linearGradient id="paint2_linear_1_356" x1="40.464" y1="36.2375" x2="3.47915" y2="73.3115" gradientUnits="userSpaceOnUse">
<stop stop-color="#FF3A44"/>
<stop offset="1" stop-color="#C31162"/>
</linearGradient>
<linearGradient id="paint3_linear_1_356" x1="11.8963" y1="0.292501" x2="28.4063" y2="16.8495" gradientUnits="userSpaceOnUse">
<stop stop-color="#32A071"/>
<stop offset="0.07" stop-color="#2DA771"/>
<stop offset="0.48" stop-color="#15CF74"/>
<stop offset="0.8" stop-color="#06E775"/>
<stop offset="1" stop-color="#00F076"/>
</linearGradient>
<clipPath id="clip0_1_356">
<rect width="220" height="65" fill="white"/>
</clipPath>
</defs>
</svg>
