<svg
        fill="none"
        height="48"
        viewBox="0 0 48 48"
        width="48"
        xmlns="http://www.w3.org/2000/svg"
        >
<path
d="M24 48C37.2548 48 48 37.2548 48 24C48 10.7452 37.2548 0 24 0C10.7452 0 0 10.7452 0 24C0 37.2548 10.7452 48 24 48Z"
fill="white"
/>
<path
d="M12 21.5C12 20.6716 12.6716 20 13.5 20H31.5C32.3284 20 33 20.6716 33 21.5C33 22.3284 32.3284 23 31.5 23H13.5C12.6716 23 12 22.3284 12 21.5ZM17 28.5C17 27.6716 17.6716 27 18.5 27H26.5C27.3284 27 28 27.6716 28 28.5C28 29.3284 27.3284 30 26.5 30H18.5C17.6716 30 17 29.3284 17 28.5ZM34.5 27C35.3284 27 36 27.6716 36 28.5C36 29.3284 35.3284 30 34.5 30H31.5C30.6716 30 30 29.3284 30 28.5C30 27.6716 30.6716 27 31.5 27H34.5Z"
fill="#434C5D"
/>
</svg>