<svg width="70%" height="50" viewBox="0 0 32 32" fill="none" xmlns="http://www.w3.org/2000/svg">
<path d="M16.2057 0.528076C13.1836 0.533718 10.2284 1.40271 7.70003 3.0292C5.17166 4.65569 3.17926 6.96948 1.96552 9.68875C0.751778 12.408 0.369076 15.4154 0.864028 18.3445C1.35898 21.2737 2.71023 23.9982 4.75317 26.1863V26.1863C6.21228 27.7402 7.98317 28.9804 9.95424 29.8287C11.9253 30.6769 14.0539 31.1148 16.2057 31.1148C18.3576 31.1148 20.4861 30.6769 22.4572 29.8287C24.4283 28.9804 26.1991 27.7402 27.6582 26.1863V26.1863C29.7012 23.9982 31.0524 21.2737 31.5474 18.3445C32.0423 15.4154 31.6596 12.408 30.4459 9.68875C29.2322 6.96948 27.2398 4.65569 24.7114 3.0292C22.183 1.40271 19.2278 0.533718 16.2057 0.528076V0.528076ZM16.2057 28.0846C12.9779 28.0798 9.87786 26.845 7.55788 24.6401C8.26224 22.9553 9.46045 21.5144 11.0003 20.5003C12.5401 19.4862 14.352 18.9447 16.2057 18.9447C18.0594 18.9447 19.8713 19.4862 21.4112 20.5003C22.951 21.5144 24.1492 22.9553 24.8535 24.6401C22.5336 26.845 19.4335 28.0798 16.2057 28.0846ZM13.0894 12.7754C13.0894 12.1699 13.2721 11.5779 13.6146 11.0744C13.957 10.5709 14.4437 10.1784 15.0131 9.94666C15.5826 9.71492 16.2092 9.65429 16.8137 9.77243C17.4182 9.89057 17.9735 10.1822 18.4093 10.6104C18.8451 11.0386 19.1419 11.5842 19.2622 12.1781C19.3824 12.772 19.3207 13.3877 19.0848 13.9471C18.849 14.5066 18.4495 14.9848 17.9371 15.3213C17.4246 15.6577 16.8221 15.8373 16.2057 15.8373C15.3792 15.8373 14.5866 15.5147 14.0021 14.9405C13.4177 14.3663 13.0894 13.5875 13.0894 12.7754ZM26.9727 21.961C25.5805 19.6213 23.4378 17.8015 20.8802 16.7864C21.6736 15.9026 22.1905 14.8126 22.369 13.6472C22.5475 12.4818 22.3799 11.2906 21.8864 10.2165C21.3929 9.14238 20.5944 8.23099 19.5868 7.59169C18.5792 6.95239 17.4052 6.61233 16.2057 6.61233C15.0062 6.61233 13.8323 6.95239 12.8246 7.59169C11.817 8.23099 11.0185 9.14238 10.525 10.2165C10.0315 11.2906 9.86395 12.4818 10.0424 13.6472C10.2209 14.8126 10.7378 15.9026 11.5312 16.7864C8.97363 17.8015 6.83094 19.6213 5.43877 21.961C4.32927 20.1041 3.74305 17.9905 3.74037 15.8373C3.74037 12.5891 5.05368 9.47391 7.39138 7.17708C9.72909 4.88026 12.8997 3.58992 16.2057 3.58992C19.5117 3.58992 22.6823 4.88026 25.02 7.17708C27.3577 9.47391 28.6711 12.5891 28.6711 15.8373C28.6684 17.9905 28.0822 20.1041 26.9727 21.961V21.961Z" fill="#0075FF"/>
</svg>
