<svg width="219" height="52" viewBox="0 0 219 52" fill="none" xmlns="http://www.w3.org/2000/svg">
<rect width="219" height="52" rx="12" fill="#0075FF"/>
<path d="M106 27.5C106.828 27.5 107.5 26.8284 107.5 26C107.5 25.1716 106.828 24.5 106 24.5V27.5ZM26.9393 24.9393C26.3536 25.5251 26.3536 26.4749 26.9393 27.0607L36.4853 36.6066C37.0711 37.1924 38.0208 37.1924 38.6066 36.6066C39.1924 36.0208 39.1924 35.0711 38.6066 34.4853L30.1213 26L38.6066 17.5147C39.1924 16.9289 39.1924 15.9792 38.6066 15.3934C38.0208 14.8076 37.0711 14.8076 36.4853 15.3934L26.9393 24.9393ZM106 24.5L28 24.5V27.5L106 27.5V24.5Z" fill="white"/>
</svg>
