<svg width="82" height="75" viewBox="0 0 82 75" fill="none" xmlns="http://www.w3.org/2000/svg">
<rect x="-6.10352e-05" width="82" height="75" rx="37.5" fill="#0075FF"/>
<path d="M40.7638 53.4563C38.1931 53.4563 35.7441 52.843 33.4169 51.6162L24.1217 54C24.0947 54 24.0676 54 24.0405 54C24.0405 54 24.027 53.9861 23.9999 53.9582C23.9999 53.9303 23.9999 53.9024 23.9999 53.8745L26.3136 44.2977C25.1229 41.9 24.5276 39.3768 24.5276 36.7282C24.5276 33.6892 25.2582 30.8872 26.7195 28.3223C28.1808 25.7573 30.1426 23.736 32.6051 22.2583C35.0947 20.7528 37.8142 20 40.7638 20C43.7133 20 46.4329 20.7528 48.9224 22.2583C51.412 23.736 53.3739 25.7573 54.8081 28.3223C56.2693 30.8872 56.9999 33.6892 56.9999 36.7282C56.9999 39.7671 56.2693 42.5691 54.8081 45.1341C53.3739 47.6712 51.412 49.6925 48.9224 51.198C46.4329 52.7036 43.7133 53.4563 40.7638 53.4563Z" fill="white"/>
</svg>
