<svg width="70%" height="60" viewBox="0 0 33 32" fill="none" xmlns="http://www.w3.org/2000/svg">
<path fill-rule="evenodd" clip-rule="evenodd" d="M32.0895 15.8215C32.0895 24.2677 25.1266 31.1148 16.5374 31.1148C7.9482 31.1148 0.985291 24.2677 0.985291 15.8215C0.985291 7.37515 7.9482 0.528076 16.5374 0.528076C25.1266 0.528076 32.0895 7.37515 32.0895 15.8215ZM17.0947 11.8183C15.582 12.437 12.5588 13.7176 8.02503 15.66C7.28882 15.9479 6.90316 16.2296 6.86806 16.505C6.80872 16.9704 7.40142 17.1537 8.20852 17.4032C8.31831 17.4372 8.43206 17.4723 8.54868 17.5096C9.34274 17.7634 10.4109 18.0604 10.9662 18.0722C11.4699 18.0829 12.0321 17.8787 12.6527 17.4596C16.8888 14.6477 19.0754 13.2265 19.2127 13.1958C19.3096 13.1742 19.4438 13.147 19.5347 13.2265C19.6256 13.306 19.6167 13.4565 19.6071 13.4969C19.5484 13.743 17.2218 15.87 16.0178 16.9707C15.6425 17.3139 15.3762 17.5573 15.3218 17.6129C15.1999 17.7374 15.0756 17.8552 14.9562 17.9684C14.2185 18.6677 13.6653 19.1922 14.9868 20.0486C15.6219 20.4601 16.1301 20.8004 16.637 21.1399C17.1907 21.5107 17.743 21.8805 18.4575 22.3411C18.6396 22.4585 18.8134 22.5804 18.9828 22.6991C19.6271 23.1508 20.206 23.5566 20.9212 23.4919C21.3368 23.4543 21.766 23.07 21.984 21.924C22.4993 19.2155 23.512 13.3471 23.746 10.9288C23.7665 10.717 23.7407 10.4458 23.72 10.3268C23.6993 10.2077 23.656 10.0382 23.4987 9.91262C23.3123 9.76393 23.0247 9.73258 22.896 9.73481C22.3111 9.74494 21.4136 10.0518 17.0947 11.8183Z" fill="#34AADF"/>
</svg>
