<svg fill="none" height="48" viewBox="0 0 48 48" width="48" xmlns="http://www.w3.org/2000/svg">
    <rect fill="white" height="48" rx="24" width="48" />
    <path
            d="M11.6639 23.611C18.1631 20.7207 22.4959 18.815 24.6623 17.8944C30.855 15.2654 32.1402 14.8088 32.9796 14.7933C33.1642 14.7903 33.5752 14.8369 33.8434 15.0583C34.0663 15.245 34.129 15.4974 34.1603 15.6747C34.1882 15.8518 34.2265 16.2554 34.1952 16.5705C33.8608 20.1691 32.4084 28.902 31.67 32.9327C31.36 34.6382 30.7435 35.21 30.148 35.2658C28.8523 35.3874 27.8701 34.3925 26.6162 33.5536C24.6553 32.2404 23.5477 31.4232 21.6426 30.142C19.4413 28.6612 20.8693 27.8473 22.1232 26.5173C22.4506 26.1692 28.1557 20.8725 28.2637 20.3921C28.2776 20.332 28.2915 20.108 28.1592 19.9899C28.0303 19.8715 27.8387 19.912 27.6994 19.944C27.5009 19.9896 24.3697 22.1047 18.2954 26.289C17.4073 26.9128 16.6027 27.2168 15.8782 27.2008C15.0841 27.1834 13.5516 26.7414 12.4127 26.3637C11.0195 25.9004 9.90844 25.6554 10.006 24.8684C10.0547 24.4588 10.6085 24.0395 11.6639 23.611V23.611Z"
            fill="#25A2E0"
    />
</svg>