<svg fill="none" height="48" viewBox="0 0 48 48" width="48" xmlns="http://www.w3.org/2000/svg"
        >
<path
d="M24 48C37.2548 48 48 37.2548 48 24C48 10.7452 37.2548 0 24 0C10.7452 0 0 10.7452 0 24C0 37.2548 10.7452 48 24 48Z"
fill="white"
/>
<path
d="M18.9074 16.9974L27.2791 14.617L26.8358 13.6834C26.5457 13.0766 25.8382 12.8261 25.2558 13.1282L17.7614 16.9974H18.9074Z"
fill="#434C5D"
/>
<path
d="M29.878 14.6855C29.7743 14.6855 29.6705 14.7003 29.5668 14.7298L27.6 15.2899L21.5936 16.9972H28.4112H31.3826L31.0147 15.592C30.8732 15.0442 30.3968 14.6855 29.878 14.6855Z"
fill="#434C5D"
/>
<path
d="M32.611 17.8574H32.3422H31.9767H31.6112H28.8214H18.5702H17.226H16.0941H15.8842H15.1815C14.8089 17.8574 14.4764 18.0368 14.2594 18.3193C14.1604 18.4495 14.0849 18.5993 14.0424 18.7639C14.0165 18.8671 14 18.9752 14 19.0857V19.2331V20.6334V32.7717C14 33.4498 14.5282 34.0001 15.1791 34.0001H32.6087C33.2596 34.0001 33.7878 33.4498 33.7878 32.7717V29.3447H26.791C25.685 29.3447 24.7865 28.4087 24.7865 27.2566V26.1314V25.7506V25.3699V24.5248C24.7865 23.9597 25.0034 23.4463 25.3548 23.0705C25.6661 22.7363 26.0835 22.5103 26.5504 22.4538C26.6282 22.444 26.7084 22.4391 26.7886 22.4391H32.8068H33.1723H33.5378H33.7878V19.0857C33.7901 18.4077 33.2619 17.8574 32.611 17.8574Z"
fill="#434C5D"
/>
<path
d="M34.6155 23.6135C34.4976 23.5005 34.3585 23.4146 34.2028 23.3581C34.0825 23.3163 33.9552 23.2917 33.8208 23.2917H33.7901H33.7666H33.401H32.0828H26.7909C26.14 23.2917 25.6118 23.842 25.6118 24.5201V25.1318V25.5125V25.8933V27.2543C25.6118 27.9323 26.14 28.4826 26.7909 28.4826H33.7901H33.8208C33.9552 28.4826 34.0826 28.4581 34.2028 28.4163C34.3585 28.3622 34.4976 28.2738 34.6155 28.1608C34.8513 27.9372 34.9999 27.613 34.9999 27.2543V24.5201C34.9999 24.1614 34.8513 23.8371 34.6155 23.6135ZM29.2529 26.1316C29.2529 26.4706 28.9888 26.7458 28.6634 26.7458H28.2719C27.9465 26.7458 27.6823 26.4706 27.6823 26.1316V25.7238C27.6823 25.5273 27.7696 25.3528 27.9087 25.2423C28.0101 25.1612 28.1351 25.1096 28.2719 25.1096H28.3709H28.6634C28.9888 25.1096 29.2529 25.3848 29.2529 25.7238V26.1316Z"
fill="#434C5D"
/>
</svg>