<svg fill="none"  height="100" viewBox="0 0 48 48" width="70%" xmlns="http://www.w3.org/2000/svg">
<path
d="M24 48C37.2548 48 48 37.2548 48 24C48 10.7452 37.2548 0 24 0C10.7452 0 0 10.7452 0 24C0 37.2548 10.7452 48 24 48Z"
fill="white"
/>
<path
d="M32.5033 15.4877C30.2472 13.2398 27.2468 12.0013 24.0501 12C17.4635 12 12.1028 17.3347 12.1002 23.8918C12.0994 25.9878 12.6496 28.0338 13.6953 29.8373L12 36L18.3348 34.3463C20.0802 35.2937 22.0453 35.793 24.0453 35.7938H24.0502C24.0506 35.7938 24.0498 35.7938 24.0502 35.7938C30.6362 35.7938 35.9973 30.4585 36 23.9013C36.0013 20.7236 34.7595 17.7356 32.5033 15.4877ZM24.0503 33.7853H24.0462C22.264 33.7846 20.516 33.3081 18.991 32.4075L18.6283 32.1933L14.8691 33.1746L15.8725 29.5271L15.6363 29.1531C14.6421 27.5793 14.117 25.7602 14.1178 23.8926C14.1199 18.4426 18.5756 14.0086 24.0541 14.0086C26.707 14.0096 29.2008 15.0391 31.076 16.9075C32.9512 18.7758 33.9834 21.2593 33.9824 23.9005C33.9803 29.351 29.5247 33.7853 24.0503 33.7853ZM27.4581 25.4154C27.1845 25.3162 26.9854 25.2666 26.7863 25.5641C26.5873 25.8616 26.0151 26.531 25.8409 26.7293C25.6667 26.9276 25.4925 26.9524 25.194 26.8036C24.8953 26.6549 23.9333 26.3411 22.7928 25.3288C21.9052 24.5409 21.3059 23.5677 21.1318 23.2702C20.9576 22.9727 21.1132 22.8119 21.2627 22.6637C21.397 22.5306 21.5613 22.3167 21.7106 22.1432C21.8599 21.9697 21.9096 21.8457 22.0092 21.6474C22.1087 21.449 22.0589 21.2755 21.9843 21.1267C21.9096 20.978 21.3125 19.5154 21.0637 18.9204C20.8213 18.341 20.5751 18.4194 20.3918 18.4103C20.2179 18.4017 20.0186 18.3998 19.8196 18.3998C19.6205 18.3998 19.297 18.4742 19.0234 18.7717C18.7497 19.0692 17.9783 19.7881 17.9783 21.2507C17.9783 22.7133 19.0482 24.1263 19.1975 24.3246C19.3468 24.523 21.303 27.5245 24.2982 28.8116C25.0106 29.1177 25.5668 29.3006 26.0004 29.4376C26.7157 29.6637 27.3666 29.6318 27.8811 29.5553C28.4548 29.47 29.6476 28.8364 29.8965 28.1423C30.1453 27.4482 30.1453 26.8532 30.0707 26.7293C29.996 26.6053 29.797 26.531 29.4984 26.3822C29.1998 26.2335 27.7318 25.5146 27.4581 25.4154Z"
fill="#43D854"
/>
</svg>