<svg width="513" height="362" viewBox="0 0 513 362" fill="none" xmlns="http://www.w3.org/2000/svg">
<path d="M151.5 5.99998V356H70.5V71H0.5V5.99998H151.5ZM362.301 362C333.301 362 307.467 354.833 284.801 340.5C262.134 326.167 244.301 305.5 231.301 278.5C218.634 251.167 212.301 218.667 212.301 181C212.301 143.333 218.634 111 231.301 84C244.301 56.6666 262.134 35.8333 284.801 21.5C307.467 7.16666 333.301 -6.19888e-06 362.301 -6.19888e-06C391.301 -6.19888e-06 417.134 7.16666 439.801 21.5C462.467 35.8333 480.134 56.6666 492.801 84C505.801 111 512.301 143.333 512.301 181C512.301 218.667 505.801 251.167 492.801 278.5C480.134 305.5 462.467 326.167 439.801 340.5C417.134 354.833 391.301 362 362.301 362ZM362.301 293.5C383.634 293.5 400.301 284.333 412.301 266C424.634 247.667 430.801 219.333 430.801 181C430.801 142.667 424.634 114.333 412.301 96C400.301 77.6666 383.634 68.5 362.301 68.5C341.301 68.5 324.634 77.6666 312.301 96C300.301 114.333 294.301 142.667 294.301 181C294.301 219.333 300.301 247.667 312.301 266C324.634 284.333 341.301 293.5 362.301 293.5Z" fill="#E1E3E6"/>
</svg>
