<svg width="281" height="356" viewBox="0 0 281 356" fill="none" xmlns="http://www.w3.org/2000/svg">
<path d="M281 290V356H16.5V303.5L151.5 176C165.833 162.333 175.5 150.667 180.5 141C185.5 131 188 121.167 188 111.5C188 97.5 183.167 86.8333 173.5 79.5C164.167 71.8333 150.333 68 132 68C116.667 68 102.833 71 90.5 77C78.1667 82.6667 67.8333 91.3333 59.5 103L0.5 65C14.1667 44.6667 33 28.8333 57 17.5C81 5.83332 108.5 -6.19888e-06 139.5 -6.19888e-06C165.5 -6.19888e-06 188.167 4.33332 207.5 13C227.167 21.3333 242.333 33.3333 253 49C264 64.3333 269.5 82.5 269.5 103.5C269.5 122.5 265.5 140.333 257.5 157C249.5 173.667 234 192.667 211 214L130.5 290H281Z" fill="#E1E3E6"/>
</svg>
