<svg width="279" height="356" viewBox="0 0 279 356" fill="none" xmlns="http://www.w3.org/2000/svg">
<path d="M184 142.5C214.667 147.5 238.167 159 254.5 177C270.833 194.667 279 216.667 279 243C279 263.333 273.667 282.167 263 299.5C252.333 316.5 236 330.167 214 340.5C192.333 350.833 165.667 356 134 356C109.333 356 85 352.833 61 346.5C37.3333 339.833 17.1667 330.5 0.5 318.5L32 256.5C45.3333 266.5 60.6667 274.333 78 280C95.6667 285.333 113.667 288 132 288C152.333 288 168.333 284.167 180 276.5C191.667 268.5 197.5 257.333 197.5 243C197.5 214.333 175.667 200 132 200H95V146.5L167 65H18V-2.38419e-05H263V52.5L184 142.5Z" fill="#E1E3E6"/>
</svg>
