<svg width="279" height="356" viewBox="0 0 279 356" fill="none" xmlns="http://www.w3.org/2000/svg">
<path d="M134.5 131.5C183.833 131.5 220.167 141.333 243.5 161C267.167 180.667 279 207 279 240C279 261.333 273.667 280.833 263 298.5C252.333 315.833 236 329.833 214 340.5C192.333 350.833 165.5 356 133.5 356C108.833 356 84.5 352.833 60.5 346.5C36.8333 339.833 16.6667 330.5 3.53903e-07 318.5L32 256.5C45.3333 266.5 60.6667 274.333 78 280C95.3333 285.333 113.167 288 131.5 288C151.833 288 167.833 284 179.5 276C191.167 268 197 256.833 197 242.5C197 227.5 190.833 216.167 178.5 208.5C166.5 200.833 145.5 197 115.5 197H26L44 -2.38419e-05H257.5V65H111.5L106 131.5H134.5Z" fill="#E1E3E6"/>
</svg>
