<svg width="290" height="362" viewBox="0 0 290 362" fill="none" xmlns="http://www.w3.org/2000/svg">
<path d="M169 136.5C191.333 136.5 211.667 141 230 150C248.333 159 262.833 171.833 273.5 188.5C284.167 204.833 289.5 223.833 289.5 245.5C289.5 268.833 283.667 289.333 272 307C260.333 324.667 244.333 338.333 224 348C204 357.333 181.667 362 157 362C108 362 69.6667 347 42 317C14.3333 287 0.5 244.167 0.5 188.5C0.5 148.833 8 114.833 23 86.5C38 58.1667 58.8333 36.6667 85.5 22C112.5 7.33332 143.667 -6.19888e-06 179 -6.19888e-06C197.667 -6.19888e-06 215.5 2.16665 232.5 6.49997C249.833 10.5 264.5 16.3333 276.5 24L246.5 83.5C229.167 71.8333 207.333 66 181 66C151.333 66 127.833 74.6667 110.5 92C93.1667 109.333 83.8333 134.5 82.5 167.5C103.167 146.833 132 136.5 169 136.5ZM152.5 301.5C169.833 301.5 183.833 296.833 194.5 287.5C205.5 278.167 211 265.5 211 249.5C211 233.5 205.5 220.833 194.5 211.5C183.833 201.833 169.5 197 151.5 197C133.833 197 119.333 202 108 212C96.6667 221.667 91 234.167 91 249.5C91 264.833 96.5 277.333 107.5 287C118.5 296.667 133.5 301.5 152.5 301.5Z" fill="#E1E3E6"/>
</svg>
