<svg width="296" height="362" viewBox="0 0 296 362" fill="none" xmlns="http://www.w3.org/2000/svg">
<path d="M242 172C259.333 180.667 272.5 192 281.5 206C290.833 220 295.5 236.167 295.5 254.5C295.5 276.167 289.333 295.167 277 311.5C264.667 327.5 247.333 340 225 349C202.667 357.667 176.833 362 147.5 362C118.167 362 92.3333 357.667 70 349C48 340 30.8333 327.5 18.5 311.5C6.5 295.167 0.5 276.167 0.5 254.5C0.5 236.167 5 220 14 206C23.3333 192 36.5 180.667 53.5 172C40.5 164 30.5 154 23.5 142C16.5 129.667 13 115.667 13 100C13 79.6667 18.6667 62 30 47C41.3333 32 57.1667 20.5 77.5 12.5C97.8333 4.16666 121.167 -6.19888e-06 147.5 -6.19888e-06C174.167 -6.19888e-06 197.667 4.16666 218 12.5C238.667 20.5 254.667 32 266 47C277.333 62 283 79.6667 283 100C283 115.667 279.5 129.667 272.5 142C265.5 154 255.333 164 242 172ZM147.5 59.5C131.167 59.5 118 63.5 108 71.5C98.3333 79.1667 93.5 89.8333 93.5 103.5C93.5 116.833 98.3333 127.333 108 135C117.667 142.667 130.833 146.5 147.5 146.5C164.167 146.5 177.5 142.667 187.5 135C197.5 127.333 202.5 116.833 202.5 103.5C202.5 89.8333 197.5 79.1667 187.5 71.5C177.5 63.5 164.167 59.5 147.5 59.5ZM147.5 302.5C167.833 302.5 183.833 298 195.5 289C207.5 279.667 213.5 267.333 213.5 252C213.5 236.667 207.5 224.5 195.5 215.5C183.833 206.5 167.833 202 147.5 202C127.5 202 111.667 206.5 100 215.5C88.3333 224.5 82.5 236.667 82.5 252C82.5 267.667 88.3333 280 100 289C111.667 298 127.5 302.5 147.5 302.5Z" fill="#E1E3E6"/>
</svg>
