<svg width="289" height="362" viewBox="0 0 289 362" fill="none" xmlns="http://www.w3.org/2000/svg">
<path d="M132.5 -6.19888e-06C181.5 -6.19888e-06 219.833 15 247.5 45C275.167 74.6666 289 117.5 289 173.5C289 213.167 281.5 247.167 266.5 275.5C251.833 303.833 231 325.333 204 340C177 354.667 145.833 362 110.5 362C91.8333 362 74 360 57 356C40 351.667 25.5 345.667 13.5 338L43.5 278.5C60.5 290.167 82.3333 296 109 296C138.667 296 162.167 287.333 179.5 270C196.833 252.333 206.167 227 207.5 194C186.5 215 157.5 225.5 120.5 225.5C98.1667 225.5 77.8333 221 59.5 212C41.1667 203 26.6667 190.333 16 174C5.33333 157.333 7.07805e-07 138.167 7.07805e-07 116.5C7.07805e-07 93.1667 5.83333 72.6666 17.5 55C29.1667 37.3333 45 23.8333 65 14.5C85.3333 4.83332 107.833 -6.19888e-06 132.5 -6.19888e-06ZM138.5 165C156.167 165 170.5 160.167 181.5 150.5C192.833 140.5 198.5 127.833 198.5 112.5C198.5 97.1666 193 84.6666 182 75C171.333 65.3333 156.5 60.5 137.5 60.5C120.167 60.5 106 65.1667 95 74.5C84.3333 83.8333 79 96.5 79 112.5C79 128.5 84.3333 141.333 95 151C106 160.333 120.5 165 138.5 165Z" fill="#E1E3E6"/>
</svg>
