<svg width="48" height="45" viewBox="0 0 48 45" fill="none" xmlns="http://www.w3.org/2000/svg">
<path fill-rule="evenodd" clip-rule="evenodd" d="M36.5718 36.961C41.6997 36.8695 45.9712 32.9715 46.5692 27.8374C47.3341 21.6233 47.3341 15.3378 46.5692 9.12368C45.9712 3.98957 41.6997 0.0915492 36.5718 0H10.7319C5.61242 0 1.73999 3.73057 0.734218 9.12368C0.031473 13.2706 -0.167832 17.4885 0.140724 21.6839C0.714116 30.3515 2.4944 38.1675 8.05655 45C8.40853 40.4382 12.8642 37.032 19.7339 37.032L36.5718 36.961Z" fill="#009FE3"/>
<path fill-rule="evenodd" clip-rule="evenodd" d="M14.426 29.9888H33.7877C36.0766 30.1426 38.1775 28.7029 38.8947 26.4892C39.8109 24.2437 39.97 13.6637 38.8947 11.0136C38.1924 8.78833 36.0816 7.34157 33.7877 7.51388H14.426C12.1323 7.34157 10.0212 8.78833 9.3191 11.0136C8.24398 13.6637 8.40324 24.2437 9.3191 26.4892C10.0392 28.7005 12.1382 30.1389 14.426 29.9888ZM21.0063 18.1649C20.9884 18.3579 20.8372 18.5105 20.6482 18.529C20.0105 18.5796 19.3938 18.61 18.7761 18.61C18.1593 18.61 17.5515 18.61 16.9149 18.529C16.7229 18.5145 16.5707 18.3597 16.5568 18.1649C16.5568 17.845 16.5359 17.5277 16.516 17.2116C16.4961 16.8981 16.4762 16.5858 16.4762 16.2734C16.4762 15.6463 16.4762 15.0192 16.5568 14.382C16.5697 14.1851 16.7209 14.027 16.9149 14.0078C17.5515 13.9571 18.1693 13.9369 18.7761 13.9369C19.3839 13.9369 20.0105 13.9369 20.6482 14.0078C20.8392 14.0308 20.9884 14.1869 21.0063 14.382C21.0063 14.7019 21.0242 15.0192 21.0411 15.3353C21.059 15.6489 21.0759 15.9611 21.0759 16.2734C21.0759 16.9006 21.0759 17.5277 21.0063 18.1649ZM31.4977 18.529C31.6916 18.5152 31.8478 18.3613 31.8667 18.1649C31.9363 17.5277 31.9363 16.9006 31.9363 16.2734C31.9363 15.9611 31.9184 15.6489 31.9015 15.3353C31.8836 15.0192 31.8667 14.7019 31.8667 14.382C31.8478 14.1835 31.6936 14.0263 31.4977 14.0078C30.871 13.9369 30.2532 13.9369 29.6365 13.9369C29.0197 13.9369 28.402 13.9571 27.7753 14.0078C27.5813 14.027 27.4301 14.1851 27.4162 14.382C27.3366 15.0192 27.3366 15.6463 27.3366 16.2734C27.3366 16.5858 27.3565 16.8981 27.3764 17.2116C27.3963 17.5277 27.4162 17.845 27.4162 18.1649C27.4311 18.3597 27.5833 18.5145 27.7753 18.529C28.402 18.61 29.0197 18.61 29.6365 18.61C30.2532 18.61 30.871 18.5796 31.4977 18.529Z" fill="white"/>
</svg>
