<svg width="40" height="40" viewBox="0 0 40 40" fill="none" xmlns="http://www.w3.org/2000/svg">
<path d="M31.7398 14.2944H8.26157C7.90157 14.2944 7.60938 14.5909 7.60938 14.9562V18.9268C7.60938 25.8594 13.1685 31.5003 20.0007 31.5003C26.8329 31.5003 32.392 25.8594 32.392 18.9268V14.9562C32.392 14.5909 32.0998 14.2944 31.7398 14.2944ZM31.0877 18.9268C31.0877 25.1302 26.1142 30.1768 20.0008 30.1768C13.8873 30.1768 8.91376 25.1302 8.91376 18.9268V15.618H31.0877V18.9268Z" fill="white"/>
<path d="M20.0004 16.9409C16.7643 16.9409 14.1309 19.6131 14.1309 22.8968C14.1309 26.1805 16.7643 28.8527 20.0004 28.8527C23.2365 28.8527 25.87 26.1805 25.87 22.8968C25.87 19.6131 23.2365 16.9409 20.0004 16.9409ZM20.0004 27.5292C17.4831 27.5292 15.4352 25.4512 15.4352 22.8968C15.4352 20.3423 17.483 18.2644 20.0004 18.2644C22.5179 18.2644 24.5657 20.3424 24.5657 22.8968C24.5657 25.4512 22.5179 27.5292 20.0004 27.5292Z" fill="white"/>
<path d="M19.9991 19.5884C18.2005 19.5884 16.7383 21.0734 16.7383 22.8972C16.7383 24.721 18.2005 26.206 19.9991 26.206C21.7978 26.206 23.26 24.721 23.26 22.8972C23.26 21.0734 21.7978 19.5884 19.9991 19.5884ZM19.9991 24.8825C18.9204 24.8825 18.0426 23.9918 18.0426 22.8972C18.0426 21.8026 18.9204 20.9119 19.9991 20.9119C21.0778 20.9119 21.9556 21.8026 21.9556 22.8972C21.9556 23.9918 21.0778 24.8825 19.9991 24.8825Z" fill="white"/>
<path d="M34.3478 9H5.65219C5.29219 9 5 9.29649 5 9.66178V13.6324C5 14.7269 5.87781 15.6177 6.95652 15.6177H33.0435C34.1222 15.6177 35 14.7269 35 13.6324V9.66178C35 9.29649 34.7078 9 34.3478 9ZM33.6956 13.6324C33.6956 13.9977 33.4021 14.2942 33.0434 14.2942H6.95652C6.5978 14.2942 6.30433 13.9977 6.30433 13.6324V10.3235H33.6956V13.6324V13.6324Z" fill="white"/>
<path d="M27.826 19.5882C28.1862 19.5882 28.4782 19.2919 28.4782 18.9264C28.4782 18.5609 28.1862 18.2646 27.826 18.2646C27.4658 18.2646 27.1738 18.5609 27.1738 18.9264C27.1738 19.2919 27.4658 19.5882 27.826 19.5882Z" fill="white"/>
</svg>
