<svg width="36" height="36" viewBox="0 0 36 36" fill="none" xmlns="http://www.w3.org/2000/svg">
<path fill-rule="evenodd" clip-rule="evenodd" d="M18 36C27.9411 36 36 27.9411 36 18C36 8.05887 27.9411 0 18 0C8.05887 0 0 8.05887 0 18C0 27.9411 8.05887 36 18 36Z" fill="#373B43"/>
<path fill-rule="evenodd" clip-rule="evenodd" d="M25.7404 10.4518C23.7663 8.48489 21.141 7.40113 18.3439 7.40002C12.5806 7.40002 7.89003 12.0678 7.88772 17.8054C7.88698 19.6394 8.36845 21.4296 9.28344 23.0076L7.80005 28.4L13.343 26.953C14.8702 27.782 16.5897 28.2189 18.3397 28.2196H18.344C18.3443 28.2196 18.3436 28.2196 18.344 28.2196C24.1067 28.2196 28.7977 23.5512 28.8 17.8136C28.8012 15.0332 27.7146 12.4187 25.7404 10.4518ZM18.344 26.4621H18.3405C16.781 26.4615 15.2515 26.0446 13.9171 25.2566L13.5998 25.0691L10.3105 25.9278L11.1885 22.7362L10.9818 22.409C10.1118 21.0319 9.65239 19.4402 9.65307 17.806C9.65495 13.0373 13.5536 9.15753 18.3474 9.15753C20.6686 9.15841 22.8507 10.0593 24.4915 11.6941C26.1324 13.3289 27.0355 15.502 27.0346 17.813C27.0327 22.5821 23.1341 26.4621 18.344 26.4621ZM21.3258 19.1385C21.0863 19.0517 20.9122 19.0083 20.7379 19.2687C20.5638 19.5289 20.0631 20.1146 19.9107 20.2881C19.7583 20.4617 19.6059 20.4834 19.3446 20.3532C19.0833 20.2231 18.2415 19.9485 17.2436 19.0627C16.467 18.3733 15.9426 17.5218 15.7902 17.2614C15.6378 17.0011 15.774 16.8604 15.9048 16.7308C16.0223 16.6143 16.166 16.4271 16.2967 16.2753C16.4273 16.1235 16.4709 16.015 16.5579 15.8415C16.645 15.6679 16.6015 15.5161 16.5362 15.3859C16.4709 15.2558 15.9483 13.976 15.7306 13.4554C15.5186 12.9484 15.3031 13.017 15.1428 13.009C14.9905 13.0015 14.8162 12.9999 14.642 12.9999C14.4679 12.9999 14.1848 13.0649 13.9454 13.3253C13.7059 13.5856 13.031 14.2146 13.031 15.4944C13.031 16.7742 13.9671 18.0106 14.0978 18.1841C14.2284 18.3576 15.94 20.9839 18.5608 22.1102C19.1842 22.378 19.6708 22.538 20.0503 22.6579C20.6761 22.8557 21.2457 22.8278 21.6959 22.7609C22.1978 22.6863 23.2416 22.1319 23.4594 21.5246C23.6771 20.9172 23.6771 20.3966 23.6118 20.2881C23.5464 20.1797 23.3723 20.1146 23.111 19.9844C22.8497 19.8543 21.5653 19.2253 21.3258 19.1385Z" fill="white"/>
</svg>
