<svg width="170" height="75" viewBox="0 0 170 75" fill="none" xmlns="http://www.w3.org/2000/svg">
<path fill-rule="evenodd" clip-rule="evenodd" d="M37.3882 69.999L37.1233 70C19.3819 70 5 55.4496 5 37.5C5 19.5504 19.3819 5 37.1233 5L37.4121 5.00102H133.165C150.785 5.14481 165 19.6398 165 37.4997C165 55.3599 150.761 69.8549 133.142 69.9987H37.3882V69.999Z" fill="white" stroke="white" stroke-width="9.5"/>
<path fill-rule="evenodd" clip-rule="evenodd" d="M37.3882 69.999L37.1233 70C19.3819 70 5 55.4496 5 37.5C5 19.5504 19.3819 5 37.1233 5L37.4121 5.00102H133.165C150.785 5.14481 165 19.6398 165 37.4997C165 55.3599 150.761 69.8549 133.142 69.9987H37.3882V69.999Z" fill="#ED1C24"/>
<path d="M64.0565 19.3944H64.472L65.109 20.4101H65.4953L64.8313 19.3682C65.1909 19.3408 65.4399 19.1487 65.4399 18.7369C65.4399 18.2707 65.1639 18.0517 64.6105 18.0517H63.6979V20.4101H64.0568V19.3944H64.0565ZM64.0565 18.353H64.5548C64.8041 18.353 65.0806 18.4079 65.0806 18.71C65.0806 19.0662 64.8039 19.0936 64.4994 19.0936H64.0563V18.353H64.0565Z" fill="white"/>
<path d="M64.4994 21.3152C65.6053 21.3152 66.5743 20.41 66.5743 19.2305C66.5743 18.0514 65.6053 17.2006 64.4994 17.2006C63.3658 17.2006 62.3697 18.0514 62.3697 19.2305C62.3697 20.4098 63.3658 21.3152 64.4994 21.3152ZM64.4994 17.5301C65.4394 17.5301 66.1596 18.2704 66.1596 19.2305C66.1596 20.2182 65.4394 20.9311 64.4994 20.9311C63.5582 20.9311 62.8124 20.218 62.8124 19.2305C62.8126 18.2704 63.5584 17.5301 64.4994 17.5301Z" fill="white"/>
<path d="M61.9371 49.2515C61.9371 50.4994 60.9334 51.5115 59.6971 51.5115C58.4605 51.5115 57.4588 50.4994 57.4588 49.2515C57.4588 48.0041 58.4605 46.9937 59.6971 46.9937C60.9334 46.9937 61.9371 48.0041 61.9371 49.2515Z" fill="white"/>
<path d="M89.6982 21.8379C86.3968 19.9823 71.71 24.178 66.9973 40.1988C66.4426 40.3525 63.7773 41.0517 63.7773 41.0517L62.6122 44.2179L66.7447 42.9461C66.7447 42.9461 66.2913 50.6267 73.2211 50.8561C78.6628 50.6511 81.5091 42.844 79.7662 37.3516C79.4343 37.5287 75.0857 39.6396 75.0857 39.6396C75.0857 39.6396 76.0931 45.6676 73.6746 46.4053C72.8915 46.5064 71.9724 44.0934 72.8149 40.4788C84.3754 34.4143 91.7046 22.9743 89.6982 21.8379ZM85.0877 25.4998C87.3041 25.2981 76.6476 36.7409 73.9251 37.2998C73.0441 36.792 80.6779 26.5938 85.0877 25.4998Z" fill="white"/>
<path d="M83.3485 36.4617V38.7243C83.3485 38.7243 86.2968 36.792 86.5235 37.1484C86.5982 38.1651 82.8713 46.7618 82.795 48.0577C82.719 48.8465 83.4497 51.8222 86.9002 50.2707C88.59 49.534 93.1189 45.788 93.1189 45.788C93.1189 45.788 92.3892 47.6992 92.6989 49.2271C93.0056 50.7555 94.8853 51.1579 96.5794 50.5251C98.2738 49.8909 100.208 48.5915 101.042 47.5747C100.915 47.2432 100.436 45.7179 100.436 45.7179C100.436 45.7179 98.9176 47.1637 98.5437 46.9752C98.1685 46.7856 102.855 32.927 102.855 32.927C102.855 32.927 98.0497 32.7393 97.5705 32.7393C96.7788 36.3799 92.2917 45.6157 89.1956 46.0232C88.1347 45.9468 92.9492 35.1134 93.1272 33.8922C93.4795 32.2896 92.2917 31.5529 90.8829 31.8834C89.3968 32.3928 83.3485 36.4617 83.3485 36.4617Z" fill="white"/>
<path d="M116.366 32.5851C116.366 32.5851 115.784 34.0352 115.675 34.2852C115.067 33.2263 112.965 31.1629 108.624 33.8957C104.094 36.8517 102.158 41.8997 102.768 47.2528C103.431 51.6868 108.184 52.2153 111.389 48.4507C111.058 49.4283 107.658 59.969 107.658 59.969L112.936 59.9967L121.562 32.6961L116.366 32.5851ZM110.579 45.7743C109.833 46.1917 108.673 46.8878 108.509 44.239C108.425 41.1164 110.916 37.6255 111.392 37.0783C112.635 35.6566 114.186 35.6304 114.147 37.8818C113.982 40.4742 112.321 44.5733 110.579 45.7743Z" fill="white"/>
<path d="M31.5992 50.4974C28.9596 47.683 31.0126 42.5015 31.4552 37.9118C30.867 38.5048 24.9968 52.2732 19.714 51.6785C15.0186 50.2016 15.6053 44.8696 17.0726 40.8728H24.7022C22.3546 47.386 25.5827 44.7217 27.7845 40.5771C32.1867 31.546 32.4806 30.8062 37.3232 17.1839C40.1109 17.1839 42.8981 17.1839 45.6878 17.1839C43.1935 24.8835 40.8444 32.4342 39.8188 40.4287C39.8188 40.7244 39.9646 41.0207 40.2584 40.8728C42.018 40.5771 51.7038 18.6663 52.5836 17.1839C55.0792 17.1839 58.0142 17.1839 60.6536 17.1839C60.6536 17.9242 51.7038 42.6492 53.1713 45.0174C53.9058 46.3497 54.9337 43.8341 55.8127 42.7965L57.1347 44.1298C54.4933 47.092 51.4125 52.4198 47.0095 51.5326C46.4221 51.3843 45.8351 51.0901 45.396 50.6445C40.8446 46.6477 49.0629 32.1979 48.1837 31.2495C47.9102 31.2803 47.6365 32.0147 47.155 33.0256C44.6594 38.2083 38.9395 51.8283 34.2406 51.8283C33.5084 51.8283 32.0389 51.0898 31.5992 50.4974Z" fill="white"/>
<path d="M126.678 46.4361C136.461 41.2488 138.81 34.6683 135.798 32.8274C131.347 30.3177 119.16 34.8073 120.543 47.106C119.932 47.4678 118.66 48.1654 118.66 48.1654L119.546 50.619C119.546 50.619 121.342 49.5325 121.806 49.2078C128.032 54.3008 134.864 45.9498 134.864 45.9498L133.669 44.0934C133.669 44.0934 128.499 49.1115 126.678 46.4361ZM127.976 38.9062C129.385 36.3964 131.653 34.4448 132.758 35.2257C133.863 36.0069 131.624 39.9661 126.354 44.1732C126.143 43.8066 126.566 41.4165 127.976 38.9062Z" fill="white"/>
<path d="M142.709 33.0223L148.375 32.8557C148.375 32.8557 140.416 39.192 141.576 45.181C142.491 48.8216 145.858 47.0483 147.712 42.9223C148.068 42.1133 150.309 36.6197 148.899 36.6197C147.489 36.6197 146.017 39.4364 146.017 39.4364L144.476 37.875C144.476 37.875 147.599 33.3843 151.155 32.1822C151.58 32.047 154.149 31.5176 154.178 35.2255C154.29 36.9543 152.439 46.4366 145.999 49.7819C140.092 52.8468 137.5 49.1765 137.032 48.0811C133.796 39.975 142.709 33.0223 142.709 33.0223Z" fill="white"/>
</svg>
