<svg width="398" height="43" viewBox="0 0 398 43" fill="none" xmlns="http://www.w3.org/2000/svg">
<path d="M105.767 13.7084H95.0582L97.8068 0.0331932H88.4835L79.9518 42.9569H100.006C105.899 42.9569 108.603 39.6351 109.527 34.8898L112.166 21.948C113.111 17.0732 111.594 13.7084 105.767 13.7084ZM102.644 23.048L100.709 33.5093C100.681 33.9595 100.479 34.3821 100.144 34.6909C99.8088 34.9996 99.3661 35.171 98.9063 35.1702H90.9243L93.629 21.6029H101.633C102.512 21.6029 102.886 22.0127 102.644 23.1128V23.048ZM35.1823 0.0331932H17.2833L15.5902 8.38066H30.7845C31.7301 8.38066 31.9719 8.87676 31.862 9.93368L29.905 19.8342H20.4717L21.857 12.975L0 23.2206H16.2718L14.8865 30.0798L29.2453 23.3284L27.3103 33.1211C27.2604 33.5464 27.045 33.9364 26.709 34.2097C26.3731 34.483 25.9425 34.6184 25.5072 34.5878H10.3788L8.79558 42.9569H26.7166C32.4117 42.9569 35.1823 39.6351 36.0619 34.8898L41.4931 8.10025C42.2848 3.37649 40.8775 0.0331932 35.1823 0.0331932ZM135.364 0.0331932C133.006 -0.127911 130.678 0.628177 128.884 2.13788C127.089 3.64759 125.973 5.78951 125.777 8.10025L118.125 34.5447H114.233L112.43 42.9137H148.337L150.163 34.5447H147.326L154.077 0.0331932H135.364ZM137.871 34.5447H127.888L134.726 9.8474C134.723 9.64628 134.761 9.44657 134.837 9.25968C134.912 9.07278 135.025 8.90236 135.168 8.75814C135.311 8.61393 135.481 8.49874 135.67 8.41917C135.858 8.3396 136.061 8.29719 136.266 8.29438H143.126L137.871 34.5447ZM49.8709 8.10025L39.8 42.9569H49.651L58.7985 9.89054C58.7955 9.68942 58.833 9.48971 58.9088 9.30281C58.9846 9.11592 59.0972 8.9455 59.2401 8.80128C59.3831 8.65707 59.5536 8.54188 59.7419 8.46231C59.9302 8.38274 60.1327 8.34033 60.3377 8.33752H68.4516L61.5691 42.9569H71.0243L79.4461 0.0331932H59.656C58.4735 -0.0674669 57.2824 0.0613552 56.1506 0.412302C55.0189 0.76325 53.9687 1.32945 53.0601 2.07856C52.1514 2.82768 51.4021 3.74503 50.8549 4.77824C50.3077 5.81145 49.9734 6.94028 49.8709 8.10025ZM220.065 42.9569H230.158L233.633 34.9976H242.67L242.01 42.9353H252.477L253.599 0.0331932H240.933L220.065 42.9569ZM244.693 11.2926L243.286 28.0738H236.689L244.077 11.2926H244.693ZM327.943 0.0331932H315.915C310.22 0.0331932 307.449 3.35492 306.46 8.10025L301.249 34.9114C300.303 39.6567 301.754 42.9784 307.515 42.9784H319.609C325.436 42.9784 328.141 39.6567 329.065 34.9114L334.496 8.12182C335.288 3.37649 333.858 0.0331932 327.943 0.0331932ZM324.821 9.86897L320.203 33.0995C320.204 33.4648 320.064 33.817 319.811 34.0851C319.558 34.3532 319.211 34.5174 318.84 34.5447H311.803C310.858 34.5447 310.616 34.178 310.726 33.0779L315.124 9.8474C315.431 8.79049 315.937 8.29438 316.817 8.29438H323.589C324.579 8.40223 325.019 8.83362 324.821 9.89054V9.86897ZM279.392 0.0331932C277.033 -0.127911 274.705 0.628177 272.911 2.13788C271.117 3.64759 270.001 5.78951 269.804 8.10025L262.196 34.5447H258.282L256.479 42.9137H292.453L294.146 34.5447H291.332L298.214 0.0331932H279.392ZM281.898 34.5447H271.937L278.776 9.8474C278.787 9.445 278.96 9.06322 279.256 8.78469C279.553 8.50616 279.949 8.35326 280.359 8.35909H287.154L281.898 34.5447ZM225.519 8.10025C226.486 3.37649 225.013 0.0331932 219.186 0.0331932H199.396L190.82 42.9569H199.858L202.43 30.5327H213.293C219.054 30.5327 221.517 27.0816 222.572 22.3578L225.519 8.10025ZM213.799 20.5244C213.535 21.6892 212.985 22.0774 211.995 22.0774H203.969L206.894 8.40223H214.854C215.8 8.40223 216.173 8.89833 216.041 9.95525L213.799 20.5244ZM182.97 0.0331932H171.074C165.247 0.0331932 162.432 3.35492 161.355 8.10025L156.122 34.9114C155.264 39.6567 156.693 42.9784 162.388 42.9784H174.416C180.309 42.9784 183.058 39.6567 183.938 34.9114L189.369 8.12182C190.292 3.37649 188.841 0.0331932 182.97 0.0331932ZM179.848 9.86897L175.274 33.1211C175.201 33.5361 174.979 33.9119 174.648 34.1808C174.318 34.4497 173.9 34.594 173.471 34.5878H166.874C165.995 34.5878 165.687 34.2211 165.797 33.1211L170.502 9.89054C170.493 9.69505 170.524 9.49976 170.592 9.31586C170.66 9.13196 170.765 8.96305 170.9 8.8188C171.034 8.67455 171.197 8.55779 171.378 8.47521C171.559 8.39262 171.754 8.34584 171.954 8.33752H178.77C179.584 8.40223 180.09 8.83362 179.848 9.89054V9.86897ZM332.407 42.9569H341.598L343.555 33.0779H334.364L332.407 42.9569ZM391.293 12.975L386.742 35.8389C386.61 36.4428 386.39 36.6585 385.928 36.6585H381.112C380.673 36.6585 380.541 36.4428 380.651 35.8389L385.202 12.975H378.496L373.812 36.7017C373.108 40.2607 374.076 42.7843 378.518 42.7843H386.214C387.084 42.8428 387.957 42.7314 388.783 42.4566C389.609 42.1818 390.372 41.749 391.026 41.1833C391.68 40.6176 392.214 39.9303 392.596 39.161C392.978 38.3917 393.2 37.5558 393.25 36.7017L398 12.975H391.293ZM366.974 12.975H353.121L347.249 43H353.56L355.363 34.3721H358.42L359.805 43H366.798L365.017 34.0702C366.206 33.6642 367.253 32.9325 368.032 31.9616C368.811 30.9907 369.291 29.8213 369.414 28.5915L371.415 18.6263C372.075 15.2398 371.02 12.975 366.974 12.975ZM363.235 27.3404C363.06 28.1601 362.664 28.4189 362.026 28.4189H356.397L358.398 18.7772H363.939C364.599 18.7772 364.863 19.1224 364.775 19.8557L363.235 27.3404Z" fill="#CE1037"/>
</svg>
