<svg width="14" height="58" viewBox="0 0 14 58" fill="none" xmlns="http://www.w3.org/2000/svg">
<path d="M11.8203 39.5391H2.44531L1.11719 0.125H13.1484L11.8203 39.5391ZM7.13281 45.7109C9.03385 45.7109 10.5573 46.2708 11.7031 47.3906C12.875 48.5104 13.4609 49.9427 13.4609 51.6875C13.4609 53.4062 12.875 54.8255 11.7031 55.9453C10.5573 57.0651 9.03385 57.625 7.13281 57.625C5.25781 57.625 3.73438 57.0651 2.5625 55.9453C1.41667 54.8255 0.84375 53.4062 0.84375 51.6875C0.84375 49.9688 1.41667 48.5495 2.5625 47.4297C3.73438 46.2839 5.25781 45.7109 7.13281 45.7109Z" fill="#FF0000"/>
</svg>
