<svg width="17" height="20" viewBox="0 0 17 20" fill="none" xmlns="http://www.w3.org/2000/svg">
<path d="M15.157 15.596L11.6265 13.8593C11.2935 13.6953 11.0866 13.3658 11.0866 12.9993V11.7698C11.1712 11.668 11.2603 11.552 11.3523 11.424C11.8102 10.7876 12.1772 10.0793 12.444 9.31527C12.9655 9.08 13.304 8.57273 13.304 8V6.54545C13.304 6.19527 13.1709 5.856 12.9344 5.59091V3.65673C12.9551 3.45673 13.0364 2.26618 12.1613 1.284C11.4022 0.432 10.1704 0 8.49963 0C6.82883 0 5.59706 0.432 4.83798 1.28364C3.96285 2.26582 4.04415 3.45673 4.06485 3.65636V5.59055C3.82833 5.85564 3.69528 6.19491 3.69528 6.54509V7.99964C3.69528 8.44218 3.89965 8.85491 4.24852 9.13018C4.58704 10.4491 5.2955 11.4429 5.54311 11.7618V12.9651C5.54311 13.3171 5.34798 13.64 5.03422 13.8087L1.73733 15.5782C0.665587 16.1535 0 17.2567 0 18.4582V20H17V18.5298C16.9996 17.2796 16.2934 16.1553 15.157 15.596Z" fill="#00AEEF"/>
</svg>
