<svg width="21" height="20" viewBox="0 0 21 20" fill="none" xmlns="http://www.w3.org/2000/svg">
<path d="M15.387 0C15.2616 0 15.1362 0.0205692 15.0108 0.0617075L12.6344 0.843335L5.37659 3.22593H13.6146H17.205L16.7605 1.265C16.5895 0.500516 16.0139 0 15.387 0Z" fill="#00AEEF"/>
<path d="M18.1067 4.13062H17.8452H17.4896H17.1339H14.4198H4.44638H3.13862H2.03735H1.83316H1.14945C0.78695 4.13062 0.463452 4.30692 0.252375 4.58465C0.156013 4.71265 0.0825953 4.85997 0.0412977 5.02178C0.0160602 5.12321 0 5.22947 0 5.33815V5.48305V6.85964V18.7925C0 19.4591 0.513927 20 1.14716 20H18.1044C18.7377 20 19.2516 19.4591 19.2516 18.7925V15.4235H12.4444C11.3683 15.4235 10.4942 14.5033 10.4942 13.3707V12.2646V11.8902V11.5159V10.6851C10.4942 10.1296 10.7053 9.62492 11.0471 9.25541C11.35 8.92694 11.7561 8.70475 12.2103 8.64921C12.2861 8.63957 12.3641 8.63472 12.4421 8.63472H18.2972H18.6528H19.0084H19.2516V5.33815C19.2539 4.67159 18.74 4.13062 18.1067 4.13062Z" fill="#00AEEF"/>
<path d="M20.0569 9.78901C19.9422 9.67791 19.8069 9.59339 19.6554 9.53784C19.5384 9.49681 19.4145 9.47266 19.2838 9.47266H19.2539H19.231H18.8754H17.5928H12.4444C11.8111 9.47266 11.2972 10.0136 11.2972 10.6802V11.2815V11.6559V12.0302V13.3681C11.2972 14.0347 11.8111 14.5757 12.4444 14.5757H19.2539H19.2838C19.4145 14.5757 19.5384 14.5515 19.6554 14.5105C19.8069 14.4573 19.9422 14.3704 20.0569 14.2593C20.2864 14.0395 20.4309 13.7207 20.4309 13.3682V10.6802C20.4309 10.3276 20.2864 10.0088 20.0569 9.78901ZM14.8397 12.2645C14.8397 12.5977 14.5827 12.8682 14.2661 12.8682H13.8852C13.5686 12.8682 13.3117 12.5977 13.3117 12.2645V11.8636C13.3117 11.6703 13.3965 11.4989 13.5319 11.3902C13.6306 11.3105 13.7522 11.2598 13.8852 11.2598H13.9816H14.2661C14.5827 11.2598 14.8397 11.5302 14.8397 11.8636V12.2645Z" fill="#00AEEF"/>
</svg>
