<svg width="14" height="20" viewBox="0 0 14 20" fill="none" xmlns="http://www.w3.org/2000/svg">
<path d="M11.9346 13.9795C11.5369 13.1945 10.7934 12.9476 10.0051 13.3388C9.4046 13.6359 8.80409 13.933 8.21015 14.2431C8.04663 14.3291 7.93649 14.3195 7.81332 14.1868C7.57499 13.9296 7.30587 13.6999 7.08212 13.4314C6.04743 12.1758 5.30089 10.7514 4.72589 9.23294C4.44163 8.48022 4.21889 7.70471 4.15967 6.89175C4.14977 6.72657 4.18529 6.63583 4.34553 6.55952C4.94278 6.27215 5.53355 5.97183 6.12426 5.67151C6.94814 5.2543 7.19023 4.52521 6.77631 3.69161C6.54416 3.22059 6.30728 2.74796 6.06866 2.28019C5.82522 1.7946 5.58657 1.31064 5.33825 0.823438C4.93412 0.0416711 4.19699 -0.208492 3.40389 0.181145C2.80341 0.478242 2.20781 0.793147 1.6057 1.0789C1.04243 1.34518 0.659096 1.76834 0.421683 2.3371C0.0405302 3.25746 -0.0280049 4.22767 0.00872426 5.20584C0.0822695 7.22698 0.568668 9.15852 1.31088 11.0347C2.31456 13.5698 3.78754 15.7966 5.7395 17.7022C6.61501 18.5595 7.57461 19.3098 8.73459 19.7652C9.53173 20.0784 10.3091 20.1099 11.0827 19.6652C11.6151 19.3617 12.1784 19.1116 12.7288 18.8356C13.5396 18.4249 13.7914 17.6829 13.3905 16.8752C12.9036 15.904 12.4182 14.9442 11.9346 13.9795Z" fill="white"/>
</svg>
