<svg width="21" height="20" viewBox="0 0 21 20" fill="none" xmlns="http://www.w3.org/2000/svg">
<path d="M15.6715 0C15.5462 0 15.4208 0.0205692 15.2954 0.0617075L12.9189 0.843335L5.66113 3.22593H13.8991H17.4895L17.045 1.265C16.874 0.500516 16.2984 0 15.6715 0Z" fill="white"/>
<path d="M18.3913 4.13062H18.1297H17.7741H17.4185H14.7043H4.73093H3.42317H2.3219H2.1177H1.434C1.0715 4.13062 0.747997 4.30692 0.536921 4.58465C0.440559 4.71265 0.367141 4.85997 0.325844 5.02178C0.300606 5.12321 0.284546 5.22947 0.284546 5.33815V5.48305V6.85964V18.7925C0.284546 19.4591 0.798472 20 1.4317 20H18.389C19.0222 20 19.5361 19.4591 19.5361 18.7925V15.4235H12.7289C11.6529 15.4235 10.7787 14.5033 10.7787 13.3707V12.2646V11.8902V11.5159V10.6851C10.7787 10.1296 10.9898 9.62492 11.3317 9.25541C11.6345 8.92694 12.0406 8.70475 12.4949 8.64921C12.5706 8.63957 12.6486 8.63472 12.7266 8.63472H18.5817H18.9373H19.2929H19.5361V5.33815C19.5384 4.67159 19.0245 4.13062 18.3913 4.13062Z" fill="white"/>
<path d="M20.3415 9.78901C20.2268 9.67791 20.0914 9.59339 19.94 9.53784C19.8229 9.49681 19.6991 9.47266 19.5683 9.47266H19.5385H19.5155H19.1599H17.8774H12.7289C12.0957 9.47266 11.5818 10.0136 11.5818 10.6802V11.2815V11.6559V12.0302V13.3681C11.5818 14.0347 12.0957 14.5757 12.7289 14.5757H19.5385H19.5683C19.6991 14.5757 19.823 14.5515 19.94 14.5105C20.0914 14.4573 20.2268 14.3704 20.3415 14.2593C20.5709 14.0395 20.7155 13.7207 20.7155 13.3682V10.6802C20.7155 10.3276 20.5709 10.0088 20.3415 9.78901ZM15.1242 12.2645C15.1242 12.5977 14.8672 12.8682 14.5506 12.8682H14.1698C13.8532 12.8682 13.5962 12.5977 13.5962 12.2645V11.8636C13.5962 11.6703 13.6811 11.4989 13.8164 11.3902C13.9151 11.3105 14.0367 11.2598 14.1698 11.2598H14.2661H14.5506C14.8672 11.2598 15.1242 11.5302 15.1242 11.8636V12.2645Z" fill="white"/>
</svg>
