<svg width="15" height="20" viewBox="0 0 15 20" fill="none" xmlns="http://www.w3.org/2000/svg">
<path d="M12.6501 13.9795C12.2524 13.1945 11.5088 12.9476 10.7206 13.3388C10.1201 13.6359 9.51955 13.933 8.92561 14.2431C8.76209 14.3291 8.65195 14.3195 8.52878 14.1868C8.29045 13.9296 8.02132 13.6999 7.79757 13.4314C6.76288 12.1758 6.01635 10.7514 5.44134 9.23294C5.15709 8.48022 4.93435 7.70471 4.87513 6.89175C4.86522 6.72657 4.90074 6.63583 5.06098 6.55952C5.65823 6.27215 6.249 5.97183 6.83972 5.67151C7.66359 5.2543 7.90568 4.52521 7.49177 3.69161C7.25962 3.22059 7.02274 2.74796 6.78412 2.28019C6.54067 1.7946 6.30202 1.31064 6.0537 0.823438C5.64957 0.0416711 4.91244 -0.208492 4.11934 0.181145C3.51887 0.478242 2.92327 0.793147 2.32115 1.0789C1.75788 1.34518 1.37455 1.76834 1.13714 2.3371C0.755984 3.25746 0.687449 4.22767 0.724178 5.20584C0.797724 7.22698 1.28412 9.15852 2.02633 11.0347C3.03002 13.5698 4.503 15.7966 6.45495 17.7022C7.33047 18.5595 8.29006 19.3098 9.45005 19.7652C10.2472 20.0784 11.0245 20.1099 11.7981 19.6652C12.3306 19.3617 12.8939 19.1116 13.4442 18.8356C14.2551 18.4249 14.5069 17.6829 14.1059 16.8752C13.619 15.904 13.1337 14.9442 12.6501 13.9795Z" fill="#00AEEF"/>
</svg>
