<svg id="Layer_1" data-name="Layer 1" xmlns="http://www.w3.org/2000/svg" width="90.06mm" height="56.99mm" viewBox="0 0 255.29 161.54">
  <defs>
    <style>
      .cls-1, .cls-2 {
        fill: #6d6e71;
      }

      .cls-2, .cls-3 {
        fill-rule: evenodd;
      }

      .cls-3 {
        fill: #00aeef;
      }

      .cls-4 {
        fill: #fff;
      }
    </style>
  </defs>
  <title>im_logo_delta</title>
  <path class="cls-1" d="M6.82,152a4.33,4.33,0,0,0-2.34-.66c-2.32,0-4.48,1.47-4.48,5.31,0,3.69,2.11,4.89,4.32,4.89a4.73,4.73,0,0,0,2.2-.52c.29-.15.48-.35.48-.5a.58.58,0,0,0-.06-.19L6.45,159a.17.17,0,0,0-.14-.1c-.13,0-.35.17-.58.31a2.22,2.22,0,0,1-1.22.35A1.7,1.7,0,0,1,3,158.73a4.31,4.31,0,0,1-.37-2.14A5.5,5.5,0,0,1,3,154.18a1.55,1.55,0,0,1,1.49-.91,2.21,2.21,0,0,1,1.29.43c.29.19.45.35.56.35a.16.16,0,0,0,.14-.1l.71-1.26a.26.26,0,0,0,.06-.17C7.24,152.4,7.17,152.23,6.82,152Zm9.62-.64-1.55.31c-.33.06-.42,0-.65.4l-1.87,3.27a23.65,23.65,0,0,0-1.22,2.36h-.08c0-.48.1-1.54.1-2.09v-4c0-.29-.16-.27-.31-.23l-1.78.37c-.38.08-.36.17-.36.35v8.87c0,.25.06.27.27.27h1.91c.25,0,.27-.09.37-.27l1.84-3.4a23,23,0,0,0,1.22-2.36h.08c-.08,1.29-.1,1.72-.1,2.08v3.67c0,.25.06.27.27.27h1.91c.25,0,.27-.06.27-.27v-9.35C16.75,151.3,16.59,151.32,16.44,151.35Zm9,.64a4.32,4.32,0,0,0-2.34-.66c-2.32,0-4.48,1.47-4.48,5.31,0,3.69,2.1,4.89,4.33,4.89a4.74,4.74,0,0,0,2.2-.52c.29-.15.48-.35.48-.5a.62.62,0,0,0-.06-.19L25,159a.17.17,0,0,0-.14-.1c-.13,0-.35.17-.58.31a2.21,2.21,0,0,1-1.21.35,1.7,1.7,0,0,1-1.54-.87,4.28,4.28,0,0,1-.37-2.14,5.48,5.48,0,0,1,.38-2.41,1.55,1.55,0,0,1,1.49-.91,2.21,2.21,0,0,1,1.29.43c.29.19.44.35.56.35a.15.15,0,0,0,.13-.1l.71-1.26a.27.27,0,0,0,.06-.17C25.84,152.4,25.76,152.23,25.41,152Zm8.69-.33H27.05c-.21,0-.27.06-.27.27v1.39c0,.21.06.27.27.27h2.2v7.34c0,.25.06.27.27.27h1.91c.25,0,.27-.06.27-.27V153.6h2.12c.1,0,.23,0,.29-.27l.27-1.27C34.43,151.86,34.51,151.67,34.11,151.67Zm5-.33c-2.7,0-4.23,2.3-4.23,5.35,0,1.33.27,4.85,4.4,4.85a6.07,6.07,0,0,0,3.07-.77.54.54,0,0,0,.31-.43.35.35,0,0,0-.06-.17L42.15,159a.21.21,0,0,0-.21-.15,1.48,1.48,0,0,0-.52.19,4.47,4.47,0,0,1-1.93.45c-1.6,0-2.12-1-2.12-2.42h5.19c.25,0,.44,0,.44-.62a8.56,8.56,0,0,0-.21-2A3.51,3.51,0,0,0,39.14,151.34Zm1.26,4h-3c.12-1.31.54-2.16,1.64-2.16a1.26,1.26,0,0,1,1.31,1.18A3.48,3.48,0,0,1,40.39,155.29ZM53.83,152c0-.35-.23-.29-.37-.29H51.84c-.12,0-.31,0-.38.21L50,156a15.6,15.6,0,0,0-.52,2h0a15.26,15.26,0,0,0-.52-2l-1.49-4.1c-.08-.23-.27-.21-.38-.21H45.39c-.13,0-.35-.06-.37.29l-.48,9c0,.17,0,.29.37.29h1.31c.17,0,.37,0,.37-.29l.17-6.16h.06c.19.68.42,1.51.66,2.18l1,2.9c.09.27.23.23.38.23h1c.15,0,.29,0,.39-.23l1-2.9c.23-.68.46-1.51.66-2.18h.06l.17,6.16c0,.31.19.29.37.29h1.31c.41,0,.37-.11.37-.29Zm13.56-.6-1.78.37c-.39.08-.37.17-.37.35v8.87c0,.25.06.27.27.27h1.91c.25,0,.27-.06.27-.27v-9.35C67.7,151.3,67.54,151.32,67.39,151.35ZM63,155.76a4.41,4.41,0,0,0-3-.77H58.86v-3.4c0-.29-.15-.27-.31-.23l-1.47.31c-.69.15-.67.13-.67.4v8.87c0,.25.06.27.27.27h3a5.08,5.08,0,0,0,3.22-.77,2.89,2.89,0,0,0,1-2.41A2.77,2.77,0,0,0,63,155.76Zm-3.15,3.52h-1v-2.36H60c.4,0,1.43,0,1.43,1.18S60.54,159.27,59.82,159.27Zm19.27-7.49a3,3,0,0,0-2.82,1.62H76.2l0-.21a3.46,3.46,0,0,1,2.22-2.84l4-1.72c.37-.16.29-.41.25-.48l-.66-1.43c-.13-.31-.48-.13-.6-.08l-3.63,1.64a5.69,5.69,0,0,0-2.94,3.21,11.21,11.21,0,0,0-.46,3.82,9.32,9.32,0,0,0,.64,3.94,3.89,3.89,0,0,0,3.65,2.28c2.16,0,4.19-1.54,4.19-4.91C82.9,153.6,81.37,151.78,79.1,151.78Zm-.38,7.82c-1.51,0-1.59-1.76-1.59-3s.08-2.92,1.59-2.92,1.58,1.72,1.58,2.92S80.22,159.6,78.71,159.6Zm9.8-8.27c-2.71,0-4.23,2.3-4.23,5.35,0,1.33.27,4.85,4.4,4.85a6.08,6.08,0,0,0,3.07-.77.55.55,0,0,0,.31-.43.36.36,0,0,0-.06-.17L91.53,159a.21.21,0,0,0-.21-.15,1.46,1.46,0,0,0-.52.19,4.49,4.49,0,0,1-1.93.45c-1.6,0-2.12-1-2.12-2.42h5.2c.25,0,.44,0,.44-.62a8.57,8.57,0,0,0-.21-2A3.52,3.52,0,0,0,88.51,151.34Zm1.25,4h-3c.12-1.31.54-2.16,1.64-2.16a1.26,1.26,0,0,1,1.32,1.18A3.53,3.53,0,0,1,89.77,155.29Zm9.17.91v-.06a2.13,2.13,0,0,0,1.35-2.14,2.47,2.47,0,0,0-.85-1.87,3.57,3.57,0,0,0-2.47-.79,5.47,5.47,0,0,0-2.74.63c-.13.08-.48.29-.48.54a.31.31,0,0,0,.06.17l.64,1a.22.22,0,0,0,.19.14c.1,0,.2-.08.5-.25a3,3,0,0,1,1.51-.43c.79,0,1.26.44,1.26,1.08,0,1.1-1,1.18-1.64,1.18H95.8c-.21,0-.27.06-.27.27v1.25c0,.21.06.27.27.27h.42c.6,0,1.82,0,1.82,1.16a1.34,1.34,0,0,1-1.53,1.39,3.39,3.39,0,0,1-1.82-.5,1.43,1.43,0,0,0-.54-.23.21.21,0,0,0-.21.16l-.43,1a.68.68,0,0,0-.06.21c0,.29.35.45.66.6a6.18,6.18,0,0,0,2.57.56c2.2,0,3.8-1.14,3.8-3.15A2.11,2.11,0,0,0,98.93,156.2Zm7.08-4.87c-2.12,0-4.19,1.47-4.19,5.1s2.07,5.1,4.19,5.1,4.19-1.47,4.19-5.1S108.14,151.34,106,151.34Zm0,8.27c-1.51,0-1.58-1.7-1.58-3.17s.07-3.17,1.58-3.17,1.58,1.7,1.58,3.17S107.52,159.6,106,159.6Zm13.45-7.94h-7.09c-.21,0-.27,0-.27.27v9c0,.21,0,.27.27.27h1.91c.25,0,.27-.06.27-.27V153.6h2.72v7.34c0,.21.05.27.27.27h1.91c.25,0,.27-.06.27-.27v-9C119.73,151.68,119.67,151.67,119.46,151.67Zm9.36,6.51v-3.73a3.92,3.92,0,0,0-.43-1.87,3.08,3.08,0,0,0-2.89-1.24,8.4,8.4,0,0,0-3,.52c-.5.23-.5.31-.41.58l.41,1.22c0,.14.08.19.19.19a7.16,7.16,0,0,0,.93-.31,5.44,5.44,0,0,1,1.56-.27,1.28,1.28,0,0,1,1,.39,1.65,1.65,0,0,1,.23,1v.6a7.23,7.23,0,0,0-3.86.79,2.93,2.93,0,0,0-1.18,2.51,2.72,2.72,0,0,0,2.86,2.94,3.24,3.24,0,0,0,2.55-1.16,3.35,3.35,0,0,0,.33.93c.16.29.27.25.41.19l1.56-.64a.22.22,0,0,0,.15-.19,2.79,2.79,0,0,0-.21-.58A4.78,4.78,0,0,1,128.81,158.17Zm-2.32.83a2,2,0,0,1-1.45.73,1.26,1.26,0,0,1-1.28-1.31c0-1.29,1.37-1.56,2.72-1.54Zm10.84-7a4.31,4.31,0,0,0-2.34-.66c-2.32,0-4.48,1.47-4.48,5.31,0,3.69,2.11,4.89,4.33,4.89A4.74,4.74,0,0,0,137,161c.29-.15.48-.35.48-.5a.53.53,0,0,0-.06-.19L137,159a.16.16,0,0,0-.13-.1c-.14,0-.35.17-.58.31a2.22,2.22,0,0,1-1.22.35,1.7,1.7,0,0,1-1.54-.87,4.3,4.3,0,0,1-.37-2.14,5.42,5.42,0,0,1,.39-2.41,1.55,1.55,0,0,1,1.49-.91,2.22,2.22,0,0,1,1.29.43c.29.19.44.35.56.35a.16.16,0,0,0,.13-.1l.71-1.26a.27.27,0,0,0,.06-.17C137.76,152.4,137.68,152.23,137.34,152Zm9.27-.64-1.78.37c-.39.08-.37.17-.37.35v3.17h-2.78v-3.65c0-.29-.15-.27-.31-.23l-1.53.31c-.66.13-.62.19-.62.4v8.87c0,.21.06.27.27.27h1.91c.25,0,.27-.06.27-.27v-3.77h2.78v3.77c0,.25.06.27.27.27h1.91c.25,0,.27-.06.27-.27v-9.35C146.92,151.3,146.76,151.32,146.61,151.35Zm6.36,0c-2.12,0-4.19,1.47-4.19,5.1s2.07,5.1,4.19,5.1,4.19-1.47,4.19-5.1S155.09,151.34,153,151.34Zm0,8.27c-1.51,0-1.59-1.7-1.59-3.17s.08-3.17,1.59-3.17,1.58,1.7,1.58,3.17S154.47,159.6,153,159.6ZM165.36,152a4.31,4.31,0,0,0-2.34-.66c-2.32,0-4.48,1.47-4.48,5.31,0,3.69,2.11,4.89,4.33,4.89a4.74,4.74,0,0,0,2.2-.52c.29-.15.48-.35.48-.5a.62.62,0,0,0-.06-.19L165,159a.16.16,0,0,0-.13-.1c-.14,0-.35.17-.58.31a2.23,2.23,0,0,1-1.22.35,1.7,1.7,0,0,1-1.54-.87,4.31,4.31,0,0,1-.37-2.14,5.45,5.45,0,0,1,.38-2.41,1.55,1.55,0,0,1,1.49-.91,2.22,2.22,0,0,1,1.29.43c.29.19.44.35.56.35a.15.15,0,0,0,.13-.1l.72-1.26a.28.28,0,0,0,.05-.17C165.78,152.4,165.71,152.23,165.36,152Zm8.69-.33H167c-.21,0-.27.06-.27.27v1.39c0,.21.06.27.27.27h2.2v7.34c0,.25.06.27.27.27h1.91c.25,0,.27-.06.27-.27V153.6h2.12c.1,0,.23,0,.29-.27l.27-1.27C174.38,151.86,174.45,151.67,174,151.67Zm9.28-.31-1.54.31c-.33.06-.43,0-.66.4l-1.87,3.27a24.52,24.52,0,0,0-1.22,2.36H178c0-.48.1-1.54.1-2.09v-4c0-.29-.15-.27-.31-.23l-1.78.37c-.38.08-.37.17-.37.35v8.87c0,.25.06.27.27.27h1.91c.25,0,.27-.09.37-.27l1.84-3.4a23.74,23.74,0,0,0,1.21-2.36h.08c-.08,1.29-.1,1.72-.1,2.08v3.67c0,.25.06.27.27.27h1.91c.25,0,.27-.06.27-.27v-9.35C183.64,151.3,183.48,151.32,183.33,151.35Z"/>
  <g>
    <path class="cls-2" d="M32.49,97.39A17.55,17.55,0,0,0,26,92.5a23.24,23.24,0,0,0-9.73-1.83H4.09q-2.35,0-3.13,1a4.89,4.89,0,0,0-.78,3.07v37.71a4.75,4.75,0,0,0,.78,3q.78.95,3.13.95H17a21.58,21.58,0,0,0,9.63-1.92,16.88,16.88,0,0,0,6.23-5.12A20,20,0,0,0,36.21,122a38,38,0,0,0,1-8.68,33.57,33.57,0,0,0-1.11-8.71A19.23,19.23,0,0,0,32.49,97.39ZM26.41,119.1a11.93,11.93,0,0,1-1.83,4.54,8.84,8.84,0,0,1-3.56,3,13.08,13.08,0,0,1-5.65,1.08H10.07V99.34h5.1a13.5,13.5,0,0,1,5.75,1.08,9.18,9.18,0,0,1,3.62,2.94,11.31,11.31,0,0,1,1.86,4.41,27.55,27.55,0,0,1,.52,5.55A29.76,29.76,0,0,1,26.41,119.1Zm88.68,9a1.54,1.54,0,0,0-1-.23H97.53a5.39,5.39,0,0,1-3.16-.85q-1.21-.85-1.21-3.33V92a1.5,1.5,0,0,0-.29-1.11,2.06,2.06,0,0,0-1.27-.26H84.7a1.79,1.79,0,0,0-1.14.29A1.33,1.33,0,0,0,83.2,92v32.42a18.5,18.5,0,0,0,.52,4.37,9.68,9.68,0,0,0,1.89,3.85,9.8,9.8,0,0,0,3.68,2.74,14.58,14.58,0,0,0,6,1h18.86q1.24,0,1.24-1.37v-5.81Q115.35,128.32,115.09,128.09Zm31-30.24V92a1.64,1.64,0,0,0-.26-1.11,1.51,1.51,0,0,0-1-.26H111.45a1.39,1.39,0,0,0-1,.26,1.65,1.65,0,0,0-.26,1.11v5.81q0,1.31,1.24,1.31H123V135a1.33,1.33,0,0,0,.36,1.08,1.79,1.79,0,0,0,1.14.29h7a2.07,2.07,0,0,0,1.27-.26A1.51,1.51,0,0,0,133,135V99.16h11.81A1.15,1.15,0,0,0,146.13,97.85Zm37.51,37.25L170.07,94.2a9.93,9.93,0,0,0-.81-1.89,3.35,3.35,0,0,0-1-1.11,3.15,3.15,0,0,0-1.37-.49,15.5,15.5,0,0,0-1.89-.1h-3.91a8.23,8.23,0,0,0-1.73.16,3.55,3.55,0,0,0-1.3.55,3.62,3.62,0,0,0-1,1.08,7.35,7.35,0,0,0-.75,1.79l-13.57,40.91a1.42,1.42,0,0,0,0,.91c.11.26.4.39.88.39h7.63a2.06,2.06,0,0,0,1.27-.29,1.88,1.88,0,0,0,.56-.95l2.54-8.31h14.94l2.54,8.5a1.15,1.15,0,0,0,.68.88,3.89,3.89,0,0,0,1.21.16h7.76q.72,0,.85-.46A1.43,1.43,0,0,0,183.64,135.11ZM158,118.79l2.48-8.28,2.48-9.32h.39l2.41,9.32,2.48,8.28Zm-83.14,9H53.39V116.43H72.12c.52,0,.86-.12,1-.36a2.18,2.18,0,0,0,.23-1.14v-5.08a2.34,2.34,0,0,0-.23-1.24c-.15-.22-.49-.33-1-.33H53.39V99.22H74.2a1.28,1.28,0,0,0,1-.29,1.78,1.78,0,0,0,.26-1.14V92.24A2.35,2.35,0,0,0,75.22,91c-.15-.22-.49-.33-1-.33H44.73a1.38,1.38,0,0,0-1,.26A1.64,1.64,0,0,0,43.49,92v43a1.34,1.34,0,0,0,.36,1.08,1.79,1.79,0,0,0,1.14.29H74.86a1.22,1.22,0,0,0,1-.36,2,2,0,0,0,.26-1.14v-5.54a2.33,2.33,0,0,0-.23-1.27C75.78,127.9,75.42,127.81,74.86,127.81Z"/>
    <g>
      <path class="cls-3" d="M235.4,69.07c9.62.05,17.49-7.43,18.81-17.07a142.84,142.84,0,0,0,0-34.93C252.85,7.44,245-.05,235.4,0H186.78C177.16-.05,169.86,7,168,17.07a97,97,0,0,0-1.1,23.45c1.08,16.17,4.42,30.78,14.88,43.42.67-8.52,9-14.88,22-14.88Z"/>
      <path class="cls-4" d="M192.88,55.76h36.82c4.85,0,7.9-2.19,9.71-6.55,1.74-4.21,2-24,0-29-1.81-4.38-4.86-6.55-9.71-6.55H192.88c-4.85,0-7.9,2.17-9.71,6.55-2,5-1.74,24.75,0,29C185,53.57,188,55.76,192.88,55.76Zm12.51-22.13h0a.75.75,0,0,1-.69.69h0c-1.2.1-2.37.14-3.54.14s-2.34,0-3.54-.14h0a.75.75,0,0,1-.69-.69h0c-.1-1.2-.14-2.37-.14-3.54s0-2.34.14-3.54h0a.75.75,0,0,1,.69-.69h0c1.2-.1,2.37-.14,3.54-.14s2.34,0,3.54.14h0a.75.75,0,0,1,.69.69h0c.1,1.2.14,2.37.14,3.54S205.48,32.43,205.39,33.63Zm20.64,0h0a.75.75,0,0,1-.69.69h0c-1.2.1-2.37.14-3.54.14s-2.34,0-3.54-.14h0a.75.75,0,0,1-.69-.69h0c-.09-1.2-.14-2.37-.14-3.54s0-2.34.14-3.54h0a.75.75,0,0,1,.69-.69h0c1.2-.1,2.37-.14,3.54-.14s2.34,0,3.54.14h0a.75.75,0,0,1,.69.69h0c.1,1.2.14,2.37.14,3.54S226.13,32.43,226,33.63Z"/>
    </g>
  </g>
</svg>
