<svg width="140" height="140" viewBox="0 0 140 140" fill="none" xmlns="http://www.w3.org/2000/svg">
<g clip-path="url(#clip0)">
<path d="M58.3333 20.969H63V25.6288H58.3333V20.969Z" fill="#66C5EE" fill-opacity="0.4"/>
<path d="M119 76.8863H123.667V81.5461H119V76.8863Z" fill="#66C5EE" fill-opacity="0.4"/>
<path d="M77 114.164H81.6667V118.824H77V114.164Z" fill="#66C5EE" fill-opacity="0.4"/>
<path d="M58.3333 121.154H63V125.814H58.3333V121.154Z" fill="#66C5EE" fill-opacity="0.4"/>
<path d="M21 67.5667H25.6667V72.2265H21V67.5667Z" fill="#66C5EE" fill-opacity="0.4"/>
<path d="M77 20.969H81.6667V25.6288H77V20.969Z" fill="#66C5EE" fill-opacity="0.4"/>
<path d="M114.333 58.2472H119V62.907H114.333V58.2472Z" fill="#66C5EE" fill-opacity="0.4"/>
<path d="M102.667 34.9483H107.333V39.6081H102.667V34.9483Z" fill="#66C5EE" fill-opacity="0.4"/>
<path d="M32.6667 34.9483H37.3334V39.6081H32.6667V34.9483Z" fill="#66C5EE" fill-opacity="0.4"/>
<path d="M102.667 100.185H107.333V104.845H102.667V100.185Z" fill="#66C5EE" fill-opacity="0.4"/>
<path d="M32.6667 100.185H37.3334V104.845H32.6667V100.185Z" fill="#66C5EE" fill-opacity="0.4"/>
<path d="M69.7246 67.5668C68.0928 67.6194 66.5309 68.241 65.3103 69.3238C64.0896 70.4066 63.2874 71.882 63.0428 73.4939C62.7983 75.1059 63.1268 76.7524 63.9715 78.1476C64.8162 79.5428 66.1236 80.5985 67.6666 81.1314V86.2059H72.3333V81.115C73.9142 80.5622 75.2434 79.4604 76.0786 78.0106C76.9137 76.5608 77.1992 74.8595 76.883 73.2171C76.5667 71.5746 75.6698 70.1003 74.3558 69.0631C73.0417 68.0259 71.3981 67.4948 69.7246 67.5668ZM72.3333 74.4655C72.3455 74.7714 72.2972 75.0766 72.1912 75.3638C72.0852 75.651 71.9236 75.9145 71.7156 76.1393C71.5076 76.3642 71.2572 76.5458 70.9789 76.674C70.7005 76.8022 70.3996 76.8743 70.0933 76.8863C69.7866 76.8983 69.4805 76.8497 69.1926 76.7433C68.9047 76.637 68.6407 76.475 68.4156 76.2666C68.0764 75.9539 67.8378 75.5478 67.7298 75.0997C67.6218 74.6515 67.6493 74.1815 67.809 73.749C67.9686 73.3165 68.2531 72.941 68.6265 72.67C68.9999 72.399 69.4454 72.2447 69.9066 72.2265H70C70.603 72.226 71.1827 72.4587 71.6177 72.8757C72.0527 73.2927 72.3092 73.8616 72.3333 74.4632V74.4655Z" fill="#66C5EE" fill-opacity="0.4"/>
<path d="M81.6667 61.0058V58.2472C81.6667 55.1576 80.4376 52.1945 78.2497 50.0098C76.0617 47.8251 73.0942 46.5978 70 46.5978C66.9058 46.5978 63.9384 47.8251 61.7505 50.0098C59.5626 52.1945 58.3334 55.1576 58.3334 58.2472V61.0058C56.9733 61.4859 55.7949 62.374 54.9595 63.5484C54.1242 64.7228 53.6726 66.1263 53.6667 67.5667V86.2058C53.6667 88.0596 54.4042 89.8375 55.7169 91.1483C57.0297 92.4591 58.8101 93.1955 60.6667 93.1955H79.3333C81.1898 93.1955 82.9703 92.4591 84.2831 91.1483C85.5958 89.8375 86.3333 88.0596 86.3333 86.2058V67.5667C86.3273 66.1263 85.8758 64.7228 85.0404 63.5484C84.2051 62.374 83.0269 61.4859 81.6667 61.0058ZM63 58.2472C63 56.3934 63.7376 54.6156 65.0503 53.3048C66.3631 51.9939 68.1435 51.2575 70 51.2575C71.8565 51.2575 73.637 51.9939 74.9497 53.3048C76.2625 54.6156 77 56.3934 77 58.2472V60.5771H63V58.2472ZM81.6667 86.2058C81.6667 86.8238 81.4208 87.4164 80.9832 87.8533C80.5456 88.2903 79.9522 88.5357 79.3333 88.5357H60.6667C60.0478 88.5357 59.4544 88.2903 59.0168 87.8533C58.5793 87.4164 58.3334 86.8238 58.3334 86.2058V67.5667C58.3334 66.9488 58.5793 66.3562 59.0168 65.9193C59.4544 65.4823 60.0478 65.2369 60.6667 65.2369H79.3333C79.9522 65.2369 80.5456 65.4823 80.9832 65.9193C81.4208 66.3562 81.6667 66.9488 81.6667 67.5667V86.2058Z" fill="#66C5EE" fill-opacity="0.4"/>
<path d="M133 90.8656C131.961 90.8696 130.935 91.1086 130.002 91.5646L124.635 86.2058H102.667V81.5461H114.333V76.8863H102.667V72.2265H114.884L128.154 65.6003C129.317 66.7126 130.829 67.3896 132.434 67.5166C134.04 67.6436 135.64 67.2129 136.963 66.2973C138.287 65.3818 139.254 64.0377 139.699 62.4924C140.145 60.9471 140.042 59.2956 139.408 57.8173C138.774 56.3391 137.649 55.1249 136.221 54.3802C134.794 53.6354 133.153 53.406 131.576 53.7306C129.998 54.0553 128.582 54.9141 127.566 56.1617C126.55 57.4093 125.997 58.9691 126 60.5771C126.011 60.8605 126.04 61.143 126.086 61.4228L113.783 67.5667H102.667V62.907H109.667V58.2472H102.667V53.5874H112.966L120.666 45.8988C121.601 46.3551 122.626 46.5941 123.667 46.5978C125.051 46.5978 126.405 46.1878 127.556 45.4198C128.707 44.6518 129.604 43.5601 130.134 42.2829C130.664 41.0057 130.802 39.6003 130.532 38.2445C130.262 36.8886 129.595 35.6432 128.616 34.6657C127.637 33.6881 126.39 33.0224 125.032 32.7527C123.674 32.483 122.267 32.6215 120.988 33.1505C119.709 33.6795 118.616 34.5754 117.846 35.7248C117.077 36.8743 116.667 38.2257 116.667 39.6081C116.671 40.646 116.91 41.6696 117.367 42.602L111.034 48.9276H102.667C102.663 45.8392 101.433 42.8782 99.2455 40.6943C97.0584 38.5104 94.0931 37.2819 91 37.2782V31.2531L104.335 17.9401C105.269 18.3961 106.294 18.6351 107.333 18.6391C108.718 18.6391 110.071 18.2292 111.222 17.4611C112.373 16.6931 113.271 15.6015 113.8 14.3243C114.33 13.0471 114.469 11.6417 114.199 10.2858C113.929 8.92996 113.262 7.68453 112.283 6.707C111.304 5.72948 110.057 5.06378 108.699 4.79408C107.341 4.52439 105.934 4.6628 104.655 5.19184C103.375 5.72087 102.282 6.61675 101.513 7.76619C100.744 8.91564 100.333 10.267 100.333 11.6494C100.337 12.6874 100.577 13.7109 101.033 14.6433L86.3333 29.3216V37.2782H81.6667V30.2885H77V37.2782H72.3333V20.5403C73.8902 19.9907 75.2023 18.9092 76.0378 17.487C76.8733 16.0648 77.1784 14.3935 76.8992 12.7684C76.62 11.1433 75.7744 9.66912 74.5119 8.60636C73.2494 7.5436 71.6513 6.96071 70 6.96071C68.3487 6.96071 66.7506 7.5436 65.4881 8.60636C64.2256 9.66912 63.38 11.1433 63.1008 12.7684C62.8216 14.3935 63.1267 16.0648 63.9622 17.487C64.7977 18.9092 66.1098 19.9907 67.6667 20.5403V37.2782H63V30.2885H58.3333V37.2782H53.6667V20.0044L43.6333 9.9859C44.0903 9.05278 44.3297 8.02839 44.3333 6.98967C44.3333 5.60724 43.9228 4.25586 43.1536 3.10642C42.3845 1.95697 41.2912 1.06109 40.0121 0.53206C38.733 0.00302833 37.3256 -0.13539 35.9677 0.134308C34.6098 0.404005 33.3626 1.06971 32.3836 2.04723C31.4046 3.02475 30.7379 4.27019 30.4678 5.62605C30.1977 6.98191 30.3364 8.3873 30.8662 9.66449C31.396 10.9417 32.2932 12.0333 33.4443 12.8014C34.5955 13.5694 35.9489 13.9793 37.3333 13.9793C38.3728 13.9753 39.3979 13.7363 40.3317 13.2804L49 21.9336V37.2782C45.9069 37.2819 42.9416 38.5104 40.7545 40.6943C38.5674 42.8782 37.337 45.8392 37.3333 48.9276H28.966L22.6333 42.602C23.09 41.6696 23.3293 40.646 23.3333 39.6081C23.3333 38.2257 22.9228 36.8743 22.1536 35.7248C21.3845 34.5754 20.2912 33.6795 19.0121 33.1505C17.733 32.6215 16.3256 32.483 14.9677 32.7527C13.6098 33.0224 12.3626 33.6881 11.3836 34.6657C10.4046 35.6432 9.73794 36.8886 9.46784 38.2445C9.19774 39.6003 9.33637 41.0057 9.86618 42.2829C10.396 43.5601 11.2932 44.6518 12.4443 45.4198C13.5955 46.1878 14.9489 46.5978 16.3333 46.5978C17.3728 46.5937 18.3979 46.3548 19.3317 45.8988L27.0317 53.5874H37.3333V58.2472H22.4887L10.2667 68.4148C9.26503 67.8661 8.14247 67.5746 7 67.5667C5.61553 67.5667 4.26216 67.9767 3.11101 68.7447C1.95987 69.5127 1.06266 70.6044 0.532846 71.8816C0.00303292 73.1588 -0.13559 74.5642 0.134506 75.92C0.404603 77.2759 1.07129 78.5213 2.05026 79.4988C3.02922 80.4764 4.2765 81.1421 5.63437 81.4118C6.99224 81.6815 8.3997 81.543 9.67879 81.014C10.9579 80.485 12.0511 79.5891 12.8203 78.4397C13.5895 77.2902 14 75.9388 14 74.5564C14.0016 73.6213 13.8135 72.6956 13.447 71.8351L24.178 62.907H37.3333V67.5667H30.3333V72.2265H37.3333V76.8863H16.3333V81.5461H37.3333V86.2058H24.4183L15.015 100.288C14.6797 100.229 14.3404 100.194 14 100.185C12.3767 100.17 10.7978 100.714 9.52881 101.725C8.25983 102.736 7.37819 104.152 7.03218 105.736C6.68617 107.32 6.89689 108.974 7.62891 110.421C8.36092 111.868 9.56957 113.019 11.0516 113.68C12.5336 114.342 14.1986 114.474 15.7664 114.054C17.3343 113.633 18.7095 112.687 19.6607 111.373C20.6118 110.06 21.081 108.459 20.9892 106.841C20.8974 105.222 20.2503 103.685 19.1567 102.487L26.915 90.8656H37.3333C37.337 93.9541 38.5674 96.915 40.7545 99.0989C42.9416 101.283 45.9069 102.511 49 102.515V117.86L40.3317 126.513C39.3979 126.057 38.3728 125.818 37.3333 125.814C35.9489 125.814 34.5955 126.224 33.4443 126.992C32.2932 127.76 31.396 128.852 30.8662 130.129C30.3364 131.406 30.1977 132.811 30.4678 134.167C30.7379 135.523 31.4046 136.769 32.3836 137.746C33.3626 138.724 34.6098 139.389 35.9677 139.659C37.3256 139.929 38.733 139.79 40.0121 139.261C41.2912 138.732 42.3845 137.836 43.1536 136.687C43.9228 135.537 44.3333 134.186 44.3333 132.804C44.3293 131.766 44.09 130.742 43.6333 129.81L53.6667 119.791V102.515H58.3333V116.494H63V102.515H67.6667V122.445L81.8393 131.298C81.4584 132.931 81.6688 134.645 82.4332 136.137C83.1975 137.63 84.4664 138.803 86.0149 139.45C87.5633 140.097 89.2912 140.176 90.8921 139.672C92.493 139.168 93.8634 138.114 94.7603 136.698C95.6573 135.281 96.0227 133.593 95.7919 131.933C95.5611 130.272 94.7489 128.748 93.4994 127.628C92.2499 126.509 90.6438 125.868 88.9659 125.819C87.2881 125.769 85.647 126.315 84.3337 127.359L72.3333 119.863V102.515H77V109.505H81.6667V102.515H86.3333V121.154H103.096C103.646 122.709 104.729 124.019 106.154 124.853C107.578 125.687 109.252 125.992 110.879 125.713C112.507 125.434 113.983 124.59 115.048 123.329C116.112 122.069 116.696 120.473 116.696 118.824C116.696 117.175 116.112 115.58 115.048 114.319C113.983 113.058 112.507 112.214 110.879 111.935C109.252 111.656 107.578 111.961 106.154 112.795C104.729 113.63 103.646 114.94 103.096 116.494H91V102.515C94.0931 102.511 97.0584 101.283 99.2455 99.0989C101.433 96.915 102.663 93.9541 102.667 90.8656H122.701L126.7 94.8614C126.243 95.7938 126.004 96.8173 126 97.8553C126 99.2377 126.411 100.589 127.18 101.739C127.949 102.888 129.042 103.784 130.321 104.313C131.6 104.842 133.008 104.98 134.366 104.711C135.723 104.441 136.971 103.775 137.95 102.798C138.929 101.82 139.595 100.575 139.865 99.2189C140.136 97.863 139.997 96.4577 139.467 95.1805C138.937 93.9033 138.04 92.8116 136.889 92.0436C135.738 91.2756 134.384 90.8656 133 90.8656ZM133 58.2472C133.461 58.2472 133.913 58.3838 134.296 58.6398C134.68 58.8959 134.979 59.2597 135.156 59.6855C135.332 60.1112 135.379 60.5797 135.288 61.0316C135.198 61.4836 134.976 61.8987 134.65 62.2246C134.324 62.5504 133.908 62.7723 133.455 62.8622C133.003 62.9521 132.533 62.906 132.107 62.7296C131.681 62.5533 131.316 62.2546 131.06 61.8715C130.804 61.4884 130.667 61.0379 130.667 60.5771C130.667 59.9592 130.912 59.3665 131.35 58.9296C131.788 58.4927 132.381 58.2472 133 58.2472ZM123.667 37.2782C124.128 37.2782 124.579 37.4148 124.963 37.6709C125.347 37.9269 125.646 38.2908 125.822 38.7165C125.999 39.1422 126.045 39.6107 125.955 40.0626C125.865 40.5146 125.643 40.9297 125.317 41.2556C124.99 41.5814 124.574 41.8033 124.122 41.8932C123.669 41.9831 123.2 41.937 122.774 41.7606C122.347 41.5843 121.983 41.2857 121.727 40.9025C121.47 40.5194 121.333 40.0689 121.333 39.6081C121.333 38.9902 121.579 38.3976 122.017 37.9606C122.454 37.5237 123.048 37.2782 123.667 37.2782ZM107.333 9.31955C107.795 9.31955 108.246 9.4562 108.63 9.71221C109.013 9.96822 109.312 10.3321 109.489 10.7578C109.666 11.1836 109.712 11.652 109.622 12.104C109.532 12.5559 109.31 12.9711 108.983 13.2969C108.657 13.6228 108.241 13.8447 107.789 13.9346C107.336 14.0245 106.867 13.9783 106.44 13.802C106.014 13.6256 105.65 13.327 105.393 12.9439C105.137 12.5607 105 12.1102 105 11.6494C105 11.0315 105.246 10.4389 105.683 10.002C106.121 9.56502 106.714 9.31955 107.333 9.31955ZM70 11.6494C70.4615 11.6494 70.9126 11.7861 71.2963 12.0421C71.68 12.2981 71.9791 12.662 72.1557 13.0877C72.3323 13.5135 72.3785 13.9819 72.2885 14.4339C72.1985 14.8858 71.9762 15.301 71.6499 15.6268C71.3236 15.9526 70.9078 16.1745 70.4552 16.2644C70.0026 16.3543 69.5334 16.3082 69.1071 16.1319C68.6807 15.9555 68.3163 15.6569 68.0599 15.2737C67.8035 14.8906 67.6667 14.4401 67.6667 13.9793C67.6667 13.3614 67.9125 12.7688 68.3501 12.3319C68.7877 11.8949 69.3812 11.6494 70 11.6494ZM35 6.98967C35 6.52886 35.1368 6.0784 35.3932 5.69525C35.6496 5.3121 36.014 5.01347 36.4404 4.83713C36.8668 4.66079 37.3359 4.61465 37.7885 4.70455C38.2412 4.79445 38.6569 5.01635 38.9833 5.34219C39.3096 5.66803 39.5318 6.08317 39.6218 6.53513C39.7119 6.98708 39.6657 7.45554 39.4891 7.88128C39.3125 8.30701 39.0134 8.67089 38.6297 8.9269C38.246 9.18291 37.7948 9.31955 37.3333 9.31955C36.7145 9.31955 36.121 9.07408 35.6834 8.63715C35.2458 8.20021 35 7.60759 35 6.98967ZM14 39.6081C14 39.1473 14.1369 38.6968 14.3932 38.3137C14.6496 37.9305 15.014 37.6319 15.4404 37.4556C15.8668 37.2792 16.3359 37.2331 16.7885 37.323C17.2412 37.4129 17.6569 37.6348 17.9833 37.9606C18.3096 38.2865 18.5318 38.7016 18.6218 39.1536C18.7119 39.6055 18.6657 40.074 18.4891 40.4997C18.3125 40.9254 18.0134 41.2893 17.6297 41.5453C17.246 41.8013 16.7948 41.938 16.3333 41.938C15.7145 41.938 15.121 41.6925 14.6834 41.2556C14.2458 40.8186 14 40.226 14 39.6081ZM7 76.8863C6.53851 76.8863 6.08739 76.7496 5.70367 76.4936C5.31996 76.2376 5.02089 75.8737 4.84428 75.448C4.66768 75.0223 4.62147 74.5538 4.7115 74.1019C4.80154 73.6499 5.02377 73.2348 5.35009 72.9089C5.67641 72.5831 6.09217 72.3612 6.54479 72.2713C6.99741 72.1814 7.46657 72.2275 7.89293 72.4039C8.31929 72.5802 8.68371 72.8788 8.9401 73.262C9.19649 73.6451 9.33334 74.0956 9.33334 74.5564C9.33334 75.1743 9.0875 75.7669 8.64992 76.2039C8.21233 76.6408 7.61884 76.8863 7 76.8863ZM14 109.505C13.5385 109.505 13.0874 109.368 12.7037 109.112C12.32 108.856 12.0209 108.492 11.8443 108.066C11.6677 107.641 11.6215 107.172 11.7115 106.72C11.8015 106.268 12.0238 105.853 12.3501 105.527C12.6764 105.202 13.0922 104.98 13.5448 104.89C13.9974 104.8 14.4666 104.846 14.8929 105.022C15.3193 105.199 15.6837 105.497 15.9401 105.88C16.1965 106.264 16.3333 106.714 16.3333 107.175C16.3333 107.793 16.0875 108.385 15.6499 108.822C15.2123 109.259 14.6188 109.505 14 109.505ZM37.3333 135.133C36.8718 135.133 36.4207 134.997 36.037 134.741C35.6533 134.485 35.3542 134.121 35.1776 133.695C35.001 133.269 34.9548 132.801 35.0448 132.349C35.1349 131.897 35.3571 131.482 35.6834 131.156C36.0097 130.83 36.4255 130.608 36.8781 130.518C37.3307 130.429 37.7999 130.475 38.2263 130.651C38.6526 130.827 39.017 131.126 39.2734 131.509C39.5298 131.892 39.6667 132.343 39.6667 132.804C39.6667 133.422 39.4208 134.014 38.9833 134.451C38.5457 134.888 37.9522 135.133 37.3333 135.133ZM88.6667 130.474C89.1282 130.474 89.5793 130.61 89.963 130.866C90.3467 131.122 90.6458 131.486 90.8224 131.912C90.999 132.338 91.0452 132.806 90.9552 133.258C90.8651 133.71 90.6429 134.125 90.3166 134.451C89.9903 134.777 89.5745 134.999 89.1219 135.089C88.6693 135.179 88.2001 135.132 87.7737 134.956C87.3474 134.78 86.983 134.481 86.7266 134.098C86.4702 133.715 86.3333 133.264 86.3333 132.804C86.3333 132.186 86.5792 131.593 87.0167 131.156C87.4543 130.719 88.0478 130.474 88.6667 130.474ZM109.667 116.494C110.128 116.494 110.579 116.631 110.963 116.887C111.347 117.143 111.646 117.507 111.822 117.933C111.999 118.358 112.045 118.827 111.955 119.279C111.865 119.731 111.643 120.146 111.317 120.472C110.99 120.798 110.574 121.019 110.122 121.109C109.669 121.199 109.2 121.153 108.774 120.977C108.347 120.8 107.983 120.502 107.727 120.119C107.47 119.736 107.333 119.285 107.333 118.824C107.333 118.206 107.579 117.614 108.017 117.177C108.454 116.74 109.048 116.494 109.667 116.494ZM98 90.8656C98 92.7194 97.2625 94.4972 95.9497 95.8081C94.637 97.1189 92.8565 97.8553 91 97.8553H49C47.1435 97.8553 45.363 97.1189 44.0503 95.8081C42.7375 94.4972 42 92.7194 42 90.8656V48.9276C42 47.0739 42.7375 45.296 44.0503 43.9852C45.363 42.6744 47.1435 41.938 49 41.938H91C92.8565 41.938 94.637 42.6744 95.9497 43.9852C97.2625 45.296 98 47.0739 98 48.9276V90.8656ZM133 100.185C132.539 100.185 132.087 100.049 131.704 99.7925C131.32 99.5365 131.021 99.1726 130.844 98.7469C130.668 98.3212 130.621 97.8527 130.711 97.4007C130.802 96.9488 131.024 96.5336 131.35 96.2078C131.676 95.882 132.092 95.6601 132.545 95.5702C132.997 95.4803 133.467 95.5264 133.893 95.7027C134.319 95.8791 134.684 96.1777 134.94 96.5609C135.196 96.944 135.333 97.3945 135.333 97.8553C135.333 98.4732 135.087 99.0658 134.65 99.5028C134.212 99.9397 133.619 100.185 133 100.185Z" fill="#66C5EE" fill-opacity="0.4"/>
</g>
<defs>
<clipPath id="clip0">
<rect width="140" height="140" fill="white"/>
</clipPath>
</defs>
</svg>
