<svg width="141" height="141" viewBox="0 0 141 141" fill="none" xmlns="http://www.w3.org/2000/svg">
<path d="M54.3542 98.6875H87.0209V103.354H54.3542V98.6875Z" fill="#66C5EE" fill-opacity="0.4"/>
<path d="M45.0208 98.6875H49.6875V103.354H45.0208V98.6875Z" fill="#66C5EE" fill-opacity="0.4"/>
<path d="M138.354 10.0208H105.687V7.6875C105.682 5.83269 104.943 4.05543 103.631 2.74387C102.32 1.43232 100.542 0.69304 98.6875 0.6875H42.6875C40.8327 0.69304 39.0554 1.43232 37.7439 2.74387C36.4323 4.05543 35.693 5.83269 35.6875 7.6875V17.0208H3.02083C2.40199 17.0208 1.8085 17.2667 1.37092 17.7043C0.933333 18.1418 0.6875 18.7353 0.6875 19.3542V47.3542C0.6875 47.973 0.933333 48.5665 1.37092 49.0041C1.8085 49.4417 2.40199 49.6875 3.02083 49.6875H35.6875V54.3542C32.5933 54.3542 29.6258 55.5833 27.4379 57.7713C25.25 59.9592 24.0208 62.9266 24.0208 66.0208V75.5642L28.6875 124.447V138.354C28.6875 138.973 28.9333 139.566 29.3709 140.004C29.8085 140.442 30.402 140.687 31.0208 140.687H82.3542C82.973 140.687 83.5665 140.442 84.0041 140.004C84.4417 139.566 84.6875 138.973 84.6875 138.354V125.101L93.3675 112.687H98.6875C100.542 112.682 102.32 111.943 103.631 110.631C104.943 109.32 105.682 107.542 105.687 105.687V103.354H108.021C109.92 103.361 111.776 102.786 113.339 101.706C114.902 100.627 116.097 99.0943 116.762 97.3153C117.428 95.5363 117.533 93.5961 117.063 91.7557C116.594 89.9153 115.571 88.2629 114.134 87.0208C115.144 86.1554 115.955 85.0816 116.51 83.8733C117.066 82.6651 117.354 81.3508 117.354 80.0208C117.354 78.6908 117.066 77.3766 116.51 76.1683C115.955 74.96 115.144 73.8863 114.134 73.0208C115.144 72.1554 115.955 71.0816 116.51 69.8733C117.066 68.6651 117.354 67.3508 117.354 66.0208C117.354 64.6908 117.066 63.3766 116.51 62.1683C115.955 60.96 115.144 59.8863 114.134 59.0208C115.571 57.7788 116.594 56.1264 117.063 54.286C117.533 52.4455 117.428 50.5053 116.762 48.7264C116.097 46.9474 114.902 45.415 113.339 44.3354C111.776 43.2558 109.92 42.6807 108.021 42.6875H105.687V38.0208H138.354C138.973 38.0208 139.566 37.775 140.004 37.3374C140.442 36.8998 140.687 36.3063 140.687 35.6875V12.3542C140.687 11.7353 140.442 11.1418 140.004 10.7043C139.566 10.2667 138.973 10.0208 138.354 10.0208ZM88.7008 5.35417L87.9775 8.2475C87.8524 8.75337 87.5616 9.20282 87.1514 9.52421C86.7412 9.8456 86.2353 10.0204 85.7142 10.0208H55.6608C55.1397 10.0204 54.6338 9.8456 54.2236 9.52421C53.8134 9.20282 53.5226 8.75337 53.3975 8.2475L52.6742 5.35417H88.7008ZM5.35417 45.0208V21.6875H47.3542V45.0208H5.35417ZM80.0208 136.021H33.3542V126.687H80.0208V136.021ZM81.1408 122.021H33.1442L28.6875 75.3542V66.0208C28.693 64.166 29.4323 62.3888 30.7439 61.0772C32.0554 59.7656 33.8327 59.0264 35.6875 59.0208H52.0208C53.8773 59.0208 55.6578 59.7583 56.9706 61.0711C58.2833 62.3838 59.0208 64.1643 59.0208 66.0208C59.0208 67.8773 58.2833 69.6578 56.9706 70.9706C55.6578 72.2833 53.8773 73.0208 52.0208 73.0208H38.0208C37.402 73.0208 36.8085 73.2667 36.3709 73.7042C35.9333 74.1418 35.6875 74.7353 35.6875 75.3542V105.687C35.693 107.542 36.4323 109.32 37.7439 110.631C39.0554 111.943 40.8327 112.682 42.6875 112.687H87.6742L81.1408 122.021ZM101.021 105.687C101.021 106.306 100.775 106.9 100.337 107.337C99.8998 107.775 99.3063 108.021 98.6875 108.021H42.6875C42.0687 108.021 41.4752 107.775 41.0376 107.337C40.6 106.9 40.3542 106.306 40.3542 105.687V77.6875H52.0208C55.115 77.6875 58.0825 76.4583 60.2704 74.2704C62.4583 72.0825 63.6875 69.115 63.6875 66.0208C63.6875 62.9266 62.4583 59.9592 60.2704 57.7713C58.0825 55.5833 55.115 54.3542 52.0208 54.3542H40.3542V49.6875H49.6875C50.3063 49.6875 50.8998 49.4417 51.3374 49.0041C51.775 48.5665 52.0208 47.973 52.0208 47.3542V19.3542C52.0208 18.7353 51.775 18.1418 51.3374 17.7043C50.8998 17.2667 50.3063 17.0208 49.6875 17.0208H40.3542V7.6875C40.3542 7.06866 40.6 6.47517 41.0376 6.03758C41.4752 5.6 42.0687 5.35417 42.6875 5.35417H47.8675L48.8708 9.39083C49.2505 10.9041 50.1248 12.2472 51.355 13.2068C52.5851 14.1664 54.1006 14.6876 55.6608 14.6875H85.7142C87.2743 14.6876 88.7899 14.1664 90.02 13.2068C91.2502 12.2472 92.1245 10.9041 92.5042 9.39083L93.5075 5.35417H98.6875C99.3063 5.35417 99.8998 5.6 100.337 6.03758C100.775 6.47517 101.021 7.06866 101.021 7.6875V10.0208H96.3542C95.7353 10.0208 95.1418 10.2667 94.7042 10.7043C94.2667 11.1418 94.0208 11.7353 94.0208 12.3542V35.6875C94.0208 36.3063 94.2667 36.8998 94.7042 37.3374C95.1418 37.775 95.7353 38.0208 96.3542 38.0208H101.021V42.6875H98.6875C96.788 42.6807 94.932 43.2558 93.3692 44.3354C91.8064 45.415 90.6117 46.9474 89.9459 48.7264C89.28 50.5053 89.175 52.4455 89.6449 54.286C90.1148 56.1264 91.137 57.7788 92.5742 59.0208C91.5643 59.8863 90.7537 60.96 90.1979 62.1683C89.6421 63.3766 89.3543 64.6908 89.3543 66.0208C89.3543 67.3508 89.6421 68.6651 90.1979 69.8733C90.7537 71.0816 91.5643 72.1554 92.5742 73.0208C91.5643 73.8863 90.7537 74.96 90.1979 76.1683C89.6421 77.3766 89.3543 78.6908 89.3543 80.0208C89.3543 81.3508 89.6421 82.6651 90.1979 83.8733C90.7537 85.0816 91.5643 86.1554 92.5742 87.0208C91.137 88.2629 90.1148 89.9153 89.6449 91.7557C89.175 93.5961 89.28 95.5363 89.9459 97.3153C90.6117 99.0943 91.8064 100.627 93.3692 101.706C94.932 102.786 96.788 103.361 98.6875 103.354H101.021V105.687ZM108.021 98.6875H98.6875C97.4498 98.6875 96.2628 98.1958 95.3877 97.3207C94.5125 96.4455 94.0208 95.2585 94.0208 94.0208C94.0208 92.7832 94.5125 91.5962 95.3877 90.721C96.2628 89.8458 97.4498 89.3542 98.6875 89.3542H108.021C109.259 89.3542 110.445 89.8458 111.321 90.721C112.196 91.5962 112.687 92.7832 112.687 94.0208C112.687 95.2585 112.196 96.4455 111.321 97.3207C110.445 98.1958 109.259 98.6875 108.021 98.6875ZM108.021 84.6875H98.6875C97.4498 84.6875 96.2628 84.1958 95.3877 83.3207C94.5125 82.4455 94.0208 81.2585 94.0208 80.0208C94.0208 78.7832 94.5125 77.5962 95.3877 76.721C96.2628 75.8458 97.4498 75.3542 98.6875 75.3542H108.021C109.259 75.3542 110.445 75.8458 111.321 76.721C112.196 77.5962 112.687 78.7832 112.687 80.0208C112.687 81.2585 112.196 82.4455 111.321 83.3207C110.445 84.1958 109.259 84.6875 108.021 84.6875ZM108.021 70.6875H98.6875C97.4498 70.6875 96.2628 70.1958 95.3877 69.3207C94.5125 68.4455 94.0208 67.2585 94.0208 66.0208C94.0208 64.7832 94.5125 63.5962 95.3877 62.721C96.2628 61.8458 97.4498 61.3542 98.6875 61.3542H108.021C109.259 61.3542 110.445 61.8458 111.321 62.721C112.196 63.5962 112.687 64.7832 112.687 66.0208C112.687 67.2585 112.196 68.4455 111.321 69.3207C110.445 70.1958 109.259 70.6875 108.021 70.6875ZM108.021 47.3542C109.259 47.3542 110.445 47.8458 111.321 48.721C112.196 49.5962 112.687 50.7832 112.687 52.0208C112.687 53.2585 112.196 54.4455 111.321 55.3207C110.445 56.1958 109.259 56.6875 108.021 56.6875H98.6875C97.4498 56.6875 96.2628 56.1958 95.3877 55.3207C94.5125 54.4455 94.0208 53.2585 94.0208 52.0208C94.0208 50.7832 94.5125 49.5962 95.3877 48.721C96.2628 47.8458 97.4498 47.3542 98.6875 47.3542H108.021ZM136.021 33.3542H98.6875V14.6875H136.021V33.3542Z" fill="#66C5EE" fill-opacity="0.4"/>
<path d="M10.0208 26.3542H14.6875V31.0208H10.0208V26.3542Z" fill="#66C5EE" fill-opacity="0.4"/>
<path d="M19.3542 26.3542H42.6875V31.0208H19.3542V26.3542Z" fill="#66C5EE" fill-opacity="0.4"/>
<path d="M10.0208 35.6875H42.6875V40.3542H10.0208V35.6875Z" fill="#66C5EE" fill-opacity="0.4"/>
<path d="M103.354 21.6875H112.687V26.3542H103.354V21.6875Z" fill="#66C5EE" fill-opacity="0.4"/>
<path d="M117.354 21.6875H131.354V26.3542H117.354V21.6875Z" fill="#66C5EE" fill-opacity="0.4"/>
</svg>
