<svg width="40" height="40" viewBox="0 0 40 40" fill="none" xmlns="http://www.w3.org/2000/svg">
<path d="M12.4547 22.368C12.4547 22.0693 12.3427 21.8267 12.1187 21.64C11.9041 21.4533 11.6287 21.2853 11.2927 21.136C10.9661 20.9773 10.6067 20.8187 10.2147 20.66C9.83205 20.492 9.47272 20.2913 9.13672 20.058C8.81005 19.8153 8.53472 19.5167 8.31072 19.162C8.09605 18.8073 7.98872 18.3547 7.98872 17.804C7.98872 17.328 8.06805 16.9173 8.22672 16.572C8.38539 16.2173 8.60939 15.9233 8.89872 15.69C9.19739 15.4567 9.54739 15.284 9.94872 15.172C10.3501 15.06 10.7981 15.004 11.2927 15.004C11.8621 15.004 12.3987 15.0553 12.9027 15.158C13.4067 15.2513 13.8221 15.3913 14.1487 15.578L13.5467 17.188C13.3414 17.0573 13.0334 16.9407 12.6227 16.838C12.2121 16.726 11.7687 16.67 11.2927 16.67C10.8447 16.67 10.4994 16.7587 10.2567 16.936C10.0234 17.1133 9.90672 17.3513 9.90672 17.65C9.90672 17.93 10.0141 18.1633 10.2287 18.35C10.4527 18.5367 10.7281 18.7093 11.0547 18.868C11.3907 19.0267 11.7501 19.19 12.1327 19.358C12.5247 19.526 12.8841 19.7313 13.2107 19.974C13.5467 20.2073 13.8221 20.5013 14.0367 20.856C14.2607 21.2013 14.3727 21.6353 14.3727 22.158C14.3727 22.6807 14.2841 23.1333 14.1067 23.516C13.9387 23.8893 13.6961 24.202 13.3787 24.454C13.0707 24.706 12.6927 24.8927 12.2447 25.014C11.8061 25.1353 11.3207 25.196 10.7887 25.196C10.0887 25.196 9.47272 25.1307 8.94072 25C8.40872 24.8693 8.01672 24.7387 7.76472 24.608L8.38072 22.97C8.48339 23.026 8.61405 23.0867 8.77272 23.152C8.94072 23.2173 9.12739 23.278 9.33272 23.334C9.53805 23.39 9.75272 23.4367 9.97672 23.474C10.2101 23.5113 10.4481 23.53 10.6907 23.53C11.2601 23.53 11.6941 23.4367 11.9927 23.25C12.3007 23.054 12.4547 22.76 12.4547 22.368ZM15.3425 20.1C15.3425 18.4667 15.7019 17.2113 16.4205 16.334C17.1392 15.4473 18.1659 15.004 19.5005 15.004C20.2005 15.004 20.8119 15.1253 21.3345 15.368C21.8572 15.6107 22.2912 15.956 22.6365 16.404C22.9819 16.852 23.2385 17.3887 23.4065 18.014C23.5745 18.6393 23.6585 19.3347 23.6585 20.1C23.6585 21.7333 23.2945 22.9933 22.5665 23.88C21.8479 24.7573 20.8259 25.196 19.5005 25.196C18.7912 25.196 18.1752 25.0747 17.6525 24.832C17.1299 24.5893 16.6959 24.244 16.3505 23.796C16.0145 23.348 15.7625 22.8113 15.5945 22.186C15.4265 21.5607 15.3425 20.8653 15.3425 20.1ZM17.3585 20.1C17.3585 20.5947 17.4005 21.052 17.4845 21.472C17.5685 21.8827 17.6945 22.2373 17.8625 22.536C18.0399 22.8347 18.2639 23.068 18.5345 23.236C18.8052 23.404 19.1272 23.488 19.5005 23.488C20.1819 23.488 20.7092 23.222 21.0825 22.69C21.4559 22.158 21.6425 21.2947 21.6425 20.1C21.6425 19.624 21.6005 19.1807 21.5165 18.77C21.4419 18.3593 21.3205 18 21.1525 17.692C20.9845 17.384 20.7652 17.146 20.4945 16.978C20.2239 16.8007 19.8925 16.712 19.5005 16.712C18.8192 16.712 18.2919 16.9873 17.9185 17.538C17.5452 18.0793 17.3585 18.9333 17.3585 20.1ZM29.2575 22.368C29.2575 22.0693 29.1455 21.8267 28.9215 21.64C28.7068 21.4533 28.4315 21.2853 28.0955 21.136C27.7688 20.9773 27.4095 20.8187 27.0175 20.66C26.6348 20.492 26.2755 20.2913 25.9395 20.058C25.6128 19.8153 25.3375 19.5167 25.1135 19.162C24.8988 18.8073 24.7915 18.3547 24.7915 17.804C24.7915 17.328 24.8708 16.9173 25.0295 16.572C25.1881 16.2173 25.4121 15.9233 25.7015 15.69C26.0001 15.4567 26.3501 15.284 26.7515 15.172C27.1528 15.06 27.6008 15.004 28.0955 15.004C28.6648 15.004 29.2015 15.0553 29.7055 15.158C30.2095 15.2513 30.6248 15.3913 30.9515 15.578L30.3495 17.188C30.1441 17.0573 29.8361 16.9407 29.4255 16.838C29.0148 16.726 28.5715 16.67 28.0955 16.67C27.6475 16.67 27.3021 16.7587 27.0595 16.936C26.8261 17.1133 26.7095 17.3513 26.7095 17.65C26.7095 17.93 26.8168 18.1633 27.0315 18.35C27.2555 18.5367 27.5308 18.7093 27.8575 18.868C28.1935 19.0267 28.5528 19.19 28.9355 19.358C29.3275 19.526 29.6868 19.7313 30.0135 19.974C30.3495 20.2073 30.6248 20.5013 30.8395 20.856C31.0635 21.2013 31.1755 21.6353 31.1755 22.158C31.1755 22.6807 31.0868 23.1333 30.9095 23.516C30.7415 23.8893 30.4988 24.202 30.1815 24.454C29.8735 24.706 29.4955 24.8927 29.0475 25.014C28.6088 25.1353 28.1235 25.196 27.5915 25.196C26.8915 25.196 26.2755 25.1307 25.7435 25C25.2115 24.8693 24.8195 24.7387 24.5675 24.608L25.1835 22.97C25.2861 23.026 25.4168 23.0867 25.5755 23.152C25.7435 23.2173 25.9301 23.278 26.1355 23.334C26.3408 23.39 26.5555 23.4367 26.7795 23.474C27.0128 23.5113 27.2508 23.53 27.4935 23.53C28.0628 23.53 28.4968 23.4367 28.7955 23.25C29.1035 23.054 29.2575 22.76 29.2575 22.368Z" fill="#404040"/>
<circle cx="20" cy="20" r="19" stroke="#404040" stroke-width="2"/>
</svg>
