<svg width="40" height="40" viewBox="0 0 40 40" fill="none" xmlns="http://www.w3.org/2000/svg">
<path d="M26.097 19.7875C25.6814 18.9135 25.119 18.2208 24.5752 17.5508C23.4536 16.1691 22.2937 14.7404 21.8149 11.2022L21.5147 8.9838L19.8627 10.4947C19.6863 10.656 16.1003 14.004 16.3091 18.9527C15.9759 18.7047 15.6157 18.4 15.2449 18.0274L13.657 16.4315L13.2607 18.6477C13.2359 18.7867 12.6631 22.0884 13.637 25.2257C14.4548 27.8604 16.8574 29.657 19.7578 29.803C19.8854 29.8094 20.012 29.8126 20.1381 29.8126C22.9157 29.8126 25.3432 28.27 26.3895 25.8063C26.6031 25.3032 26.7566 24.7783 26.8456 24.2466C27.1409 22.4843 26.6015 20.849 26.097 19.7875ZM24.5339 23.8594C24.4752 24.2098 24.3737 24.5566 24.232 24.8903C23.3764 26.9051 21.4219 27.5397 19.8755 27.4622C18.3578 27.3858 16.5099 26.5757 15.8752 24.5308V24.5309C15.5184 23.3814 15.4176 22.1753 15.4159 21.189C16.5616 21.9443 17.4189 22.1852 17.5526 22.2197L19.5523 22.737L18.9705 20.7551C18.3777 18.7357 18.5992 16.7033 19.6291 14.7143C19.7528 14.4753 19.8816 14.2506 20.011 14.0418C20.7264 16.5282 21.8286 17.886 22.7557 19.028C23.2545 19.6423 23.6851 20.1729 23.9801 20.7936C24.3402 21.5512 24.7285 22.6981 24.5339 23.8594Z" fill="white"/>
<path d="M34.1422 5.85789C30.3646 2.08039 25.3422 0 20 0C14.6578 0 9.63539 2.08039 5.85781 5.85789C2.08039 9.63539 0 14.6578 0 20C0 25.3422 2.08039 30.3647 5.85781 34.1422C9.63539 37.9196 14.6578 40 20 40C25.3422 40 30.3646 37.9196 34.1422 34.1422C37.9196 30.3647 40 25.3422 40 20C40 14.6578 37.9196 9.63539 34.1422 5.85789ZM20 37.6562C10.2643 37.6562 2.34375 29.7357 2.34375 20C2.34375 10.2643 10.2643 2.34375 20 2.34375C29.7357 2.34375 37.6562 10.2643 37.6562 20C37.6562 29.7357 29.7357 37.6562 20 37.6562Z" fill="white"/>
</svg>
