<svg width="40" height="40" viewBox="0 0 40 40" fill="none" xmlns="http://www.w3.org/2000/svg">
<g clip-path="url(#clip0)">
<path d="M23.5939 14.0577H16.4067C15.7595 14.0577 15.2505 14.5824 15.2505 15.2295V22.2604C15.2505 22.9076 15.7596 23.4322 16.4067 23.4322H23.5939C24.2411 23.4322 24.7657 22.9076 24.7657 22.2604V15.2295C24.7658 14.5823 24.2411 14.0577 23.5939 14.0577ZM22.4378 21.0887H17.5785V16.4014H22.4378V21.0887Z" fill="white"/>
<path d="M21.25 32.9635C21.8972 32.9635 22.4218 32.4389 22.4218 31.7917C22.4218 31.1446 21.8972 30.6199 21.25 30.6199C20.6028 30.6199 20.0782 31.1446 20.0782 31.7917C20.0782 32.4389 20.6028 32.9635 21.25 32.9635Z" fill="white"/>
<path d="M39.99 17.3037C39.918 16.3672 39.4857 15.515 38.7727 14.904L35.3128 11.9384V3.51128C35.3128 2.86409 34.7881 2.33948 34.141 2.33948H29.4537C28.8065 2.33948 28.2975 2.86417 28.2975 3.51128V5.91191L22.367 0.857599C21.0412 -0.278263 19.1167 -0.278107 17.7951 0.854239L1.22926 14.9039C-0.235823 16.1592 -0.425901 18.3744 0.849101 19.8627C1.8209 20.9928 3.37754 21.3531 4.70458 20.8867V38.823C4.70458 39.4702 5.21364 39.9948 5.86075 39.9948H34.141C34.7882 39.9948 35.3128 39.4701 35.3128 38.823V20.8869C36.6826 21.3713 38.2064 20.9654 39.1539 19.8612C39.7649 19.148 40.0618 18.2397 39.99 17.3037ZM30.6255 4.68308H32.9848V9.92949L30.6255 7.92066V4.68308ZM24.782 37.6512H15.2355V28.2609H24.782V37.6512ZM32.9848 37.6512H27.11V27.1047C27.11 26.4575 26.5853 25.9329 25.9382 25.9329H14.0636C13.4164 25.9329 12.9074 26.4576 12.9074 27.1047V37.6512H7.03263V19.2012L20.0751 8.13769L32.9849 19.1903V37.6512H32.9848ZM37.3747 18.3355C36.9592 18.8197 36.2207 18.8908 35.7217 18.4629L20.8416 5.70792C20.4045 5.33315 19.7599 5.33159 19.3209 5.70401C19.0038 5.97292 4.3427 18.4097 4.28067 18.4623C3.78989 18.8822 3.0477 18.825 2.62746 18.3361C2.20676 17.8451 2.26363 17.1038 2.75004 16.6869L19.316 2.63721C19.7582 2.25846 20.3999 2.25838 20.8418 2.63706L37.2476 16.6836C37.7381 17.1039 37.7949 17.8453 37.3747 18.3355Z" fill="white"/>
</g>
<defs>
<clipPath id="clip0">
<rect width="40" height="40" fill="white"/>
</clipPath>
</defs>
</svg>
