<svg width="50" height="50" viewBox="0 0 50 50" fill="none" xmlns="http://www.w3.org/2000/svg">
<path d="M3.39063 18.8793L12.9172 15.0613C14.5031 14.4253 16.1738 14.1032 17.8834 14.1032H23.7229C25.8148 14.1032 27.9069 14.6042 29.772 15.5531L38.4039 19.9427L44.5961 20.8455C46.0971 21.0644 47.4693 21.8169 48.4621 22.9652C49.454 24.1125 50 25.5798 50 27.0961V30.7505C50 31.315 49.5419 31.773 48.9775 31.773H44.591C44.3712 32.7679 43.8671 33.6779 43.1228 34.4038C42.133 35.3661 40.8272 35.8967 39.4459 35.8967C38.0655 35.8967 36.7598 35.3661 35.77 34.4038C35.0246 33.6769 34.5195 32.7648 34.3007 31.773H15.9745C15.7547 32.7679 15.2506 33.6779 14.5052 34.4029C13.5164 35.3661 12.2107 35.8967 10.8304 35.8967C9.44903 35.8967 8.14326 35.3661 7.1545 34.4038C6.40909 33.6779 5.90499 32.7678 5.68516 31.773H1.02256C0.458111 31.773 0.000102997 31.3149 0.000102997 30.7505V23.8916C5.34058e-06 21.6728 1.33125 19.7056 3.39063 18.8793ZM13.6779 16.9591L6.32412 19.907H11.8732L14.316 16.726C14.1023 16.7976 13.8896 16.8753 13.6779 16.9591ZM22.7638 16.1483H17.8834C17.6973 16.1483 17.5122 16.1524 17.3282 16.1615L14.452 19.907H22.7638V16.1483ZM28.8456 17.3763C27.589 16.7372 26.2116 16.3385 24.8088 16.2025V19.907H33.8221L28.8456 17.3763ZM44.4591 22.8967C44.8793 24.319 46.1339 25.3865 47.6533 25.5317C47.1207 24.1953 45.9274 23.1677 44.4591 22.8967ZM39.4469 33.8518C41.228 33.8518 42.6718 32.408 42.6718 30.6269C42.6718 28.8457 41.228 27.402 39.4469 27.402C37.6657 27.402 36.222 28.8457 36.222 30.6269C36.2219 32.408 37.6656 33.8518 39.4469 33.8518ZM10.8292 33.8518C12.6104 33.8518 14.0552 32.408 14.0552 30.6269C14.0552 28.8457 12.6104 27.402 10.8292 27.402C9.04805 27.402 7.6043 28.8457 7.6043 30.6269C7.6043 32.408 9.04805 33.8518 10.8292 33.8518ZM2.04502 29.7281H5.63809C6.06651 27.2495 8.23008 25.3569 10.8303 25.3569C13.4295 25.3569 15.5931 27.2495 16.0215 29.7281H34.2536C34.682 27.2495 36.8467 25.3569 39.4458 25.3569C42.046 25.3569 44.2096 27.2495 44.638 29.7281H47.955V27.5931C45.0582 27.5665 42.6677 25.3866 42.3108 22.5787L38.0112 21.952H12.3773H12.3753H5.90498V23.2832C5.90498 25.1544 4.38252 26.6769 2.51231 26.6769H2.04502V29.7281ZM2.04502 24.632H2.51231C3.25469 24.632 3.85997 24.0267 3.85997 23.2833V21.9521H2.66055C2.26895 22.5063 2.04502 23.177 2.04502 23.8917V24.632Z" fill="white"/>
<path d="M10.8292 29.271C11.5787 29.271 12.1851 29.8783 12.1851 30.6269C12.1851 31.3753 11.5787 31.9827 10.8292 31.9827C10.0808 31.9827 9.47441 31.3754 9.47441 30.6269C9.47441 29.8783 10.0808 29.271 10.8292 29.271Z" fill="white"/>
<path d="M39.4469 29.271C40.1953 29.271 40.8016 29.8783 40.8016 30.6269C40.8016 31.3753 40.1953 31.9827 39.4469 31.9827C38.6973 31.9827 38.091 31.3754 38.091 30.6269C38.091 29.8783 38.6973 29.271 39.4469 29.271Z" fill="white"/>
</svg>
