<svg width="33" height="39" viewBox="0 0 33 39" fill="none" xmlns="http://www.w3.org/2000/svg">
<path d="M21.8361 38H16.2459M21.8361 38H32V33.5M21.8361 38V33.5M7.09836 38H1V2.5H7.86066M7.09836 38V32H11.6721M7.09836 38H11.6721M11.6721 32V38M11.6721 32H16.2459V38M11.6721 38H16.2459M14.7213 2.5H21.8361V9M14.7213 2.5V1M14.7213 2.5H7.86066M7.86066 2.5V1M21.8361 9V33.5M21.8361 9H25.3934M21.8361 33.5H32M32 33.5V9H28.6967M25.3934 9V7M25.3934 9H28.6967M28.6967 9V7" stroke="#404040" stroke-width="2" stroke-linecap="round" stroke-linejoin="round"/>
<path d="M5 12V7H10V12H5Z" stroke="#404040" stroke-width="1.5" stroke-linejoin="round"/>
<path d="M13 12V7H18V12H13Z" stroke="#404040" stroke-width="1.5" stroke-linejoin="round"/>
<path d="M5 20V15H10V20H5Z" stroke="#404040" stroke-width="1.5" stroke-linejoin="round"/>
<path d="M13 20V15H18V20H13Z" stroke="#404040" stroke-width="1.5" stroke-linejoin="round"/>
<path d="M5 28V23H10V28H5Z" stroke="#404040" stroke-width="1.5" stroke-linejoin="round"/>
<path d="M13 28V23H18V28H13Z" stroke="#404040" stroke-width="1.5" stroke-linejoin="round"/>
<path d="M24.5 17V12H29.5V17H24.5Z" stroke="#404040" stroke-width="1.5" stroke-linejoin="round"/>
<path d="M24.5 24V19H29.5V24H24.5Z" stroke="#404040" stroke-width="1.5" stroke-linejoin="round"/>
<path d="M24.5 31V26H29.5V31H24.5Z" stroke="#404040" stroke-width="1.5" stroke-linejoin="round"/>
</svg>
