<svg width="40" height="40" viewBox="0 0 40 40" fill="none" xmlns="http://www.w3.org/2000/svg">
<path d="M38.8354 6.68781C38.833 6.68781 38.8306 6.6875 38.8281 6.6875H28.2031V5.51562C28.2031 3.57715 26.626 2 24.6875 2H15.3125C13.374 2 11.7969 3.57715 11.7969 5.51562V6.6875H1.17188C0.519409 6.6875 0 7.22217 0 7.85938V33.6406C0 35.5791 1.57715 37.1562 3.51562 37.1562H36.4844C38.4229 37.1562 40 35.5791 40 33.6406V7.88409C40 7.88257 40 7.88104 40 7.87952C39.9551 7.10986 39.4818 6.69208 38.8354 6.68781V6.68781ZM14.1406 5.51562C14.1406 4.86957 14.6664 4.34375 15.3125 4.34375H24.6875C25.3336 4.34375 25.8594 4.86957 25.8594 5.51562V6.6875H14.1406V5.51562ZM37.2021 9.03125L33.5629 19.9486C33.4033 20.428 32.9565 20.75 32.4515 20.75H25.8594V19.5781C25.8594 18.9308 25.3348 18.4062 24.6875 18.4062H15.3125C14.6652 18.4062 14.1406 18.9308 14.1406 19.5781V20.75H7.54852C7.04346 20.75 6.59668 20.428 6.43707 19.9486L2.79785 9.03125H37.2021ZM23.5156 20.75V23.0938H16.4844V20.75H23.5156ZM37.6562 33.6406C37.6562 34.2867 37.1304 34.8125 36.4844 34.8125H3.51562C2.86957 34.8125 2.34375 34.2867 2.34375 33.6406V15.0807L4.21356 20.6899C4.69269 22.1279 6.03302 23.0938 7.54852 23.0938H14.1406V24.2656C14.1406 24.9129 14.6652 25.4375 15.3125 25.4375H24.6875C25.3348 25.4375 25.8594 24.9129 25.8594 24.2656V23.0938H32.4515C33.967 23.0938 35.3073 22.1279 35.7864 20.6899L37.6562 15.0807V33.6406Z" fill="white"/>
</svg>
