<svg width="40" height="40" viewBox="0 0 40 40" fill="none" xmlns="http://www.w3.org/2000/svg">
<path d="M38.8354 7.10968C38.833 7.10968 38.8306 7.10938 38.8281 7.10938H28.2031V5.9375C28.2031 3.99902 26.626 2.42188 24.6875 2.42188H15.3125C13.374 2.42188 11.7969 3.99902 11.7969 5.9375V7.10938H1.17188C0.519409 7.10938 0 7.64404 0 8.28125V34.0625C0 36.001 1.57715 37.5781 3.51562 37.5781H36.4844C38.4229 37.5781 40 36.001 40 34.0625V8.30597C40 8.30444 40 8.30292 40 8.30139C39.9551 7.53174 39.4818 7.11395 38.8354 7.10968ZM14.1406 5.9375C14.1406 5.29144 14.6664 4.76562 15.3125 4.76562H24.6875C25.3336 4.76562 25.8594 5.29144 25.8594 5.9375V7.10938H14.1406V5.9375ZM37.2021 9.45312L33.5629 20.3705C33.4033 20.8499 32.9565 21.1719 32.4515 21.1719H25.8594V20C25.8594 19.3527 25.3348 18.8281 24.6875 18.8281H15.3125C14.6652 18.8281 14.1406 19.3527 14.1406 20V21.1719H7.54852C7.04346 21.1719 6.59668 20.8499 6.43707 20.3705L2.79785 9.45312H37.2021ZM23.5156 21.1719V23.5156H16.4844V21.1719H23.5156ZM37.6562 34.0625C37.6562 34.7086 37.1304 35.2344 36.4844 35.2344H3.51562C2.86957 35.2344 2.34375 34.7086 2.34375 34.0625V15.5026L4.21356 21.1118C4.69269 22.5497 6.03302 23.5156 7.54852 23.5156H14.1406V24.6875C14.1406 25.3348 14.6652 25.8594 15.3125 25.8594H24.6875C25.3348 25.8594 25.8594 25.3348 25.8594 24.6875V23.5156H32.4515C33.967 23.5156 35.3073 22.5497 35.7864 21.1118L37.6562 15.5026V34.0625Z" fill="#404040"/>
</svg>
