<svg width="42" height="40" viewBox="0 0 42 40" fill="none" xmlns="http://www.w3.org/2000/svg">
<path fill-rule="evenodd" clip-rule="evenodd" d="M31.682 12.8294L31.7848 12.77C32.4784 13.0697 33.0083 13.2256 33.0083 13.2256C33.0083 13.2256 33.1559 12.6755 33.2642 11.9152L33.6735 11.6787C34.2745 12.7188 34.7425 13.8243 35.0706 14.9692C34.4094 15.4601 33.7862 16.071 33.5252 16.7522C32.8087 18.6222 34.5309 21.7807 34.5309 21.7807C34.5309 21.7807 34.9408 21.5443 35.4784 21.1533C35.3168 22.2419 35.0328 23.3087 34.6322 24.3335C33.7694 24.4185 32.8554 24.6335 32.2546 25.1207C30.699 26.3819 30.6113 29.9784 30.6113 29.9784C30.6113 29.9784 30.6376 29.9784 30.6865 29.9775C30.0963 30.4985 29.4635 30.9725 28.7935 31.394C28.3983 31.1773 27.9886 31.0224 27.5868 30.9804C25.595 30.7723 22.9899 33.2534 22.9899 33.2534C22.9899 33.2534 23.0733 33.3369 23.2212 33.4726C22.4576 33.5899 21.6832 33.6471 20.9049 33.6421C20.1378 33.6373 19.3752 33.5722 18.6237 33.4487C18.7554 33.3271 18.8291 33.2534 18.8291 33.2534C18.8291 33.2534 16.224 30.7723 14.2322 30.9804C13.8627 31.0191 13.4865 31.1531 13.121 31.343C12.441 30.9089 11.8001 30.4207 11.2039 29.8842C11.1772 29.3095 10.9706 26.2609 9.56426 25.1207C9.00597 24.668 8.17742 24.4503 7.37068 24.3536C6.98314 23.3666 6.7041 22.3408 6.53824 21.2944C6.97543 21.6004 7.28793 21.7807 7.28793 21.7807C7.28793 21.7807 9.0102 18.6222 8.29363 16.7522C8.0518 16.121 7.49909 15.5503 6.89326 15.0794C7.2392 13.8358 7.74959 12.638 8.41518 11.5189L8.51114 11.576C8.61759 12.5063 8.81063 13.2256 8.81063 13.2256C8.81063 13.2256 9.48654 13.0267 10.3108 12.6464L10.392 12.6947C9.2811 14.5623 8.68314 16.6902 8.65855 18.8631C8.63396 21.036 9.18361 23.1768 10.2519 25.0691C11.3203 26.9614 12.8693 28.5381 14.7425 29.6396C16.6156 30.7411 18.7465 31.3284 20.9195 31.3422C23.0925 31.3559 25.2305 30.7956 27.1175 29.7179C29.0044 28.6401 30.5733 27.0832 31.6655 25.2046C32.7576 23.3259 33.3343 21.1922 33.3372 19.0192C33.3401 16.8461 32.7691 14.7109 31.682 12.8294Z" fill="#404040"/>
<path d="M13.0775 11.381C13.8353 9.68158 12.6034 6.64001 12.6034 6.64001C12.6034 6.64001 9.63859 7.82858 8.81059 9.48458C7.9826 11.1406 8.81059 14.2255 8.81059 14.2255C8.81059 14.2255 12.2618 13.21 13.0775 11.381Z" stroke="#404040" stroke-width="2.3" stroke-linejoin="round"/>
<path d="M8.29359 17.7521C7.62782 16.0146 4.60601 14.735 4.60601 14.735C4.60601 14.735 3.35006 17.6719 3.93554 19.4283C4.52102 21.1848 7.28789 22.7807 7.28789 22.7807C7.28789 22.7807 9.01016 19.6222 8.29359 17.7521Z" stroke="#404040" stroke-width="2.3" stroke-linejoin="round"/>
<path d="M9.56423 26.1207C8.1189 24.9488 4.86212 25.3516 4.86212 25.3516C4.86212 25.3516 5.24286 28.5229 6.62813 29.7513C8.01339 30.9797 11.2076 30.9784 11.2076 30.9784C11.2076 30.9784 11.1199 27.3819 9.56423 26.1207Z" stroke="#404040" stroke-width="2.3" stroke-linejoin="round"/>
<path d="M14.2322 31.9804C12.3816 32.1738 10.3634 34.7615 10.3634 34.7615C10.3634 34.7615 12.8752 36.7348 14.7233 36.6238C16.5714 36.5129 18.8291 34.2533 18.8291 34.2533C18.8291 34.2533 16.224 31.7723 14.2322 31.9804Z" stroke="#404040" stroke-width="2.3" stroke-linejoin="round"/>
<path d="M28.7414 11.381C27.9836 9.68158 29.2155 6.64001 29.2155 6.64001C29.2155 6.64001 32.1803 7.82858 33.0083 9.48458C33.8363 11.1406 33.0083 14.2255 33.0083 14.2255C33.0083 14.2255 29.5571 13.21 28.7414 11.381Z" stroke="#404040" stroke-width="2.3" stroke-linejoin="round"/>
<path d="M33.5252 17.7521C34.191 16.0146 37.2128 14.735 37.2128 14.735C37.2128 14.735 38.4687 17.6719 37.8833 19.4283C37.2978 21.1848 34.5309 22.7807 34.5309 22.7807C34.5309 22.7807 32.8086 19.6222 33.5252 17.7521Z" stroke="#404040" stroke-width="2.3" stroke-linejoin="round"/>
<path d="M32.2546 26.1207C33.6999 24.9488 36.9567 25.3516 36.9567 25.3516C36.9567 25.3516 36.5759 28.5229 35.1907 29.7513C33.8054 30.9797 30.6113 30.9784 30.6113 30.9784C30.6113 30.9784 30.699 27.3819 32.2546 26.1207Z" stroke="#404040" stroke-width="2.3" stroke-linejoin="round"/>
<path d="M27.5867 31.9804C29.4374 32.1738 31.4555 34.7615 31.4555 34.7615C31.4555 34.7615 28.9438 36.7348 27.0956 36.6238C25.2475 36.5129 22.9899 34.2533 22.9899 34.2533C22.9899 34.2533 25.5949 31.7723 27.5867 31.9804Z" stroke="#404040" stroke-width="2.3" stroke-linejoin="round"/>
<path d="M20.9095 28.3966L20.363 29.4084C20.704 29.5926 21.1149 29.5926 21.456 29.4084L20.9095 28.3966ZM25.6504 24.2368L24.6335 23.6998L25.6504 24.2368ZM20.9095 12.2773V13.4273V12.2773ZM15.2204 21.4883H14.0704H15.2204ZM16.1685 24.2368L15.1516 24.7738L16.1685 24.2368ZM19.4872 12.7973L20.337 13.5721L19.4872 12.7973ZM22.3318 12.7973L23.1816 12.0225L22.3318 12.7973ZM20.9095 28.3966C21.456 29.4084 21.4561 29.4083 21.4563 29.4082C21.4564 29.4082 21.4566 29.4081 21.4568 29.408C21.4572 29.4078 21.4575 29.4076 21.458 29.4073C21.4589 29.4068 21.46 29.4062 21.4613 29.4055C21.464 29.4041 21.4675 29.4022 21.4718 29.3998C21.4805 29.395 21.4925 29.3884 21.5077 29.38C21.5381 29.3631 21.5811 29.339 21.6353 29.3081C21.7436 29.2462 21.897 29.1566 22.0837 29.0425C22.4561 28.815 22.9658 28.4869 23.5166 28.0833C24.5785 27.3052 25.9475 26.1369 26.6673 24.7738L24.6335 23.6998C24.1718 24.5741 23.1703 25.4857 22.1571 26.2281C21.6704 26.5848 21.2164 26.8771 20.8845 27.0799C20.719 27.181 20.5851 27.2592 20.4942 27.3111C20.4487 27.3371 20.4141 27.3565 20.3918 27.3689C20.3806 27.3751 20.3725 27.3795 20.3676 27.3822C20.3652 27.3835 20.3636 27.3844 20.3628 27.3848C20.3624 27.385 20.3622 27.3851 20.3623 27.3851C20.3623 27.3851 20.3623 27.3851 20.3625 27.385L20.3627 27.3849C20.3628 27.3848 20.363 27.3847 20.9095 28.3966ZM26.6673 24.7738C26.9592 24.221 27.2194 23.6092 27.4089 23.0588C27.583 22.553 27.7486 21.9563 27.7486 21.4883H25.4486C25.4486 21.4805 25.449 21.4978 25.4417 21.5473C25.4348 21.5942 25.423 21.6566 25.4046 21.735C25.3678 21.8925 25.3106 22.0882 25.2342 22.31C25.081 22.755 24.8671 23.2575 24.6335 23.6998L26.6673 24.7738ZM27.7486 21.4883C27.7486 21.4873 27.7486 21.4863 27.7486 21.4853C27.7486 21.4842 27.7486 21.4832 27.7486 21.4821C27.7486 21.481 27.7486 21.48 27.7486 21.4789C27.7486 21.4778 27.7486 21.4767 27.7486 21.4756C27.7486 21.4745 27.7486 21.4734 27.7486 21.4722C27.7486 21.4711 27.7486 21.47 27.7486 21.4688C27.7486 21.4677 27.7486 21.4665 27.7486 21.4653C27.7486 21.4642 27.7486 21.463 27.7486 21.4618C27.7486 21.4606 27.7486 21.4594 27.7486 21.4582C27.7486 21.4569 27.7486 21.4557 27.7486 21.4545C27.7486 21.4532 27.7486 21.452 27.7486 21.4507C27.7486 21.4495 27.7486 21.4482 27.7486 21.4469C27.7486 21.4456 27.7486 21.4443 27.7486 21.443C27.7486 21.4417 27.7486 21.4404 27.7486 21.4391C27.7486 21.4377 27.7486 21.4364 27.7486 21.435C27.7486 21.4337 27.7486 21.4323 27.7486 21.4309C27.7486 21.4296 27.7486 21.4282 27.7486 21.4268C27.7486 21.4254 27.7486 21.424 27.7486 21.4226C27.7486 21.4212 27.7486 21.4197 27.7486 21.4183C27.7486 21.4169 27.7486 21.4154 27.7486 21.4139C27.7486 21.4125 27.7486 21.411 27.7486 21.4095C27.7486 21.4081 27.7486 21.4066 27.7486 21.4051C27.7486 21.4036 27.7486 21.402 27.7486 21.4005C27.7486 21.399 27.7486 21.3975 27.7486 21.3959C27.7486 21.3944 27.7486 21.3928 27.7486 21.3912C27.7486 21.3897 27.7486 21.3881 27.7486 21.3865C27.7486 21.3849 27.7486 21.3833 27.7486 21.3817C27.7486 21.3801 27.7486 21.3785 27.7486 21.3768C27.7486 21.3752 27.7486 21.3736 27.7486 21.3719C27.7486 21.3703 27.7486 21.3686 27.7486 21.3669C27.7486 21.3653 27.7486 21.3636 27.7486 21.3619C27.7486 21.3602 27.7486 21.3585 27.7486 21.3568C27.7486 21.355 27.7486 21.3533 27.7486 21.3516C27.7486 21.3499 27.7486 21.3481 27.7486 21.3463C27.7486 21.3446 27.7486 21.3428 27.7486 21.341C27.7486 21.3393 27.7486 21.3375 27.7486 21.3357C27.7486 21.3339 27.7486 21.3321 27.7486 21.3303C27.7486 21.3284 27.7486 21.3266 27.7486 21.3248C27.7486 21.3229 27.7486 21.3211 27.7486 21.3192C27.7486 21.3173 27.7486 21.3155 27.7486 21.3136C27.7486 21.3117 27.7486 21.3098 27.7486 21.3079C27.7486 21.306 27.7486 21.3041 27.7486 21.3022C27.7486 21.3003 27.7486 21.2983 27.7486 21.2964C27.7486 21.2944 27.7486 21.2925 27.7486 21.2905C27.7486 21.2886 27.7486 21.2866 27.7486 21.2846C27.7486 21.2826 27.7486 21.2806 27.7486 21.2786C27.7486 21.2766 27.7486 21.2746 27.7486 21.2726C27.7486 21.2706 27.7486 21.2685 27.7486 21.2665C27.7486 21.2645 27.7486 21.2624 27.7486 21.2603C27.7486 21.2583 27.7486 21.2562 27.7486 21.2541C27.7486 21.252 27.7486 21.2499 27.7486 21.2478C27.7486 21.2457 27.7486 21.2436 27.7486 21.2415C27.7486 21.2394 27.7486 21.2372 27.7486 21.2351C27.7486 21.233 27.7486 21.2308 27.7486 21.2287C27.7486 21.2265 27.7486 21.2243 27.7486 21.2221C27.7486 21.22 27.7486 21.2178 27.7486 21.2156C27.7486 21.2134 27.7486 21.2111 27.7486 21.2089C27.7486 21.2067 27.7486 21.2045 27.7486 21.2022C27.7486 21.2 27.7486 21.1977 27.7486 21.1955C27.7486 21.1932 27.7486 21.191 27.7486 21.1887C27.7486 21.1864 27.7486 21.1841 27.7486 21.1818C27.7486 21.1795 27.7486 21.1772 27.7486 21.1749C27.7486 21.1726 27.7486 21.1702 27.7486 21.1679C27.7486 21.1656 27.7486 21.1632 27.7486 21.1609C27.7486 21.1585 27.7486 21.1561 27.7486 21.1538C27.7486 21.1514 27.7486 21.149 27.7486 21.1466C27.7486 21.1442 27.7486 21.1418 27.7486 21.1394C27.7486 21.137 27.7486 21.1346 27.7486 21.1321C27.7486 21.1297 27.7486 21.1273 27.7486 21.1248C27.7486 21.1224 27.7486 21.1199 27.7486 21.1174C27.7486 21.115 27.7486 21.1125 27.7486 21.11C27.7486 21.1075 27.7486 21.105 27.7486 21.1025C27.7486 21.1 27.7486 21.0975 27.7486 21.095C27.7486 21.0924 27.7486 21.0899 27.7486 21.0874C27.7486 21.0848 27.7486 21.0823 27.7486 21.0797C27.7486 21.0771 27.7486 21.0746 27.7486 21.072C27.7486 21.0694 27.7486 21.0668 27.7486 21.0642C27.7486 21.0616 27.7486 21.059 27.7486 21.0564C27.7486 21.0538 27.7486 21.0512 27.7486 21.0485C27.7486 21.0459 27.7486 21.0432 27.7486 21.0406C27.7486 21.0379 27.7486 21.0353 27.7486 21.0326C27.7486 21.0299 27.7486 21.0273 27.7486 21.0246C27.7486 21.0219 27.7486 21.0192 27.7486 21.0165C27.7486 21.0138 27.7486 21.011 27.7486 21.0083C27.7486 21.0056 27.7486 21.0029 27.7486 21.0001C27.7486 20.9974 27.7486 20.9946 27.7486 20.9919C27.7486 20.9891 27.7486 20.9863 27.7486 20.9835C27.7486 20.9808 27.7486 20.978 27.7486 20.9752C27.7486 20.9724 27.7486 20.9696 27.7486 20.9668C27.7486 20.964 27.7486 20.9611 27.7486 20.9583C27.7486 20.9555 27.7486 20.9526 27.7486 20.9498C27.7486 20.9469 27.7486 20.9441 27.7486 20.9412C27.7486 20.9383 27.7486 20.9355 27.7486 20.9326C27.7486 20.9297 27.7486 20.9268 27.7486 20.9239C27.7486 20.921 27.7486 20.9181 27.7486 20.9152C27.7486 20.9122 27.7486 20.9093 27.7486 20.9064C27.7486 20.9035 27.7486 20.9005 27.7486 20.8976C27.7486 20.8946 27.7486 20.8916 27.7486 20.8887C27.7486 20.8857 27.7486 20.8827 27.7486 20.8797C27.7486 20.8767 27.7486 20.8737 27.7486 20.8707C27.7486 20.8677 27.7486 20.8647 27.7486 20.8617C27.7486 20.8587 27.7486 20.8557 27.7486 20.8526C27.7486 20.8496 27.7486 20.8465 27.7486 20.8435C27.7486 20.8404 27.7486 20.8374 27.7486 20.8343C27.7486 20.8312 27.7486 20.8281 27.7486 20.825C27.7486 20.822 27.7486 20.8189 27.7486 20.8158C27.7486 20.8126 27.7486 20.8095 27.7486 20.8064C27.7486 20.8033 27.7486 20.8002 27.7486 20.797C27.7486 20.7939 27.7486 20.7907 27.7486 20.7876C27.7486 20.7844 27.7486 20.7813 27.7486 20.7781C27.7486 20.7749 27.7486 20.7717 27.7486 20.7686C27.7486 20.7654 27.7486 20.7622 27.7486 20.759C27.7486 20.7558 27.7486 20.7526 27.7486 20.7493C27.7486 20.7461 27.7486 20.7429 27.7486 20.7396C27.7486 20.7364 27.7486 20.7332 27.7486 20.7299C27.7486 20.7267 27.7486 20.7234 27.7486 20.7201C27.7486 20.7169 27.7486 20.7136 27.7486 20.7103C27.7486 20.707 27.7486 20.7037 27.7486 20.7004C27.7486 20.6971 27.7486 20.6938 27.7486 20.6905C27.7486 20.6872 27.7486 20.6839 27.7486 20.6805C27.7486 20.6772 27.7486 20.6739 27.7486 20.6705C27.7486 20.6672 27.7486 20.6638 27.7486 20.6604C27.7486 20.6571 27.7486 20.6537 27.7486 20.6503C27.7486 20.6469 27.7486 20.6436 27.7486 20.6402C27.7486 20.6368 27.7486 20.6334 27.7486 20.63C27.7486 20.6265 27.7486 20.6231 27.7486 20.6197C27.7486 20.6163 27.7486 20.6128 27.7486 20.6094C27.7486 20.606 27.7486 20.6025 27.7486 20.5991C27.7486 20.5956 27.7486 20.5921 27.7486 20.5887C27.7486 20.5852 27.7486 20.5817 27.7486 20.5782C27.7486 20.5747 27.7486 20.5712 27.7486 20.5677C27.7486 20.5642 27.7486 20.5607 27.7486 20.5572C27.7486 20.5537 27.7486 20.5502 27.7486 20.5466C27.7486 20.5431 27.7486 20.5396 27.7486 20.536C27.7486 20.5325 27.7486 20.5289 27.7486 20.5253C27.7486 20.5218 27.7486 20.5182 27.7486 20.5146C27.7486 20.5111 27.7486 20.5075 27.7486 20.5039C27.7486 20.5003 27.7486 20.4967 27.7486 20.4931C27.7486 20.4895 27.7486 20.4859 27.7486 20.4822C27.7486 20.4786 27.7486 20.475 27.7486 20.4713C27.7486 20.4677 27.7486 20.4641 27.7486 20.4604C27.7486 20.4568 27.7486 20.4531 27.7486 20.4494C27.7486 20.4458 27.7486 20.4421 27.7486 20.4384C27.7486 20.4347 27.7486 20.4311 27.7486 20.4274C27.7486 20.4237 27.7486 20.42 27.7486 20.4163C27.7486 20.4125 27.7486 20.4088 27.7486 20.4051C27.7486 20.4014 27.7486 20.3977 27.7486 20.3939C27.7486 20.3902 27.7486 20.3864 27.7486 20.3827C27.7486 20.3789 27.7486 20.3752 27.7486 20.3714C27.7486 20.3676 27.7486 20.3639 27.7486 20.3601C27.7486 20.3563 27.7486 20.3525 27.7486 20.3487C27.7486 20.3449 27.7486 20.3411 27.7486 20.3373C27.7486 20.3335 27.7486 20.3297 27.7486 20.3259C27.7486 20.3221 27.7486 20.3182 27.7486 20.3144C27.7486 20.3106 27.7486 20.3067 27.7486 20.3029C27.7486 20.299 27.7486 20.2952 27.7486 20.2913C27.7486 20.2874 27.7486 20.2836 27.7486 20.2797C27.7486 20.2758 27.7486 20.2719 27.7486 20.268C27.7486 20.2641 27.7486 20.2602 27.7486 20.2563C27.7486 20.2524 27.7486 20.2485 27.7486 20.2446C27.7486 20.2407 27.7486 20.2368 27.7486 20.2328C27.7486 20.2289 27.7486 20.225 27.7486 20.221C27.7486 20.2171 27.7486 20.2131 27.7486 20.2092C27.7486 20.2052 27.7486 20.2012 27.7486 20.1973C27.7486 20.1933 27.7486 20.1893 27.7486 20.1853C27.7486 20.1814 27.7486 20.1774 27.7486 20.1734C27.7486 20.1694 27.7486 20.1654 27.7486 20.1614C27.7486 20.1573 27.7486 20.1533 27.7486 20.1493C27.7486 20.1453 27.7486 20.1413 27.7486 20.1372C27.7486 20.1332 27.7486 20.1291 27.7486 20.1251C27.7486 20.121 27.7486 20.117 27.7486 20.1129C27.7486 20.1089 27.7486 20.1048 27.7486 20.1007C27.7486 20.0966 27.7486 20.0926 27.7486 20.0885C27.7486 20.0844 27.7486 20.0803 27.7486 20.0762C27.7486 20.0721 27.7486 20.068 27.7486 20.0639C27.7486 20.0598 27.7486 20.0556 27.7486 20.0515C27.7486 20.0474 27.7486 20.0432 27.7486 20.0391C27.7486 20.035 27.7486 20.0308 27.7486 20.0267C27.7486 20.0225 27.7486 20.0184 27.7486 20.0142C27.7486 20.01 27.7486 20.0059 27.7486 20.0017C27.7486 19.9975 27.7486 19.9933 27.7486 19.9892C27.7486 19.985 27.7486 19.9808 27.7486 19.9766C27.7486 19.9724 27.7486 19.9682 27.7486 19.964C27.7486 19.9597 27.7486 19.9555 27.7486 19.9513C27.7486 19.9471 27.7486 19.9428 27.7486 19.9386C27.7486 19.9344 27.7486 19.9301 27.7486 19.9259C27.7486 19.9216 27.7486 19.9174 27.7486 19.9131C27.7486 19.9089 27.7486 19.9046 27.7486 19.9003C27.7486 19.8961 27.7486 19.8918 27.7486 19.8875C27.7486 19.8832 27.7486 19.8789 27.7486 19.8746C27.7486 19.8703 27.7486 19.866 27.7486 19.8617C27.7486 19.8574 27.7486 19.8531 27.7486 19.8488C27.7486 19.8445 27.7486 19.8401 27.7486 19.8358C27.7486 19.8315 27.7486 19.8271 27.7486 19.8228C27.7486 19.8185 27.7486 19.8141 27.7486 19.8098C27.7486 19.8054 27.7486 19.801 27.7486 19.7967C27.7486 19.7923 27.7486 19.7879 27.7486 19.7836C27.7486 19.7792 27.7486 19.7748 27.7486 19.7704C27.7486 19.766 27.7486 19.7616 27.7486 19.7572C27.7486 19.7528 27.7486 19.7484 27.7486 19.744C27.7486 19.7396 27.7486 19.7352 27.7486 19.7308C27.7486 19.7264 27.7486 19.7219 27.7486 19.7175C27.7486 19.7131 27.7486 19.7086 27.7486 19.7042C27.7486 19.6998 27.7486 19.6953 27.7486 19.6909C27.7486 19.6864 27.7486 19.6819 27.7486 19.6775C27.7486 19.673 27.7486 19.6685 27.7486 19.6641C27.7486 19.6596 27.7486 19.6551 27.7486 19.6506C27.7486 19.6461 27.7486 19.6416 27.7486 19.6371C27.7486 19.6327 27.7486 19.6281 27.7486 19.6236C27.7486 19.6191 27.7486 19.6146 27.7486 19.6101C27.7486 19.6056 27.7486 19.6011 27.7486 19.5965C27.7486 19.592 27.7486 19.5875 27.7486 19.5829C27.7486 19.5784 27.7486 19.5738 27.7486 19.5693C27.7486 19.5648 27.7486 19.5602 27.7486 19.5556C27.7486 19.5511 27.7486 19.5465 27.7486 19.5419C27.7486 19.5374 27.7486 19.5328 27.7486 19.5282C27.7486 19.5236 27.7486 19.519 27.7486 19.5145C27.7486 19.5099 27.7486 19.5053 27.7486 19.5007C27.7486 19.4961 27.7486 19.4915 27.7486 19.4869C27.7486 19.4822 27.7486 19.4776 27.7486 19.473C27.7486 19.4684 27.7486 19.4638 27.7486 19.4591C27.7486 19.4545 27.7486 19.4499 27.7486 19.4452C27.7486 19.4406 27.7486 19.4359 27.7486 19.4313C27.7486 19.4266 27.7486 19.422 27.7486 19.4173C27.7486 19.4127 27.7486 19.408 27.7486 19.4033C27.7486 19.3987 27.7486 19.394 27.7486 19.3893C27.7486 19.3846 27.7486 19.3799 27.7486 19.3753C27.7486 19.3706 27.7486 19.3659 27.7486 19.3612C27.7486 19.3565 27.7486 19.3518 27.7486 19.3471C27.7486 19.3424 27.7486 19.3376 27.7486 19.3329C27.7486 19.3282 27.7486 19.3235 27.7486 19.3188C27.7486 19.314 27.7486 19.3093 27.7486 19.3046C27.7486 19.2998 27.7486 19.2951 27.7486 19.2903C27.7486 19.2856 27.7486 19.2808 27.7486 19.2761C27.7486 19.2713 27.7486 19.2666 27.7486 19.2618C27.7486 19.257 27.7486 19.2523 27.7486 19.2475C27.7486 19.2427 27.7486 19.238 27.7486 19.2332C27.7486 19.2284 27.7486 19.2236 27.7486 19.2188C27.7486 19.214 27.7486 19.2092 27.7486 19.2044C27.7486 19.1996 27.7486 19.1948 27.7486 19.19C27.7486 19.1852 27.7486 19.1804 27.7486 19.1756C27.7486 19.1708 27.7486 19.1659 27.7486 19.1611C27.7486 19.1563 27.7486 19.1515 27.7486 19.1466C27.7486 19.1418 27.7486 19.137 27.7486 19.1321C27.7486 19.1273 27.7486 19.1224 27.7486 19.1176C27.7486 19.1127 27.7486 19.1079 27.7486 19.103C27.7486 19.0981 27.7486 19.0933 27.7486 19.0884C27.7486 19.0835 27.7486 19.0787 27.7486 19.0738C27.7486 19.0689 27.7486 19.064 27.7486 19.0591C27.7486 19.0543 27.7486 19.0494 27.7486 19.0445C27.7486 19.0396 27.7486 19.0347 27.7486 19.0298C27.7486 19.0249 27.7486 19.02 27.7486 19.0151C27.7486 19.0102 27.7486 19.0052 27.7486 19.0003C27.7486 18.9954 27.7486 18.9905 27.7486 18.9856C27.7486 18.9806 27.7486 18.9757 27.7486 18.9708C27.7486 18.9658 27.7486 18.9609 27.7486 18.956C27.7486 18.951 27.7486 18.9461 27.7486 18.9411C27.7486 18.9362 27.7486 18.9312 27.7486 18.9263C27.7486 18.9213 27.7486 18.9163 27.7486 18.9114C27.7486 18.9064 27.7486 18.9014 27.7486 18.8965C27.7486 18.8915 27.7486 18.8865 27.7486 18.8815C27.7486 18.8766 27.7486 18.8716 27.7486 18.8666C27.7486 18.8616 27.7486 18.8566 27.7486 18.8516C27.7486 18.8466 27.7486 18.8416 27.7486 18.8366C27.7486 18.8316 27.7486 18.8266 27.7486 18.8216C27.7486 18.8166 27.7486 18.8116 27.7486 18.8066C27.7486 18.8015 27.7486 18.7965 27.7486 18.7915C27.7486 18.7865 27.7486 18.7814 27.7486 18.7764C27.7486 18.7714 27.7486 18.7663 27.7486 18.7613C27.7486 18.7563 27.7486 18.7512 27.7486 18.7462C27.7486 18.7411 27.7486 18.7361 27.7486 18.731C27.7486 18.726 27.7486 18.7209 27.7486 18.7159C27.7486 18.7108 27.7486 18.7057 27.7486 18.7007C27.7486 18.6956 27.7486 18.6905 27.7486 18.6855C27.7486 18.6804 27.7486 18.6753 27.7486 18.6702C27.7486 18.6652 27.7486 18.6601 27.7486 18.655C27.7486 18.6499 27.7486 18.6448 27.7486 18.6397C27.7486 18.6346 27.7486 18.6295 27.7486 18.6244C27.7486 18.6193 27.7486 18.6142 27.7486 18.6091C27.7486 18.604 27.7486 18.5989 27.7486 18.5938C27.7486 18.5887 27.7486 18.5835 27.7486 18.5784C27.7486 18.5733 27.7486 18.5682 27.7486 18.5631C27.7486 18.5579 27.7486 18.5528 27.7486 18.5477C27.7486 18.5425 27.7486 18.5374 27.7486 18.5323C27.7486 18.5271 27.7486 18.522 27.7486 18.5168C27.7486 18.5117 27.7486 18.5065 27.7486 18.5014C27.7486 18.4962 27.7486 18.4911 27.7486 18.4859C27.7486 18.4808 27.7486 18.4756 27.7486 18.4704C27.7486 18.4653 27.7486 18.4601 27.7486 18.4549C27.7486 18.4498 27.7486 18.4446 27.7486 18.4394C27.7486 18.4342 27.7486 18.4291 27.7486 18.4239C27.7486 18.4187 27.7486 18.4135 27.7486 18.4083C27.7486 18.4032 27.7486 18.398 27.7486 18.3928C27.7486 18.3876 27.7486 18.3824 27.7486 18.3772C27.7486 18.372 27.7486 18.3668 27.7486 18.3616C27.7486 18.3564 27.7486 18.3512 27.7486 18.346C27.7486 18.3407 27.7486 18.3355 27.7486 18.3303C27.7486 18.3251 27.7486 18.3199 27.7486 18.3147C27.7486 18.3094 27.7486 18.3042 27.7486 18.299C27.7486 18.2938 27.7486 18.2885 27.7486 18.2833C27.7486 18.2781 27.7486 18.2728 27.7486 18.2676C27.7486 18.2624 27.7486 18.2571 27.7486 18.2519C27.7486 18.2467 27.7486 18.2414 27.7486 18.2362C27.7486 18.2309 27.7486 18.2257 27.7486 18.2204C27.7486 18.2152 27.7486 18.2099 27.7486 18.2046C27.7486 18.1994 27.7486 18.1941 27.7486 18.1889C27.7486 18.1836 27.7486 18.1783 27.7486 18.1731C27.7486 18.1678 27.7486 18.1625 27.7486 18.1573C27.7486 18.152 27.7486 18.1467 27.7486 18.1414C27.7486 18.1362 27.7486 18.1309 27.7486 18.1256C27.7486 18.1203 27.7486 18.115 27.7486 18.1098C27.7486 18.1045 27.7486 18.0992 27.7486 18.0939C27.7486 18.0886 27.7486 18.0833 27.7486 18.078C27.7486 18.0727 27.7486 18.0674 27.7486 18.0621C27.7486 18.0568 27.7486 18.0515 27.7486 18.0462C27.7486 18.0409 27.7486 18.0356 27.7486 18.0303C27.7486 18.025 27.7486 18.0197 27.7486 18.0144C27.7486 18.0091 27.7486 18.0037 27.7486 17.9984C27.7486 17.9931 27.7486 17.9878 27.7486 17.9825C27.7486 17.9771 27.7486 17.9718 27.7486 17.9665C27.7486 17.9612 27.7486 17.9558 27.7486 17.9505C27.7486 17.9452 27.7486 17.9399 27.7486 17.9345C27.7486 17.9292 27.7486 17.9238 27.7486 17.9185C27.7486 17.9132 27.7486 17.9078 27.7486 17.9025C27.7486 17.8971 27.7486 17.8918 27.7486 17.8865C27.7486 17.8811 27.7486 17.8758 27.7486 17.8704C27.7486 17.8651 27.7486 17.8597 27.7486 17.8544C27.7486 17.849 27.7486 17.8437 27.7486 17.8383C27.7486 17.8329 27.7486 17.8276 27.7486 17.8222C27.7486 17.8169 27.7486 17.8115 27.7486 17.8061C27.7486 17.8008 27.7486 17.7954 27.7486 17.79C27.7486 17.7847 27.7486 17.7793 27.7486 17.7739C27.7486 17.7686 27.7486 17.7632 27.7486 17.7578C27.7486 17.7524 27.7486 17.7471 27.7486 17.7417C27.7486 17.7363 27.7486 17.7309 27.7486 17.7256C27.7486 17.7202 27.7486 17.7148 27.7486 17.7094C27.7486 17.704 27.7486 17.6986 27.7486 17.6932C27.7486 17.6879 27.7486 17.6825 27.7486 17.6771C27.7486 17.6717 27.7486 17.6663 27.7486 17.6609C27.7486 17.6555 27.7486 17.6501 27.7486 17.6447C27.7486 17.6393 27.7486 17.6339 27.7486 17.6285C27.7486 17.6231 27.7486 17.6177 27.7486 17.6123C27.7486 17.6069 27.7486 17.6015 27.7486 17.5961C27.7486 17.5907 27.7486 17.5853 27.7486 17.5799C27.7486 17.5745 27.7486 17.5691 27.7486 17.5637C27.7486 17.5583 27.7486 17.5528 27.7486 17.5474C27.7486 17.542 27.7486 17.5366 27.7486 17.5312C27.7486 17.5258 27.7486 17.5204 27.7486 17.5149C27.7486 17.5095 27.7486 17.5041 27.7486 17.4987C27.7486 17.4933 27.7486 17.4878 27.7486 17.4824C27.7486 17.477 27.7486 17.4716 27.7486 17.4661C27.7486 17.4607 27.7486 17.4553 27.7486 17.4499C27.7486 17.4444 27.7486 17.439 27.7486 17.4336C27.7486 17.4281 27.7486 17.4227 27.7486 17.4173C27.7486 17.4118 27.7486 17.4064 27.7486 17.401C27.7486 17.3955 27.7486 17.3901 27.7486 17.3847C27.7486 17.3792 27.7486 17.3738 27.7486 17.3684C27.7486 17.3629 27.7486 17.3575 27.7486 17.352C27.7486 17.3466 27.7486 17.3412 27.7486 17.3357C27.7486 17.3303 27.7486 17.3248 27.7486 17.3194C27.7486 17.3139 27.7486 17.3085 27.7486 17.3031C27.7486 17.2976 27.7486 17.2922 27.7486 17.2867C27.7486 17.2813 27.7486 17.2758 27.7486 17.2704C27.7486 17.2649 27.7486 17.2595 27.7486 17.254C27.7486 17.2486 27.7486 17.2431 27.7486 17.2377C27.7486 17.2322 27.7486 17.2268 27.7486 17.2213C27.7486 17.2159 27.7486 17.2104 27.7486 17.2049C27.7486 17.1995 27.7486 17.194 27.7486 17.1886C27.7486 17.1831 27.7486 17.1777 27.7486 17.1722C27.7486 17.1668 27.7486 17.1613 27.7486 17.1558C27.7486 17.1504 27.7486 17.1449 27.7486 17.1395C27.7486 17.134 27.7486 17.1285 27.7486 17.1231C27.7486 17.1176 27.7486 17.1121 27.7486 17.1067C27.7486 17.1012 27.7486 17.0958 27.7486 17.0903C27.7486 17.0848 27.7486 17.0794 27.7486 17.0739C27.7486 17.0684 27.7486 17.063 27.7486 17.0575C27.7486 17.052 27.7486 17.0466 27.7486 17.0411C27.7486 17.0356 27.7486 17.0302 27.7486 17.0247C27.7486 17.0192 27.7486 17.0138 27.7486 17.0083C27.7486 17.0028 27.7486 16.9974 27.7486 16.9919C27.7486 16.9864 27.7486 16.981 27.7486 16.9755C27.7486 16.97 27.7486 16.9646 27.7486 16.9591C27.7486 16.9536 27.7486 16.9482 27.7486 16.9427C27.7486 16.9372 27.7486 16.9317 27.7486 16.9263C27.7486 16.9208 27.7486 16.9153 27.7486 16.9099C27.7486 16.9044 27.7486 16.8989 27.7486 16.8935C27.7486 16.888 27.7486 16.8825 27.7486 16.877C27.7486 16.8716 27.7486 16.8661 27.7486 16.8606C27.7486 16.8552 27.7486 16.8497 27.7486 16.8442C27.7486 16.8387 27.7486 16.8333 27.7486 16.8278C27.7486 16.8223 27.7486 16.8169 27.7486 16.8114C27.7486 16.8059 27.7486 16.8004 27.7486 16.795C27.7486 16.7895 27.7486 16.784 27.7486 16.7786C27.7486 16.7731 27.7486 16.7676 27.7486 16.7621C27.7486 16.7567 27.7486 16.7512 27.7486 16.7457C27.7486 16.7403 27.7486 16.7348 27.7486 16.7293C27.7486 16.7238 27.7486 16.7184 27.7486 16.7129C27.7486 16.7074 27.7486 16.702 27.7486 16.6965C27.7486 16.691 27.7486 16.6856 27.7486 16.6801C27.7486 16.6746 27.7486 16.6691 27.7486 16.6637C27.7486 16.6582 27.7486 16.6527 27.7486 16.6473C27.7486 16.6418 27.7486 16.6363 27.7486 16.6309C27.7486 16.6254 27.7486 16.6199 27.7486 16.6145C27.7486 16.609 27.7486 16.6035 27.7486 16.5981C27.7486 16.5926 27.7486 16.5871 27.7486 16.5817C27.7486 16.5762 27.7486 16.5707 27.7486 16.5653C27.7486 16.5598 27.7486 16.5543 27.7486 16.5489C27.7486 16.5434 27.7486 16.5379 27.7486 16.5325C27.7486 16.527 27.7486 16.5216 27.7486 16.5161C27.7486 16.5106 27.7486 16.5052 27.7486 16.4997C27.7486 16.4943 27.7486 16.4888 27.7486 16.4833C27.7486 16.4779 27.7486 16.4724 27.7486 16.467C27.7486 16.4615 27.7486 16.456 27.7486 16.4506C27.7486 16.4451 27.7486 16.4397 27.7486 16.4342C27.7486 16.4288 27.7486 16.4233 27.7486 16.4178C27.7486 16.4124 27.7486 16.4069 27.7486 16.4015C27.7486 16.396 27.7486 16.3906 27.7486 16.3851C27.7486 16.3797 27.7486 16.3742 27.7486 16.3688C27.7486 16.3633 27.7486 16.3579 27.7486 16.3524C27.7486 16.347 27.7486 16.3415 27.7486 16.3361C27.7486 16.3306 27.7486 16.3252 27.7486 16.3197C27.7486 16.3143 27.7486 16.3089 27.7486 16.3034C27.7486 16.298 27.7486 16.2925 27.7486 16.2871C27.7486 16.2816 27.7486 16.2762 27.7486 16.2708C27.7486 16.2653 27.7486 16.2599 27.7486 16.2545C27.7486 16.249 27.7486 16.2436 27.7486 16.2381C27.7486 16.2327 27.7486 16.2273 27.7486 16.2218C27.7486 16.2164 27.7486 16.211 27.7486 16.2055C27.7486 16.2001 27.7486 16.1947 27.7486 16.1893C27.7486 16.1838 27.7486 16.1784 27.7486 16.173C27.7486 16.1675 27.7486 16.1621 27.7486 16.1567C27.7486 16.1513 27.7486 16.1458 27.7486 16.1404C27.7486 16.135 27.7486 16.1296 27.7486 16.1242C27.7486 16.1187 27.7486 16.1133 27.7486 16.1079C27.7486 16.1025 27.7486 16.0971 27.7486 16.0917C27.7486 16.0862 27.7486 16.0808 27.7486 16.0754C27.7486 16.07 27.7486 16.0646 27.7486 16.0592C27.7486 16.0538 27.7486 16.0484 27.7486 16.043C27.7486 16.0376 27.7486 16.0322 27.7486 16.0268C27.7486 16.0213 27.7486 16.0159 27.7486 16.0105C27.7486 16.0051 27.7486 15.9997 27.7486 15.9943C27.7486 15.989 27.7486 15.9836 27.7486 15.9782C27.7486 15.9728 27.7486 15.9674 27.7486 15.962C27.7486 15.9566 27.7486 15.9512 27.7486 15.9458C27.7486 15.9404 27.7486 15.935 27.7486 15.9296C27.7486 15.9243 27.7486 15.9189 27.7486 15.9135C27.7486 15.9081 27.7486 15.9027 27.7486 15.8974C27.7486 15.892 27.7486 15.8866 27.7486 15.8812C27.7486 15.8758 27.7486 15.8705 27.7486 15.8651C27.7486 15.8597 27.7486 15.8544 27.7486 15.849C27.7486 15.8436 27.7486 15.8382 27.7486 15.8329C27.7486 15.8275 27.7486 15.8222 27.7486 15.8168C27.7486 15.8114 27.7486 15.8061 27.7486 15.8007C27.7486 15.7953 27.7486 15.79 27.7486 15.7846C27.7486 15.7793 27.7486 15.7739 27.7486 15.7686C27.7486 15.7632 27.7486 15.7579 27.7486 15.7525C27.7486 15.7472 27.7486 15.7418 27.7486 15.7365C27.7486 15.7312 27.7486 15.7258 27.7486 15.7205C27.7486 15.7151 27.7486 15.7098 27.7486 15.7045C27.7486 15.6991 27.7486 15.6938 27.7486 15.6885C27.7486 15.6831 27.7486 15.6778 27.7486 15.6725C27.7486 15.6671 27.7486 15.6618 27.7486 15.6565C27.7486 15.6512 27.7486 15.6458 27.7486 15.6405C27.7486 15.6352 27.7486 15.6299 27.7486 15.6246C27.7486 15.6193 27.7486 15.6139 27.7486 15.6086C27.7486 15.6033 27.7486 15.598 27.7486 15.5927C27.7486 15.5874 27.7486 15.5821 27.7486 15.5768C27.7486 15.5715 27.7486 15.5662 27.7486 15.5609C27.7486 15.5556 27.7486 15.5503 27.7486 15.545C27.7486 15.5397 27.7486 15.5344 27.7486 15.5291C27.7486 15.5239 27.7486 15.5186 27.7486 15.5133C27.7486 15.508 27.7486 15.5027 27.7486 15.4974C27.7486 15.4922 27.7486 15.4869 27.7486 15.4816C27.7486 15.4763 27.7486 15.4711 27.7486 15.4658C27.7486 15.4605 27.7486 15.4553 27.7486 15.45C27.7486 15.4447 27.7486 15.4395 27.7486 15.4342C27.7486 15.4289 27.7486 15.4237 27.7486 15.4184C27.7486 15.4132 27.7486 15.4079 27.7486 15.4027C27.7486 15.3974 27.7486 15.3922 27.7486 15.3869C27.7486 15.3817 27.7486 15.3765 27.7486 15.3712C27.7486 15.366 27.7486 15.3607 27.7486 15.3555C27.7486 15.3503 27.7486 15.345 27.7486 15.3398C27.7486 15.3346 27.7486 15.3294 27.7486 15.3241C27.7486 15.3189 27.7486 15.3137 27.7486 15.3085C27.7486 15.3033 27.7486 15.298 27.7486 15.2928C27.7486 15.2876 27.7486 15.2824 27.7486 15.2772C27.7486 15.272 27.7486 15.2668 27.7486 15.2616C27.7486 15.2564 27.7486 15.2512 27.7486 15.246C27.7486 15.2408 27.7486 15.2356 27.7486 15.2304C27.7486 15.2252 27.7486 15.22 27.7486 15.2149C27.7486 15.2097 27.7486 15.2045 27.7486 15.1993C27.7486 15.1941 27.7486 15.189 27.7486 15.1838C27.7486 15.1786 27.7486 15.1734 27.7486 15.1683C27.7486 15.1631 27.7486 15.1579 27.7486 15.1528C27.7486 15.1476 27.7486 15.1425 27.7486 15.1373C27.7486 15.1322 27.7486 15.127 27.7486 15.1219C27.7486 15.1167 27.7486 15.1116 27.7486 15.1064C27.7486 15.1013 27.7486 15.0961 27.7486 15.091C27.7486 15.0859 27.7486 15.0807 27.7486 15.0756C27.7486 15.0705 27.7486 15.0653 27.7486 15.0602C27.7486 15.0551 27.7486 15.05 27.7486 15.0449C27.7486 15.0397 27.7486 15.0346 27.7486 15.0295C27.7486 15.0244 27.7486 15.0193 27.7486 15.0142C27.7486 15.0091 27.7486 15.004 27.7486 14.9989C27.7486 14.9938 27.7486 14.9887 27.7486 14.9836C27.7486 14.9785 27.7486 14.9734 27.7486 14.9683C27.7486 14.9632 27.7486 14.9581 27.7486 14.9531C27.7486 14.948 27.7486 14.9429 27.7486 14.9378C27.7486 14.9328 27.7486 14.9277 27.7486 14.9226C27.7486 14.9176 27.7486 14.9125 27.7486 14.9075C27.7486 14.9024 27.7486 14.8974 27.7486 14.8923C27.7486 14.8873 27.7486 14.8822 27.7486 14.8772H25.4486C25.4486 14.8822 25.4486 14.8873 25.4486 14.8923C25.4486 14.8974 25.4486 14.9024 25.4486 14.9075C25.4486 14.9125 25.4486 14.9176 25.4486 14.9226C25.4486 14.9277 25.4486 14.9328 25.4486 14.9378C25.4486 14.9429 25.4486 14.948 25.4486 14.9531C25.4486 14.9581 25.4486 14.9632 25.4486 14.9683C25.4486 14.9734 25.4486 14.9785 25.4486 14.9836C25.4486 14.9887 25.4486 14.9938 25.4486 14.9989C25.4486 15.004 25.4486 15.0091 25.4486 15.0142C25.4486 15.0193 25.4486 15.0244 25.4486 15.0295C25.4486 15.0346 25.4486 15.0397 25.4486 15.0449C25.4486 15.05 25.4486 15.0551 25.4486 15.0602C25.4486 15.0653 25.4486 15.0705 25.4486 15.0756C25.4486 15.0807 25.4486 15.0859 25.4486 15.091C25.4486 15.0961 25.4486 15.1013 25.4486 15.1064C25.4486 15.1116 25.4486 15.1167 25.4486 15.1219C25.4486 15.127 25.4486 15.1322 25.4486 15.1373C25.4486 15.1425 25.4486 15.1476 25.4486 15.1528C25.4486 15.1579 25.4486 15.1631 25.4486 15.1683C25.4486 15.1734 25.4486 15.1786 25.4486 15.1838C25.4486 15.189 25.4486 15.1941 25.4486 15.1993C25.4486 15.2045 25.4486 15.2097 25.4486 15.2149C25.4486 15.22 25.4486 15.2252 25.4486 15.2304C25.4486 15.2356 25.4486 15.2408 25.4486 15.246C25.4486 15.2512 25.4486 15.2564 25.4486 15.2616C25.4486 15.2668 25.4486 15.272 25.4486 15.2772C25.4486 15.2824 25.4486 15.2876 25.4486 15.2928C25.4486 15.298 25.4486 15.3033 25.4486 15.3085C25.4486 15.3137 25.4486 15.3189 25.4486 15.3241C25.4486 15.3294 25.4486 15.3346 25.4486 15.3398C25.4486 15.345 25.4486 15.3503 25.4486 15.3555C25.4486 15.3607 25.4486 15.366 25.4486 15.3712C25.4486 15.3765 25.4486 15.3817 25.4486 15.3869C25.4486 15.3922 25.4486 15.3974 25.4486 15.4027C25.4486 15.4079 25.4486 15.4132 25.4486 15.4184C25.4486 15.4237 25.4486 15.4289 25.4486 15.4342C25.4486 15.4395 25.4486 15.4447 25.4486 15.45C25.4486 15.4553 25.4486 15.4605 25.4486 15.4658C25.4486 15.4711 25.4486 15.4763 25.4486 15.4816C25.4486 15.4869 25.4486 15.4922 25.4486 15.4974C25.4486 15.5027 25.4486 15.508 25.4486 15.5133C25.4486 15.5186 25.4486 15.5239 25.4486 15.5291C25.4486 15.5344 25.4486 15.5397 25.4486 15.545C25.4486 15.5503 25.4486 15.5556 25.4486 15.5609C25.4486 15.5662 25.4486 15.5715 25.4486 15.5768C25.4486 15.5821 25.4486 15.5874 25.4486 15.5927C25.4486 15.598 25.4486 15.6033 25.4486 15.6086C25.4486 15.6139 25.4486 15.6193 25.4486 15.6246C25.4486 15.6299 25.4486 15.6352 25.4486 15.6405C25.4486 15.6458 25.4486 15.6512 25.4486 15.6565C25.4486 15.6618 25.4486 15.6671 25.4486 15.6725C25.4486 15.6778 25.4486 15.6831 25.4486 15.6885C25.4486 15.6938 25.4486 15.6991 25.4486 15.7045C25.4486 15.7098 25.4486 15.7151 25.4486 15.7205C25.4486 15.7258 25.4486 15.7312 25.4486 15.7365C25.4486 15.7418 25.4486 15.7472 25.4486 15.7525C25.4486 15.7579 25.4486 15.7632 25.4486 15.7686C25.4486 15.7739 25.4486 15.7793 25.4486 15.7846C25.4486 15.79 25.4486 15.7953 25.4486 15.8007C25.4486 15.8061 25.4486 15.8114 25.4486 15.8168C25.4486 15.8222 25.4486 15.8275 25.4486 15.8329C25.4486 15.8382 25.4486 15.8436 25.4486 15.849C25.4486 15.8544 25.4486 15.8597 25.4486 15.8651C25.4486 15.8705 25.4486 15.8758 25.4486 15.8812C25.4486 15.8866 25.4486 15.892 25.4486 15.8974C25.4486 15.9027 25.4486 15.9081 25.4486 15.9135C25.4486 15.9189 25.4486 15.9243 25.4486 15.9296C25.4486 15.935 25.4486 15.9404 25.4486 15.9458C25.4486 15.9512 25.4486 15.9566 25.4486 15.962C25.4486 15.9674 25.4486 15.9728 25.4486 15.9782C25.4486 15.9836 25.4486 15.989 25.4486 15.9943C25.4486 15.9997 25.4486 16.0051 25.4486 16.0105C25.4486 16.0159 25.4486 16.0213 25.4486 16.0268C25.4486 16.0322 25.4486 16.0376 25.4486 16.043C25.4486 16.0484 25.4486 16.0538 25.4486 16.0592C25.4486 16.0646 25.4486 16.07 25.4486 16.0754C25.4486 16.0808 25.4486 16.0862 25.4486 16.0917C25.4486 16.0971 25.4486 16.1025 25.4486 16.1079C25.4486 16.1133 25.4486 16.1187 25.4486 16.1242C25.4486 16.1296 25.4486 16.135 25.4486 16.1404C25.4486 16.1458 25.4486 16.1513 25.4486 16.1567C25.4486 16.1621 25.4486 16.1675 25.4486 16.173C25.4486 16.1784 25.4486 16.1838 25.4486 16.1893C25.4486 16.1947 25.4486 16.2001 25.4486 16.2055C25.4486 16.211 25.4486 16.2164 25.4486 16.2218C25.4486 16.2273 25.4486 16.2327 25.4486 16.2381C25.4486 16.2436 25.4486 16.249 25.4486 16.2545C25.4486 16.2599 25.4486 16.2653 25.4486 16.2708C25.4486 16.2762 25.4486 16.2816 25.4486 16.2871C25.4486 16.2925 25.4486 16.298 25.4486 16.3034C25.4486 16.3089 25.4486 16.3143 25.4486 16.3197C25.4486 16.3252 25.4486 16.3306 25.4486 16.3361C25.4486 16.3415 25.4486 16.347 25.4486 16.3524C25.4486 16.3579 25.4486 16.3633 25.4486 16.3688C25.4486 16.3742 25.4486 16.3797 25.4486 16.3851C25.4486 16.3906 25.4486 16.396 25.4486 16.4015C25.4486 16.4069 25.4486 16.4124 25.4486 16.4178C25.4486 16.4233 25.4486 16.4288 25.4486 16.4342C25.4486 16.4397 25.4486 16.4451 25.4486 16.4506C25.4486 16.456 25.4486 16.4615 25.4486 16.467C25.4486 16.4724 25.4486 16.4779 25.4486 16.4833C25.4486 16.4888 25.4486 16.4943 25.4486 16.4997C25.4486 16.5052 25.4486 16.5106 25.4486 16.5161C25.4486 16.5216 25.4486 16.527 25.4486 16.5325C25.4486 16.5379 25.4486 16.5434 25.4486 16.5489C25.4486 16.5543 25.4486 16.5598 25.4486 16.5653C25.4486 16.5707 25.4486 16.5762 25.4486 16.5817C25.4486 16.5871 25.4486 16.5926 25.4486 16.5981C25.4486 16.6035 25.4486 16.609 25.4486 16.6145C25.4486 16.6199 25.4486 16.6254 25.4486 16.6309C25.4486 16.6363 25.4486 16.6418 25.4486 16.6473C25.4486 16.6527 25.4486 16.6582 25.4486 16.6637C25.4486 16.6691 25.4486 16.6746 25.4486 16.6801C25.4486 16.6856 25.4486 16.691 25.4486 16.6965C25.4486 16.702 25.4486 16.7074 25.4486 16.7129C25.4486 16.7184 25.4486 16.7238 25.4486 16.7293C25.4486 16.7348 25.4486 16.7403 25.4486 16.7457C25.4486 16.7512 25.4486 16.7567 25.4486 16.7621C25.4486 16.7676 25.4486 16.7731 25.4486 16.7786C25.4486 16.784 25.4486 16.7895 25.4486 16.795C25.4486 16.8004 25.4486 16.8059 25.4486 16.8114C25.4486 16.8169 25.4486 16.8223 25.4486 16.8278C25.4486 16.8333 25.4486 16.8387 25.4486 16.8442C25.4486 16.8497 25.4486 16.8552 25.4486 16.8606C25.4486 16.8661 25.4486 16.8716 25.4486 16.877C25.4486 16.8825 25.4486 16.888 25.4486 16.8935C25.4486 16.8989 25.4486 16.9044 25.4486 16.9099C25.4486 16.9153 25.4486 16.9208 25.4486 16.9263C25.4486 16.9317 25.4486 16.9372 25.4486 16.9427C25.4486 16.9482 25.4486 16.9536 25.4486 16.9591C25.4486 16.9646 25.4486 16.97 25.4486 16.9755C25.4486 16.981 25.4486 16.9864 25.4486 16.9919C25.4486 16.9974 25.4486 17.0028 25.4486 17.0083C25.4486 17.0138 25.4486 17.0192 25.4486 17.0247C25.4486 17.0302 25.4486 17.0356 25.4486 17.0411C25.4486 17.0466 25.4486 17.052 25.4486 17.0575C25.4486 17.063 25.4486 17.0684 25.4486 17.0739C25.4486 17.0794 25.4486 17.0848 25.4486 17.0903C25.4486 17.0958 25.4486 17.1012 25.4486 17.1067C25.4486 17.1121 25.4486 17.1176 25.4486 17.1231C25.4486 17.1285 25.4486 17.134 25.4486 17.1395C25.4486 17.1449 25.4486 17.1504 25.4486 17.1558C25.4486 17.1613 25.4486 17.1668 25.4486 17.1722C25.4486 17.1777 25.4486 17.1831 25.4486 17.1886C25.4486 17.194 25.4486 17.1995 25.4486 17.2049C25.4486 17.2104 25.4486 17.2159 25.4486 17.2213C25.4486 17.2268 25.4486 17.2322 25.4486 17.2377C25.4486 17.2431 25.4486 17.2486 25.4486 17.254C25.4486 17.2595 25.4486 17.2649 25.4486 17.2704C25.4486 17.2758 25.4486 17.2813 25.4486 17.2867C25.4486 17.2922 25.4486 17.2976 25.4486 17.3031C25.4486 17.3085 25.4486 17.3139 25.4486 17.3194C25.4486 17.3248 25.4486 17.3303 25.4486 17.3357C25.4486 17.3412 25.4486 17.3466 25.4486 17.352C25.4486 17.3575 25.4486 17.3629 25.4486 17.3684C25.4486 17.3738 25.4486 17.3792 25.4486 17.3847C25.4486 17.3901 25.4486 17.3955 25.4486 17.401C25.4486 17.4064 25.4486 17.4118 25.4486 17.4173C25.4486 17.4227 25.4486 17.4281 25.4486 17.4336C25.4486 17.439 25.4486 17.4444 25.4486 17.4499C25.4486 17.4553 25.4486 17.4607 25.4486 17.4661C25.4486 17.4716 25.4486 17.477 25.4486 17.4824C25.4486 17.4878 25.4486 17.4933 25.4486 17.4987C25.4486 17.5041 25.4486 17.5095 25.4486 17.5149C25.4486 17.5204 25.4486 17.5258 25.4486 17.5312C25.4486 17.5366 25.4486 17.542 25.4486 17.5474C25.4486 17.5528 25.4486 17.5583 25.4486 17.5637C25.4486 17.5691 25.4486 17.5745 25.4486 17.5799C25.4486 17.5853 25.4486 17.5907 25.4486 17.5961C25.4486 17.6015 25.4486 17.6069 25.4486 17.6123C25.4486 17.6177 25.4486 17.6231 25.4486 17.6285C25.4486 17.6339 25.4486 17.6393 25.4486 17.6447C25.4486 17.6501 25.4486 17.6555 25.4486 17.6609C25.4486 17.6663 25.4486 17.6717 25.4486 17.6771C25.4486 17.6825 25.4486 17.6879 25.4486 17.6932C25.4486 17.6986 25.4486 17.704 25.4486 17.7094C25.4486 17.7148 25.4486 17.7202 25.4486 17.7256C25.4486 17.7309 25.4486 17.7363 25.4486 17.7417C25.4486 17.7471 25.4486 17.7524 25.4486 17.7578C25.4486 17.7632 25.4486 17.7686 25.4486 17.7739C25.4486 17.7793 25.4486 17.7847 25.4486 17.79C25.4486 17.7954 25.4486 17.8008 25.4486 17.8061C25.4486 17.8115 25.4486 17.8169 25.4486 17.8222C25.4486 17.8276 25.4486 17.8329 25.4486 17.8383C25.4486 17.8437 25.4486 17.849 25.4486 17.8544C25.4486 17.8597 25.4486 17.8651 25.4486 17.8704C25.4486 17.8758 25.4486 17.8811 25.4486 17.8865C25.4486 17.8918 25.4486 17.8971 25.4486 17.9025C25.4486 17.9078 25.4486 17.9132 25.4486 17.9185C25.4486 17.9238 25.4486 17.9292 25.4486 17.9345C25.4486 17.9399 25.4486 17.9452 25.4486 17.9505C25.4486 17.9558 25.4486 17.9612 25.4486 17.9665C25.4486 17.9718 25.4486 17.9771 25.4486 17.9825C25.4486 17.9878 25.4486 17.9931 25.4486 17.9984C25.4486 18.0037 25.4486 18.0091 25.4486 18.0144C25.4486 18.0197 25.4486 18.025 25.4486 18.0303C25.4486 18.0356 25.4486 18.0409 25.4486 18.0462C25.4486 18.0515 25.4486 18.0568 25.4486 18.0621C25.4486 18.0674 25.4486 18.0727 25.4486 18.078C25.4486 18.0833 25.4486 18.0886 25.4486 18.0939C25.4486 18.0992 25.4486 18.1045 25.4486 18.1098C25.4486 18.115 25.4486 18.1203 25.4486 18.1256C25.4486 18.1309 25.4486 18.1362 25.4486 18.1414C25.4486 18.1467 25.4486 18.152 25.4486 18.1573C25.4486 18.1625 25.4486 18.1678 25.4486 18.1731C25.4486 18.1783 25.4486 18.1836 25.4486 18.1889C25.4486 18.1941 25.4486 18.1994 25.4486 18.2046C25.4486 18.2099 25.4486 18.2152 25.4486 18.2204C25.4486 18.2257 25.4486 18.2309 25.4486 18.2362C25.4486 18.2414 25.4486 18.2467 25.4486 18.2519C25.4486 18.2571 25.4486 18.2624 25.4486 18.2676C25.4486 18.2728 25.4486 18.2781 25.4486 18.2833C25.4486 18.2885 25.4486 18.2938 25.4486 18.299C25.4486 18.3042 25.4486 18.3094 25.4486 18.3147C25.4486 18.3199 25.4486 18.3251 25.4486 18.3303C25.4486 18.3355 25.4486 18.3407 25.4486 18.346C25.4486 18.3512 25.4486 18.3564 25.4486 18.3616C25.4486 18.3668 25.4486 18.372 25.4486 18.3772C25.4486 18.3824 25.4486 18.3876 25.4486 18.3928C25.4486 18.398 25.4486 18.4032 25.4486 18.4083C25.4486 18.4135 25.4486 18.4187 25.4486 18.4239C25.4486 18.4291 25.4486 18.4342 25.4486 18.4394C25.4486 18.4446 25.4486 18.4498 25.4486 18.4549C25.4486 18.4601 25.4486 18.4653 25.4486 18.4704C25.4486 18.4756 25.4486 18.4808 25.4486 18.4859C25.4486 18.4911 25.4486 18.4962 25.4486 18.5014C25.4486 18.5065 25.4486 18.5117 25.4486 18.5168C25.4486 18.522 25.4486 18.5271 25.4486 18.5323C25.4486 18.5374 25.4486 18.5425 25.4486 18.5477C25.4486 18.5528 25.4486 18.5579 25.4486 18.5631C25.4486 18.5682 25.4486 18.5733 25.4486 18.5784C25.4486 18.5835 25.4486 18.5887 25.4486 18.5938C25.4486 18.5989 25.4486 18.604 25.4486 18.6091C25.4486 18.6142 25.4486 18.6193 25.4486 18.6244C25.4486 18.6295 25.4486 18.6346 25.4486 18.6397C25.4486 18.6448 25.4486 18.6499 25.4486 18.655C25.4486 18.6601 25.4486 18.6652 25.4486 18.6702C25.4486 18.6753 25.4486 18.6804 25.4486 18.6855C25.4486 18.6905 25.4486 18.6956 25.4486 18.7007C25.4486 18.7057 25.4486 18.7108 25.4486 18.7159C25.4486 18.7209 25.4486 18.726 25.4486 18.731C25.4486 18.7361 25.4486 18.7411 25.4486 18.7462C25.4486 18.7512 25.4486 18.7563 25.4486 18.7613C25.4486 18.7663 25.4486 18.7714 25.4486 18.7764C25.4486 18.7814 25.4486 18.7865 25.4486 18.7915C25.4486 18.7965 25.4486 18.8015 25.4486 18.8066C25.4486 18.8116 25.4486 18.8166 25.4486 18.8216C25.4486 18.8266 25.4486 18.8316 25.4486 18.8366C25.4486 18.8416 25.4486 18.8466 25.4486 18.8516C25.4486 18.8566 25.4486 18.8616 25.4486 18.8666C25.4486 18.8716 25.4486 18.8766 25.4486 18.8815C25.4486 18.8865 25.4486 18.8915 25.4486 18.8965C25.4486 18.9014 25.4486 18.9064 25.4486 18.9114C25.4486 18.9163 25.4486 18.9213 25.4486 18.9263C25.4486 18.9312 25.4486 18.9362 25.4486 18.9411C25.4486 18.9461 25.4486 18.951 25.4486 18.956C25.4486 18.9609 25.4486 18.9658 25.4486 18.9708C25.4486 18.9757 25.4486 18.9806 25.4486 18.9856C25.4486 18.9905 25.4486 18.9954 25.4486 19.0003C25.4486 19.0052 25.4486 19.0102 25.4486 19.0151C25.4486 19.02 25.4486 19.0249 25.4486 19.0298C25.4486 19.0347 25.4486 19.0396 25.4486 19.0445C25.4486 19.0494 25.4486 19.0543 25.4486 19.0591C25.4486 19.064 25.4486 19.0689 25.4486 19.0738C25.4486 19.0787 25.4486 19.0835 25.4486 19.0884C25.4486 19.0933 25.4486 19.0981 25.4486 19.103C25.4486 19.1079 25.4486 19.1127 25.4486 19.1176C25.4486 19.1224 25.4486 19.1273 25.4486 19.1321C25.4486 19.137 25.4486 19.1418 25.4486 19.1466C25.4486 19.1515 25.4486 19.1563 25.4486 19.1611C25.4486 19.1659 25.4486 19.1708 25.4486 19.1756C25.4486 19.1804 25.4486 19.1852 25.4486 19.19C25.4486 19.1948 25.4486 19.1996 25.4486 19.2044C25.4486 19.2092 25.4486 19.214 25.4486 19.2188C25.4486 19.2236 25.4486 19.2284 25.4486 19.2332C25.4486 19.238 25.4486 19.2427 25.4486 19.2475C25.4486 19.2523 25.4486 19.257 25.4486 19.2618C25.4486 19.2666 25.4486 19.2713 25.4486 19.2761C25.4486 19.2808 25.4486 19.2856 25.4486 19.2903C25.4486 19.2951 25.4486 19.2998 25.4486 19.3046C25.4486 19.3093 25.4486 19.314 25.4486 19.3188C25.4486 19.3235 25.4486 19.3282 25.4486 19.3329C25.4486 19.3376 25.4486 19.3424 25.4486 19.3471C25.4486 19.3518 25.4486 19.3565 25.4486 19.3612C25.4486 19.3659 25.4486 19.3706 25.4486 19.3753C25.4486 19.3799 25.4486 19.3846 25.4486 19.3893C25.4486 19.394 25.4486 19.3987 25.4486 19.4033C25.4486 19.408 25.4486 19.4127 25.4486 19.4173C25.4486 19.422 25.4486 19.4266 25.4486 19.4313C25.4486 19.4359 25.4486 19.4406 25.4486 19.4452C25.4486 19.4499 25.4486 19.4545 25.4486 19.4591C25.4486 19.4638 25.4486 19.4684 25.4486 19.473C25.4486 19.4776 25.4486 19.4822 25.4486 19.4869C25.4486 19.4915 25.4486 19.4961 25.4486 19.5007C25.4486 19.5053 25.4486 19.5099 25.4486 19.5145C25.4486 19.519 25.4486 19.5236 25.4486 19.5282C25.4486 19.5328 25.4486 19.5374 25.4486 19.5419C25.4486 19.5465 25.4486 19.5511 25.4486 19.5556C25.4486 19.5602 25.4486 19.5648 25.4486 19.5693C25.4486 19.5738 25.4486 19.5784 25.4486 19.5829C25.4486 19.5875 25.4486 19.592 25.4486 19.5965C25.4486 19.6011 25.4486 19.6056 25.4486 19.6101C25.4486 19.6146 25.4486 19.6191 25.4486 19.6236C25.4486 19.6281 25.4486 19.6327 25.4486 19.6371C25.4486 19.6416 25.4486 19.6461 25.4486 19.6506C25.4486 19.6551 25.4486 19.6596 25.4486 19.6641C25.4486 19.6685 25.4486 19.673 25.4486 19.6775C25.4486 19.6819 25.4486 19.6864 25.4486 19.6909C25.4486 19.6953 25.4486 19.6998 25.4486 19.7042C25.4486 19.7086 25.4486 19.7131 25.4486 19.7175C25.4486 19.7219 25.4486 19.7264 25.4486 19.7308C25.4486 19.7352 25.4486 19.7396 25.4486 19.744C25.4486 19.7484 25.4486 19.7528 25.4486 19.7572C25.4486 19.7616 25.4486 19.766 25.4486 19.7704C25.4486 19.7748 25.4486 19.7792 25.4486 19.7836C25.4486 19.7879 25.4486 19.7923 25.4486 19.7967C25.4486 19.801 25.4486 19.8054 25.4486 19.8098C25.4486 19.8141 25.4486 19.8185 25.4486 19.8228C25.4486 19.8271 25.4486 19.8315 25.4486 19.8358C25.4486 19.8401 25.4486 19.8445 25.4486 19.8488C25.4486 19.8531 25.4486 19.8574 25.4486 19.8617C25.4486 19.866 25.4486 19.8703 25.4486 19.8746C25.4486 19.8789 25.4486 19.8832 25.4486 19.8875C25.4486 19.8918 25.4486 19.8961 25.4486 19.9003C25.4486 19.9046 25.4486 19.9089 25.4486 19.9131C25.4486 19.9174 25.4486 19.9216 25.4486 19.9259C25.4486 19.9301 25.4486 19.9344 25.4486 19.9386C25.4486 19.9428 25.4486 19.9471 25.4486 19.9513C25.4486 19.9555 25.4486 19.9597 25.4486 19.964C25.4486 19.9682 25.4486 19.9724 25.4486 19.9766C25.4486 19.9808 25.4486 19.985 25.4486 19.9892C25.4486 19.9933 25.4486 19.9975 25.4486 20.0017C25.4486 20.0059 25.4486 20.01 25.4486 20.0142C25.4486 20.0184 25.4486 20.0225 25.4486 20.0267C25.4486 20.0308 25.4486 20.035 25.4486 20.0391C25.4486 20.0432 25.4486 20.0474 25.4486 20.0515C25.4486 20.0556 25.4486 20.0598 25.4486 20.0639C25.4486 20.068 25.4486 20.0721 25.4486 20.0762C25.4486 20.0803 25.4486 20.0844 25.4486 20.0885C25.4486 20.0926 25.4486 20.0966 25.4486 20.1007C25.4486 20.1048 25.4486 20.1089 25.4486 20.1129C25.4486 20.117 25.4486 20.121 25.4486 20.1251C25.4486 20.1291 25.4486 20.1332 25.4486 20.1372C25.4486 20.1413 25.4486 20.1453 25.4486 20.1493C25.4486 20.1533 25.4486 20.1573 25.4486 20.1614C25.4486 20.1654 25.4486 20.1694 25.4486 20.1734C25.4486 20.1774 25.4486 20.1814 25.4486 20.1853C25.4486 20.1893 25.4486 20.1933 25.4486 20.1973C25.4486 20.2012 25.4486 20.2052 25.4486 20.2092C25.4486 20.2131 25.4486 20.2171 25.4486 20.221C25.4486 20.225 25.4486 20.2289 25.4486 20.2328C25.4486 20.2368 25.4486 20.2407 25.4486 20.2446C25.4486 20.2485 25.4486 20.2524 25.4486 20.2563C25.4486 20.2602 25.4486 20.2641 25.4486 20.268C25.4486 20.2719 25.4486 20.2758 25.4486 20.2797C25.4486 20.2836 25.4486 20.2874 25.4486 20.2913C25.4486 20.2952 25.4486 20.299 25.4486 20.3029C25.4486 20.3067 25.4486 20.3106 25.4486 20.3144C25.4486 20.3182 25.4486 20.3221 25.4486 20.3259C25.4486 20.3297 25.4486 20.3335 25.4486 20.3373C25.4486 20.3411 25.4486 20.3449 25.4486 20.3487C25.4486 20.3525 25.4486 20.3563 25.4486 20.3601C25.4486 20.3639 25.4486 20.3676 25.4486 20.3714C25.4486 20.3752 25.4486 20.3789 25.4486 20.3827C25.4486 20.3864 25.4486 20.3902 25.4486 20.3939C25.4486 20.3977 25.4486 20.4014 25.4486 20.4051C25.4486 20.4088 25.4486 20.4125 25.4486 20.4163C25.4486 20.42 25.4486 20.4237 25.4486 20.4274C25.4486 20.4311 25.4486 20.4347 25.4486 20.4384C25.4486 20.4421 25.4486 20.4458 25.4486 20.4494C25.4486 20.4531 25.4486 20.4568 25.4486 20.4604C25.4486 20.4641 25.4486 20.4677 25.4486 20.4713C25.4486 20.475 25.4486 20.4786 25.4486 20.4822C25.4486 20.4859 25.4486 20.4895 25.4486 20.4931C25.4486 20.4967 25.4486 20.5003 25.4486 20.5039C25.4486 20.5075 25.4486 20.5111 25.4486 20.5146C25.4486 20.5182 25.4486 20.5218 25.4486 20.5253C25.4486 20.5289 25.4486 20.5325 25.4486 20.536C25.4486 20.5396 25.4486 20.5431 25.4486 20.5466C25.4486 20.5502 25.4486 20.5537 25.4486 20.5572C25.4486 20.5607 25.4486 20.5642 25.4486 20.5677C25.4486 20.5712 25.4486 20.5747 25.4486 20.5782C25.4486 20.5817 25.4486 20.5852 25.4486 20.5887C25.4486 20.5921 25.4486 20.5956 25.4486 20.5991C25.4486 20.6025 25.4486 20.606 25.4486 20.6094C25.4486 20.6128 25.4486 20.6163 25.4486 20.6197C25.4486 20.6231 25.4486 20.6265 25.4486 20.63C25.4486 20.6334 25.4486 20.6368 25.4486 20.6402C25.4486 20.6436 25.4486 20.6469 25.4486 20.6503C25.4486 20.6537 25.4486 20.6571 25.4486 20.6604C25.4486 20.6638 25.4486 20.6672 25.4486 20.6705C25.4486 20.6739 25.4486 20.6772 25.4486 20.6805C25.4486 20.6839 25.4486 20.6872 25.4486 20.6905C25.4486 20.6938 25.4486 20.6971 25.4486 20.7004C25.4486 20.7037 25.4486 20.707 25.4486 20.7103C25.4486 20.7136 25.4486 20.7169 25.4486 20.7201C25.4486 20.7234 25.4486 20.7267 25.4486 20.7299C25.4486 20.7332 25.4486 20.7364 25.4486 20.7396C25.4486 20.7429 25.4486 20.7461 25.4486 20.7493C25.4486 20.7526 25.4486 20.7558 25.4486 20.759C25.4486 20.7622 25.4486 20.7654 25.4486 20.7686C25.4486 20.7717 25.4486 20.7749 25.4486 20.7781C25.4486 20.7813 25.4486 20.7844 25.4486 20.7876C25.4486 20.7907 25.4486 20.7939 25.4486 20.797C25.4486 20.8002 25.4486 20.8033 25.4486 20.8064C25.4486 20.8095 25.4486 20.8126 25.4486 20.8158C25.4486 20.8189 25.4486 20.822 25.4486 20.825C25.4486 20.8281 25.4486 20.8312 25.4486 20.8343C25.4486 20.8374 25.4486 20.8404 25.4486 20.8435C25.4486 20.8465 25.4486 20.8496 25.4486 20.8526C25.4486 20.8557 25.4486 20.8587 25.4486 20.8617C25.4486 20.8647 25.4486 20.8677 25.4486 20.8707C25.4486 20.8737 25.4486 20.8767 25.4486 20.8797C25.4486 20.8827 25.4486 20.8857 25.4486 20.8887C25.4486 20.8916 25.4486 20.8946 25.4486 20.8976C25.4486 20.9005 25.4486 20.9035 25.4486 20.9064C25.4486 20.9093 25.4486 20.9122 25.4486 20.9152C25.4486 20.9181 25.4486 20.921 25.4486 20.9239C25.4486 20.9268 25.4486 20.9297 25.4486 20.9326C25.4486 20.9355 25.4486 20.9383 25.4486 20.9412C25.4486 20.9441 25.4486 20.9469 25.4486 20.9498C25.4486 20.9526 25.4486 20.9555 25.4486 20.9583C25.4486 20.9611 25.4486 20.964 25.4486 20.9668C25.4486 20.9696 25.4486 20.9724 25.4486 20.9752C25.4486 20.978 25.4486 20.9808 25.4486 20.9835C25.4486 20.9863 25.4486 20.9891 25.4486 20.9919C25.4486 20.9946 25.4486 20.9974 25.4486 21.0001C25.4486 21.0029 25.4486 21.0056 25.4486 21.0083C25.4486 21.011 25.4486 21.0138 25.4486 21.0165C25.4486 21.0192 25.4486 21.0219 25.4486 21.0246C25.4486 21.0273 25.4486 21.0299 25.4486 21.0326C25.4486 21.0353 25.4486 21.0379 25.4486 21.0406C25.4486 21.0432 25.4486 21.0459 25.4486 21.0485C25.4486 21.0512 25.4486 21.0538 25.4486 21.0564C25.4486 21.059 25.4486 21.0616 25.4486 21.0642C25.4486 21.0668 25.4486 21.0694 25.4486 21.072C25.4486 21.0746 25.4486 21.0771 25.4486 21.0797C25.4486 21.0823 25.4486 21.0848 25.4486 21.0874C25.4486 21.0899 25.4486 21.0924 25.4486 21.095C25.4486 21.0975 25.4486 21.1 25.4486 21.1025C25.4486 21.105 25.4486 21.1075 25.4486 21.11C25.4486 21.1125 25.4486 21.115 25.4486 21.1174C25.4486 21.1199 25.4486 21.1224 25.4486 21.1248C25.4486 21.1273 25.4486 21.1297 25.4486 21.1321C25.4486 21.1346 25.4486 21.137 25.4486 21.1394C25.4486 21.1418 25.4486 21.1442 25.4486 21.1466C25.4486 21.149 25.4486 21.1514 25.4486 21.1538C25.4486 21.1561 25.4486 21.1585 25.4486 21.1609C25.4486 21.1632 25.4486 21.1656 25.4486 21.1679C25.4486 21.1702 25.4486 21.1726 25.4486 21.1749C25.4486 21.1772 25.4486 21.1795 25.4486 21.1818C25.4486 21.1841 25.4486 21.1864 25.4486 21.1887C25.4486 21.191 25.4486 21.1932 25.4486 21.1955C25.4486 21.1977 25.4486 21.2 25.4486 21.2022C25.4486 21.2045 25.4486 21.2067 25.4486 21.2089C25.4486 21.2111 25.4486 21.2134 25.4486 21.2156C25.4486 21.2178 25.4486 21.22 25.4486 21.2221C25.4486 21.2243 25.4486 21.2265 25.4486 21.2287C25.4486 21.2308 25.4486 21.233 25.4486 21.2351C25.4486 21.2372 25.4486 21.2394 25.4486 21.2415C25.4486 21.2436 25.4486 21.2457 25.4486 21.2478C25.4486 21.2499 25.4486 21.252 25.4486 21.2541C25.4486 21.2562 25.4486 21.2583 25.4486 21.2603C25.4486 21.2624 25.4486 21.2645 25.4486 21.2665C25.4486 21.2685 25.4486 21.2706 25.4486 21.2726C25.4486 21.2746 25.4486 21.2766 25.4486 21.2786C25.4486 21.2806 25.4486 21.2826 25.4486 21.2846C25.4486 21.2866 25.4486 21.2886 25.4486 21.2905C25.4486 21.2925 25.4486 21.2944 25.4486 21.2964C25.4486 21.2983 25.4486 21.3003 25.4486 21.3022C25.4486 21.3041 25.4486 21.306 25.4486 21.3079C25.4486 21.3098 25.4486 21.3117 25.4486 21.3136C25.4486 21.3155 25.4486 21.3173 25.4486 21.3192C25.4486 21.3211 25.4486 21.3229 25.4486 21.3248C25.4486 21.3266 25.4486 21.3284 25.4486 21.3303C25.4486 21.3321 25.4486 21.3339 25.4486 21.3357C25.4486 21.3375 25.4486 21.3393 25.4486 21.341C25.4486 21.3428 25.4486 21.3446 25.4486 21.3463C25.4486 21.3481 25.4486 21.3499 25.4486 21.3516C25.4486 21.3533 25.4486 21.355 25.4486 21.3568C25.4486 21.3585 25.4486 21.3602 25.4486 21.3619C25.4486 21.3636 25.4486 21.3653 25.4486 21.3669C25.4486 21.3686 25.4486 21.3703 25.4486 21.3719C25.4486 21.3736 25.4486 21.3752 25.4486 21.3768C25.4486 21.3785 25.4486 21.3801 25.4486 21.3817C25.4486 21.3833 25.4486 21.3849 25.4486 21.3865C25.4486 21.3881 25.4486 21.3897 25.4486 21.3912C25.4486 21.3928 25.4486 21.3944 25.4486 21.3959C25.4486 21.3975 25.4486 21.399 25.4486 21.4005C25.4486 21.402 25.4486 21.4036 25.4486 21.4051C25.4486 21.4066 25.4486 21.4081 25.4486 21.4095C25.4486 21.411 25.4486 21.4125 25.4486 21.4139C25.4486 21.4154 25.4486 21.4169 25.4486 21.4183C25.4486 21.4197 25.4486 21.4212 25.4486 21.4226C25.4486 21.424 25.4486 21.4254 25.4486 21.4268C25.4486 21.4282 25.4486 21.4296 25.4486 21.4309C25.4486 21.4323 25.4486 21.4337 25.4486 21.435C25.4486 21.4364 25.4486 21.4377 25.4486 21.4391C25.4486 21.4404 25.4486 21.4417 25.4486 21.443C25.4486 21.4443 25.4486 21.4456 25.4486 21.4469C25.4486 21.4482 25.4486 21.4495 25.4486 21.4507C25.4486 21.452 25.4486 21.4532 25.4486 21.4545C25.4486 21.4557 25.4486 21.4569 25.4486 21.4582C25.4486 21.4594 25.4486 21.4606 25.4486 21.4618C25.4486 21.463 25.4486 21.4642 25.4486 21.4653C25.4486 21.4665 25.4486 21.4677 25.4486 21.4688C25.4486 21.47 25.4486 21.4711 25.4486 21.4722C25.4486 21.4734 25.4486 21.4745 25.4486 21.4756C25.4486 21.4767 25.4486 21.4778 25.4486 21.4789C25.4486 21.48 25.4486 21.481 25.4486 21.4821C25.4486 21.4832 25.4486 21.4842 25.4486 21.4853C25.4486 21.4863 25.4486 21.4873 25.4486 21.4883H27.7486ZM14.0704 14.8771C14.0703 15.3477 14.0703 18.8885 14.0704 21.4883H16.3704C16.3703 18.8884 16.3703 15.3477 16.3704 14.8772L14.0704 14.8771ZM14.0704 21.4883C14.0704 23.13 14.6941 23.9074 15.1516 24.7738L17.1855 23.6998C16.592 22.576 16.3704 22.4153 16.3704 21.4883H14.0704ZM15.1516 24.7738C15.8714 26.1369 17.2404 27.3052 18.3024 28.0833C18.8531 28.4869 19.3629 28.815 19.7352 29.0425C19.9219 29.1566 20.0753 29.2462 20.1837 29.3081C20.2379 29.339 20.2809 29.3631 20.3112 29.38C20.3264 29.3884 20.3384 29.395 20.3471 29.3998C20.3515 29.4022 20.355 29.4041 20.3576 29.4055C20.359 29.4062 20.3601 29.4068 20.361 29.4073C20.3614 29.4076 20.3618 29.4078 20.3621 29.408C20.3623 29.4081 20.3625 29.4082 20.3626 29.4082C20.3628 29.4083 20.363 29.4084 20.9095 28.3966C21.456 27.3847 21.4561 27.3848 21.4563 27.3849C21.4563 27.3849 21.4564 27.385 21.4565 27.385C21.4566 27.3851 21.4567 27.3851 21.4567 27.3851C21.4567 27.3851 21.4565 27.385 21.4562 27.3848C21.4554 27.3844 21.4538 27.3835 21.4513 27.3822C21.4465 27.3795 21.4384 27.3751 21.4272 27.3689C21.4048 27.3565 21.3702 27.3371 21.3248 27.3111C21.2339 27.2592 21.1 27.181 20.9345 27.0799C20.6025 26.8771 20.1486 26.5848 19.6618 26.2281C18.6487 25.4857 17.6472 24.5741 17.1855 23.6998L15.1516 24.7738ZM20.9095 12.2773C20.9095 11.1273 20.9092 11.1273 20.9089 11.1273C20.9087 11.1273 20.9084 11.1273 20.9082 11.1273C20.9078 11.1273 20.9073 11.1273 20.9068 11.1273C20.9059 11.1273 20.9049 11.1273 20.9038 11.1273C20.9017 11.1273 20.8993 11.1274 20.8967 11.1274C20.8914 11.1274 20.8852 11.1275 20.878 11.1276C20.8638 11.1279 20.8457 11.1283 20.8244 11.1291C20.7817 11.1308 20.7249 11.1338 20.6572 11.1395C20.5235 11.1508 20.3385 11.1732 20.1297 11.219C19.751 11.3021 19.1139 11.4999 18.6374 12.0225L20.337 13.5721C20.3346 13.5747 20.4086 13.5125 20.6225 13.4656C20.7101 13.4464 20.7917 13.4363 20.8506 13.4314C20.8792 13.429 20.9002 13.4279 20.9113 13.4275C20.9167 13.4273 20.9195 13.4273 20.9194 13.4273C20.9193 13.4273 20.9185 13.4273 20.9168 13.4273C20.916 13.4273 20.915 13.4273 20.9138 13.4273C20.9132 13.4273 20.9125 13.4273 20.9118 13.4273C20.9114 13.4273 20.911 13.4273 20.9107 13.4273C20.9105 13.4273 20.9102 13.4273 20.9101 13.4273C20.9098 13.4273 20.9095 13.4273 20.9095 12.2773ZM27.7486 14.8772C27.7486 14.3589 27.4307 14.05 27.3223 13.9551C27.1889 13.8383 27.0523 13.7662 26.9756 13.7285C26.8131 13.6486 26.6244 13.5832 26.4725 13.5333C26.0588 13.3972 25.8202 13.3368 25.3169 13.1667C24.414 12.8615 23.6081 12.4903 23.1816 12.0225L21.482 13.5721C22.3448 14.5185 23.6724 15.0387 24.5805 15.3456C24.9828 15.4816 25.5691 15.6574 25.7539 15.7182C25.8205 15.7401 25.8717 15.7579 25.9106 15.7725C25.9517 15.788 25.965 15.7947 25.9607 15.7925C25.9576 15.791 25.9427 15.7836 25.9202 15.7697C25.8992 15.7568 25.8574 15.7295 25.8074 15.6857C25.7432 15.6296 25.4486 15.3583 25.4486 14.8772H27.7486ZM23.1816 12.0225C22.7051 11.4999 22.0679 11.3021 21.6892 11.219C21.4805 11.1732 21.2954 11.1508 21.1617 11.1395C21.094 11.1338 21.0373 11.1308 20.9946 11.1291C20.9732 11.1283 20.9552 11.1279 20.9409 11.1276C20.9338 11.1275 20.9275 11.1274 20.9223 11.1274C20.9197 11.1274 20.9173 11.1273 20.9151 11.1273C20.9141 11.1273 20.9131 11.1273 20.9121 11.1273C20.9116 11.1273 20.9112 11.1273 20.9107 11.1273C20.9105 11.1273 20.9102 11.1273 20.9101 11.1273C20.9098 11.1273 20.9095 11.1273 20.9095 12.2773C20.9095 13.4273 20.9092 13.4273 20.9089 13.4273C20.9088 13.4273 20.9085 13.4273 20.9083 13.4273C20.9079 13.4273 20.9075 13.4273 20.9072 13.4273C20.9065 13.4273 20.9058 13.4273 20.9052 13.4273C20.904 13.4273 20.9029 13.4273 20.9021 13.4273C20.9005 13.4273 20.8997 13.4273 20.8996 13.4273C20.8994 13.4273 20.9022 13.4273 20.9077 13.4275C20.9187 13.4279 20.9398 13.429 20.9684 13.4314C21.0272 13.4363 21.1089 13.4464 21.1964 13.4656C21.4104 13.5125 21.4844 13.5747 21.482 13.5721L23.1816 12.0225ZM18.6374 12.0225C18.5198 12.1515 18.2785 12.3216 17.8768 12.5119C17.4906 12.6949 17.0437 12.8566 16.5852 13.0111C16.1609 13.1541 15.6665 13.3095 15.313 13.4496C15.1378 13.519 14.9177 13.6144 14.7251 13.7419C14.6286 13.8058 14.4879 13.9106 14.3618 14.0667C14.2319 14.2276 14.0704 14.5042 14.0704 14.8771L16.3704 14.8772C16.3703 15.1913 16.2338 15.4094 16.1513 15.5117C16.0725 15.6092 16.0016 15.6552 15.9945 15.6599C15.9809 15.6689 16.0189 15.6439 16.1602 15.5879C16.4395 15.4773 16.8112 15.3622 17.3198 15.1907C17.7943 15.0308 18.3473 14.834 18.8614 14.5905C19.36 14.3543 19.9196 14.0299 20.337 13.5721L18.6374 12.0225Z" fill="#404040"/>
</svg>
