<svg width="40" height="30" viewBox="0 0 40 30" fill="none" xmlns="http://www.w3.org/2000/svg">
<path fill-rule="evenodd" clip-rule="evenodd" d="M5.15625 9.375H5.40672H7.35625H15.397H20H24.6138H32.6437H34.6546H34.8438V9.7V11.575V13.2812C34.8438 16.1374 34.1551 18.7542 32.7839 20.9883L32.7838 20.9884C32.3304 21.7271 31.8024 22.424 31.2 23.0739C30.6141 23.706 29.9577 24.2936 29.2313 24.832C29.1549 24.8885 29.0779 24.9445 29 25V24.6991V22.1668V19.5312V19.5C29 16.2018 26.9356 13.1348 24.0827 11.575C22.8368 10.8938 21.4404 10.5 20 10.5C18.5644 10.5 17.1726 10.894 15.9299 11.575C13.0705 13.1419 11 16.2282 11 19.5312V22.1668V24.7696V25C10.9221 24.9445 10.8451 24.8885 10.7688 24.832C10.0423 24.2936 9.38594 23.706 8.8 23.0739C6.3757 20.4586 5.15625 17.0818 5.15625 13.2812V11.575V9.7V9.375ZM36.8546 9.375C36.9185 9.36991 36.9816 9.36326 37.0438 9.35509C38.3757 9.18006 39.2983 8.30696 39.7272 7.11258C39.7537 7.03875 39.7783 6.96369 39.801 6.8875C39.9324 6.44692 40 5.96827 40 5.46875V4.6875V4.3V2V0.78125C40 0.349844 39.6502 0 39.2188 0H38H2H0.78125C0.349766 0 0 0.349844 0 0.78125V2V5.46875C0 7.43076 1.09927 9.07082 2.95625 9.34654C3.03827 9.35872 3.12177 9.36824 3.20672 9.375V9.63928V13.2812C3.20672 18.4969 5.9311 23.535 9.82518 26.6494C9.99076 26.7818 10.1584 26.9107 10.3281 27.0361C10.343 27.047 10.3578 27.0579 10.3727 27.0688C10.3919 27.083 10.4112 27.0971 10.4306 27.1111C10.5425 27.1924 10.6552 27.2721 10.7688 27.3503C11.1044 27.5812 11.4472 27.7981 11.7962 28C11.8693 28.0422 11.9428 28.0836 12.0166 28.1244C12.4029 28.3375 12.7978 28.5302 13.2 28.7038L13.2601 28.7296L13.3434 28.7647C15.4282 29.6369 17.705 30 20 30C22.487 30 24.7372 29.5706 26.8 28.6227C27.1852 28.4457 27.5638 28.2506 27.9363 28.0368L28 28C28.4079 27.764 28.8204 27.5079 29.2313 27.2334C29.5349 27.0307 29.8376 26.818 30.1369 26.5961C31.8645 25.3158 33.4794 23.7314 34.5 22C35.9805 19.4884 36.8546 16.2125 36.8546 13.2812V9.66707V9.375ZM38 6.5C37.9466 6.65049 37.884 6.77855 37.8121 6.8875C37.6219 7.17571 37.3664 7.3301 37.0438 7.41175C36.9375 7.43864 36.8239 7.45765 36.703 7.47094C36.4913 7.49422 36.2571 7.5 36 7.5H34.8438H34.6546H26.25H23.9507H5.40672H5.15625H4C3.76816 7.5 3.55513 7.47622 3.36163 7.42973C3.21522 7.39455 3.07999 7.34637 2.95625 7.28566C2.33192 6.97932 2 6.35383 2 5.46875V4.2V2.2V2H2.2H4.2H35.8H37.8H38V2.2V2.4875V4.2V4.3V4.6875H37.8H35.8H27.3032H26.25C25.8794 4.6875 25.5921 4.91807 25.5184 5.3C25.5063 5.3627 25.5 5.42949 25.5 5.5C25.5 5.98816 25.8185 6.5 26.25 6.5H27.228H36H37.6039H38ZM12.9688 25V26.1362V26.1385V26.1386V26.3566C13.0455 26.3979 13.1226 26.4385 13.2 26.4785C13.2849 26.5223 13.3703 26.5653 13.456 26.6074L13.4888 26.6235C15.5054 27.6081 17.736 28.125 20 28.125C22.3727 28.125 24.7087 27.5573 26.8 26.4785C26.8774 26.4385 26.9545 26.3979 27.0312 26.3566V26.332V26.3253V26.0181V25V19.5312L27.0312 19.5C27.0143 15.6373 23.8666 12.5 20 12.5C16.123 12.5 12.9688 15.6542 12.9688 19.5312V25ZM14.5313 19.5C14.5482 16.4988 16.995 14.0625 20 14.0625C23.005 14.0625 25.4518 16.4988 25.4687 19.5L25.4688 19.5312C25.4688 22.5467 23.0155 25 20 25C16.9845 25 14.5312 22.5467 14.5312 19.5312L14.5313 19.5ZM16.5001 19.5312C16.5131 21.6669 17.8565 23 20 23C22.1435 23 23.4869 21.6669 23.4999 19.5312L23.5 19.5C23.5 17.3461 22.1539 16 20 16C17.8461 16 16.5 17.3461 16.5 19.5L16.5001 19.5312ZM17.6562 19.5312C17.6562 18.2389 18.7077 17.1875 20 17.1875C21.2923 17.1875 22.3438 18.2389 22.3438 19.5312C22.3438 20.8236 21.2923 21.875 20 21.875C18.7077 21.875 17.6562 20.8236 17.6562 19.5312ZM19.2188 19.5312C19.2188 19.962 19.5692 20.3125 20 20.3125C20.4308 20.3125 20.7812 19.962 20.7812 19.5312C20.7812 19.1005 20.4308 18.75 20 18.75C19.5692 18.75 19.2188 19.1005 19.2188 19.5312Z" fill="white"/>
</svg>
