<svg width="30" height="29" viewBox="0 0 30 29" fill="none" xmlns="http://www.w3.org/2000/svg">
<path d="M26 14V28H4V14" stroke="white" stroke-linecap="round" stroke-linejoin="round"/>
<path d="M11 28V18H19V28" stroke="white"/>
<rect x="13.5" y="11.5" width="3" height="3" stroke="white"/>
<mask id="path-4-inside-1" fill="white">
<path fill-rule="evenodd" clip-rule="evenodd" d="M1.59875 10.6419C0.708071 11.3892 0.591895 12.7171 1.33927 13.6078C2.08664 14.4985 3.41455 14.6147 4.30523 13.8673L14.9997 4.89358L25.6942 13.8673C26.5849 14.6147 27.9128 14.4985 28.6602 13.6078C29.4075 12.7171 29.2914 11.3892 28.4007 10.6419L16.748 0.864094C16.7202 0.826062 16.6909 0.788699 16.6602 0.752074C16.233 0.242988 15.6162 -0.0130743 14.9997 0.000512766C14.3833 -0.0130743 13.7664 0.242988 13.3393 0.752074C13.3085 0.788699 13.2793 0.826062 13.2514 0.864094L1.59875 10.6419Z"/>
</mask>
<path d="M1.33927 13.6078L2.10531 12.965L1.33927 13.6078ZM1.59875 10.6419L0.955967 9.87582H0.955967L1.59875 10.6419ZM4.30523 13.8673L3.66244 13.1013H3.66244L4.30523 13.8673ZM14.9997 4.89358L15.6425 4.12753L14.9997 3.58817L14.3569 4.12753L14.9997 4.89358ZM25.6942 13.8673L25.0514 14.6334L25.6942 13.8673ZM28.4007 10.6419L29.0435 9.87582V9.87582L28.4007 10.6419ZM16.748 0.864094L15.9408 1.45446L16.0124 1.55226L16.1052 1.63014L16.748 0.864094ZM16.6602 0.752074L17.4262 0.109288L17.4262 0.109287L16.6602 0.752074ZM14.9997 0.000512766L14.9777 1.00027L14.9997 1.00076L15.0217 1.00027L14.9997 0.000512766ZM13.3393 0.752074L12.5732 0.109287L12.5732 0.109288L13.3393 0.752074ZM13.2514 0.864094L13.8942 1.63014L13.9871 1.55226L14.0586 1.45446L13.2514 0.864094ZM2.10531 12.965C1.71294 12.4974 1.77393 11.8003 2.24154 11.4079L0.955967 9.87582C-0.357791 10.9782 -0.529152 12.9369 0.573222 14.2506L2.10531 12.965ZM3.66244 13.1013C3.19483 13.4936 2.49768 13.4326 2.10531 12.965L0.573222 14.2506C1.6756 15.5644 3.63426 15.7357 4.94802 14.6334L3.66244 13.1013ZM14.3569 4.12753L3.66244 13.1013L4.94802 14.6334L15.6425 5.65962L14.3569 4.12753ZM14.3569 5.65962L25.0514 14.6334L26.337 13.1013L15.6425 4.12753L14.3569 5.65962ZM25.0514 14.6334C26.3652 15.7357 28.3238 15.5644 29.4262 14.2506L27.8941 12.965C27.5017 13.4326 26.8046 13.4936 26.337 13.1013L25.0514 14.6334ZM29.4262 14.2506C30.5286 12.9369 30.3572 10.9782 29.0435 9.87582L27.7579 11.4079C28.2255 11.8003 28.2865 12.4974 27.8941 12.965L29.4262 14.2506ZM29.0435 9.87582L17.3908 0.0980493L16.1052 1.63014L27.7579 11.4079L29.0435 9.87582ZM15.8941 1.39486C15.9106 1.41446 15.9261 1.43434 15.9408 1.45446L17.5551 0.273729C17.5142 0.217788 17.4712 0.16294 17.4262 0.109288L15.8941 1.39486ZM15.0217 1.00027C15.348 0.993079 15.6701 1.12793 15.8941 1.39486L17.4262 0.109287C16.7958 -0.641958 15.8843 -1.01923 14.9777 -0.999244L15.0217 1.00027ZM15.0217 -0.999244C14.1151 -1.01923 13.2036 -0.641958 12.5732 0.109287L14.1053 1.39486C14.3293 1.12793 14.6514 0.993079 14.9777 1.00027L15.0217 -0.999244ZM12.5732 0.109288C12.5282 0.162941 12.4852 0.217789 12.4443 0.273729L14.0586 1.45446C14.0733 1.43434 14.0889 1.41446 14.1053 1.39486L12.5732 0.109288ZM2.24154 11.4079L13.8942 1.63014L12.6087 0.0980494L0.955967 9.87582L2.24154 11.4079Z" fill="white" mask="url(#path-4-inside-1)"/>
<path d="M22 6V1H26V9" stroke="white" stroke-linejoin="round"/>
</svg>
