<svg width="24" height="25" viewBox="0 0 24 25" fill="none" xmlns="http://www.w3.org/2000/svg">
<path d="M2.95061 4.41471C3.07837 4.17685 3.40833 4.05018 3.67758 4.15411L6.35427 5.24431L6.61095 5.34886L6.83563 5.18659C7.34742 4.81695 7.84797 4.52183 8.35264 4.29126L8.60167 4.17749L8.63996 3.9064L9.04763 1.01992L9.04771 1.01994L9.04884 1.01071C9.08342 0.72807 9.33406 0.5 9.63903 0.5H14.3628C14.6659 0.5 14.9192 0.726271 14.9551 1.01905L14.955 1.01907L14.9563 1.02835L15.3629 3.90438L15.4013 4.17574L15.6507 4.28937C16.1737 4.52768 16.6815 4.82675 17.1678 5.18264L17.3931 5.34752L17.6517 5.24223L20.3173 4.15675C20.6339 4.04124 20.9231 4.17325 21.0588 4.4248L21.0586 4.42486L21.0644 4.43503L23.4167 8.56337C23.5733 8.85983 23.4958 9.18869 23.2747 9.36654C23.2744 9.36676 23.2742 9.36697 23.2739 9.36719L21.0085 11.1634L20.7926 11.3346L20.822 11.6086C20.8504 11.8731 20.8726 12.1786 20.8726 12.499C20.8726 12.8185 20.8495 13.1241 20.8218 13.3911L20.7935 13.664L21.0085 13.8345L23.271 15.6291C23.2714 15.6294 23.2718 15.6297 23.2722 15.63C23.4994 15.8139 23.5708 16.1441 23.422 16.4249L21.0592 20.5755L21.0591 20.5755L21.0533 20.5861C20.956 20.7672 20.7588 20.8875 20.5438 20.8875C20.4701 20.8875 20.3984 20.874 20.3269 20.8461L17.6496 19.7557L17.3928 19.6511L17.1681 19.8135C16.6556 20.184 16.1558 20.4783 15.6505 20.7101L15.4022 20.8241L15.3639 21.0947L14.9563 23.9801L14.9562 23.98L14.955 23.9893C14.9206 24.2713 14.6694 24.5 14.3638 24.5H9.64004C9.33669 24.5 9.08383 24.2746 9.04786 23.9792L9.04795 23.9792L9.0466 23.9696L8.63994 21.0946L8.60163 20.8237L8.35286 20.7099C7.82928 20.4704 7.3213 20.1711 6.83595 19.8162L6.61069 19.6515L6.35223 19.7567L3.68696 20.8421C3.36644 20.9584 3.08118 20.826 2.94491 20.5738L2.94502 20.5737L2.93945 20.5639L0.587049 16.4355C0.430654 16.1401 0.507128 15.8111 0.728503 15.6322C0.728859 15.6319 0.729214 15.6317 0.729571 15.6314L2.99436 13.8356L3.20891 13.6655L3.18113 13.3931C3.14652 13.0537 3.13032 12.7659 3.13032 12.5C3.13032 12.2341 3.14648 11.9463 3.1811 11.6083L3.20902 11.3358L2.99443 11.1656L0.731582 9.37073C0.731225 9.37044 0.730869 9.37016 0.730513 9.36987C0.493803 9.17873 0.429989 8.83237 0.58323 8.56964L0.583252 8.56965L0.585753 8.56526L2.94455 4.42566L2.94469 4.42574L2.95061 4.41471Z" stroke="white"/>
<path d="M12.0012 16.1667C10.0187 16.1667 8.39355 14.5285 8.39355 12.5C8.39355 10.4715 10.0187 8.83337 12.0012 8.83337C13.9837 8.83337 15.6089 10.4715 15.6089 12.5C15.6089 14.5285 13.9837 16.1667 12.0012 16.1667Z" stroke="white"/>
</svg>
