<svg width="28" height="28" viewBox="0 0 28 28" fill="none" xmlns="http://www.w3.org/2000/svg">
<g clip-path="url(#clip0)">
<path d="M19.8332 27.9998C15.8735 27.9998 11.6665 26.7725 11.6665 24.4998C11.6665 24.1778 11.9278 23.9165 12.2498 23.9165C12.5718 23.9165 12.8332 24.1778 12.8332 24.4998C12.8332 25.474 15.4955 26.8332 19.8332 26.8332C24.1708 26.8332 26.8332 25.474 26.8332 24.4998C26.8332 24.1778 27.0945 23.9165 27.4165 23.9165C27.7385 23.9165 27.9998 24.1778 27.9998 24.4998C27.9998 26.7725 23.7928 27.9998 19.8332 27.9998Z" fill="white"/>
<path d="M19.8332 24.4998C15.8735 24.4998 11.6665 23.2725 11.6665 20.9998C11.6665 20.6778 11.9278 20.4165 12.2498 20.4165C12.5718 20.4165 12.8332 20.6778 12.8332 20.9998C12.8332 21.974 15.4955 23.3332 19.8332 23.3332C24.1708 23.3332 26.8332 21.974 26.8332 20.9998C26.8332 20.6778 27.0945 20.4165 27.4165 20.4165C27.7385 20.4165 27.9998 20.6778 27.9998 20.9998C27.9998 23.2725 23.7928 24.4998 19.8332 24.4998Z" fill="white"/>
<path d="M19.8332 21C15.8735 21 11.6665 19.7727 11.6665 17.5C11.6665 15.2273 15.8735 14 19.8332 14C23.7928 14 27.9998 15.2273 27.9998 17.5C27.9998 19.7727 23.7928 21 19.8332 21ZM19.8332 15.1667C15.4955 15.1667 12.8332 16.5258 12.8332 17.5C12.8332 18.4742 15.4955 19.8333 19.8332 19.8333C24.1708 19.8333 26.8332 18.4742 26.8332 17.5C26.8332 16.5258 24.1708 15.1667 19.8332 15.1667Z" fill="white"/>
<path d="M27.4168 25.0832C27.0948 25.0832 26.8335 24.8218 26.8335 24.4998V17.4998C26.8335 17.1778 27.0948 16.9165 27.4168 16.9165C27.7388 16.9165 28.0002 17.1778 28.0002 17.4998V24.4998C28.0002 24.8218 27.7388 25.0832 27.4168 25.0832Z" fill="white"/>
<path d="M12.2498 25.0832C11.9278 25.0832 11.6665 24.8218 11.6665 24.4998V17.4998C11.6665 17.1778 11.9278 16.9165 12.2498 16.9165C12.5718 16.9165 12.8332 17.1778 12.8332 17.4998V24.4998C12.8332 24.8218 12.5718 25.0832 12.2498 25.0832Z" fill="white"/>
<path d="M8.16667 13.9998C4.207 13.9998 0 12.7725 0 10.4998C0 10.1778 0.261333 9.9165 0.583333 9.9165C0.905333 9.9165 1.16667 10.1778 1.16667 10.4998C1.16667 11.474 3.829 12.8332 8.16667 12.8332C12.5043 12.8332 15.1667 11.474 15.1667 10.4998C15.1667 10.1778 15.428 9.9165 15.75 9.9165C16.072 9.9165 16.3333 10.1778 16.3333 10.4998C16.3333 12.7725 12.1263 13.9998 8.16667 13.9998Z" fill="white"/>
<path d="M8.16667 10.4998C4.207 10.4998 0 9.2725 0 6.99984C0 6.67784 0.261333 6.4165 0.583333 6.4165C0.905333 6.4165 1.16667 6.67784 1.16667 6.99984C1.16667 7.974 3.829 9.33317 8.16667 9.33317C12.5043 9.33317 15.1667 7.974 15.1667 6.99984C15.1667 6.67784 15.428 6.4165 15.75 6.4165C16.072 6.4165 16.3333 6.67784 16.3333 6.99984C16.3333 9.2725 12.1263 10.4998 8.16667 10.4998Z" fill="white"/>
<path d="M8.16667 20.9998C4.207 20.9998 0 19.7725 0 17.4998C0 17.1778 0.261333 16.9165 0.583333 16.9165C0.905333 16.9165 1.16667 17.1778 1.16667 17.4998C1.16667 18.474 3.829 19.8332 8.16667 19.8332C8.80133 19.8332 9.35433 19.8075 9.85483 19.755C10.171 19.72 10.4627 19.9533 10.4965 20.273C10.5303 20.5927 10.2982 20.8808 9.9785 20.9147C9.43483 20.973 8.84217 20.9998 8.16667 20.9998V20.9998Z" fill="white"/>
<path d="M8.16667 24.4998C4.207 24.4998 0 23.2725 0 20.9998C0 20.6778 0.261333 20.4165 0.583333 20.4165C0.905333 20.4165 1.16667 20.6778 1.16667 20.9998C1.16667 21.974 3.829 23.3332 8.16667 23.3332C8.80133 23.3332 9.35433 23.3075 9.85483 23.255C10.171 23.2142 10.4627 23.4533 10.4965 23.773C10.5303 24.0927 10.2982 24.3808 9.9785 24.4147C9.43483 24.473 8.84217 24.4998 8.16667 24.4998V24.4998Z" fill="white"/>
<path d="M8.16667 17.4998C4.207 17.4998 0 16.2725 0 13.9998C0 13.6778 0.261333 13.4165 0.583333 13.4165C0.905333 13.4165 1.16667 13.6778 1.16667 13.9998C1.16667 14.974 3.829 16.3332 8.16667 16.3332C8.80133 16.3332 9.35433 16.3075 9.85483 16.255C10.171 16.2177 10.4627 16.4522 10.4965 16.773C10.5303 17.0927 10.2982 17.3808 9.9785 17.4147C9.43483 17.473 8.84217 17.4998 8.16667 17.4998V17.4998Z" fill="white"/>
<path d="M8.16667 7C4.207 7 0 5.77267 0 3.5C0 1.22733 4.207 0 8.16667 0C12.1263 0 16.3333 1.22733 16.3333 3.5C16.3333 5.77267 12.1263 7 8.16667 7ZM8.16667 1.16667C3.829 1.16667 1.16667 2.52583 1.16667 3.5C1.16667 4.47417 3.829 5.83333 8.16667 5.83333C12.5043 5.83333 15.1667 4.47417 15.1667 3.5C15.1667 2.52583 12.5043 1.16667 8.16667 1.16667Z" fill="white"/>
<path d="M0.583333 21.5832C0.261333 21.5832 0 21.3218 0 20.9998V3.49984C0 3.17784 0.261333 2.9165 0.583333 2.9165C0.905333 2.9165 1.16667 3.17784 1.16667 3.49984V20.9998C1.16667 21.3218 0.905333 21.5832 0.583333 21.5832Z" fill="white"/>
<path d="M15.7498 11.0832C15.4278 11.0832 15.1665 10.8218 15.1665 10.4998V3.49984C15.1665 3.17784 15.4278 2.9165 15.7498 2.9165C16.0718 2.9165 16.3332 3.17784 16.3332 3.49984V10.4998C16.3332 10.8218 16.0718 11.0832 15.7498 11.0832Z" fill="white"/>
</g>
<defs>
<clipPath id="clip0">
<rect width="28" height="28" fill="white"/>
</clipPath>
</defs>
</svg>
