<svg width="28" height="28" viewBox="0 0 28 28" fill="none" xmlns="http://www.w3.org/2000/svg">
<path d="M14 28C21.7196 28 28 21.7196 28 14C28 6.28035 21.7196 0 14 0C6.28035 0 0 6.28035 0 14C0 21.7196 6.28035 28 14 28ZM14 1.24841C21.0313 1.24841 26.7516 6.96865 26.7516 14C26.7516 21.0313 21.0313 26.7516 14 26.7516C6.96865 26.7516 1.24841 21.0313 1.24841 14C1.24841 6.96865 6.96865 1.24841 14 1.24841Z" fill="white"/>
<path d="M10.5493 12.742C11.9771 12.742 13.1342 11.5845 13.1342 10.1571C13.1346 8.72927 11.9771 7.57178 10.5493 7.57178C9.1215 7.57178 7.96436 8.72927 7.96436 10.1567C7.96575 11.5838 9.1222 12.7403 10.5493 12.742ZM10.5493 8.82019C11.2874 8.82019 11.8858 9.41861 11.8858 10.1567C11.8862 10.8952 11.2878 11.4936 10.5493 11.4936C9.81119 11.4936 9.21276 10.8952 9.21276 10.1567C9.21346 9.41896 9.81154 8.82123 10.5493 8.82019Z" fill="white"/>
<path d="M14.709 18.0003C14.709 19.4281 15.8665 20.5853 17.2939 20.5853C18.7217 20.5853 19.8792 19.4281 19.8792 18.0003C19.8792 16.5725 18.7217 15.415 17.2939 15.415C15.8668 15.4168 14.7107 16.5732 14.709 18.0003ZM18.6308 18.0003C18.6308 18.7384 18.0324 19.3369 17.2939 19.3369C16.5558 19.3369 15.9574 18.7384 15.9574 18.0003C15.9574 17.2622 16.5558 16.6638 17.2939 16.6634C18.032 16.6645 18.6298 17.2622 18.6308 18.0003Z" fill="white"/>
<path d="M9.2472 21.2874C9.53596 21.4759 9.92295 21.3943 10.1111 21.1056L18.9349 7.57582C19.0572 7.38877 19.0704 7.15086 18.9697 6.95162C18.8687 6.75238 18.6691 6.6221 18.4462 6.61026C18.2233 6.59841 18.0108 6.7064 17.8892 6.8938L9.06537 20.4236C8.87692 20.7127 8.95843 21.0993 9.2472 21.2874Z" fill="white"/>
</svg>
