<svg width="72" height="68" xmlns="http://www.w3.org/2000/svg"><path d="M22.979 28.699a5.34 5.34 0 0 0 0-7.544l-5.659-5.656a5.337 5.337 0 0 0-7.541 0l-3.104 3.104a7.986 7.986 0 0 0-1.008 10.064c9.013 13.626 21.037 25.65 34.666 34.666 3.168 2.094 7.382 1.678 10.062-1.01l3.106-3.104a5.337 5.337 0 0 0 0-7.542l-5.658-5.656a5.332 5.332 0 0 0-7.542 0l-1.885 1.886c-6.203-5.083-12.243-11.12-17.323-17.323l1.886-1.885zM35 3.333c16.939 0 30.667 13.728 30.667 30.667M35 14c11.045 0 20 8.952 20 20m-20-9.333A9.332 9.332 0 0 1 44.333 34" stroke="#FFF" stroke-width="2.75" fill="none" stroke-linecap="round" stroke-linejoin="round"/></svg>