<svg width="54" height="54" xmlns="http://www.w3.org/2000/svg"><g stroke="#00AEEF" stroke-width="2.07" fill="none" fill-rule="evenodd" stroke-linecap="round" stroke-linejoin="round"><ellipse cx="19.369" cy="6.501" rx="16.183" ry="4.315"/><path d="M35.552 6.501v6.474c0 2.384-7.243 4.315-16.183 4.315-8.937 0-16.183-1.931-16.183-4.315V6.5"/><path d="M35.552 12.975v6.473c0 2.384-7.243 4.315-16.183 4.315-8.937 0-16.183-1.93-16.183-4.315v-6.473"/><ellipse cx="36.631" cy="34.552" rx="16.183" ry="4.315"/><path d="M52.814 34.552v6.473c0 2.385-7.244 4.316-16.183 4.316-8.937 0-16.183-1.931-16.183-4.316v-6.473"/><path d="M52.814 41.025V47.5c0 2.384-7.244 4.315-16.183 4.315-8.937 0-16.183-1.931-16.183-4.315v-6.474m15.104-21.578v6.473c0 2.384-7.243 4.316-16.183 4.316-8.937 0-16.183-1.932-16.183-4.316v-6.473"/><path d="M3.186 25.921v6.473c0 2.385 7.246 4.316 16.183 4.316h1.079"/><path d="M3.186 32.394v6.474c0 2.384 7.246 4.315 16.183 4.315h1.079M35.54 25.921v4.316"/></g></svg>