<svg width="72" height="68" xmlns="http://www.w3.org/2000/svg"><g stroke="#FFF" stroke-width="2.75" fill="none" fill-rule="evenodd" stroke-linejoin="round"><circle cx="27.375" cy="42.625" r="8.25"/><path d="M44.84 38.893l4.337-2.505-5.5-9.526-4.328 2.5a17.96 17.96 0 0 0-6.474-3.724v-5.013h-11v5.008a17.755 17.755 0 0 0-6.479 3.729l-4.326-2.5-5.5 9.526 4.34 2.508a17.72 17.72 0 0 0 0 7.46l-4.34 2.506 5.5 9.526 4.329-2.5a17.903 17.903 0 0 0 6.473 3.724v5.013h11v-5.008a17.772 17.772 0 0 0 6.48-3.726l4.322 2.497 5.5-9.526-4.34-2.503c.518-2.395.548-4.928.006-7.466z"/><circle cx="56.25" cy="13.75" r="4.125"/><path d="M65.573 11.542l2.769-1.6-2.75-4.764-2.77 1.6A9.553 9.553 0 0 0 59 4.552V1.375h-5.5v3.179a9.598 9.598 0 0 0-3.836 2.216l-2.756-1.592-2.75 4.763 2.75 1.587a9.517 9.517 0 0 0 .014 4.428l-2.764 1.597 2.75 4.763 2.764-1.598a9.553 9.553 0 0 0 3.828 2.233v3.174H59v-3.179a9.636 9.636 0 0 0 3.836-2.22l2.756 1.593 2.75-4.763-2.753-1.59a9.577 9.577 0 0 0-.016-4.424z"/></g></svg>