<svg width="72" height="68" xmlns="http://www.w3.org/2000/svg"><g stroke-width="2.75" stroke="#FFF" fill="none" fill-rule="evenodd"><path d="M35.501 3.398L10.375 8.05v21.523c0 11.25 4.658 20.188 12.467 27.103a46.489 46.489 0 0 0 8.685 6.055 40.87 40.87 0 0 0 2.887 1.424 26.779 26.779 0 0 0 1.006.422l.06-.02.294-.111a26 26 0 0 0 .816-.336 39.784 39.784 0 0 0 2.888-1.391 45.322 45.322 0 0 0 8.682-5.975c7.807-6.86 12.465-15.828 12.465-27.224V8L35.501 3.397zm-.066 61.184l.092.035-.257.696-.06-.179.108-.523.097-.033.02.004z"/><path d="M49.5 24l-15 15-8.5-8.5"/></g></svg>