<svg width="50" height="49" viewBox="0 0 50 49" fill="none" xmlns="http://www.w3.org/2000/svg">
<path d="M49.4084 2.93997C48.6196 2.14859 47.3408 2.14859 46.5521 2.93997L23.9057 25.6641L18.7681 20.5088C17.9794 19.7174 16.7005 19.7174 15.9118 20.5088C15.1231 21.3003 15.1231 22.5835 15.9118 23.375L22.4777 29.9634C22.872 30.3592 23.389 30.557 23.9059 30.557C24.4228 30.557 24.9397 30.3592 25.3341 29.9634L49.4084 5.80614C50.1972 5.01466 50.1972 3.73145 49.4084 2.93997Z" fill="#00AEEF"/>
<path d="M45.7917 20.0688C44.6762 20.0688 43.772 20.9762 43.772 22.0955V24.1367C43.7689 29.4614 41.6996 34.4662 37.9452 38.2291C34.1936 41.9893 29.2082 44.0596 23.9061 44.0596C23.9022 44.0596 23.8982 44.0596 23.8943 44.0596C12.94 44.0534 4.03321 35.1058 4.03946 24.1138C4.04248 18.7892 6.11182 13.7844 9.86631 10.0213C13.618 6.26116 18.6034 4.19079 23.9055 4.19079C23.9094 4.19079 23.9133 4.19079 23.9172 4.19079C26.7172 4.19235 29.4338 4.77305 31.9914 5.91652C33.0106 6.37218 34.2042 5.9125 34.6583 4.89015C35.1122 3.8678 34.6544 2.66976 33.6355 2.21409C30.5577 0.837995 27.2889 0.139313 23.9194 0.137451C23.9144 0.137451 23.9105 0.137451 23.9054 0.137451C17.5256 0.137451 11.5258 2.62919 7.01153 7.15367C2.49375 11.6817 0.00371488 17.7042 3.93799e-06 24.1116C-0.00360934 30.5189 2.4794 36.5443 6.99209 41.0776C11.5048 45.6109 17.5065 48.1095 23.892 48.1132C23.897 48.1132 23.901 48.1132 23.9061 48.1132C30.2858 48.1132 36.2856 45.6215 40.7999 41.097C45.3177 36.5689 47.8077 30.5464 47.8114 24.1379V22.0956C47.8114 20.9762 46.9072 20.0688 45.7917 20.0688Z" fill="#00AEEF"/>
</svg>
