<svg width="50" height="49" viewBox="0 0 50 49" fill="none" xmlns="http://www.w3.org/2000/svg">
<path d="M49.4084 3.67372C48.6196 2.88724 47.3408 2.88724 46.552 3.67372L23.9056 26.2569L18.768 21.1336C17.9794 20.3471 16.7005 20.3471 15.9118 21.1336C15.123 21.9202 15.123 23.1955 15.9118 23.982L22.4776 30.5296C22.872 30.9229 23.3889 31.1195 23.9058 31.1195C24.4227 31.1195 24.9396 30.9229 25.3341 30.5296L49.4084 6.52211C50.1972 5.73554 50.1972 4.46029 49.4084 3.67372Z" fill="white"/>
<path d="M45.7917 20.6963C44.6762 20.6963 43.772 21.5981 43.772 22.7104V24.739C43.7689 30.0307 41.6996 35.0045 37.9452 38.744C34.1936 42.4809 29.2082 44.5384 23.9061 44.5384C23.9022 44.5384 23.8982 44.5384 23.8943 44.5384C12.94 44.5322 4.03321 35.6401 4.03946 24.7162C4.04248 19.4247 6.11182 14.4509 9.86631 10.7111C13.618 6.97428 18.6034 4.91675 23.9055 4.91675C23.9094 4.91675 23.9133 4.91675 23.9172 4.91675C26.7172 4.91831 29.4338 5.49541 31.9914 6.63178C33.0106 7.08462 34.2042 6.62779 34.6583 5.61178C35.1122 4.59577 34.6544 3.40515 33.6355 2.95232C30.5577 1.58475 27.2889 0.8904 23.9194 0.88855C23.9144 0.88855 23.9105 0.88855 23.9054 0.88855C17.5256 0.88855 11.5258 3.36484 7.01153 7.86126C2.49375 12.3612 0.00371488 18.3463 3.93799e-06 24.7141C-0.00360934 31.0817 2.4794 37.0696 6.99209 41.5748C11.5048 46.08 17.5065 48.5631 23.892 48.5668C23.897 48.5668 23.901 48.5668 23.9061 48.5668C30.2858 48.5668 36.2856 46.0906 40.7999 41.5941C45.3177 37.0941 47.8077 31.1089 47.8114 24.7402V22.7105C47.8114 21.5981 46.9072 20.6963 45.7917 20.6963Z" fill="white"/>
</svg>
