<svg width="324" height="67" viewBox="0 0 324 67" fill="none" xmlns="http://www.w3.org/2000/svg">
<path d="M43.065 66.7688V57.6525H0V66.7688H43.065ZM120.735 11.9344C114.585 12.7853 110.385 15.3227 108.135 19.5465C105.345 24.4997 104.685 29.3465 106.155 34.087C108.705 41.7143 113.565 45.6495 120.735 45.8926V57.6981H128.7V45.8926C135.84 45.6191 140.685 41.6839 143.235 34.087C144.705 29.3465 144.045 24.4997 141.255 19.5465C139.005 15.3227 134.82 12.7853 128.7 11.9344V0.220031H120.735V11.9344ZM122.535 19.5009C121.905 19.5921 121.305 19.7137 120.735 19.8656V38.1437C121.305 38.2653 121.905 38.3412 122.535 38.3716C121.905 38.3412 121.305 38.2653 120.735 38.1437C117.735 37.4752 115.635 35.3633 114.435 31.8079C113.625 29.1642 114 26.4749 115.56 23.74C116.55 21.8256 118.275 20.5341 120.735 19.8656C121.305 19.7137 121.905 19.5921 122.535 19.5009ZM126.945 19.5009C127.575 19.5921 128.16 19.7137 128.7 19.8656C131.16 20.5341 132.9 21.8256 133.92 23.74C135.48 26.4749 135.855 29.1642 135.045 31.8079C133.815 35.3633 131.7 37.4752 128.7 38.1437C128.16 38.2653 127.575 38.3412 126.945 38.3716C127.575 38.3412 128.16 38.2653 128.7 38.1437V19.8656C128.16 19.7137 127.575 19.5921 126.945 19.5009ZM84.96 13.1651H76.86V44.9809H93.915C98.205 44.4036 100.905 42.2157 102.015 38.4172L102.105 30.0302C101.235 25.5025 98.46 22.9955 93.78 22.5093H84.96V13.1651ZM84.87 29.7568H91.71C95.07 32.1574 95.07 34.6643 91.71 37.2777H84.87V29.7568ZM55.17 20.3214H62.64V45.0265H71.145V12.6637H47.43V34.6795C46.68 36.6243 45.24 37.3385 43.11 36.8219V44.9353L48.24 44.3428C51.3 43.5831 53.19 41.8814 53.91 39.2377C54.6 36.594 54.84 35.029 54.63 34.5428L55.17 20.3214ZM25.605 1.04049C23.145 -0.266173 20.565 -0.342142 17.865 0.812586C14.955 4.73258 9.285 19.273 0.854997 44.434H9.495L12.825 36.1381H29.43L32.4 44.9809H41.4C37.47 30.1822 32.205 15.5354 25.605 1.04049ZM21.105 10.4303L26.64 27.5233H15.3L21.105 10.4303ZM301.86 13.2563H293.85V44.6619H301.68V31.9447L313.335 44.434H324L309.555 27.7968L322.56 13.3019H312.39L301.86 25.1075V13.2563ZM268.65 13.2563H260.64V44.6619H268.47V32.4005H280.08V44.6619H287.91V13.2563H279.9V24.6516H279.765H268.785L268.65 13.2563ZM232.56 24.9707C229.02 26.3382 227.175 28.6628 227.025 31.9447C226.155 38.8122 228.375 42.945 233.685 44.3428C238.425 46.318 242.715 45.3912 246.555 41.5623C248.955 44.753 252.195 45.771 256.275 44.6163V37.7335L253.71 35.8191V20.5949C253.02 16.6749 250.29 13.9552 245.52 12.4358C242.13 11.3723 238.905 11.3723 235.845 12.4358C230.895 14.4718 228.165 17.6321 227.655 21.9168H235.935C236.175 20.5797 236.895 19.8656 238.095 19.7744H243.27C244.86 20.6253 245.505 22.0079 245.205 23.9223C240.255 23.4665 236.04 23.816 232.56 24.9707ZM236.97 31.3521H245.655V34.8163C244.875 36.2141 243.99 37.1409 243 37.5967C240.81 38.8426 238.8 38.8426 236.97 37.5967C234.54 35.2873 234.54 33.2057 236.97 31.3521ZM200.025 8.83491H220.905V0.220031H190.71V44.6163H212.985C218.625 43.5223 221.94 40.5747 222.93 35.7735L222.84 25.9279C222.18 21.9168 219.045 19.3186 213.435 18.1335C209.265 17.5561 204.795 17.2827 200.025 17.313V8.83491ZM199.62 25.4265L210.15 25.3809C216.42 29.2098 216.42 32.9171 210.15 36.5028H199.62V25.4265ZM173.79 20.5949C173.1 16.6749 170.37 13.9552 165.6 12.4358C162.21 11.3723 158.985 11.3723 155.925 12.4358C150.975 14.4718 148.245 17.6321 147.735 21.9168H156.015C156.255 20.5797 156.975 19.8656 158.175 19.7744H163.35C164.94 20.6253 165.585 22.0079 165.285 23.9223C160.335 23.4665 156.12 23.816 152.64 24.9707C149.1 26.3382 147.255 28.6628 147.105 31.9447C146.235 38.8122 148.455 42.945 153.765 44.3428C158.505 46.318 162.795 45.3912 166.635 41.5623C169.035 44.753 172.275 45.771 176.355 44.6163V37.7335L173.79 35.8191V20.5949ZM165.735 34.8163C164.955 36.2141 164.07 37.1409 163.08 37.5967C160.89 38.8426 158.88 38.8426 157.05 37.5967C154.62 35.2873 154.62 33.2057 157.05 31.3521H165.735V34.8163Z" fill="#F03024"/>
</svg>
