<svg width="72" height="80" xmlns="http://www.w3.org/2000/svg"><g stroke="#FFF" stroke-width="2.8" fill="none" fill-rule="evenodd" stroke-linecap="round" stroke-linejoin="round"><path d="M51 74.5l-10.5 3 3-10.5L63 47.5l7.5 7.5zm6-21l7.5 7.5m-21 6l7.5 7.5m-9.177-26.163L30 44.101v-6.135m-12 .003v6.132L6.177 48.337C3.345 49.351 1.5 52.036 1.5 55.036V59.5H33"/><path d="M35.841 25.708c0 7.854-5.304 14.223-11.841 14.223-6.543 0-11.841-6.369-11.841-14.223C12.159 17.863 17.457 11.5 24 11.5c6.54 0 11.841 6.363 11.841 14.208z"/><path d="M35.748 24.433c-.396.054-.723.018-1.122.099-4.035.774-6.624-.687-8.847-4.575-1.332 2.553-5.493 4.575-8.916 4.575-1.686 0-3.135-.345-4.584-1.107M43.5 11.5c6.54 0 11.841 6.363 11.841 14.208 0 7.854-5.304 14.223-11.841 14.223"/><path d="M55.248 24.433c-.396.054-.723.018-1.122.099-4.035.774-6.624-.687-8.847-4.575M49.5 43v-5.034"/></g></svg>