<svg width="72" height="80" xmlns="http://www.w3.org/2000/svg"><g stroke="#FFF" stroke-width="2.8" fill="none" fill-rule="evenodd" stroke-linecap="round" stroke-linejoin="round"><g transform="translate(34 36)"><path d="M33.125 15.251l3.216-1.857-4.5-7.794-3.243 1.872c-1.59-1.458-3.492-2.541-5.598-3.21V.5h-9v3.762c-2.106.669-4.008 1.752-5.598 3.21L5.159 5.6l-4.5 7.794 3.216 1.857c-.498 2.247-.501 4.242 0 6.498l-3.21 1.854 4.5 7.794 3.237-1.869A14.918 14.918 0 0 0 14 32.735V36.5h9v-3.762a14.918 14.918 0 0 0 5.598-3.207l3.237 1.869 4.5-7.794-3.21-1.854c.501-2.256.498-4.254 0-6.501z"/><circle cx="18.5" cy="18.5" r="6"/></g><path d="M61.5 32V9.5h-12m-36 0h-12v48h27"/><path d="M13.5 3.5h9v12h-9zm27 0h9v12h-9zm-18 6h18m-39 15h60"/></g></svg>