<svg width="72" height="80" xmlns="http://www.w3.org/2000/svg"><g stroke="#FFF" stroke-width="2.8" fill="none" fill-rule="evenodd" stroke-linecap="round" stroke-linejoin="round"><path d="M41.428 57.584c10.093-.06 16.306-.823 18.43-6.325 1.512-3.913-.21-6.755-2.516-7"/><path d="M41.429 57.588c0 1.035-.961 1.874-2.148 1.874h-.887c-1.186 0-2.147-.84-2.147-1.874 0-1.035.96-1.874 2.147-1.874h.887c1.187 0 2.148.84 2.148 1.874z"/><path d="M56.051 31.142c0 2.352-1.355 9.213-.677 11.19a3.565 3.565 0 0 1 2.09 3.252c0 1.968-1.58 3.564-3.527 3.564-.021 0-.042-.003-.062-.004-.73 9.392-11.118 17.32-17.978 17.32-6.684 0-17.248-7.928-17.978-17.32-.02 0-.04.004-.061.004-1.948 0-3.527-1.596-3.527-3.564 0-1.45.859-2.696 2.09-3.253.739-2.348-.33-8.206-.33-10.558m15.045 25.815h1.811"/><path d="M16.09 31.773s25.641-3.232 27.655-9.11c0 0 7.384 10.061 12.306 8.479"/><path d="M19.876 62.144C6.638 63.775 2.728 60.067 7.792 31.155 12.939 1.767 41.195 9.443 41.195 9.443s15.11-2.508 21.473 17.533c5.926 18.666 7.348 37.239-10.594 35.51M30.772 41.76h-2.576m15.93 0h-2.575"/></g></svg>