<svg width="72" height="80" xmlns="http://www.w3.org/2000/svg"><g fill="none" fill-rule="evenodd"><path d="M34.5 43.5v21c0 3.312-2.688 6-6 6h-21c-3.312 0-6-2.688-6-6v-45c0-3.312 2.688-6 6-6h9m0 12h-15m33 33h-33m12-39h3m54 4.5c0 2.484-2.016 4.5-4.5 4.5H49.5l-9 9v-9H30a4.502 4.502 0 0 1-4.5-4.5V6c0-2.484 2.016-4.5 4.5-4.5h36c2.484 0 4.5 2.016 4.5 4.5v18z" stroke="#FFF" stroke-width="2.8" stroke-linecap="round" stroke-linejoin="round"/><path d="M49.5 12a1.5 1.5 0 1 0 .001 2.999A1.5 1.5 0 0 0 49.5 12zm9 0a1.5 1.5 0 1 0 .001 2.999A1.5 1.5 0 0 0 58.5 12zm-17.907 0a1.5 1.5 0 1 0 .001 2.999A1.5 1.5 0 0 0 40.593 12z" fill="#FFF"/><path d="M19.5 64.5a1.5 1.5 0 0 1-3 0 1.5 1.5 0 0 1 3 0z" stroke="#FFF" stroke-width="2.8" stroke-linecap="round" stroke-linejoin="round"/></g></svg>