<svg width="20" height="19" viewBox="0 0 20 19" fill="none" xmlns="http://www.w3.org/2000/svg">
<path fill-rule="evenodd" clip-rule="evenodd" d="M11.4917 12.1422H11.4678C10.2463 12.1309 9.26356 11.1298 9.2761 9.91598C9.2875 8.70708 10.2821 7.73128 11.4917 7.73128H11.5157C12.7371 7.74337 13.7191 8.74373 13.7074 9.95792C13.7013 10.5473 13.4679 11.1011 13.0423 11.5117C12.6242 11.9224 12.0785 12.1426 11.4917 12.1426V12.1422ZM17.4089 15.1664L17.3607 15.1603H11.6833V12.4872C12.2883 12.4456 12.8576 12.1898 13.2946 11.7671C13.7849 11.2911 14.0608 10.6481 14.0669 9.96358C14.0847 8.55257 12.9412 7.39203 11.5218 7.3739H11.4913C10.7852 7.3739 10.1506 7.65345 9.68312 8.11812C9.21567 8.57071 8.92874 9.20764 8.91696 9.90994C8.90556 11.279 9.98297 12.4101 11.3424 12.494V15.333C11.3424 15.4282 11.4203 15.5056 11.5103 15.5056H17.3611L17.4086 15.4996V17.9344H2.58702V6.21298L10.0008 0.90894L10.0905 0.974296L17.4082 6.21298V15.1664H17.4089ZM19.8344 6.89789L10.2403 0.0759339C10.0966 -0.0253113 9.90582 -0.0253113 9.76141 0.0759339L0.167308 6.89789C-0.012831 7.0286 -0.0546353 7.28474 0.0768584 7.46343C0.142985 7.55259 0.238755 7.61228 0.346687 7.62965C0.454238 7.64174 0.562169 7.61832 0.646918 7.55259L1.77183 6.74905V18.3458C1.77183 18.566 1.95729 18.75 2.17848 18.75H17.8209C18.0489 18.75 18.2283 18.566 18.2283 18.3458V6.75547L19.3479 7.55259C19.5341 7.68405 19.7971 7.63645 19.9229 7.46381C20.0548 7.28512 20.0126 7.02936 19.8336 6.89827L19.8344 6.89789Z" fill="#1A96E5"/>
<path fill-rule="evenodd" clip-rule="evenodd" d="M11.4856 10.6541C11.0904 10.6481 10.7673 10.3205 10.7734 9.92765C10.7795 9.73724 10.8513 9.55855 10.9889 9.42784C11.1269 9.29071 11.3062 9.21931 11.4921 9.21931H11.4978C11.8991 9.22535 12.216 9.54684 12.2107 9.94578C12.2046 10.3387 11.8991 10.6485 11.486 10.6541H11.4856ZM11.5042 8.8623H11.4928C11.2108 8.8623 10.9418 8.97564 10.7377 9.17208C10.5348 9.36853 10.4207 9.64204 10.4147 9.92765C10.409 10.517 10.8878 11.0051 11.4807 11.0111H11.4928C12.0796 11.0111 12.5645 10.5351 12.5706 9.94578C12.5767 9.35644 12.0975 8.86797 11.5046 8.8623" fill="#1A96E5"/>
</svg>
