<svg width="12" height="18" viewBox="0 0 12 18" fill="none" xmlns="http://www.w3.org/2000/svg">
<mask id="mask0" mask-type="alpha" maskUnits="userSpaceOnUse" x="0" y="9" width="12" height="9">
<path d="M11.6425 9.00366V18H0V9.00366H11.6425Z" fill="white"/>
</mask>
<g mask="url(#mask0)">
<path fill-rule="evenodd" clip-rule="evenodd" d="M11.6429 9.49197C11.6429 9.22188 11.4239 9.00366 11.1538 9.00366C10.8837 9.00366 10.665 9.22188 10.665 9.49197C10.665 12.1629 8.49234 14.3356 5.82145 14.3356C3.15056 14.3356 0.977035 12.1629 0.977035 9.49197C0.977446 9.22188 0.75923 9.00366 0.489135 9.00366C0.21904 9.00366 0 9.22188 0 9.49156C0 12.5371 2.35098 15.0433 5.33272 15.2928V17.0221H3.1555C2.8854 17.0221 2.66677 17.2403 2.66677 17.5104C2.66677 17.7805 2.88499 17.9995 3.1555 17.9995H8.4874C8.75749 17.9995 8.97653 17.7805 8.97653 17.5104C8.97653 17.2407 8.75749 17.0217 8.48781 17.0217H6.31058V15.2924C9.29233 15.0433 11.6425 12.5371 11.6425 9.49115" fill="white"/>
</g>
<path fill-rule="evenodd" clip-rule="evenodd" d="M5.82258 0C3.86439 0 2.27759 1.58722 2.27759 3.54499V9.49449C2.27759 11.4486 3.86439 13.0403 5.82258 13.0403C7.77665 13.0403 9.36757 11.4486 9.36757 9.49449V3.54499C9.36757 1.58722 7.77665 0 5.82258 0ZM5.82258 12.4309C5.01147 12.4309 4.27448 12.1032 3.74335 11.5684C3.2081 11.0381 2.88077 10.3044 2.88077 9.49325V3.54582C2.88077 2.73553 3.20851 1.99771 3.74335 1.4674C4.27448 0.932156 5.01147 0.604831 5.82258 0.604831C6.63369 0.604831 7.36657 0.932568 7.8977 1.4674C8.43212 1.99771 8.75986 2.73553 8.75986 3.54664V9.49449C8.75986 10.3056 8.43212 11.0385 7.89729 11.5696C7.36698 12.104 6.6341 12.4318 5.82299 12.4318" fill="white"/>
</svg>
