<svg width="20" height="16" viewBox="0 0 20 16" fill="none" xmlns="http://www.w3.org/2000/svg">
<path fill-rule="evenodd" clip-rule="evenodd" d="M15.8299 0.457433C15.1544 0.457433 14.6038 1.01026 14.6038 1.68898C14.6038 2.36927 15.154 2.92366 15.8299 2.92366C16.5043 2.92366 17.0521 2.36966 17.0521 1.68898C17.0521 1.01026 16.5047 0.457433 15.8299 0.457433ZM15.8299 3.3811C14.9039 3.3811 14.1503 2.62184 14.1503 1.68898C14.1503 0.758479 14.9035 0 15.8299 0C16.754 0 17.506 0.758479 17.506 1.68898C17.506 2.62184 16.7544 3.3811 15.8299 3.3811Z" fill="#1A96E5"/>
<path fill-rule="evenodd" clip-rule="evenodd" d="M12.8411 9.54121L15.5061 11.1395L15.5539 14.9221C15.5523 14.9757 15.5577 15.0257 15.5709 15.0824C15.6463 15.3991 15.9689 15.6024 16.288 15.5262C16.5606 15.4609 16.752 15.2075 16.7435 14.9241L16.6841 10.4651C16.7213 9.89738 16.4162 9.70855 16.4131 9.70659L14.1449 8.30223L15.6831 5.31797L17.3464 6.35325C17.3503 6.35521 17.4559 6.4205 17.5922 6.4205C17.7669 6.4205 17.9253 6.30868 18.0604 6.08818L19.5137 3.6888C19.5463 3.61726 19.5564 3.51795 19.5323 3.41513C19.4779 3.18524 19.2462 3.03589 19.012 3.09179C18.9111 3.11603 18.8257 3.17312 18.7651 3.256L17.4458 5.41102L14.8833 3.82369C14.7521 3.74549 14.5871 3.71813 14.4349 3.75527L11.4337 4.47739C11.3133 4.50632 11.2116 4.58686 11.1569 4.69828L9.65045 7.60631C9.56581 7.72985 9.54329 7.84871 9.57163 7.96795C9.62288 8.1869 9.84729 8.32765 10.0686 8.27447C10.1897 8.24476 10.2907 8.165 10.3435 8.05436L11.7878 5.25581L13.4794 4.85819L10.1377 11.3561L7.1695 12.0598C7.11437 12.0723 7.06662 12.088 7.02002 12.1107C6.87754 12.1799 6.77232 12.2999 6.72107 12.4485C6.6706 12.597 6.68147 12.7573 6.75213 12.9008C6.87249 13.1557 7.16213 13.2898 7.43546 13.2214L10.769 12.4148C11.3514 12.2956 11.5114 12.0082 11.5172 11.9957L12.8392 9.54121H12.8411ZM16.149 16C15.6626 16 15.2433 15.6665 15.1299 15.188C15.1077 15.0926 15.098 15.0058 15.0988 14.9205L15.0561 11.401L13.0154 10.1785L11.9217 12.2076C11.9023 12.2487 11.6674 12.6987 10.8696 12.8617L7.54611 13.6659C7.08875 13.7813 6.55684 13.542 6.34563 13.1018C6.22294 12.8515 6.20391 12.5661 6.2936 12.3003C6.3829 12.036 6.57198 11.8225 6.82435 11.699C6.90471 11.6599 6.98897 11.6313 7.07477 11.6141L9.83254 10.9589L12.6241 5.52831L12.0972 5.65264L10.7511 8.25923C10.6417 8.48794 10.4308 8.65801 10.1765 8.719C9.71218 8.83239 9.24084 8.53369 9.13213 8.07391C9.07467 7.82916 9.12359 7.57229 9.2653 7.36899L10.7543 4.49146C10.8668 4.26275 11.0773 4.09385 11.3304 4.03325L14.3305 3.31113C14.5972 3.24779 14.8806 3.29158 15.1186 3.43233L17.2994 4.78273L18.3904 3.00109C18.5232 2.81733 18.7038 2.69613 18.9068 2.64765C19.3832 2.53545 19.8639 2.83766 19.9753 3.31074C20.023 3.51639 20.0013 3.72243 19.9124 3.90814L18.4479 6.32823C18.1695 6.78293 17.8294 6.87872 17.5926 6.87872C17.3224 6.87872 17.1247 6.75439 17.1034 6.73992L15.8602 5.96698L14.742 8.13568L16.6445 9.31328C16.6592 9.3211 17.1942 9.63543 17.1375 10.4772L17.1973 14.9147C17.2129 15.4093 16.8751 15.8557 16.3936 15.9711C16.3137 15.9895 16.2314 15.9996 16.149 15.9996V16ZM10.0907 2.44591C10.0907 2.72937 9.86865 2.953 9.59104 2.953H5.03876C4.76699 2.953 4.54413 2.72937 4.54413 2.45491C4.54413 2.17106 4.76737 1.94743 5.03915 1.94743H9.59066C9.86865 1.94743 10.0907 2.17106 10.0907 2.44552V2.44591ZM7.82099 5.6456C7.82099 5.92944 7.59891 6.15308 7.32131 6.15308H2.76903C2.49725 6.15308 2.27401 5.92944 2.27401 5.65498C2.27401 5.37153 2.49686 5.1479 2.76903 5.1479H7.32131C7.59891 5.1479 7.82099 5.37153 7.82099 5.64599V5.6456ZM5.54699 8.84568C5.54699 9.12913 5.32452 9.35276 5.05235 9.35276H0.499295C0.222858 9.35276 0 9.12913 0 8.85467C0 8.57122 0.222858 8.34758 0.499295 8.34758H5.05196C5.32452 8.34758 5.54699 8.57161 5.54699 8.84607" fill="#1A96E5"/>
</svg>
