<svg width="20" height="18" viewBox="0 0 20 18" fill="none" xmlns="http://www.w3.org/2000/svg">
<path fill-rule="evenodd" clip-rule="evenodd" d="M6.98299 7.00078C5.77746 6.7784 5.03913 6.5738 4.58971 6.12902C4.14493 5.68038 3.93995 4.94166 3.71795 3.73612C3.7048 3.66071 3.63789 3.60269 3.55821 3.60269C3.47777 3.60269 3.41124 3.66071 3.39771 3.73612C3.17532 4.94166 2.97072 5.67999 2.52169 6.12902C2.07691 6.5738 1.3382 6.77878 0.133433 7.00078C0.0576276 7.01432 0 7.08084 0 7.1609C0 7.24096 0.0580143 7.30787 0.133433 7.32102C1.33858 7.54341 2.07691 7.74801 2.52169 8.19279C2.97033 8.6422 3.17532 9.38092 3.39771 10.5861C3.41124 10.6615 3.47777 10.7191 3.55821 10.7191C3.63789 10.7191 3.70518 10.6611 3.71795 10.5861C3.94033 9.38092 4.14493 8.6422 4.58971 8.19279C5.03913 7.74801 5.77707 7.54302 6.98299 7.32102C7.05841 7.30787 7.11643 7.24096 7.11643 7.1609C7.11643 7.08084 7.05841 7.01393 6.98299 7.00078ZM5.95111 7.20577C5.17681 7.39722 4.70071 7.62347 4.35881 7.9615C4.02078 8.30417 3.79336 8.77564 3.59805 9.5538L3.55821 9.72707L3.51335 9.55303C3.3219 8.7795 3.09565 8.30379 2.75723 7.96111C2.41417 7.62308 1.93845 7.39644 1.16493 7.20499L0.990885 7.16052L1.16493 7.11604C1.93845 6.92498 2.41417 6.69834 2.7522 6.36031C3.09526 6.01763 3.3219 5.54617 3.51296 4.76762L3.55744 4.59435L3.59728 4.76762C3.79259 5.54114 4.02001 6.01763 4.35804 6.35566C4.69994 6.69834 5.17179 6.92537 5.95034 7.11643L6.12322 7.1609L5.94995 7.20538L5.95111 7.20577ZM10.5853 2.16161C9.82918 2.02393 9.37086 1.89475 9.09549 1.62401C8.82398 1.34787 8.69519 0.889167 8.55712 0.133433C8.54397 0.0533732 8.47706 0 8.397 0C8.31694 0 8.25003 0.0533732 8.23688 0.133433C8.09455 0.889553 7.97001 1.35173 7.69928 1.62363C7.42313 1.89436 6.96443 2.01929 6.2087 2.16123C6.12825 2.17515 6.07526 2.24167 6.07526 2.32173C6.07526 2.40179 6.12825 2.4687 6.2087 2.48185C6.96482 2.61993 7.42313 2.74872 7.69889 3.02023C7.9704 3.29096 8.09494 3.75391 8.23726 4.51004C8.2508 4.58584 8.31732 4.64347 8.39738 4.64347C8.47744 4.64347 8.54435 4.58545 8.5575 4.51004C8.69558 3.75391 8.82437 3.2956 9.09588 3.02023C9.37164 2.74872 9.82957 2.61993 10.5857 2.48185C10.6615 2.4687 10.7191 2.40179 10.7191 2.32173C10.7191 2.24167 10.6611 2.17476 10.5853 2.16161ZM9.64237 2.3666C8.9578 2.57545 8.65497 2.88215 8.43722 3.56711L8.397 3.70518L8.35213 3.56711C8.13941 2.88254 7.83658 2.57545 7.14737 2.36621L7.01393 2.32173L7.14737 2.27726C7.83658 2.06376 8.13903 1.76132 8.35213 1.07211L8.397 0.938285L8.43722 1.07172C8.65497 1.76016 8.95742 2.06299 9.64237 2.27648L9.78045 2.32096L9.64237 2.36544V2.3666ZM19.7384 7.38445C19.4677 6.37384 19.0229 5.47539 18.3863 4.6307C17.7365 3.75894 16.9452 3.05194 16.0336 2.53136C15.1131 2.00536 14.1257 1.66772 13.1027 1.53506C12.9519 1.51185 12.8405 1.57064 12.7647 1.70756C12.685 1.84602 12.6893 1.97055 12.7871 2.09122C13.6945 3.26969 14.1833 4.55877 14.2769 6.0362C14.3659 7.47689 14.041 8.8557 13.3073 10.1328C12.663 11.2621 11.7734 12.1556 10.6619 12.7968C9.55844 13.4369 8.33511 13.7622 7.02322 13.7622C6.60049 13.7622 6.28914 13.7436 6.07178 13.708H6.04471C5.90663 13.708 5.81342 13.7622 5.7469 13.8782C5.66259 14.0283 5.66645 14.1489 5.76895 14.2781C6.44037 15.1491 7.21931 15.8437 8.09068 16.3411C9.3844 17.0798 10.7187 17.453 12.0577 17.453C13.4408 17.453 14.7662 17.0879 16.0073 16.3724C17.2566 15.6291 18.2447 14.6413 18.9382 13.433C19.4808 12.5075 19.8146 11.5023 19.9391 10.4434C20.0637 9.36661 19.9972 8.33473 19.7388 7.38407L19.7384 7.38445ZM18.3561 13.0269C17.7064 14.1524 16.8033 15.0505 15.6782 15.7002C14.5581 16.3492 13.339 16.6787 12.0581 16.6787C10.7818 16.6787 9.5627 16.3492 8.42446 15.6925C7.94371 15.4156 7.50396 15.0961 7.12571 14.7353L6.8279 14.446L7.24096 14.4328C8.60237 14.4011 9.89183 14.0275 11.0796 13.3209C12.2631 12.6185 13.2145 11.6578 13.8952 10.4658C14.5933 9.2645 14.9534 7.96111 14.9673 6.5912C14.9801 5.19499 14.6598 3.8916 14.0151 2.71352L13.8063 2.33063L14.224 2.46832C14.7132 2.62844 15.2075 2.85121 15.6879 3.12697C17.6623 4.25632 19.0009 6.31157 19.2724 8.619C19.4503 10.1324 19.1254 11.6976 18.3565 13.0273" fill="white"/>
</svg>
