<svg width="20" height="17" viewBox="0 0 20 17" fill="none" xmlns="http://www.w3.org/2000/svg">
<path fill-rule="evenodd" clip-rule="evenodd" d="M19.2165 0H0.77949C0.349014 0 0 0.392992 0 0.879593V15.7871C0 16.2737 0.349014 16.6667 0.77949 16.6667H19.2165C19.647 16.6667 20 16.2737 20 15.7871V0.879593C20 0.393396 19.647 0 19.2165 0ZM19.4741 15.1564C19.4741 15.3691 19.3223 15.5458 19.1339 15.5458H0.869739C0.680457 15.5458 0.529111 15.3691 0.529111 15.1564V1.5288C0.529111 1.31899 0.685648 1.13903 0.869739 1.13903H19.1339C19.3227 1.13903 19.4741 1.31495 19.4741 1.5288V15.1564Z" fill="#1A96E5"/>
<path fill-rule="evenodd" clip-rule="evenodd" d="M17.3277 4.52788L17.5553 2.76466L15.9947 2.50764C15.8709 2.48746 15.7926 2.36844 15.811 2.22924C15.829 2.09084 15.9348 2.00127 16.0578 2.02104L17.844 2.31558C17.9678 2.33575 18.0465 2.45519 18.0289 2.59398L17.7681 4.61221C17.7502 4.7506 17.6443 4.84017 17.5205 4.82C17.4594 4.80991 17.4127 4.76634 17.3776 4.71348C17.3416 4.65941 17.3193 4.59647 17.3281 4.52788" fill="#1A96E5"/>
<path fill-rule="evenodd" clip-rule="evenodd" d="M14.7041 4.87692L17.6918 2.36161C17.7857 2.28253 17.929 2.30633 17.9993 2.41245C18.0692 2.51897 18.0492 2.68036 17.9542 2.75944L14.9552 5.28525C14.8602 5.36514 14.7168 5.34173 14.6466 5.23521C14.5683 5.11619 14.597 4.96649 14.7033 4.87732L14.7041 4.87692ZM2.67228 11.8435L2.44546 13.6067L4.00604 13.8633C4.12983 13.8835 4.2081 14.0021 4.18973 14.1417C4.17176 14.2801 4.06594 14.3701 3.94215 14.3503L2.15715 14.0558C2.03335 14.0348 1.95429 13.9153 1.97186 13.7761L2.23262 11.7587C2.25019 11.6195 2.35641 11.5304 2.47941 11.5505C2.5405 11.5602 2.58802 11.6042 2.62316 11.6575C2.6583 11.7107 2.68107 11.7733 2.67228 11.8431" fill="#1A96E5"/>
<path fill-rule="evenodd" clip-rule="evenodd" d="M5.29717 11.494L2.30899 14.0097C2.21515 14.0884 2.07179 14.065 2.00151 13.9589C1.93122 13.8519 1.95159 13.6905 2.04663 13.6103L5.04559 11.0857C5.14023 11.005 5.28399 11.0292 5.35387 11.1349C5.43254 11.2543 5.40339 11.404 5.29717 11.4932" fill="#1A96E5"/>
</svg>
