<svg width="14" height="19" viewBox="0 0 14 19" fill="none" xmlns="http://www.w3.org/2000/svg">
<mask id="mask0" mask-type="alpha" maskUnits="userSpaceOnUse" x="0" y="0" width="14" height="19">
<path d="M13.8708 18.4531V0.453125H0V18.4531H13.8708Z" fill="white"/>
</mask>
<g mask="url(#mask0)">
<path fill-rule="evenodd" clip-rule="evenodd" d="M12.1003 18.4531H1.77006C0.793825 18.4531 0 17.6581 0 16.6818V2.224C0 1.24817 0.793825 0.453125 1.77006 0.453125H9.70424C9.90047 0.453125 10.091 0.533157 10.2283 0.672503L13.6547 4.09887C13.794 4.23781 13.8712 4.42306 13.8712 4.6201V16.6818C13.8712 17.6585 13.077 18.4531 12.1008 18.4531H12.1003ZM9.66971 1.22582L1.77006 1.24004C1.22811 1.24004 0.786919 1.68164 0.786919 2.2244V16.6818C0.786919 17.2242 1.22811 17.6662 1.77006 17.6662H12.1003C12.6431 17.6662 13.0843 17.2242 13.0843 16.6814V4.6201L9.66971 1.22623V1.22582Z" fill="white"/>
</g>
<path fill-rule="evenodd" clip-rule="evenodd" d="M2.73159 2.57822V3.93105C2.73159 4.06918 2.61702 4.17968 2.48255 4.17968C2.34442 4.17968 2.23474 4.06877 2.23474 3.93186V2.5774C2.23474 2.43846 2.34442 2.32837 2.48255 2.32837C2.61743 2.32837 2.73199 2.43806 2.73199 2.577L2.73159 2.57822ZM4.44843 2.57822V3.93105C4.44843 4.06918 4.33752 4.17968 4.19939 4.17968C4.06614 4.17968 3.95036 4.06877 3.95036 3.93186V2.5774C3.95036 2.43846 4.06614 2.32837 4.19939 2.32837C4.33752 2.32837 4.44802 2.43806 4.44802 2.577L4.44843 2.57822ZM6.16933 2.57822V3.93105C6.16933 4.06918 6.05964 4.17968 5.92029 4.17968C5.78623 4.17968 5.67166 4.06877 5.67166 3.93186V2.5774C5.67166 2.43846 5.78704 2.32837 5.9207 2.32837C6.05964 2.32837 6.16973 2.43806 6.16973 2.577L6.16933 2.57822ZM7.89064 2.57822V3.93105C7.89064 4.06918 7.78095 4.17968 7.6416 4.17968C7.50347 4.17968 7.39378 4.06877 7.39378 3.93186V2.5774C7.39378 2.43846 7.50347 2.32837 7.6416 2.32837C7.78054 2.32837 7.89064 2.43806 7.89064 2.577V2.57822ZM9.61194 2.57822V3.93105C9.61194 4.06918 9.49657 4.17968 9.36291 4.17968C9.22478 4.17968 9.11428 4.06877 9.11428 3.93186V2.5774C9.11428 2.43846 9.22397 2.32837 9.36291 2.32837C9.49697 2.32837 9.61194 2.43806 9.61194 2.577V2.57822ZM11.3142 4.64281V5.97736C11.3142 6.11143 11.2037 6.22599 11.0651 6.22599C10.9311 6.22599 10.8161 6.11062 10.8161 5.97696V4.64241C10.8161 4.50428 10.9311 4.39459 11.0651 4.39459C11.2033 4.39459 11.3138 4.50428 11.3138 4.64241L11.3142 4.64281ZM10.5951 16.265H3.27516C2.60077 16.265 2.05151 15.7478 2.05151 15.112V10.0826C2.05151 9.44598 2.60077 8.92882 3.27556 8.92882H10.5951C11.2695 8.92882 11.8179 9.44598 11.8179 10.0826V15.112C11.8179 15.7478 11.2695 16.2658 10.5951 16.2658V16.265ZM3.27516 9.42079C2.87215 9.42079 2.5439 9.71817 2.5439 10.083V15.1124C2.5439 15.4769 2.87215 15.7738 3.27516 15.7738H10.5951C10.9981 15.7738 11.3263 15.4773 11.3263 15.1124V10.083C11.3263 9.71817 10.9981 9.42079 10.5951 9.42079H3.27516Z" fill="white"/>
</svg>
