<svg width="16" height="18" viewBox="0 0 16 18" fill="none" xmlns="http://www.w3.org/2000/svg">
<mask id="mask0" mask-type="alpha" maskUnits="userSpaceOnUse" x="0" y="0" width="16" height="18">
<path d="M15.6522 0H0V18H15.6522V0Z" fill="white"/>
</mask>
<g mask="url(#mask0)">
<path fill-rule="evenodd" clip-rule="evenodd" d="M14.1977 6.62087C13.5708 6.45652 13.3173 6.45261 11.3388 6.399L10.8986 6.3853L10.9205 6.28278C11.0317 5.76743 11.0543 5.29161 11.0543 4.53991C11.0543 2.6413 10.3336 0 9.16904 0C8.34143 0 7.65704 0.676174 7.64765 1.512C7.63474 2.55287 6.64748 5.50487 4.78448 6.48743C4.65143 6.55396 4.27304 6.74491 4.21083 6.77191L4.19322 6.72691L4.14939 6.78052L4.11809 6.75822C3.82461 6.51365 3.46461 6.37083 3.13083 6.37083H1.521C0.684783 6.372 0 7.05287 0 7.89261V16.4794C0 17.3191 0.684783 18 1.521 18H3.13043C3.70839 18 4.22413 17.6666 4.48239 17.1243L4.51761 17.0527L4.73987 17.1153V17.208L4.76217 17.1239C5.18087 17.2256 5.90987 17.3947 6.93665 17.6349C7.101 17.6701 8.5903 17.9996 10.1203 17.9996H11.7129C12.5746 17.9996 13.1928 17.6662 13.5575 17.0127C13.5888 16.9501 13.6953 16.7318 13.7798 16.452C13.8643 16.1812 13.869 15.8478 13.7935 15.554L13.7755 15.496L13.8287 15.4608C14.3804 15.082 14.5577 14.5045 14.6778 14.1226C14.8422 13.5931 14.8422 13.122 14.6778 12.717L14.6559 12.6638L14.7001 12.6188C15.0601 12.2807 15.2918 11.801 15.3896 11.1866C15.46 10.7691 15.3896 10.3336 15.194 9.96848L15.1627 9.91487L15.2018 9.86635C15.469 9.57287 15.6205 9.17765 15.6385 8.75504L15.6471 8.64352C15.651 8.56839 15.651 8.51948 15.651 8.37665C15.651 7.73217 15.1979 6.90926 14.1973 6.62087H14.1977ZM3.75652 16.4798C3.75652 16.8265 3.47713 17.1067 3.13043 17.1067H1.521C1.17783 17.1067 0.893739 16.8265 0.893739 16.4798V7.89261C0.893739 7.55061 1.17783 7.26574 1.521 7.26574H3.13043C3.47713 7.26574 3.75652 7.55061 3.75652 7.89261V16.4794V16.4798ZM14.7537 8.58248C14.7498 8.61378 14.7498 8.65291 14.7447 8.72061C14.7318 9.04539 14.5671 9.59165 13.5982 9.59165H11.6323C11.5345 9.59165 11.4547 9.67226 11.4547 9.77478C11.4547 9.87261 11.5349 9.95204 11.6323 9.95204H13.5622C13.887 9.95204 14.1363 10.0507 14.3049 10.2502C14.5143 10.4905 14.5452 10.8293 14.5096 11.0465C14.371 11.8604 13.9539 12.2783 13.2597 12.2783H11.0986C10.996 12.2783 10.9166 12.3582 10.9166 12.4564C10.9166 12.5542 10.996 12.634 11.0986 12.634H13.0418C13.3881 12.634 13.6327 12.7319 13.7751 12.9236C13.9707 13.1944 13.9081 13.5771 13.824 13.8526L13.8017 13.9238C13.6413 14.4348 13.4769 14.9596 12.3206 14.9596H10.555C10.4572 14.9596 10.3774 15.0398 10.3774 15.1372C10.3774 15.2401 10.4576 15.32 10.555 15.32H12.2846C12.5828 15.32 12.7385 15.4491 12.8187 15.5602C12.9753 15.7696 12.9655 16.0493 12.926 16.1875C12.8673 16.3702 12.8054 16.5123 12.7745 16.5835C12.5163 16.9396 12.1653 17.1078 11.7121 17.1078H10.1195C8.63022 17.1078 7.14561 16.7658 7.12722 16.7611C5.01026 16.272 4.79739 16.2133 4.65926 16.1742C4.46361 16.1382 4.11691 15.9824 4.11691 15.6091V8.19548C4.11691 7.8973 4.31257 7.63983 4.60604 7.55061C4.61504 7.54591 4.63343 7.54161 4.65065 7.53261C4.66865 7.5287 4.69096 7.5193 4.70817 7.515C7.14052 6.50543 8.51948 3.33078 8.54139 1.52022C8.5453 1.21422 8.78126 0.89413 9.16826 0.89413C9.86596 0.89413 10.1551 3.26817 10.1551 4.53991C10.1551 5.80265 10.1015 6.04761 9.69261 7.26574C13.3834 7.22544 13.5391 7.27904 13.8815 7.38587C13.93 7.40387 13.9833 7.42109 14.0545 7.43948C14.708 7.72356 14.7569 8.23109 14.7569 8.37704C14.7569 8.49757 14.753 8.52887 14.753 8.58209L14.7537 8.58248Z" fill="white"/>
</g>
</svg>
