<svg width="20" height="11" viewBox="0 0 20 11" fill="none" xmlns="http://www.w3.org/2000/svg">
<path fill-rule="evenodd" clip-rule="evenodd" d="M0 0.330906C0 0.413389 0.0306839 0.495873 0.0907319 0.56054L9.89704 10.3662C9.95246 10.4223 10.0389 10.4572 10.1392 10.4572C10.2306 10.4572 10.3124 10.4269 10.3642 10.3797C10.4335 10.3058 10.4685 10.223 10.4685 10.1365C10.4685 10.0409 10.4338 9.963 10.3738 9.89768L0.572436 0.0969825C0.459268 -0.0165149 0.207529 -0.0165149 0.0993102 0.0920334C0.0346431 0.153071 0.00032993 0.235225 0.00032993 0.330906" fill="#1A96E5"/>
<path fill-rule="evenodd" clip-rule="evenodd" d="M19.6799 0C19.5974 0 19.515 0.0306839 19.4506 0.0907319L10.0779 9.89704C10.0218 9.95312 9.98712 10.0389 9.98712 10.1392C9.98712 10.2306 10.0178 10.3128 10.0653 10.3646C10.1389 10.4338 10.2214 10.4685 10.3085 10.4685C10.4035 10.4685 10.4814 10.4342 10.546 10.3738L19.9148 0.573096C20.0277 0.459268 20.0277 0.207859 19.9191 0.0993102C19.8581 0.034973 19.7759 0.000329932 19.6803 0.000329932" fill="#1A96E5"/>
<path fill-rule="evenodd" clip-rule="evenodd" d="M13.7675 6.45451C13.7322 6.47563 13.6969 6.4852 13.6619 6.4852C13.6048 6.4852 13.5554 6.4588 13.5247 6.40931C13.1433 5.82533 12.6306 5.35913 11.9964 5.02029C11.3702 4.6854 10.6988 4.51549 9.99702 4.51549C9.29294 4.51549 8.62119 4.6854 7.99762 5.02029C7.37074 5.35682 6.85769 5.82302 6.47596 6.40931C6.44297 6.4588 6.40271 6.47992 6.33937 6.47992C6.28229 6.47992 6.24962 6.46144 6.2427 6.45682C6.20244 6.43043 6.17407 6.39314 6.16483 6.34794C6.15559 6.3034 6.16483 6.25622 6.19321 6.21399C6.60562 5.58513 7.15892 5.08133 7.8376 4.71609C8.51561 4.35316 9.22002 4.17896 9.99702 4.17896C10.7625 4.17896 11.4877 4.35811 12.1568 4.71609C12.8354 5.08133 13.3907 5.58513 13.8081 6.21399C13.8619 6.29878 13.8411 6.39776 13.7678 6.45418" fill="#1A96E5"/>
</svg>
