<svg width="20" height="15" viewBox="0 0 20 15" fill="none" xmlns="http://www.w3.org/2000/svg">
<path fill-rule="evenodd" clip-rule="evenodd" d="M11.7072 11.2633C11.3529 10.6961 10.7084 10.355 9.98708 10.355C9.27024 10.355 8.63483 10.6961 8.28546 11.258C8.06762 11.6165 7.95418 12.0027 7.95418 12.4019C7.95418 12.81 8.06205 13.1918 8.28476 13.5453C8.63483 14.108 9.27442 14.4483 9.98639 14.4483C10.7081 14.4483 11.3484 14.108 11.7068 13.5453C11.9476 13.1688 12.0611 12.8059 12.0611 12.4019C12.0611 12.0121 11.9427 11.6398 11.7068 11.2633H11.7072ZM11.0122 13.0693C10.7721 13.4371 10.4318 13.6226 9.99613 13.6226C9.54724 13.6226 9.20621 13.4371 8.97515 13.0693C8.85684 12.8744 8.79768 12.6468 8.79768 12.4019C8.79768 12.1478 8.85684 11.9258 8.97515 11.7303C9.19299 11.3812 9.54689 11.1951 9.99578 11.1951C10.4363 11.1951 10.7808 11.3711 11.0119 11.7254C11.158 11.9436 11.2259 12.1656 11.2259 12.4015C11.2259 12.6284 11.1528 12.8556 11.0122 13.0686V13.0693ZM14.507 9.81984C14.4479 9.85603 14.3755 9.87447 14.3121 9.87447C14.1938 9.87447 14.094 9.82436 14.0303 9.72484C13.0866 8.35449 11.616 7.5691 9.99648 7.5691C9.17942 7.5691 8.40795 7.75909 7.6998 8.1363C6.98783 8.517 6.40253 9.05289 5.96199 9.72867C5.89865 9.82401 5.82175 9.8696 5.69891 9.8696C5.58999 9.8696 5.52631 9.83376 5.51309 9.82436C5.35406 9.71997 5.313 9.52023 5.4174 9.35285C5.91223 8.58555 6.57965 7.97762 7.39149 7.54682C9.03048 6.67061 10.9757 6.67513 12.5875 7.54682C13.4088 7.98632 14.0759 8.59425 14.5745 9.35702C14.6841 9.52057 14.6476 9.71092 14.507 9.81984Z" fill="white"/>
<path fill-rule="evenodd" clip-rule="evenodd" d="M17.2617 7.99118C17.1935 8.03225 17.126 8.05034 17.0574 8.05034C16.9482 8.05034 16.8532 8.00023 16.794 7.90488C16.0591 6.77951 15.0698 5.88103 13.849 5.22752C12.6422 4.58306 11.3488 4.25665 9.99689 4.25665C8.63977 4.25665 7.34598 4.58306 6.1437 5.22752C4.9369 5.87685 3.94794 6.77499 3.21231 7.90488C3.14828 8.00023 3.07138 8.0406 2.94923 8.0406C2.83997 8.0406 2.77698 8.00475 2.76307 7.99606C2.68547 7.9456 2.63083 7.87287 2.61274 7.78727C2.59464 7.70027 2.61274 7.6098 2.66737 7.52837C3.46146 6.3167 4.52768 5.34548 5.83504 4.64221C7.14171 3.94277 8.49849 3.60767 9.99689 3.60767C11.4709 3.60767 12.8688 3.95217 14.1574 4.64221C15.4644 5.34514 16.5348 6.3167 17.3379 7.52837C17.4423 7.69192 17.4016 7.88261 17.2613 7.99118" fill="white"/>
<path fill-rule="evenodd" clip-rule="evenodd" d="M19.9933 6.05771C19.9752 6.13983 19.9296 6.20734 19.8663 6.24805C19.8026 6.28981 19.7298 6.31208 19.6616 6.31208C19.5527 6.31208 19.4574 6.26197 19.4027 6.17637C18.3595 4.59654 16.9843 3.3445 15.3234 2.45471C13.6579 1.56562 11.8703 1.11638 9.99577 1.11638C8.12642 1.11638 6.33849 1.56527 4.67757 2.45471C3.01214 3.3532 1.64179 4.60176 0.602716 6.17637C0.534164 6.27589 0.461436 6.31661 0.339295 6.31661C0.239424 6.31661 0.198362 6.28981 0.148949 6.24805C0.075873 6.20282 0.0261117 6.12626 0.00801669 6.03509C-0.0104263 5.95401 0.00349294 5.86806 0.0442067 5.80438C1.14765 4.13824 2.59978 2.81766 4.36056 1.87393C6.11648 0.929859 8.01332 0.453125 9.99646 0.453125C11.9928 0.453125 13.8904 0.929859 15.6414 1.87393C17.3977 2.81766 18.8456 4.13859 19.9477 5.80403C19.9929 5.87711 20.0114 5.96689 19.9929 6.05806" fill="white"/>
</svg>
