<svg xmlns="http://www.w3.org/2000/svg" viewBox="0 0 377.021 377.021" width="512" height="512"><g fill="#94999c"><path d="M279.522 36.163h-22.087V20c0-11.028-8.972-20-20-20h-97.85c-11.028 0-20 8.972-20 20v16.163H97.499c-16.542 0-30 13.458-30 30v280.858c0 16.542 13.458 30 30 30h182.023c16.542 0 30-13.458 30-30V66.163c0-16.542-13.458-30-30-30zM97.499 347.021V66.163h182.023l.003 280.858H97.499z"/><path d="M122.586 266.5h131.85v59.663h-131.85zm0-89.87h131.85v59.663h-131.85zm0-89.869h131.85v59.663h-131.85z"/></g></svg>