<svg width="24" height="20" xmlns="http://www.w3.org/2000/svg"><g stroke="#AEAEAE" fill="none" fill-rule="evenodd" stroke-linejoin="round"><path d="M23.5 5.5c0-1.1-.9-2-2-2h-19c-1.1 0-2 .9-2 2v12c0 1.1.9 2 2 2h19c1.1 0 2-.9 2-2v-12zm-15-2V2c0-.825.675-1.5 1.5-1.5h4c.825 0 1.5.675 1.5 1.5v1.5" stroke-linecap="round"/><path d="M15 9c-1.11 0-2.077.604-2.596 1.5H6.5L5 12l1.5 1.5h5.904A3 3 0 1 0 15 9z" stroke-linecap="round"/><path d="M15.5 12a.5.5 0 0 1-.5.5h0a.5.5 0 0 1-.5-.5h0a.5.5 0 0 1 .5-.5h0a.5.5 0 0 1 .5.5h0z"/></g></svg>