<svg xmlns="http://www.w3.org/2000/svg" viewBox="0 0 512.002 512.002" width="512" height="512"><path d="M504.501 99.963L411.915 7.376c-9.677-9.677-26.547-9.677-36.224 0L306.05 77.017a8.513 8.513 0 0 0-2.5 6.033c0 2.261.896 4.429 2.5 6.033l116.745 116.753a8.513 8.513 0 0 0 6.033 2.5 8.552 8.552 0 0 0 6.033-2.492l69.641-69.649c4.838-4.838 7.501-11.273 7.501-18.116-.001-6.844-2.663-13.278-7.502-18.116zm-12.066 24.166l-63.607 63.616L324.149 83.058l63.607-63.599c3.337-3.336 8.755-3.336 12.092 0l92.587 92.587c1.613 1.613 2.5 3.763 2.5 6.042s-.887 4.428-2.5 6.041z" fill="#01abed"/><path d="M440.305 199.205L312.672 71.581c-9.984-9.975-26.231-9.975-36.215 0L67.108 280.929c-4.838 4.838-7.501 11.264-7.501 18.108s2.662 13.278 7.501 18.108l127.625 127.633c4.992 4.992 11.546 7.484 18.108 7.484s13.116-2.5 18.116-7.492l209.348-209.348a25.448 25.448 0 0 0 7.501-18.108c0-6.845-2.663-13.279-7.501-18.109zm-12.066 24.15L218.891 432.703c-3.337 3.328-8.755 3.328-12.083 0L79.174 305.078c-1.613-1.613-2.5-3.755-2.5-6.042s.888-4.429 2.5-6.042L288.523 83.647c3.337-3.328 8.755-3.328 12.083 0l127.633 127.625c3.328 3.336 3.328 8.755 0 12.083z" fill="#01abed"/><path d="M178.016 403.912l-70.042-70.042a8.523 8.523 0 0 0-12.066 0l-22.912 22.904c-4.847 4.847-7.518 11.298-7.518 18.15s2.671 13.303 7.518 18.15l45.815 45.815c5.001 5.001 11.571 7.501 18.15 7.501 6.571 0 13.141-2.5 18.15-7.501l22.903-22.912a8.52 8.52 0 0 0 .002-12.065zm-34.978 22.912c-3.354 3.354-8.815 3.354-12.169 0l-45.815-45.815c-3.354-3.354-3.354-8.815 0-12.169l16.879-16.87 57.975 57.975-16.87 16.879z" fill="#01abed"/><path d="M119.639 415.594l-23.347-23.347c-3.2-3.2-8.866-3.2-12.066 0L2.502 473.97a8.523 8.523 0 0 0 0 12.066l23.347 23.347c1.596 1.596 3.772 2.5 6.033 2.5s4.437-.904 6.033-2.5l81.724-81.724a8.522 8.522 0 0 0 0-12.065zm-87.756 75.682l-11.281-11.281 69.658-69.658 11.281 11.281-69.658 69.658zM417.342 71.18l-23.347-23.347c-3.2-3.2-8.866-3.2-12.066 0l-52.531 52.54a8.523 8.523 0 0 0 0 12.066l23.347 23.347c1.596 1.604 3.772 2.5 6.033 2.5s4.429-.896 6.025-2.5l52.54-52.54a8.526 8.526 0 0 0-.001-12.066zm-58.564 46.506l-11.281-11.281 40.474-40.474 11.281 11.281-40.474 40.474zm105.267.197l-23.347-23.347c-3.2-3.2-8.866-3.2-12.066 0l-52.54 52.54a8.523 8.523 0 0 0 0 12.066l23.347 23.347a8.53 8.53 0 0 0 12.066 0l52.54-52.54a8.525 8.525 0 0 0 0-12.066zm-58.565 46.506l-11.281-11.281 40.465-40.474 11.281 11.281-40.465 40.474zm-61.994 55.971c-1.289-3.729-4.915-6.05-8.909-5.7l-116.753 11.674a8.543 8.543 0 0 0-7.185 5.623 8.532 8.532 0 0 0 2.005 8.9l9.993 9.992-55.236 35.149a8.55 8.55 0 0 0-3.482 9.993 8.525 8.525 0 0 0 8.908 5.7l116.753-11.674a8.543 8.543 0 0 0 7.185-5.623 8.532 8.532 0 0 0-2.005-8.9l-9.993-9.993 55.236-35.149a8.55 8.55 0 0 0 3.483-9.992zm-76.86 36.445a8.53 8.53 0 0 0-3.9 6.272 8.515 8.515 0 0 0 2.449 6.963l4.779 4.779-63.138 6.315 33.954-21.598a8.53 8.53 0 0 0 3.9-6.272 8.515 8.515 0 0 0-2.449-6.963l-4.779-4.779 63.138-6.315-33.954 21.598z" fill="#01abed"/></svg>