<svg xmlns="http://www.w3.org/2000/svg" viewBox="0 0 476.004 476.004" width="512" height="512"><path d="M454.81 2.167a24.2 24.2 0 0 0-2.797-.165H23.997C10.742 2.004-.002 12.75 0 26.005c0 .937.055 1.874.165 2.805l12.232 104c1.424 12.084 11.665 21.19 23.832 21.192h43.456l35.608 149.552a23.928 23.928 0 0 0 23.352 18.448h198.72a23.928 23.928 0 0 0 23.352-18.448l35.608-149.552h43.456c12.164-.006 22.401-9.111 23.824-21.192l12.232-104c1.551-13.164-7.864-25.092-21.027-26.643zM345.157 299.85a8 8 0 0 1-7.792 6.152h-198.72a8 8 0 0 1-7.792-6.152l-34.72-145.848h283.744l-34.72 145.848zM459.941 26.93l-12.216 104a8 8 0 0 1-7.944 7.072H36.229a8 8 0 0 1-7.944-7.072l-12.232-104a8 8 0 0 1 7.944-8.928h428a8 8 0 0 1 7.944 8.928z" fill="#01abed"/><path d="M189.317 272.778l-6.768-88c-.677-8.319-7.606-14.737-15.952-14.776h-30.536c-8.837 0-16 7.163-16 16 0 1.209.137 2.414.408 3.592l20.312 88a15.92 15.92 0 0 0 15.624 12.408h16.96c8.837-.001 16-7.165 15.999-16.001 0-.408-.016-.816-.047-1.223zm-32.912 1.224l-20.344-88h30.536l6.768 88h-16.96zm106.183-103.953a16.105 16.105 0 0 0-1.223-.047h-46.72c-8.837.001-16 7.165-15.999 16.001 0 .408.016.816.047 1.223l6.768 88c.677 8.319 7.606 14.737 15.952 14.776h33.184c8.346-.039 15.275-6.457 15.952-14.776l6.768-88c.676-8.811-5.919-16.501-14.729-17.177zm-7.991 103.953h-33.184l-6.784-88h46.736l-6.768 88zm88.912-103.592a15.98 15.98 0 0 0-3.56-.408h-30.536c-8.346.039-15.275 6.457-15.952 14.776l-6.768 88c-.676 8.811 5.918 16.501 14.729 17.177.407.031.815.047 1.223.047h16.96a15.92 15.92 0 0 0 15.592-12.408l20.312-88c1.984-8.611-3.389-17.2-12-19.184zm-23.904 103.592h-16.96l6.768-88h30.528l-20.336 88zm20.252 146.576a8 8 0 0 0-11.508 0c-49.891 49.896-130.784 49.899-180.68.008l-.008-.008a8 8 0 0 0-11.312-.196 8 8 0 0 0 0 11.508c56.134 56.143 147.153 56.15 203.296.016l.016-.016a8 8 0 0 0 .196-11.312z" fill="#01abed"/><path d="M315.857 396.578a8 8 0 0 0-11.508 0c-36.664 36.584-96.024 36.584-132.688 0a8 8 0 0 0-11.312 0 8 8 0 0 0 0 11.312c42.871 42.888 112.392 42.902 155.281.031l.031-.031a8 8 0 0 0 .196-11.312z" fill="#01abed"/><path d="M291.857 372.578a8 8 0 0 0-11.508 0c-23.412 23.322-61.275 23.322-84.688 0a8 8 0 0 0-11.312 0 8 8 0 0 0 0 11.312c29.661 29.568 77.652 29.568 107.312 0a8 8 0 0 0 .196-11.312z" fill="#01abed"/><path d="M267.465 348.346a8 8 0 0 0-11.116 0c-10.139 10.113-26.549 10.113-36.688 0a8 8 0 0 0-11.312 11.312c16.39 16.35 42.922 16.35 59.312 0a8 8 0 0 0-.196-11.312z" fill="#01abed"/></svg>