<svg width="150" height="88" viewBox="0 0 150 88" fill="none" xmlns="http://www.w3.org/2000/svg">
<path d="M123.34 88H26.6602C19.6143 88 12.951 85.2641 7.89785 80.2959C2.80488 75.289 0 68.6491 0 61.6C0 54.5509 2.80488 47.911 7.89785 42.9041C11.8863 38.9828 16.8779 36.4522 22.2691 35.5596C22.2668 35.4405 22.2656 35.3206 22.2656 35.2C22.2656 15.7907 38.0367 0 57.4219 0C64.6107 0 71.5192 2.16685 77.4006 6.26648C81.5408 9.15229 84.9782 12.8498 87.5335 17.1324C91.6582 14.5707 96.4157 13.2 101.367 13.2C114.517 13.2 125.45 22.8876 127.418 35.5098C132.929 36.3546 138.037 38.9069 142.102 42.9041C147.195 47.911 150 54.5506 150 61.6C150 68.6494 147.195 75.289 142.102 80.2959C137.049 85.2641 130.386 88 123.34 88ZM26.6602 44C16.8059 44 8.78906 51.8954 8.78906 61.6C8.78906 71.3046 16.8059 79.2 26.6602 79.2H123.34C133.194 79.2 141.211 71.3046 141.211 61.6C141.211 51.8954 133.194 44 123.34 44H118.945V39.6C118.945 29.8954 111.06 22 101.367 22C96.7482 22 92.3789 23.7952 89.064 27.055L84.3337 31.7067L81.8977 25.5323C77.8872 15.368 68.2799 8.8 57.4219 8.8C42.883 8.8 31.0547 20.643 31.0547 35.2C31.0547 36.2396 31.2176 37.3557 31.3898 38.5375L32.1771 44H26.6602Z" fill="black" fill-opacity="0.1"/>
</svg>
