<svg width="117" height="90" viewBox="0 0 117 90" fill="none" xmlns="http://www.w3.org/2000/svg">
<mask id="mask0" mask-type="alpha" maskUnits="userSpaceOnUse" x="0" y="0" width="117" height="90">
<path d="M-3.93402e-06 90L117 90L117 0L0 -5.11423e-06L-3.93402e-06 90Z" fill="white"/>
</mask>
<g mask="url(#mask0)">
<path fill-rule="evenodd" clip-rule="evenodd" d="M-3.43189e-06 78.5124L-5.02022e-07 11.4849C-2.25144e-07 5.15068 5.16779 -4.88834e-06 11.5133 -4.61097e-06L105.489 -5.03147e-07C111.832 -2.25891e-07 117 5.15069 117 11.4849L117 62.9655C117 64.2386 116.48 65.4749 115.574 66.3659L93.3027 88.5977C92.3995 89.5018 91.1954 90.0026 89.9147 90.0026L11.5133 90.0026C5.16514 90.0026 -3.70888e-06 84.8493 -3.432e-06 78.5151L-3.43189e-06 78.5124ZM111.977 62.7414L111.885 11.4849C111.885 7.96854 109.015 5.10588 105.487 5.10588L11.5133 5.10587C7.98802 5.10587 5.11497 7.96854 5.11497 11.4849L5.11497 78.5124C5.11497 82.0341 7.98802 84.8967 11.5159 84.8967L89.9147 84.8968L111.975 62.7414L111.977 62.7414Z" fill="black" fill-opacity="0.1"/>
</g>
<path fill-rule="evenodd" clip-rule="evenodd" d="M103.187 17.7246L94.3933 17.7246C93.4955 17.7246 92.7772 16.9813 92.7772 16.1088C92.7772 15.2125 93.4981 14.5008 94.388 14.5008L103.192 14.5008C104.095 14.5008 104.811 15.2125 104.811 16.1088C104.811 16.9839 104.098 17.7273 103.195 17.7273L103.187 17.7246ZM103.187 28.8642L94.3933 28.8642C93.4955 28.8642 92.7772 28.1446 92.7772 27.2484C92.7772 26.3838 93.4981 25.6325 94.388 25.6325L103.192 25.6325C104.095 25.6325 104.811 26.3838 104.811 27.2484C104.811 28.1446 104.098 28.8616 103.195 28.8616L103.187 28.8642ZM103.187 40.0302L94.3933 40.0302C93.4955 40.0302 92.7772 39.3185 92.7772 38.4144C92.7772 37.5445 93.4981 36.8012 94.388 36.8012L103.192 36.8012C104.095 36.8012 104.811 37.5498 104.811 38.417C104.811 39.3185 104.098 40.0329 103.195 40.0329L103.187 40.0302ZM103.187 51.1988L94.3933 51.1988C93.4955 51.1988 92.7772 50.4871 92.7772 49.583C92.7772 48.6868 93.4981 47.975 94.388 47.975L103.192 47.975C104.095 47.975 104.811 48.6868 104.811 49.583C104.811 50.4845 104.098 51.1988 103.195 51.1988L103.187 51.1988ZM103.187 62.3675L94.3933 62.3675C93.4955 62.3675 92.7772 61.6188 92.7772 60.7516C92.7772 59.8554 93.4981 59.1384 94.388 59.1384L103.192 59.1384C104.095 59.1384 104.811 59.8501 104.811 60.7516C104.811 61.6215 104.098 62.3675 103.195 62.3675L103.187 62.3675ZM89.7669 73.4122L81.0923 73.4122C80.2208 73.4122 79.4762 72.6952 79.4762 71.7963C79.4762 70.9265 80.2261 70.1805 81.0949 70.1805L89.7695 70.1805C90.6673 70.1805 91.3803 70.9265 91.3803 71.7963C91.3803 72.6926 90.6673 73.4095 89.7695 73.4095L89.7669 73.4122ZM14.2227 68.7465L14.2227 21.2516C14.2227 16.8758 17.5842 13.312 21.7169 13.312L54.4083 13.312C58.5463 13.312 61.9078 16.8758 61.9078 21.2542L61.9078 68.7465C61.9078 73.1222 58.5463 76.6808 54.4083 76.6808L21.7169 76.6808C17.5842 76.6808 14.2174 73.1222 14.2174 68.7465L14.2227 68.7465ZM58.71 21.2516C58.71 18.6367 56.777 16.5068 54.4057 16.5068L21.7142 16.5068C19.3456 16.5068 17.4152 18.6367 17.4152 21.2516L17.4152 68.7465C17.4152 71.3614 19.3429 73.4912 21.7142 73.4912L54.4057 73.4912C56.777 73.4912 58.71 71.3614 58.71 68.7465L58.71 21.2516Z" fill="black" fill-opacity="0.1"/>
</svg>
