<svg width="20" height="20" viewBox="0 0 20 20" fill="none" xmlns="http://www.w3.org/2000/svg">
<path d="M18.9837 3.58084C18.0987 2.04807 16.7538 0.900022 15.1966 0.348164C13.6176 -0.211428 12.0097 -0.0934708 10.6694 0.680435C9.32898 1.4543 8.42286 2.78772 8.11797 4.43501C7.92256 5.49077 7.99037 6.59472 8.30448 7.6591C7.41383 7.47834 6.46217 7.51021 5.51113 7.75862C4.2704 8.08277 3.11235 8.7563 2.16225 9.70639C0.910736 10.9579 0.149876 12.5542 0.019889 14.2011C-0.111973 15.8712 0.41813 17.3937 1.51259 18.4881C2.41996 19.3954 3.61652 19.9151 4.97294 19.9909C5.0827 19.997 5.1928 20 5.30349 20C6.5004 20 7.74332 19.6438 8.83798 18.982C9.02261 18.8704 9.08178 18.6303 8.97015 18.4457C8.8586 18.2611 8.61847 18.202 8.43384 18.3135C6.29 19.6096 3.74666 19.4933 2.18295 18.048C2.26927 15.8912 4.05061 14.163 6.22828 14.163C7.28829 14.163 8.29448 13.8261 9.13799 13.1885C9.78999 12.6958 10.31 12.0368 10.6418 11.2946C10.9441 11.5549 11.2653 11.7877 11.602 11.9906C11.8235 13.2861 11.5243 14.7291 10.7695 15.9779C10.6579 16.1625 10.7171 16.4026 10.9017 16.5142C10.9649 16.5524 11.0346 16.5706 11.1034 16.5706C11.2356 16.5706 11.3646 16.5034 11.438 16.382C12.1828 15.1498 12.5328 13.7421 12.4392 12.4185C12.5617 12.4705 12.6856 12.5193 12.8111 12.5637C13.4675 12.7964 14.1288 12.9119 14.7739 12.9119C15.6806 12.9119 16.5552 12.6836 17.3383 12.2315C18.6787 11.4576 19.5848 10.1242 19.8897 8.47687C20.1904 6.85239 19.8686 5.11362 18.9837 3.58084ZM6.22828 13.3818C3.90051 13.3818 1.95219 15.037 1.49814 17.2322C0.218111 15.2417 0.675916 12.2975 2.71465 10.2588C4.37972 8.59366 6.6823 7.93318 8.62866 8.54768C8.74471 8.81352 8.87637 9.07517 9.02405 9.331C9.31473 9.83451 9.65536 10.2961 10.0365 10.7091C9.46276 12.2933 7.92838 13.3818 6.22828 13.3818ZM13.072 11.8274C11.69 11.3376 10.4926 10.3123 9.70055 8.94042C8.10969 6.18492 8.66393 2.86271 10.9203 1.44161C12.9817 2.08299 14.1902 4.25113 13.6266 6.35482C13.2926 7.60102 13.464 8.90265 14.1091 10.02C14.5876 10.8488 15.2844 11.5023 16.121 11.921C15.1717 12.226 14.1171 12.1977 13.072 11.8274ZM17.0874 11.4702C16.1123 11.1673 15.2991 10.5187 14.7857 9.62941C14.2449 8.69279 14.1012 7.60165 14.3812 6.55703C14.9836 4.30858 13.8891 1.99823 11.8863 0.991497C14.1402 0.27032 16.8656 1.47449 18.3072 3.97143C19.898 6.72693 19.3438 10.0492 17.0874 11.4702Z" fill="#697583"/>
<path d="M10.0182 17.1716C9.91549 17.1716 9.81472 17.2134 9.74207 17.286C9.66903 17.3587 9.62762 17.4594 9.62762 17.5622C9.62762 17.6649 9.66903 17.7657 9.74207 17.8383C9.81472 17.9109 9.9151 17.9527 10.0182 17.9527C10.1209 17.9527 10.2217 17.9109 10.2944 17.8383C10.367 17.7657 10.4088 17.6649 10.4088 17.5622C10.4088 17.4594 10.367 17.3587 10.2944 17.286C10.2217 17.2134 10.1209 17.1716 10.0182 17.1716Z" fill="#697583"/>
</svg>
