<svg width="20" height="18" viewBox="0 0 20 18" fill="none" xmlns="http://www.w3.org/2000/svg">
<path d="M19.56 5.45256L7.08174 2.24888C6.88377 2.19806 6.67365 2.25396 6.52721 2.39638C6.38076 2.5388 6.31916 2.74716 6.36471 2.94622L8.28288 11.3339H7.53182L5.23674 1.29794C5.18564 1.07454 5.00881 0.901493 4.7842 0.855047L0.704776 0.0122332C0.388018 -0.0531966 0.0778609 0.150358 0.012353 0.466961C-0.053194 0.783563 0.150595 1.09329 0.467471 1.15872L4.1781 1.92532L6.49338 12.0496C6.55424 12.3158 6.79127 12.5046 7.06459 12.5046C7.62303 12.5046 18.1224 12.5046 18.5938 12.5046C18.8904 12.5046 19.1348 12.2825 19.1741 11.9998L19.9945 6.10006C20.0355 5.80521 19.8485 5.52662 19.56 5.45256ZM18.0837 11.3339H9.48491L7.72127 3.62181L18.7618 6.45639L18.0837 11.3339Z" fill="#697583"/>
<path d="M11.1979 6.02655C10.8743 6.02655 10.6119 6.28862 10.6119 6.6119V9.18753C10.6119 9.51081 10.8743 9.77289 11.1979 9.77289C11.5214 9.77289 11.7838 9.51081 11.7838 9.18753V6.6119C11.7838 6.28862 11.5214 6.02655 11.1979 6.02655Z" fill="#697583"/>
<path d="M16.213 7.4314C15.8894 7.4314 15.6271 7.69347 15.6271 8.01675V9.18753C15.6271 9.51082 15.8894 9.77289 16.213 9.77289C16.5366 9.77289 16.799 9.51082 16.799 9.18753V8.01679C16.799 7.69351 16.5366 7.4314 16.213 7.4314Z" fill="#697583"/>
<path d="M9.89956 13.2851C8.8226 13.2851 7.94643 14.1604 7.94643 15.2363C7.94643 16.3122 8.8226 17.1875 9.89956 17.1875C10.9765 17.1875 11.8527 16.3122 11.8527 15.2363C11.8527 14.1604 10.9765 13.2851 9.89956 13.2851ZM9.89956 16.0168C9.46877 16.0168 9.1183 15.6667 9.1183 15.2363C9.1183 14.806 9.46877 14.4558 9.89956 14.4558C10.3303 14.4558 10.6808 14.806 10.6808 15.2363C10.6808 15.6667 10.3303 16.0168 9.89956 16.0168Z" fill="#697583"/>
<path d="M15.7589 13.2851C14.6819 13.2851 13.8058 14.1604 13.8058 15.2363C13.8058 16.3122 14.6819 17.1875 15.7589 17.1875C16.8359 17.1875 17.712 16.3122 17.712 15.2363C17.712 14.1604 16.8359 13.2851 15.7589 13.2851ZM15.7589 16.0168C15.3281 16.0168 14.9777 15.6667 14.9777 15.2363C14.9777 14.806 15.3281 14.4558 15.7589 14.4558C16.1897 14.4558 16.5402 14.806 16.5402 15.2363C16.5402 15.6667 16.1897 16.0168 15.7589 16.0168Z" fill="#697583"/>
<path d="M13.7054 6.80701C13.3818 6.80701 13.1195 7.06908 13.1195 7.39236V9.18752C13.1195 9.5108 13.3818 9.77287 13.7054 9.77287C14.029 9.77287 14.2914 9.5108 14.2914 9.18752V7.3924C14.2914 7.06908 14.0291 6.80701 13.7054 6.80701Z" fill="#697583"/>
</svg>
