<svg width="20" height="20" viewBox="0 0 20 20" fill="none" xmlns="http://www.w3.org/2000/svg">
<path d="M4.15393 10.4186C3.89569 10.1604 3.55237 10.0182 3.18717 10.0182C2.82197 10.0182 2.47865 10.1604 2.22045 10.4186C1.9622 10.6768 1.81998 11.0201 1.81998 11.3853C1.81998 11.7505 1.9622 12.0939 2.22041 12.3521C2.47861 12.6103 2.82197 12.7525 3.18717 12.7525C3.55237 12.7525 3.89569 12.6103 4.15389 12.3521C4.41209 12.0939 4.55432 11.7505 4.55432 11.3853C4.55432 11.0201 4.41209 10.6768 4.15393 10.4186ZM3.60147 11.7997C3.4908 11.9103 3.34365 11.9713 3.18717 11.9713C3.03068 11.9713 2.88353 11.9103 2.77283 11.7996C2.66217 11.689 2.60123 11.5419 2.60123 11.3854C2.60123 11.2289 2.66217 11.0818 2.77287 10.9711C2.88353 10.8604 3.03068 10.7994 3.18717 10.7994C3.34365 10.7994 3.4908 10.8604 3.60147 10.9711C3.71213 11.0817 3.77307 11.2289 3.77307 11.3853C3.77307 11.5419 3.71213 11.689 3.60147 11.7997Z" fill="#697583"/>
<path d="M19.8834 5.213C19.7819 5.11296 19.6339 5.07609 19.4974 5.11687L12.9195 7.08016L14.8829 0.502325C14.9237 0.365763 14.8868 0.217832 14.7867 0.116348C14.6867 0.0149021 14.5394 -0.0240043 14.4021 0.0147458L12.6967 0.497794C12.5858 0.5292 12.4945 0.607912 12.4471 0.712951L9.05223 8.23442L5.58843 9.26825C4.78199 8.30973 3.48015 7.91157 2.26124 8.27547C0.588225 8.77485 -0.366661 10.5422 0.132676 12.2153C0.542209 13.5874 1.80463 14.4764 3.16847 14.4764C3.46757 14.4764 3.77155 14.4337 4.07249 14.3439C5.24211 13.9947 6.09324 13.0136 6.29055 11.8342L7.99801 12.0017L8.16555 13.7092C6.98617 13.9064 6.00496 14.7576 5.65582 15.9272C5.15648 17.6003 6.1114 19.3677 7.78442 19.867C8.08008 19.9552 8.38516 20 8.69114 20C9.35876 20 10.0243 19.7814 10.5651 19.3845C11.1245 18.9741 11.5253 18.4048 11.7242 17.7384C12.088 16.5195 11.6899 15.2177 10.7314 14.4112L11.7653 10.9475L19.2868 7.55258C19.3918 7.5052 19.4705 7.41387 19.5019 7.30301L19.985 5.59765C20.0238 5.46046 19.9849 5.31312 19.8834 5.213ZM7.92555 10.7306C7.89743 10.7929 7.88614 10.8614 7.89282 10.9294L7.92024 11.209L5.97988 11.0187C5.8725 11.0083 5.76562 11.0425 5.68445 11.1135C5.60328 11.1845 5.55511 11.286 5.55133 11.3937C5.51535 12.4174 4.83124 13.3021 3.84905 13.5952C2.58866 13.9713 1.25741 13.252 0.881272 11.9918C0.505177 10.7315 1.22444 9.40024 2.48471 9.02407C3.47261 8.72919 4.53265 9.09852 5.1225 9.94306C5.21898 10.0811 5.39316 10.1418 5.55445 10.0936L8.62696 9.17657L7.92555 10.7306ZM9.90599 14.4452C9.85782 14.6066 9.91853 14.7807 10.0566 14.8771C10.9011 15.4671 11.2705 16.5271 10.9756 17.515C10.6762 18.5181 9.73681 19.2187 8.69114 19.2187C8.46087 19.2187 8.23098 19.1849 8.00786 19.1184C6.74762 18.7422 6.02832 17.4109 6.40445 16.1506C6.69762 15.1684 7.58235 14.4843 8.60598 14.4483C8.71376 14.4445 8.8152 14.3964 8.88622 14.3152C8.92419 14.2718 8.95126 14.221 8.967 14.1668C8.9727 14.1555 8.97809 14.144 8.98278 14.1319L9.91595 11.7306C9.99407 11.5295 9.89442 11.3032 9.69333 11.225C9.4922 11.1468 9.26587 11.2465 9.18774 11.4476L8.82122 12.3908L8.68055 10.9569L13.0845 1.19991L13.9309 0.960139L9.90599 14.4452ZM18.7998 6.91524L12.0609 9.95688L12.6524 7.9752L19.0395 6.06887L18.7998 6.91524Z" fill="#697583"/>
<path d="M9.65644 15.8671C9.39824 15.6089 9.05492 15.4667 8.68972 15.4667C8.32453 15.4667 7.98121 15.6089 7.723 15.8672C7.46476 16.1254 7.32257 16.4687 7.32257 16.8339C7.32257 17.1991 7.46476 17.5424 7.723 17.8006C7.98121 18.0589 8.32453 18.201 8.68972 18.201C9.05492 18.201 9.39824 18.0589 9.65648 17.8006C10.1895 17.2676 10.1895 16.4002 9.65644 15.8671ZM9.1041 17.2482C8.9934 17.3589 8.84625 17.4198 8.68976 17.4198C8.53328 17.4198 8.38613 17.3589 8.27543 17.2482C8.1648 17.1376 8.10382 16.9904 8.10382 16.8339C8.10382 16.6774 8.1648 16.5303 8.27543 16.4196C8.38609 16.309 8.53324 16.248 8.68976 16.248C8.84629 16.248 8.99343 16.309 9.1041 16.4196C9.3325 16.648 9.3325 17.0197 9.1041 17.2482Z" fill="#697583"/>
<path d="M10.1181 10.131C9.91692 10.053 9.69067 10.1528 9.6127 10.354L9.60813 10.3658C9.53012 10.5669 9.63001 10.7932 9.83114 10.8712C9.87755 10.8891 9.92528 10.8977 9.97223 10.8977C10.1288 10.8977 10.2766 10.8029 10.3365 10.6482L10.3411 10.6364C10.4191 10.4352 10.3193 10.209 10.1181 10.131Z" fill="#697583"/>
</svg>
