<svg width="20" height="20" viewBox="0 0 20 20" fill="none" xmlns="http://www.w3.org/2000/svg">
<path d="M10.0001 0C4.48202 0 9.15527e-05 4.48193 9.15527e-05 10C9.15527e-05 15.5181 4.48202 20 10.0001 20C15.5182 20 20.0001 15.5181 20.0001 10C20.0001 4.48193 15.5182 0 10.0001 0ZM10.0001 19.1325C4.96395 19.1325 0.867561 15.0361 0.867561 10C0.867561 4.96386 4.96395 0.86747 10.0001 0.86747C15.0362 0.86747 19.1326 4.96386 19.1326 10C19.1326 15.0361 15.0362 19.1325 10.0001 19.1325Z" fill="#697583"/>
<path d="M15.2049 7.83133H12.1688V4.79518C12.1688 4.55422 11.976 4.36145 11.735 4.36145H8.26514C8.02418 4.36145 7.83141 4.55422 7.83141 4.79518V7.83133H4.79526C4.5543 7.83133 4.36153 8.0241 4.36153 8.26506V11.7349C4.36153 11.9759 4.5543 12.1687 4.79526 12.1687H7.83141V15.2048C7.83141 15.4458 8.02418 15.6386 8.26514 15.6386H11.735C11.976 15.6386 12.1688 15.4458 12.1688 15.2048V12.1687H15.2049C15.4459 12.1687 15.6386 11.9759 15.6386 11.7349V8.26506C15.6145 8.0241 15.4218 7.83133 15.2049 7.83133ZM14.7953 11.3012H14.7712H11.735C11.4941 11.3012 11.3013 11.494 11.3013 11.7349V14.7711H8.69888V11.7349C8.69888 11.494 8.5061 11.3012 8.26514 11.3012H5.229V8.6988H8.26514C8.5061 8.6988 8.69888 8.50603 8.69888 8.26506V5.22892H11.3254V8.26506C11.3254 8.50603 11.5182 8.6988 11.7591 8.6988H14.7953V11.3012Z" fill="#697583"/>
</svg>
