<svg width="20" height="20" viewBox="0 0 20 20" fill="none" xmlns="http://www.w3.org/2000/svg">
<path d="M19.6667 2.99991H16V0.333242C16 0.149158 15.8508 -9.15527e-05 15.6667 -9.15527e-05H4.33333C4.14925 -9.15527e-05 4 0.149158 4 0.333242V4.99991H0.333333C0.14925 4.99991 0 5.14916 0 5.33324V18.9999C0 19.184 0.14925 19.3332 0.333333 19.3332C0.517417 19.3332 0.666667 19.184 0.666667 18.9999V5.66657H4V19.3332C4 19.5173 4.14925 19.6666 4.33333 19.6666H15.6667C15.8508 19.6666 16 19.5173 16 19.3332V3.66657H19.3333V18.9999C19.3333 19.184 19.4826 19.3332 19.6667 19.3332C19.8507 19.3332 20 19.184 20 18.9999V3.33324C20 3.14916 19.8507 2.99991 19.6667 2.99991ZM9.66667 18.9999H8.33333V15.9999H9.66667V18.9999ZM11.6667 18.9999H10.3333V15.9999H11.6667V18.9999ZM15.3333 18.9999H12.3333V15.6666C12.3333 15.4825 12.1841 15.3332 12 15.3332H8C7.81592 15.3332 7.66667 15.4825 7.66667 15.6666V18.9999H4.66667V0.666575H15.3333V18.9999Z" fill="#697583"/>
<path d="M7.66668 1.33324H5.66668C5.48259 1.33324 5.33334 1.48249 5.33334 1.66657V3.66657C5.33334 3.85065 5.48259 3.9999 5.66668 3.9999H7.66668C7.85076 3.9999 8.00001 3.85065 8.00001 3.66657V1.66657C8.00001 1.48249 7.85076 1.33324 7.66668 1.33324ZM7.33334 3.33324H6.00001V1.9999H7.33334V3.33324Z" fill="#697583"/>
<path d="M11 1.33324H8.99999C8.81591 1.33324 8.66666 1.48249 8.66666 1.66657V3.66657C8.66666 3.85065 8.81591 3.9999 8.99999 3.9999H11C11.1841 3.9999 11.3333 3.85065 11.3333 3.66657V1.66657C11.3333 1.48249 11.1841 1.33324 11 1.33324ZM10.6667 3.33324H9.33332V1.9999H10.6667V3.33324Z" fill="#697583"/>
<path d="M14.3333 1.33324H12.3333C12.1493 1.33324 12 1.48249 12 1.66657V3.66657C12 3.85065 12.1493 3.9999 12.3333 3.9999H14.3333C14.5174 3.9999 14.6667 3.85065 14.6667 3.66657V1.66657C14.6667 1.48249 14.5174 1.33324 14.3333 1.33324ZM14 3.33324H12.6667V1.9999H14V3.33324Z" fill="#697583"/>
<path d="M7.66668 4.66658H5.66668C5.48259 4.66658 5.33334 4.81583 5.33334 4.99991V6.99991C5.33334 7.184 5.48259 7.33325 5.66668 7.33325H7.66668C7.85076 7.33325 8.00001 7.184 8.00001 6.99991V4.99991C8.00001 4.81583 7.85076 4.66658 7.66668 4.66658ZM7.33334 6.66658H6.00001V5.33325H7.33334V6.66658Z" fill="#697583"/>
<path d="M11 4.66658H8.99999C8.81591 4.66658 8.66666 4.81583 8.66666 4.99991V6.99991C8.66666 7.184 8.81591 7.33325 8.99999 7.33325H11C11.1841 7.33325 11.3333 7.184 11.3333 6.99991V4.99991C11.3333 4.81583 11.1841 4.66658 11 4.66658ZM10.6667 6.66658H9.33332V5.33325H10.6667V6.66658Z" fill="#697583"/>
<path d="M14.3333 4.66658H12.3333C12.1493 4.66658 12 4.81583 12 4.99991V6.99991C12 7.184 12.1493 7.33325 12.3333 7.33325H14.3333C14.5174 7.33325 14.6667 7.184 14.6667 6.99991V4.99991C14.6667 4.81583 14.5174 4.66658 14.3333 4.66658ZM14 6.66658H12.6667V5.33325H14V6.66658Z" fill="#697583"/>
<path d="M7.66668 7.99991H5.66668C5.48259 7.99991 5.33334 8.14916 5.33334 8.33324V10.3332C5.33334 10.5173 5.48259 10.6666 5.66668 10.6666H7.66668C7.85076 10.6666 8.00001 10.5173 8.00001 10.3332V8.33324C8.00001 8.14916 7.85076 7.99991 7.66668 7.99991ZM7.33334 9.99991H6.00001V8.66658H7.33334V9.99991Z" fill="#697583"/>
<path d="M11 7.99991H8.99999C8.81591 7.99991 8.66666 8.14916 8.66666 8.33324V10.3332C8.66666 10.5173 8.81591 10.6666 8.99999 10.6666H11C11.1841 10.6666 11.3333 10.5173 11.3333 10.3332V8.33324C11.3333 8.14916 11.1841 7.99991 11 7.99991ZM10.6667 9.99991H9.33332V8.66658H10.6667V9.99991Z" fill="#697583"/>
<path d="M14.3333 7.99991H12.3333C12.1493 7.99991 12 8.14916 12 8.33324V10.3332C12 10.5173 12.1493 10.6666 12.3333 10.6666H14.3333C14.5174 10.6666 14.6667 10.5173 14.6667 10.3332V8.33324C14.6667 8.14916 14.5174 7.99991 14.3333 7.99991ZM14 9.99991H12.6667V8.66658H14V9.99991Z" fill="#697583"/>
<path d="M7.66668 11.3332H5.66668C5.48259 11.3332 5.33334 11.4825 5.33334 11.6666V13.6666C5.33334 13.8507 5.48259 13.9999 5.66668 13.9999H7.66668C7.85076 13.9999 8.00001 13.8507 8.00001 13.6666V11.6666C8.00001 11.4825 7.85076 11.3332 7.66668 11.3332ZM7.33334 13.3332H6.00001V11.9999H7.33334V13.3332Z" fill="#697583"/>
<path d="M11 11.3332H8.99999C8.81591 11.3332 8.66666 11.4825 8.66666 11.6666V13.6666C8.66666 13.8507 8.81591 13.9999 8.99999 13.9999H11C11.1841 13.9999 11.3333 13.8507 11.3333 13.6666V11.6666C11.3333 11.4825 11.1841 11.3332 11 11.3332ZM10.6667 13.3332H9.33332V11.9999H10.6667V13.3332Z" fill="#697583"/>
<path d="M14.3333 11.3332H12.3333C12.1493 11.3332 12 11.4825 12 11.6666V13.6666C12 13.8507 12.1493 13.9999 12.3333 13.9999H14.3333C14.5174 13.9999 14.6667 13.8507 14.6667 13.6666V11.6666C14.6667 11.4825 14.5174 11.3332 14.3333 11.3332ZM14 13.3332H12.6667V11.9999H14V13.3332Z" fill="#697583"/>
<path d="M2.00001 6.33324H1.66668C1.48259 6.33324 1.33334 6.48249 1.33334 6.66657V6.9999C1.33334 7.18399 1.48259 7.33324 1.66668 7.33324H2.00001C2.18409 7.33324 2.33334 7.18399 2.33334 6.9999V6.66657C2.33334 6.48249 2.18409 6.33324 2.00001 6.33324Z" fill="#697583"/>
<path d="M3.33332 6.33324H2.99999C2.81591 6.33324 2.66666 6.48249 2.66666 6.66657V6.9999C2.66666 7.18399 2.81591 7.33324 2.99999 7.33324H3.33332C3.51741 7.33324 3.66666 7.18399 3.66666 6.9999V6.66657C3.66666 6.48249 3.51741 6.33324 3.33332 6.33324Z" fill="#697583"/>
<path d="M2.00001 7.66658H1.66668C1.48259 7.66658 1.33334 7.81583 1.33334 7.99991V8.33325C1.33334 8.51733 1.48259 8.66658 1.66668 8.66658H2.00001C2.18409 8.66658 2.33334 8.51733 2.33334 8.33325V7.99991C2.33334 7.81583 2.18409 7.66658 2.00001 7.66658Z" fill="#697583"/>
<path d="M3.33332 7.66658H2.99999C2.81591 7.66658 2.66666 7.81583 2.66666 7.99991V8.33325C2.66666 8.51733 2.81591 8.66658 2.99999 8.66658H3.33332C3.51741 8.66658 3.66666 8.51733 3.66666 8.33325V7.99991C3.66666 7.81583 3.51741 7.66658 3.33332 7.66658Z" fill="#697583"/>
<path d="M2.00001 8.99991H1.66668C1.48259 8.99991 1.33334 9.14916 1.33334 9.33324V9.66658C1.33334 9.85066 1.48259 9.99991 1.66668 9.99991H2.00001C2.18409 9.99991 2.33334 9.85066 2.33334 9.66658V9.33324C2.33334 9.14916 2.18409 8.99991 2.00001 8.99991Z" fill="#697583"/>
<path d="M3.33332 8.99991H2.99999C2.81591 8.99991 2.66666 9.14916 2.66666 9.33324V9.66658C2.66666 9.85066 2.81591 9.99991 2.99999 9.99991H3.33332C3.51741 9.99991 3.66666 9.85066 3.66666 9.66658V9.33324C3.66666 9.14916 3.51741 8.99991 3.33332 8.99991Z" fill="#697583"/>
<path d="M2.00001 10.3332H1.66668C1.48259 10.3332 1.33334 10.4825 1.33334 10.6666V10.9999C1.33334 11.184 1.48259 11.3332 1.66668 11.3332H2.00001C2.18409 11.3332 2.33334 11.184 2.33334 10.9999V10.6666C2.33334 10.4825 2.18409 10.3332 2.00001 10.3332Z" fill="#697583"/>
<path d="M3.33332 10.3332H2.99999C2.81591 10.3332 2.66666 10.4825 2.66666 10.6666V10.9999C2.66666 11.184 2.81591 11.3332 2.99999 11.3332H3.33332C3.51741 11.3332 3.66666 11.184 3.66666 10.9999V10.6666C3.66666 10.4825 3.51741 10.3332 3.33332 10.3332Z" fill="#697583"/>
<path d="M2.00001 11.6666H1.66668C1.48259 11.6666 1.33334 11.8158 1.33334 11.9999V12.3332C1.33334 12.5173 1.48259 12.6666 1.66668 12.6666H2.00001C2.18409 12.6666 2.33334 12.5173 2.33334 12.3332V11.9999C2.33334 11.8158 2.18409 11.6666 2.00001 11.6666Z" fill="#697583"/>
<path d="M3.33332 11.6666H2.99999C2.81591 11.6666 2.66666 11.8158 2.66666 11.9999V12.3332C2.66666 12.5173 2.81591 12.6666 2.99999 12.6666H3.33332C3.51741 12.6666 3.66666 12.5173 3.66666 12.3332V11.9999C3.66666 11.8158 3.51741 11.6666 3.33332 11.6666Z" fill="#697583"/>
<path d="M2.00001 12.9999H1.66668C1.48259 12.9999 1.33334 13.1492 1.33334 13.3332V13.6666C1.33334 13.8507 1.48259 13.9999 1.66668 13.9999H2.00001C2.18409 13.9999 2.33334 13.8507 2.33334 13.6666V13.3332C2.33334 13.1492 2.18409 12.9999 2.00001 12.9999Z" fill="#697583"/>
<path d="M3.33332 12.9999H2.99999C2.81591 12.9999 2.66666 13.1492 2.66666 13.3332V13.6666C2.66666 13.8507 2.81591 13.9999 2.99999 13.9999H3.33332C3.51741 13.9999 3.66666 13.8507 3.66666 13.6666V13.3332C3.66666 13.1492 3.51741 12.9999 3.33332 12.9999Z" fill="#697583"/>
<path d="M2.00001 14.3332H1.66668C1.48259 14.3332 1.33334 14.4825 1.33334 14.6666V14.9999C1.33334 15.184 1.48259 15.3332 1.66668 15.3332H2.00001C2.18409 15.3332 2.33334 15.184 2.33334 14.9999V14.6666C2.33334 14.4825 2.18409 14.3332 2.00001 14.3332Z" fill="#697583"/>
<path d="M3.33332 14.3332H2.99999C2.81591 14.3332 2.66666 14.4825 2.66666 14.6666V14.9999C2.66666 15.184 2.81591 15.3332 2.99999 15.3332H3.33332C3.51741 15.3332 3.66666 15.184 3.66666 14.9999V14.6666C3.66666 14.4825 3.51741 14.3332 3.33332 14.3332Z" fill="#697583"/>
<path d="M2.00001 15.6666H1.66668C1.48259 15.6666 1.33334 15.8158 1.33334 15.9999V16.3332C1.33334 16.5173 1.48259 16.6666 1.66668 16.6666H2.00001C2.18409 16.6666 2.33334 16.5173 2.33334 16.3332V15.9999C2.33334 15.8158 2.18409 15.6666 2.00001 15.6666Z" fill="#697583"/>
<path d="M3.33332 15.6666H2.99999C2.81591 15.6666 2.66666 15.8158 2.66666 15.9999V16.3332C2.66666 16.5173 2.81591 16.6666 2.99999 16.6666H3.33332C3.51741 16.6666 3.66666 16.5173 3.66666 16.3332V15.9999C3.66666 15.8158 3.51741 15.6666 3.33332 15.6666Z" fill="#697583"/>
<path d="M2.00001 16.9999H1.66668C1.48259 16.9999 1.33334 17.1492 1.33334 17.3332V17.6666C1.33334 17.8507 1.48259 17.9999 1.66668 17.9999H2.00001C2.18409 17.9999 2.33334 17.8507 2.33334 17.6666V17.3332C2.33334 17.1492 2.18409 16.9999 2.00001 16.9999Z" fill="#697583"/>
<path d="M3.33332 16.9999H2.99999C2.81591 16.9999 2.66666 17.1492 2.66666 17.3332V17.6666C2.66666 17.8507 2.81591 17.9999 2.99999 17.9999H3.33332C3.51741 17.9999 3.66666 17.8507 3.66666 17.6666V17.3332C3.66666 17.1492 3.51741 16.9999 3.33332 16.9999Z" fill="#697583"/>
<path d="M18.3333 4.33324H17C16.8159 4.33324 16.6667 4.48249 16.6667 4.66657V5.9999C16.6667 6.18399 16.8159 6.33324 17 6.33324H18.3333C18.5174 6.33324 18.6667 6.18399 18.6667 5.9999V4.66657C18.6667 4.48249 18.5174 4.33324 18.3333 4.33324ZM18 5.66657H17.3333V4.9999H18V5.66657Z" fill="#697583"/>
<path d="M18.3333 6.99991H17C16.8159 6.99991 16.6667 7.14916 16.6667 7.33324V8.66658C16.6667 8.85066 16.8159 8.99991 17 8.99991H18.3333C18.5174 8.99991 18.6667 8.85066 18.6667 8.66658V7.33324C18.6667 7.14916 18.5174 6.99991 18.3333 6.99991ZM18 8.33324H17.3333V7.66658H18V8.33324Z" fill="#697583"/>
<path d="M18.3333 9.66658H17C16.8159 9.66658 16.6667 9.81583 16.6667 9.99991V11.3332C16.6667 11.5173 16.8159 11.6666 17 11.6666H18.3333C18.5174 11.6666 18.6667 11.5173 18.6667 11.3332V9.99991C18.6667 9.81583 18.5174 9.66658 18.3333 9.66658ZM18 10.9999H17.3333V10.3332H18V10.9999Z" fill="#697583"/>
<path d="M18.3333 12.3332H17C16.8159 12.3332 16.6667 12.4825 16.6667 12.6666V13.9999C16.6667 14.184 16.8159 14.3332 17 14.3332H18.3333C18.5174 14.3332 18.6667 14.184 18.6667 13.9999V12.6666C18.6667 12.4825 18.5174 12.3332 18.3333 12.3332ZM18 13.6666H17.3333V12.9999H18V13.6666Z" fill="#697583"/>
<path d="M18.3333 14.9999H17C16.8159 14.9999 16.6667 15.1492 16.6667 15.3332V16.6666C16.6667 16.8507 16.8159 16.9999 17 16.9999H18.3333C18.5174 16.9999 18.6667 16.8507 18.6667 16.6666V15.3332C18.6667 15.1492 18.5174 14.9999 18.3333 14.9999ZM18 16.3332H17.3333V15.6666H18V16.3332Z" fill="#697583"/>
</svg>
