<svg width="20" height="15" viewBox="0 0 20 15" fill="none" xmlns="http://www.w3.org/2000/svg">
<path d="M15.3975 1.91291H11.9421V-9.15527e-05H8.75364V1.91297H4.60249L0 6.51546V14.9564H20V6.51546L15.3975 1.91291ZM9.62319 0.869516H11.0725V2.89851H9.62319V0.869516ZM10.4348 14.0869H0.869608V7.13038H10.4348V14.0869ZM1.48442 6.26083L4.96268 2.78257H8.75364V3.76806H11.9421V2.78257H14.1678L10.6896 6.26083H1.48442ZM16.2319 14.0869H14.2029V10.1738C14.2029 9.61446 14.6581 9.15937 15.2174 9.15937C15.7767 9.15937 16.2319 9.61451 16.2319 10.1738V14.0869H16.2319ZM19.1304 14.0869H17.1015V10.1738C17.1015 9.135 16.2562 8.28976 15.2174 8.28976C14.1785 8.28976 13.3333 9.135 13.3333 10.1738V14.0869H11.3043V6.87564L15.2174 2.96258L19.1304 6.87564V14.0869Z" fill="#697583"/>
<path d="M2.02902 8.57965V11.7681H5.21745V8.57965H2.02902ZM4.3479 10.8985H2.89863V9.4492H4.3479V10.8985Z" fill="#697583"/>
<path d="M6.08698 8.57965V11.7681H9.2754V8.57965H6.08698ZM8.40585 10.8985H6.95658V9.4492H8.40585V10.8985Z" fill="#697583"/>
<path d="M2.75364 12.5217H1.88409V13.3913H2.75364V12.5217Z" fill="#697583"/>
<path d="M5.36236 12.5217H3.62326V13.3913H5.36236V12.5217Z" fill="#697583"/>
<path d="M14.6781 4.883L16.2889 6.49384L16.9038 5.87902L15.2929 4.26819L14.6781 4.883Z" fill="#697583"/>
<path d="M17.5184 6.49366L16.9036 7.10847L17.5184 7.72329L18.1333 7.10848L17.5184 6.49366Z" fill="#697583"/>
<path d="M5.32294 3.65213L3.89551 5.07956L4.51038 5.69437L5.68312 4.52168H7.85513V3.65213H5.32294Z" fill="#697583"/>
</svg>
