<svg width="20" height="19" viewBox="0 0 20 19" fill="none" xmlns="http://www.w3.org/2000/svg">
<path d="M19.601 17.9402H19.1397V7.84348L19.3824 7.95675C19.4361 7.98178 19.4937 7.99415 19.5511 7.99415C19.6259 7.99415 19.7003 7.97316 19.7654 7.93171C19.8804 7.85844 19.9501 7.73151 19.9501 7.59515V5.99241C19.9501 5.8374 19.8603 5.6964 19.7199 5.63081L18.3458 4.98962V2.39785C18.3458 2.1775 18.1672 1.99884 17.9468 1.99884H15.5736C15.3532 1.99884 15.1746 2.1775 15.1746 2.39785V3.50982L7.73312 0.0373465C7.61661 -0.0170176 7.48105 -0.0119303 7.36903 0.0510123L0.203591 4.07565C0.0778554 4.14632 0 4.27929 0 4.42353V6.02627C0 6.16797 0.0751621 6.29904 0.197456 6.37066C0.3198 6.44223 0.470873 6.44358 0.594414 6.3742L0.810474 6.25286V17.9403H0.415611C0.195262 17.9403 0.0166085 18.1189 0.0166085 18.3393C0.0166085 18.5596 0.195262 18.7383 0.415611 18.7383H1.20948H18.7406H19.601C19.8213 18.7383 20 18.5596 20 18.3393C20 18.1189 19.8213 17.9402 19.601 17.9402ZM15.9726 3.86817V2.79685H17.5478V4.6173L15.9719 3.88188C15.972 3.8773 15.9726 3.87281 15.9726 3.86817ZM0.798005 4.65705L7.58125 0.847072L19.1521 6.24657V6.96872L7.73312 1.64009C7.67955 1.61505 7.62195 1.60263 7.56444 1.60263C7.49691 1.60263 7.42953 1.61979 7.36903 1.65376L0.798005 5.34453V4.65705ZM1.60848 17.9402V5.81779C1.60848 5.81346 1.60798 5.80927 1.60783 5.80493L7.58125 2.44977L18.3416 7.47106V17.9402H1.60848Z" fill="#697583"/>
<path d="M9.17705 11.1603H2.80962C2.58927 11.1603 2.41061 11.3389 2.41061 11.5593V16.7495C2.41061 16.9698 2.58927 17.1485 2.80962 17.1485H9.17705C9.3974 17.1485 9.57605 16.9698 9.57605 16.7495V11.5593C9.57605 11.3389 9.3974 11.1603 9.17705 11.1603ZM3.20862 11.9583H5.5943V16.3505H3.20862V11.9583ZM8.77805 16.3505H6.39236V11.9583H8.77805V16.3505Z" fill="#697583"/>
<path d="M17.1571 11.1603H10.7731C10.5527 11.1603 10.3741 11.3389 10.3741 11.5593V16.7495C10.3741 16.9698 10.5527 17.1485 10.7731 17.1485H17.1571C17.3774 17.1485 17.5561 16.9698 17.5561 16.7495V11.5593C17.5561 11.3389 17.3774 11.1603 17.1571 11.1603ZM11.1721 11.9583H13.5661V16.3505H11.1721V11.9583ZM16.7581 16.3505H14.3641V11.9583H16.7581V16.3505Z" fill="#697583"/>
<path d="M17.3258 7.96528L10.9707 4.99969C10.911 4.97181 10.8481 4.95999 10.7864 4.96248C10.5622 4.9549 10.3741 5.13645 10.3741 5.36129V9.97475C10.3741 10.1951 10.5527 10.3738 10.7731 10.3738H17.1571C17.3774 10.3738 17.5561 10.1951 17.5561 9.97475V8.32687C17.5561 8.17181 17.4663 8.03086 17.3258 7.96528ZM11.1721 5.97425L13.5661 7.09141V9.5757H11.1721V5.97425ZM16.7581 9.57575H14.3641V7.46383L16.7581 8.58099V9.57575Z" fill="#697583"/>
<path d="M9.57435 4.56957C9.57386 4.56368 9.57316 4.5579 9.57246 4.55206C9.57161 4.54538 9.57061 4.53869 9.56942 4.53206C9.56817 4.52523 9.56677 4.51845 9.56518 4.51171C9.56388 4.50628 9.56253 4.50089 9.56099 4.4955C9.55894 4.48812 9.5567 4.48089 9.55421 4.47366C9.55256 4.46882 9.55076 4.46403 9.54892 4.45924C9.54612 4.45206 9.54323 4.44503 9.54004 4.43805C9.5378 4.43316 9.53545 4.42832 9.53301 4.42348C9.52977 4.4171 9.52647 4.41081 9.52288 4.40463C9.51984 4.39929 9.51665 4.39411 9.51336 4.38892C9.50997 4.38358 9.50653 4.37835 9.50288 4.37321C9.49889 4.36752 9.4947 4.36199 9.49037 4.3565C9.48692 4.35211 9.48343 4.34782 9.47984 4.34358C9.475 4.3379 9.46997 4.33241 9.46473 4.32697C9.46104 4.32313 9.45735 4.31939 9.45351 4.3157C9.44817 4.31056 9.44263 4.30558 9.437 4.30069C9.43261 4.29695 9.42817 4.29331 9.42368 4.28972C9.41834 4.28553 9.41296 4.28149 9.40742 4.27755C9.40179 4.27356 9.39605 4.26977 9.39022 4.26608C9.38538 4.26303 9.38054 4.26004 9.37555 4.25715C9.36847 4.25306 9.36119 4.24927 9.35381 4.24563C9.35106 4.24428 9.34857 4.24268 9.34583 4.24139L7.96593 3.5975C7.82857 3.53341 7.67331 3.55426 7.55949 3.63854C7.55236 3.64204 7.54518 3.64523 7.53815 3.64917L2.61425 6.4148C2.48129 6.48952 2.40777 6.62897 2.41076 6.77151C2.41076 6.77251 2.41061 6.77346 2.41061 6.77446V9.9748C2.41061 10.1952 2.58927 10.3738 2.80962 10.3738H9.17705C9.3974 10.3738 9.57605 10.1952 9.57605 9.9748V4.60298C9.57605 4.59984 9.57565 4.5968 9.5756 4.59366C9.5754 4.58563 9.57505 4.5776 9.57435 4.56957ZM3.20862 6.9962L5.5943 5.6562V9.57575H3.20862V6.9962ZM6.39236 9.57575V5.20797L7.8162 4.40822L8.7781 4.8571V9.5757H6.39236V9.57575Z" fill="#697583"/>
</svg>
