<svg width="20" height="20" viewBox="0 0 20 20" fill="none" xmlns="http://www.w3.org/2000/svg">
<path d="M11.2553 5.02081H8.11728C7.79368 5.02081 7.53134 5.28316 7.53134 5.60675V10.0416H6.86208C6.53849 10.0416 6.27615 10.304 6.27615 10.6276C6.27615 10.9512 6.53849 11.2135 6.86208 11.2135H7.53134V12.5521H6.86208C6.53849 12.5521 6.27615 12.8144 6.27615 13.138C6.27615 13.4616 6.53849 13.7239 6.86208 13.7239H7.53134V15.0208C7.53134 15.3444 7.79368 15.6068 8.11728 15.6068C8.44087 15.6068 8.70322 15.3444 8.70322 15.0208V13.7239H11.2553C11.5789 13.7239 11.8413 13.4616 11.8413 13.138C11.8413 12.8144 11.5789 12.5521 11.2553 12.5521H8.70322V11.2135H11.2553C12.9627 11.2135 14.3517 9.82448 14.3517 8.11714C14.3517 6.36761 12.9265 5.02081 11.2553 5.02081ZM11.2553 10.0416H8.70322V6.19269H11.2553C12.3101 6.19269 13.1798 7.04347 13.1798 8.11718C13.1798 9.17835 12.3165 10.0416 11.2553 10.0416Z" fill="#697583"/>
<path d="M10.0001 0C4.48607 0 9.15527e-05 4.48598 9.15527e-05 10C9.15527e-05 15.514 4.48607 20 10.0001 20C15.5141 20 20.0001 15.514 20.0001 10C20.0001 4.48598 15.5141 0 10.0001 0ZM10.0001 18.8281C5.13224 18.8281 1.17197 14.8679 1.17197 10C1.17197 5.13215 5.13224 1.17188 10.0001 1.17188C14.8679 1.17188 18.8282 5.13215 18.8282 10C18.8282 14.8679 14.8679 18.8281 10.0001 18.8281Z" fill="#697583"/>
</svg>
