<svg width="20" height="18" viewBox="0 0 20 18" fill="none" xmlns="http://www.w3.org/2000/svg">
<path d="M19.583 0H0.417181C0.18314 0.00425529 -0.00409262 0.199999 0.000162674 0.438295V13.902C0.000162674 14.1361 0.18314 14.3403 0.417181 14.3403H6.59586V16.1701H5.34055C5.10651 16.1701 4.91502 16.3616 4.91502 16.5956C4.91502 16.8297 5.10651 17.0212 5.34055 17.0212H14.6554C14.8894 17.0212 15.0809 16.8297 15.0809 16.5956C15.0809 16.3616 14.8894 16.1701 14.6554 16.1701H13.6171V14.3403H19.583C19.817 14.3403 20 14.1361 20 13.902V0.438295C20.0043 0.199999 19.817 0.00425529 19.583 0ZM12.766 16.1701H7.44692V14.3403H12.766V16.1701ZM19.149 13.4893H0.85122V0.851058H19.149V13.4893Z" fill="#697583"/>
<path d="M18 1.44678H1.95761C1.72357 1.44678 1.53208 1.63827 1.53208 1.87231V12.2978C1.53208 12.5318 1.72357 12.7233 1.95761 12.7233H18C18.2341 12.7233 18.4256 12.5318 18.4256 12.2978V1.87231C18.4256 1.63827 18.2341 1.44678 18 1.44678ZM17.6171 11.8722H2.38314V2.29784H17.6171V11.8722Z" fill="#697583"/>
<path d="M16.383 7.1872C16.332 7.09358 16.2469 7.02124 16.1447 6.98294L10.9618 5.1787C10.7405 5.1021 10.498 5.217 10.4214 5.44253C10.3916 5.53189 10.3916 5.62976 10.4214 5.72338L12.2256 10.9063C12.2809 11.068 12.4256 11.1787 12.5958 11.1914C12.6086 11.1914 12.6171 11.1914 12.6299 11.1914C12.7873 11.1914 12.932 11.1021 13.0043 10.9659L13.6597 9.72335L14.5192 10.5744C14.6852 10.7404 14.9533 10.7404 15.1192 10.5744L15.8171 9.87654C15.983 9.71058 15.983 9.4425 15.8171 9.27654L14.966 8.41697L16.2043 7.76166C16.4128 7.65102 16.4937 7.3957 16.383 7.1872ZM13.8809 8.51059C13.9022 8.54463 13.9277 8.57868 13.9575 8.60846L14.915 9.57441L14.8171 9.67228L13.8511 8.71484C13.6852 8.54889 13.4128 8.54889 13.2511 8.7191C13.2214 8.74889 13.1958 8.78293 13.1788 8.82123L12.7107 9.70633L11.515 6.27231L14.9447 7.46804L14.0596 7.93613C13.8511 8.04676 13.7703 8.30208 13.8809 8.51059Z" fill="#697583"/>
<path d="M10.0639 4.22548C10.0639 4.22548 10.0639 4.22548 10.0597 4.22122L9.44266 3.6042C9.2767 3.43825 9.00862 3.43825 8.84266 3.6042C8.67671 3.77016 8.67671 4.03824 8.84266 4.2042C8.84266 4.2042 8.84266 4.2042 8.84692 4.20845L9.46394 4.82547C9.62989 4.99143 9.89798 4.99143 10.0639 4.82547C10.2299 4.65951 10.2299 4.39143 10.0639 4.22548Z" fill="#697583"/>
<path d="M11.7831 4.2638C11.7831 4.25954 11.7831 4.25954 11.7831 4.25529L11.6044 3.31062C11.5618 3.08083 11.3405 2.92338 11.1107 2.96594C10.881 3.00849 10.7235 3.22976 10.7661 3.45955C10.7661 3.46381 10.7661 3.46381 10.7661 3.46806L10.9448 4.41273C10.9873 4.64252 11.2086 4.79997 11.4384 4.75741C11.6682 4.71486 11.8256 4.49359 11.7831 4.2638Z" fill="#697583"/>
<path d="M9.65544 5.70208L8.71076 5.52336C8.48098 5.48081 8.25545 5.62974 8.2129 5.86378C8.17034 6.09357 8.31928 6.3191 8.55332 6.36165L9.49799 6.54037C9.72778 6.58293 9.95331 6.43399 9.99586 6.19995C10.0384 5.97016 9.88522 5.74889 9.65544 5.70208Z" fill="#697583"/>
</svg>
