<svg width="972" height="913" viewBox="0 0 972 913" fill="none" xmlns="http://www.w3.org/2000/svg">
<path fill-rule="evenodd" clip-rule="evenodd" d="M788.424 826.894C720.026 892.34 602.343 929.768 517.059 888.449C426.237 844.448 458.592 685.579 376.243 627.201C293.478 568.527 155.468 650.054 82.021 580.043C11.497 512.82 -16.1512 383.307 31.1386 298.246C81.1887 208.221 222.981 233.647 307.383 174.685C367.66 132.576 373.314 21.3604 445.742 8.60977C519.21 -4.32386 565.675 93.9468 636.776 116.697C710.751 140.366 800.866 96.3676 863.549 142.295C928.496 189.881 965.059 276.069 964.154 356.565C963.273 434.986 886.273 487.993 858.84 561.416C826.14 648.936 855.89 762.339 788.424 826.894Z" stroke="#009FE3" stroke-opacity="0.5" stroke-width="14"/>
</svg>
