<svg width="779" height="845" viewBox="0 0 779 845" fill="none" xmlns="http://www.w3.org/2000/svg">
<path fill-rule="evenodd" clip-rule="evenodd" d="M467.787 15.2189C543.814 43.9995 528.989 166.703 589.787 220.667C635.79 261.5 731.154 222.904 761.834 276.218C791.635 328.006 741.044 390.876 719.892 446.757C702.966 491.474 665.814 523.771 650.933 569.211C622.066 657.357 681.241 808.286 592.577 835.516C504.509 862.562 489.571 660.131 398.419 646.76C280.511 629.463 173.297 810.987 66.3923 758.328C-21.4092 715.079 3.66991 561.306 42.8392 471.609C79.2274 388.28 212.875 393.41 259.765 315.506C297.842 252.241 225.295 159.302 267.343 98.604C309.404 37.8874 398.709 -10.9307 467.787 15.2189Z" stroke="#009FE3" stroke-opacity="0.5" stroke-width="14"/>
</svg>
