<svg width="852" height="813" viewBox="0 0 852 813" fill="none" xmlns="http://www.w3.org/2000/svg">
<path fill-rule="evenodd" clip-rule="evenodd" d="M453.234 7.36392C525.283 12.3762 575.14 74.51 636.23 112.976C703.115 155.091 792.346 172.317 827.508 243.032C864.133 316.688 833.972 402.466 820.513 483.594C804.4 580.722 817.802 698.234 741.621 760.747C665.225 823.437 548.815 810.3 453.234 784.977C371.417 763.301 324.358 685.198 258.072 632.636C195.754 583.22 116.877 555.228 76.8744 486.539C30.6549 407.175 -16.5231 308.153 20.0502 223.922C56.5811 139.789 168.597 127.213 250.722 86.1573C317.128 52.9593 379.147 2.20992 453.234 7.36392Z" stroke="#009FE3" stroke-opacity="0.5" stroke-width="14"/>
</svg>
