<svg width="938" height="907" viewBox="0 0 938 907" fill="none" xmlns="http://www.w3.org/2000/svg">
<path fill-rule="evenodd" clip-rule="evenodd" d="M434.155 14.7121C526.113 -7.76738 646.744 18.661 699.943 97.0861C756.596 180.603 649.141 302.01 691.269 393.742C733.608 485.937 893.891 484.338 922.494 581.692C949.957 675.172 909.145 801.157 825.66 851.177C737.303 904.116 627.221 811.2 524.645 820.062C451.39 826.391 390.885 919.879 321.785 894.708C251.694 869.175 260.589 760.837 210.389 705.585C158.159 648.099 58.1174 641.145 26.7961 570.029C-5.65641 496.345 5.77349 403.423 46.8047 334.164C86.778 266.69 179.965 259.284 240.435 209.415C312.514 149.97 343.452 36.8849 434.155 14.7121Z" stroke="#009FE3" stroke-opacity="0.5" stroke-width="14"/>
</svg>
