<svg fill="none" height="48" viewBox="0 0 48 48" width="48" xmlns="http://www.w3.org/2000/svg">
<path
d="M24 48C37.2548 48 48 37.2548 48 24C48 10.7452 37.2548 0 24 0C10.7452 0 0 10.7452 0 24C0 37.2548 10.7452 48 24 48Z"
fill="white"
/>
<path
d="M27.5 19.4091C27.5 21.2919 25.933 22.8182 24 22.8182C22.067 22.8182 20.5 21.2919 20.5 19.4091C20.5 17.5263 22.067 16 24 16C25.933 16 27.5 17.5263 27.5 19.4091ZM24 24.1818C28.4183 24.1818 32 27.2344 32 31H16C16 27.2344 19.5817 24.1818 24 24.1818Z"
fill="#434C5D"
/>
</svg>