<svg width="36" height="36" viewBox="0 0 36 36" fill="none" xmlns="http://www.w3.org/2000/svg">
<path fill-rule="evenodd" clip-rule="evenodd" d="M18 36C27.9411 36 36 27.9411 36 18C36 8.05887 27.9411 0 18 0C8.05887 0 0 8.05887 0 18C0 27.9411 8.05887 36 18 36Z" fill="#373B43"/>
<path d="M8.23723 17.4221C13.07 15.3171 16.2918 13.9291 17.9027 13.2586C22.5076 11.3439 23.4632 11.0114 24.0874 11.0001C24.2247 10.9979 24.5303 11.0318 24.7297 11.193C24.8954 11.329 24.9421 11.5129 24.9654 11.642C24.9861 11.771 25.0146 12.0649 24.9913 12.2944C24.7426 14.9154 23.6627 21.2756 23.1136 24.2113C22.8831 25.4534 22.4247 25.8699 21.9818 25.9105C21.0184 25.9991 20.288 25.2744 19.3557 24.6635C17.8975 23.707 17.074 23.1119 15.6573 22.1787C14.0205 21.1003 15.0823 20.5075 16.0147 19.5389C16.2581 19.2853 20.5004 15.4277 20.5807 15.0778C20.591 15.034 20.6014 14.8708 20.503 14.7848C20.4072 14.6986 20.2647 14.7281 20.1611 14.7514C20.0135 14.7846 17.6852 16.3251 13.1684 19.3726C12.508 19.8269 11.9097 20.0483 11.371 20.0366C10.7805 20.0239 9.64095 19.702 8.79405 19.427C7.7581 19.0895 6.93192 18.9111 7.00443 18.3379C7.04069 18.0396 7.45249 17.7342 8.23723 17.4221V17.4221Z" fill="white"/>
</svg>
